<svg width="244" height="159" viewBox="0 0 244 159" fill="none" xmlns="http://www.w3.org/2000/svg">
<rect x="0.25" y="0.25" width="243.5" height="158.5" rx="0.75" fill="white" stroke="#D960F8" stroke-width="0.5"/>
<path d="M5.71995 107.301C3.73232 105.283 -1.78814e-06 106.691 -1.78814e-06 109.523V156C-1.78814e-06 157.657 1.34314 159 2.99999 159L240.187 159C242.13 159 243.563 157.167 242.762 155.398C236.122 140.728 212.584 135.241 190.026 142.991C165.707 151.346 134.136 108.611 110.183 131.706C86.2304 154.801 76.9686 98.9004 54.9319 120.421C38.5296 136.439 16.1114 117.852 5.71995 107.301Z" fill="#C067F8" fill-opacity="0.906879"/>
<path d="M101.579 83.749L102.525 84.5469C101.956 85.9694 101.202 87.1383 100.262 88.0537C99.3216 88.9691 98.3815 89.4268 97.4414 89.4268C96.5013 89.4268 95.8271 89.1237 95.4189 88.5176C95.0231 87.9115 94.8252 87.1445 94.8252 86.2168C94.8252 85.2891 95.1097 83.7985 95.6787 81.7451C96.2601 79.6917 96.891 77.7188 97.5713 75.8262C99.4144 70.7793 100.336 67.5384 100.336 66.1035C100.336 65.2747 100.07 64.8604 99.5381 64.8604C97.4229 64.8604 94.7881 68.2682 91.6338 75.084C90.3597 77.8301 89.3577 80.137 88.6279 82.0049C87.1188 85.9137 86.2158 88.2454 85.9189 89H81.7812L83.4883 84.5469C85.5169 79.3887 87.0075 74.5954 87.96 70.167C88.3311 68.4847 88.5166 67.1364 88.5166 66.1221C88.5166 64.5758 88.1084 63.8027 87.292 63.8027C86.4756 63.8027 85.554 64.4274 84.5273 65.6768C83.5007 66.9137 82.5173 68.4661 81.5771 70.334C80.637 72.2018 79.6969 74.2243 78.7568 76.4014C77.8167 78.5785 77.0003 80.6009 76.3076 82.4688C74.7119 86.8229 73.8893 89 73.8398 89H70.2031L72.2812 83.1924C74.1367 78.4053 75.2686 74.6387 75.6768 71.8926C75.8747 70.6185 75.9736 69.3197 75.9736 67.9961C75.9736 66.6725 75.6335 65.5654 74.9531 64.6748C74.2728 63.7718 73.3389 63.3203 72.1514 63.3203C70.9639 63.3203 69.9372 63.5739 69.0713 64.0811C68.2178 64.5758 67.5127 65.2067 66.9561 65.9736C66.3994 66.7406 65.9294 67.6003 65.5459 68.5527C64.8161 70.3216 64.4512 72.0472 64.4512 73.7295C64.4512 77.3291 65.2738 80.4958 66.9189 83.2295L66.1211 83.8232C65.2305 82.4007 64.5501 80.805 64.0801 79.0361C63.6224 77.2549 63.3936 75.7025 63.3936 74.3789C63.3936 73.0553 63.4925 71.8864 63.6904 70.8721C63.8883 69.8454 64.2161 68.8125 64.6738 67.7734C65.1315 66.7344 65.6943 65.8128 66.3623 65.0088C67.0426 64.1924 67.9085 63.5306 68.96 63.0234C70.0238 62.5039 71.137 62.2441 72.2998 62.2441C73.4626 62.2441 74.4398 62.4668 75.2314 62.9121C76.0355 63.3574 76.6663 63.9574 77.124 64.7119C78.027 66.1963 78.4785 67.9961 78.4785 70.1113C78.4785 72.2266 77.8167 75.3066 76.4932 79.3516C76.9508 78.1393 77.2848 77.292 77.4951 76.8096C77.7178 76.3271 77.9775 75.7334 78.2744 75.0283C78.5837 74.3232 78.8249 73.7728 78.998 73.377C79.1712 72.9688 79.4372 72.3812 79.7959 71.6143C80.1546 70.835 80.4639 70.1979 80.7236 69.7031C80.9958 69.196 81.3359 68.5837 81.7441 67.8662C82.1647 67.1364 82.5482 66.5365 82.8945 66.0664C83.2409 65.5964 83.6367 65.1016 84.082 64.582C84.5397 64.0501 84.9788 63.6296 85.3994 63.3203C86.3519 62.6029 87.2734 62.2441 88.1641 62.2441C90.2669 62.2441 91.3184 63.6543 91.3184 66.4746C91.3184 68.2559 90.9658 70.4639 90.2607 73.0986C90.0257 73.9769 89.6979 75.1149 89.2773 76.5127C88.8691 77.8981 88.6403 78.6898 88.5908 78.8877C89.1351 77.8857 89.8464 76.321 90.7246 74.1934C91.6029 72.0658 92.376 70.3896 93.0439 69.165C93.7119 67.9404 94.3799 66.8952 95.0479 66.0293C95.7158 65.1634 96.5137 64.4398 97.4414 63.8584C98.3815 63.277 99.3092 62.9863 100.225 62.9863C101.152 62.9863 101.882 63.2832 102.414 63.877C102.958 64.4707 103.23 65.2624 103.23 66.252C103.23 67.2415 103.057 68.4476 102.711 69.8701C102.365 71.2803 101.938 72.6842 101.431 74.082C100.924 75.4798 100.416 76.8714 99.9092 78.2568C98.6598 81.609 97.9919 84.2129 97.9053 86.0684C97.9053 86.86 98.1094 87.2559 98.5176 87.2559C98.9382 87.2559 99.4329 86.8971 100.002 86.1797C100.571 85.4622 101.097 84.652 101.579 83.749ZM104.418 82.5801L103.212 81.8564C103.83 80.7803 104.597 79.834 105.513 79.0176C106.44 78.2012 107.269 77.793 107.999 77.793C109.187 77.793 109.78 78.3249 109.78 79.3887C109.78 79.834 109.471 80.9163 108.853 82.6357C108.246 84.3551 107.943 85.4437 107.943 85.9014C107.943 86.359 107.974 86.6559 108.036 86.792C108.098 86.9157 108.234 86.9775 108.444 86.9775C109.57 86.9775 110.727 86.557 111.914 85.7158C113.114 84.8623 113.893 83.9222 114.252 82.8955L115.551 79.1104C115.687 78.7269 115.897 78.4238 116.182 78.2012C116.466 77.9785 116.738 77.8672 116.998 77.8672C117.27 77.8672 117.487 77.9538 117.647 78.127C117.821 78.3001 117.907 78.529 117.907 78.8135C117.907 79.098 117.852 79.3949 117.74 79.7041L116.33 83.8232C115.551 86.2477 114.345 88.6351 112.712 90.9854C114.134 91.1338 115.402 91.3874 116.516 91.7461L116.367 92.7852C114.66 92.4388 113.151 92.2347 111.84 92.1729C110.64 93.7191 109.409 94.9499 108.147 95.8652C106.898 96.793 105.803 97.2568 104.863 97.2568C103.936 97.2568 103.243 97.0651 102.785 96.6816C102.315 96.3105 102.08 95.7972 102.08 95.1416C102.08 94.486 102.327 93.8861 102.822 93.3418C103.317 92.8099 103.979 92.377 104.808 92.043C106.49 91.3503 108.42 90.9544 110.597 90.8555C110.77 90.6576 111.184 89.9648 111.84 88.7773C112.495 87.5775 112.848 86.8229 112.897 86.5137C110.708 88.3691 108.778 89.2969 107.108 89.2969C106.428 89.2969 105.933 89.068 105.624 88.6104C105.315 88.1403 105.16 87.5651 105.16 86.8848C105.16 86.2044 105.414 85.0417 105.921 83.3965C106.44 81.7389 106.7 80.7988 106.7 80.5762C106.7 80.3411 106.645 80.2236 106.533 80.2236C106.434 80.2236 106.323 80.2546 106.199 80.3164C106.076 80.3659 105.952 80.4525 105.828 80.5762C105.717 80.6875 105.612 80.7988 105.513 80.9102C105.414 81.0091 105.302 81.1514 105.179 81.3369C105.067 81.5225 104.981 81.6647 104.919 81.7637C104.659 82.1719 104.492 82.444 104.418 82.5801ZM109.78 92.1729C108.778 92.2347 107.758 92.4141 106.719 92.7109C104.715 93.2799 103.713 93.9479 103.713 94.7148C103.713 95.1725 103.997 95.4014 104.566 95.4014C105.135 95.4014 106.063 94.987 107.35 94.1582C108.636 93.3418 109.446 92.68 109.78 92.1729ZM131.174 85.4375C130.617 86.5508 129.826 87.4723 128.799 88.2021C127.785 88.932 126.616 89.2969 125.292 89.2969C123.968 89.2969 122.911 88.7897 122.119 87.7754C121.538 90.0638 121.043 91.6966 120.635 92.6738C119.348 95.7044 117.586 97.2259 115.347 97.2383C114.802 97.2383 114.345 97.0527 113.974 96.6816C113.603 96.3105 113.417 95.8776 113.417 95.3828C113.417 94.9004 113.541 94.5169 113.788 94.2324C114.035 93.9603 114.363 93.8242 114.771 93.8242C115.18 93.8242 115.52 93.917 115.792 94.1025C116.064 94.3005 116.2 94.5973 116.2 94.9932C116.2 95.4014 115.984 95.8343 115.551 96.292L115.662 96.4404C116.429 96.4404 117.128 95.321 117.759 93.082C118.006 92.179 118.186 91.474 118.297 90.9668C118.408 90.4596 118.476 90.1566 118.501 90.0576L120.449 82.3945C119.843 82.7904 119.07 83.5573 118.13 84.6953L117.406 83.8604C117.951 83.1058 118.594 82.3698 119.336 81.6523C120.078 80.9349 120.548 80.4772 120.746 80.2793C121.711 77.4219 122.645 75.2819 123.548 73.8594C124.488 72.4245 125.527 71.2926 126.665 70.4639L127.166 70.9092C126.387 71.8369 125.725 73.0182 125.181 74.4531C124.636 75.888 124.284 77.2673 124.123 78.5908C125.447 78.0589 126.702 77.793 127.89 77.793C129.09 77.793 130.079 78.1702 130.858 78.9248C131.638 79.6794 132.027 80.6751 132.027 81.9121C132.027 83.1491 131.743 84.3242 131.174 85.4375ZM123.938 80.2607L122.527 86.4951C122.75 86.9775 123.121 87.3424 123.641 87.5898C124.16 87.8372 124.76 87.9609 125.44 87.9609C126.121 87.9609 126.745 87.6702 127.314 87.0889C128.378 86.0003 128.91 84.584 128.91 82.8398C128.91 81.2812 128.49 80.2298 127.648 79.6855C127.314 79.4629 126.869 79.3516 126.312 79.3516C125.768 79.3516 124.977 79.6546 123.938 80.2607ZM143.791 78.2012H146.686L145.22 83.749C144.985 84.5283 144.867 85.2396 144.867 85.8828C144.867 86.5137 144.979 86.8291 145.201 86.8291C145.424 86.8291 145.727 86.6374 146.11 86.2539C146.506 85.8581 146.84 85.4622 147.112 85.0664L147.539 84.4727L148.337 85.2148C147.929 86.0065 147.409 86.7301 146.778 87.3857C145.554 88.6598 144.49 89.2969 143.587 89.2969C142.523 89.2969 141.991 88.4743 141.991 86.8291C141.991 86.557 142.004 86.3529 142.028 86.2168C141.843 86.8477 141.49 87.4043 140.971 87.8867C139.981 88.8268 138.862 89.2969 137.612 89.2969C136.375 89.2969 135.38 88.8763 134.625 88.0352C133.883 87.1816 133.512 86.1178 133.512 84.8438C133.512 82.8646 134.155 81.1947 135.441 79.834C136.728 78.4733 138.237 77.793 139.969 77.793C140.835 77.793 141.552 78.0342 142.121 78.5166C142.69 78.9867 143.061 79.6051 143.234 80.3721L143.791 78.2012ZM140.692 79.3887C139.975 79.3887 139.301 79.6917 138.67 80.2979C138.051 80.8916 137.575 81.6152 137.241 82.4688C136.907 83.3099 136.74 84.1325 136.74 84.9365C136.74 85.7406 136.913 86.39 137.26 86.8848C137.618 87.3796 138.163 87.627 138.893 87.627C139.635 87.627 140.303 87.293 140.896 86.625C142.022 85.3385 142.585 83.8109 142.585 82.042C142.585 80.2731 141.954 79.3887 140.692 79.3887ZM151.064 88.8701C150.26 88.5856 149.685 88.2516 149.339 87.8682C148.993 87.4723 148.819 87.0394 148.819 86.5693C148.819 86.0993 148.949 85.7096 149.209 85.4004C149.469 85.0911 149.809 84.9365 150.229 84.9365C150.662 84.9365 151.04 85.0664 151.361 85.3262C151.695 85.5736 151.862 85.9323 151.862 86.4023C151.862 86.86 151.578 87.2435 151.009 87.5527C151.479 87.9609 152.196 88.165 153.161 88.165C155.252 88.165 156.297 87.5713 156.297 86.3838C156.297 85.6416 155.635 85.0479 154.312 84.6025C153.767 84.417 153.217 84.2191 152.66 84.0088C152.116 83.7985 151.64 83.4893 151.231 83.0811C150.823 82.6729 150.601 82.1781 150.563 81.5967C150.563 80.7555 150.842 80.0443 151.398 79.4629C152.45 78.3496 154.021 77.793 156.111 77.793C157.138 77.793 158.047 77.9909 158.839 78.3867C159.631 78.7702 160.026 79.2712 160.026 79.8896C160.026 80.5081 159.866 80.9535 159.544 81.2256C159.235 81.4977 158.87 81.6338 158.449 81.6338C158.029 81.6338 157.67 81.5225 157.373 81.2998C157.089 81.0648 156.946 80.7432 156.946 80.335C156.946 79.9268 157.188 79.5742 157.67 79.2773C157.373 79.0671 156.86 78.9619 156.13 78.9619C155.4 78.9619 154.744 79.0732 154.163 79.2959C153.582 79.5062 153.291 79.7969 153.291 80.168C153.291 80.5391 153.501 80.8483 153.922 81.0957C154.355 81.3431 154.874 81.5719 155.48 81.7822C156.087 81.9925 156.693 82.2337 157.299 82.5059C157.905 82.778 158.418 83.1676 158.839 83.6748C159.272 84.182 159.488 84.8066 159.488 85.5488C159.488 86.291 159.185 86.9652 158.579 87.5713C157.429 88.7217 155.858 89.2969 153.866 89.2969C152.815 89.2969 151.881 89.1546 151.064 88.8701ZM163.273 88.8701C162.469 88.5856 161.894 88.2516 161.548 87.8682C161.201 87.4723 161.028 87.0394 161.028 86.5693C161.028 86.0993 161.158 85.7096 161.418 85.4004C161.678 85.0911 162.018 84.9365 162.438 84.9365C162.871 84.9365 163.249 85.0664 163.57 85.3262C163.904 85.5736 164.071 85.9323 164.071 86.4023C164.071 86.86 163.787 87.2435 163.218 87.5527C163.688 87.9609 164.405 88.165 165.37 88.165C167.461 88.165 168.506 87.5713 168.506 86.3838C168.506 85.6416 167.844 85.0479 166.521 84.6025C165.976 84.417 165.426 84.2191 164.869 84.0088C164.325 83.7985 163.849 83.4893 163.44 83.0811C163.032 82.6729 162.81 82.1781 162.772 81.5967C162.772 80.7555 163.051 80.0443 163.607 79.4629C164.659 78.3496 166.23 77.793 168.32 77.793C169.347 77.793 170.256 77.9909 171.048 78.3867C171.84 78.7702 172.235 79.2712 172.235 79.8896C172.235 80.5081 172.075 80.9535 171.753 81.2256C171.444 81.4977 171.079 81.6338 170.658 81.6338C170.238 81.6338 169.879 81.5225 169.582 81.2998C169.298 81.0648 169.155 80.7432 169.155 80.335C169.155 79.9268 169.396 79.5742 169.879 79.2773C169.582 79.0671 169.069 78.9619 168.339 78.9619C167.609 78.9619 166.953 79.0732 166.372 79.2959C165.791 79.5062 165.5 79.7969 165.5 80.168C165.5 80.5391 165.71 80.8483 166.131 81.0957C166.564 81.3431 167.083 81.5719 167.689 81.7822C168.296 81.9925 168.902 82.2337 169.508 82.5059C170.114 82.778 170.627 83.1676 171.048 83.6748C171.481 84.182 171.697 84.8066 171.697 85.5488C171.697 86.291 171.394 86.9652 170.788 87.5713C169.638 88.7217 168.067 89.2969 166.075 89.2969C165.024 89.2969 164.09 89.1546 163.273 88.8701Z" fill="black" fill-opacity="0.78"/>
<path d="M243.596 1.96022C243.724 8.26376 244.402 43.7215 243.654 51.9359C243.615 52.37 243.293 52.7054 242.86 52.7581C238.645 53.2712 216.763 54.8057 202.881 33.7824C187.467 10.4374 159.104 42.2264 130.741 24.3451C113.061 13.1987 92.2666 6.87742 79.1103 3.69689C77.9074 3.4061 78.1535 1 79.391 1H242.597C243.141 1 243.585 1.41641 243.596 1.96022Z" fill="#C067F8"/>
</svg>
