<svg width="407" height="538" viewBox="0 0 407 538" fill="none" xmlns="http://www.w3.org/2000/svg">
<rect x="1.5" y="1.5" width="404" height="535" fill="white" stroke="#FFB648" stroke-width="3"/>
<path d="M0 0V92C0 92 14.4821 67.3464 25.9679 67.3464C37.4538 67.3464 76.9051 80.5752 78.9026 57.7255C80.9001 34.8758 171.788 35.4771 184.273 49.3072C196.757 63.1373 270.666 66.7451 287.146 49.3072C310.617 27.6601 380.775 45.6993 389.02 29.4641C397.265 13.2288 405 0 405 0H0Z" fill="url(#paint0_linear)"/>
<path d="M405 538V446C405 446 390.518 470.654 379.032 470.654C367.546 470.654 328.095 457.425 326.097 480.275C324.1 503.124 233.212 502.523 220.727 488.693C208.243 474.863 134.334 471.255 117.854 488.693C94.3835 510.34 24.2252 492.301 15.9803 508.536C7.73532 524.771 -1.75834e-06 538 -1.75834e-06 538H405Z" fill="url(#paint1_linear)"/>
<path d="M56.1406 156.75C54.8177 156.75 53.4062 156.88 51.9062 157.141C50.4167 157.391 49.1615 157.672 48.1406 157.984C47.1198 158.297 46.1927 158.583 45.3594 158.844C44.526 159.094 44.026 159.219 43.8594 159.219C43.2865 159.219 43 159.021 43 158.625C43 158.219 43.3125 157.807 43.9375 157.391C45.9479 156.047 48.224 155.042 50.7656 154.375C53.3177 153.708 55.7552 153.375 58.0781 153.375C60.4115 153.375 62.3177 153.568 63.7969 153.953C65.2865 154.339 66.5156 154.865 67.4844 155.531C68.4531 156.198 69.25 157.01 69.875 157.969C71.0417 159.75 71.625 161.974 71.625 164.641C71.625 167.453 70.8542 170.042 69.3125 172.406C67.6146 175 65.3698 176.802 62.5781 177.812C61.0573 178.354 59.4271 178.625 57.6875 178.625C54.9167 178.625 52.75 178.188 51.1875 177.312C50.75 177.74 50.2188 178.01 49.5938 178.125C48.9688 178.25 48.1042 178.312 47 178.312C45.8958 178.312 44.8385 178.224 43.8281 178.047C42.8281 177.87 41.9531 177.646 41.2031 177.375C40.4531 177.094 39.8385 176.786 39.3594 176.453C38.8802 176.109 38.6406 175.802 38.6406 175.531C38.6406 175.26 38.75 175.052 38.9688 174.906C39.1771 174.75 39.4167 174.672 39.6875 174.672C40.625 174.672 41.3125 174.526 41.75 174.234C42.1979 173.932 42.651 173.37 43.1094 172.547C43.5781 171.724 44.0104 170.786 44.4062 169.734C44.8021 168.682 45.1719 167.672 45.5156 166.703C45.8698 165.734 46.2708 164.755 46.7188 163.766C47.6875 161.589 48.901 160.156 50.3594 159.469C51.0781 159.135 51.9948 158.88 53.1094 158.703C54.224 158.516 55.3438 158.422 56.4688 158.422C57.5938 158.422 58.1562 158.682 58.1562 159.203C58.1562 159.599 57.9167 160.172 57.4375 160.922C56.9688 161.672 56.4635 162.833 55.9219 164.406C55.3802 165.979 54.776 167.854 54.1094 170.031C53.4531 172.208 52.9427 173.802 52.5781 174.812L52.3125 175.5C52.6354 175.531 53.1406 175.547 53.8281 175.547C54.5156 175.547 55.2812 175.401 56.125 175.109C56.9792 174.818 57.7188 174.422 58.3438 173.922C58.9688 173.411 59.5312 172.812 60.0312 172.125C60.5417 171.438 60.9583 170.708 61.2812 169.938C61.6146 169.156 61.8906 168.333 62.1094 167.469C62.5156 165.875 62.7188 164.167 62.7188 162.344C62.7188 158.615 60.526 156.75 56.1406 156.75ZM73.6875 176.781C73.4271 176.656 73.2969 176.396 73.2969 176C73.2969 175.604 73.6146 174.76 74.25 173.469C74.8854 172.167 75.3854 171.516 75.75 171.516C75.9583 171.516 76.2812 171.661 76.7188 171.953C77.1562 172.234 77.6615 172.578 78.2344 172.984C78.8177 173.391 79.4479 173.792 80.125 174.188C81.7708 175.167 83.3698 175.656 84.9219 175.656C85.6927 175.656 86.2448 175.5 86.5781 175.188C86.9115 174.875 87.0781 174.562 87.0781 174.25C87.0781 173.927 86.901 173.568 86.5469 173.172C86.1927 172.766 85.7292 172.349 85.1562 171.922C84.5938 171.495 83.9688 171.047 83.2812 170.578C82.5938 170.099 81.9062 169.594 81.2188 169.062C80.5312 168.531 79.9062 168 79.3438 167.469C78.0625 166.26 77.4219 165.083 77.4219 163.938C77.4219 163.125 77.6354 162.391 78.0625 161.734C78.5 161.078 79.0521 160.547 79.7188 160.141C80.3958 159.734 81.1615 159.396 82.0156 159.125C83.5469 158.625 85.125 158.375 86.75 158.375C87.1979 158.375 87.5312 158.443 87.75 158.578C87.9688 158.714 88.0781 158.87 88.0781 159.047C88.0781 159.224 88 159.495 87.8438 159.859C87.6875 160.214 87.6094 160.531 87.6094 160.812C87.6094 161.094 87.7969 161.453 88.1719 161.891C88.5573 162.328 89.0521 162.776 89.6562 163.234C90.2604 163.693 90.9271 164.182 91.6562 164.703C92.3854 165.224 93.1146 165.776 93.8438 166.359C94.5729 166.943 95.2396 167.536 95.8438 168.141C97.2083 169.505 97.8906 170.828 97.8906 172.109C97.8906 173.38 97.5573 174.443 96.8906 175.297C96.2344 176.151 95.3177 176.812 94.1406 177.281C92.9635 177.75 91.6719 178.089 90.2656 178.297C88.8594 178.516 87.1458 178.625 85.125 178.625C83.1042 178.625 80.875 178.417 78.4375 178C76.0104 177.573 74.4271 177.167 73.6875 176.781ZM99.5625 161.484C98.1979 159.859 96.5052 158.651 94.4844 157.859C92.474 157.057 90.375 156.656 88.1875 156.656C84.1771 156.656 80.3125 157.411 76.5938 158.922C76.0938 159.12 75.7396 159.219 75.5312 159.219C75.1146 159.219 74.9062 159.021 74.9062 158.625C74.9062 158.302 75.1823 157.917 75.7344 157.469C76.2969 157.021 77.099 156.562 78.1406 156.094C79.1927 155.615 80.3802 155.172 81.7031 154.766C84.724 153.839 87.9635 153.375 91.4219 153.375C96.5365 153.375 100.396 154.094 103 155.531C103.146 155.615 103.208 155.865 103.188 156.281C103.177 156.688 102.99 157.318 102.625 158.172C102.26 159.026 101.818 159.818 101.297 160.547C100.786 161.276 100.349 161.641 99.9844 161.641C99.8906 161.536 99.75 161.484 99.5625 161.484ZM119.672 178.625C116.203 178.625 114.469 177.474 114.469 175.172C114.469 173.859 115.297 171.24 116.953 167.312C118.609 163.375 119.438 160.646 119.438 159.125C119.438 158.271 119.12 157.667 118.484 157.312C117.859 156.948 116.948 156.766 115.75 156.766C114.562 156.766 113.354 156.87 112.125 157.078C110.896 157.286 110.104 157.391 109.75 157.391C109.406 157.391 109.234 157.234 109.234 156.922C109.234 156.516 109.969 155.979 111.438 155.312C114.26 154.021 117.37 153.375 120.766 153.375C123.453 153.375 125.464 153.859 126.797 154.828C128.141 155.797 128.812 157.37 128.812 159.547C128.812 160.839 128.583 162.458 128.125 164.406C127.667 166.344 127.208 168.167 126.75 169.875C126.302 171.583 126.078 172.755 126.078 173.391C126.078 174.026 126.198 174.469 126.438 174.719C126.74 175.031 127.323 175.188 128.188 175.188C128.719 175.188 129.016 175.245 129.078 175.359C129.151 175.474 129.188 175.594 129.188 175.719C129.188 176.198 128.969 176.589 128.531 176.891C126.875 178.047 123.922 178.625 119.672 178.625ZM110.578 167.312L114.578 167.219C115.307 167.219 115.672 167.432 115.672 167.859C115.672 168.161 115.5 168.401 115.156 168.578C113.948 169.193 111.865 169.583 108.906 169.75C108.062 171.417 107.641 172.88 107.641 174.141C107.641 174.703 107.714 175.224 107.859 175.703C108.005 176.172 108.078 176.51 108.078 176.719C108.078 177.271 107.729 177.646 107.031 177.844C106.333 178.031 105.307 178.125 103.953 178.125C102.609 178.125 101.724 178.005 101.297 177.766C100.87 177.516 100.656 177.078 100.656 176.453C100.656 175.286 100.995 174 101.672 172.594C102.359 171.188 103.234 169.844 104.297 168.562C105.359 167.271 106.536 166.005 107.828 164.766C109.12 163.526 110.375 162.458 111.594 161.562C114.302 159.552 116.146 158.547 117.125 158.547C117.573 158.547 117.797 158.682 117.797 158.953C117.797 159.224 117.578 159.526 117.141 159.859C116.214 160.536 115.104 161.568 113.812 162.953C112.521 164.339 111.37 165.792 110.359 167.312H110.578ZM157.406 154.328L164.328 154.156C164.682 154.156 164.859 154.255 164.859 154.453C164.859 155.401 164.49 156.823 163.75 158.719C163.01 160.615 162.109 162.411 161.047 164.109C159.984 165.797 158.833 167.359 157.594 168.797C156.354 170.224 155.021 171.562 153.594 172.812C152.177 174.052 150.781 175.104 149.406 175.969C146.448 177.844 143.901 178.781 141.766 178.781C140.495 178.781 139.281 178.229 138.125 177.125C136.969 176.021 136.042 174.578 135.344 172.797C134.656 171.005 134.312 169.151 134.312 167.234C134.312 165.672 134.667 163.964 135.375 162.109C135.615 161.464 135.844 160.891 136.062 160.391C136.281 159.891 136.391 159.552 136.391 159.375C136.391 159.188 136.328 159.026 136.203 158.891C136.078 158.755 135.875 158.641 135.594 158.547C135.219 158.411 134.776 158.307 134.266 158.234C133.391 158.089 132.953 157.776 132.953 157.297C132.953 156.87 133.464 156.401 134.484 155.891C135.516 155.38 136.927 154.938 138.719 154.562C140.521 154.177 142.229 153.984 143.844 153.984C145.458 153.984 146.635 154.089 147.375 154.297C148.125 154.495 148.5 154.87 148.5 155.422C148.5 155.661 148.417 155.927 148.25 156.219C146.323 159.479 145.01 162.156 144.312 164.25C143.625 166.344 143.281 168.609 143.281 171.047C143.281 171.859 143.396 172.672 143.625 173.484C143.854 174.297 144.146 174.703 144.5 174.703C144.969 174.703 145.609 174.333 146.422 173.594C147.245 172.844 148.135 171.812 149.094 170.5C150.052 169.177 150.995 167.719 151.922 166.125C152.859 164.521 153.724 162.76 154.516 160.844C155.307 158.927 155.901 157.104 156.297 155.375C156.339 155.208 156.375 155.073 156.406 154.969C156.448 154.865 156.552 154.745 156.719 154.609C156.896 154.464 157.125 154.37 157.406 154.328ZM169.906 168.719C167.375 167.156 166.109 165.135 166.109 162.656C166.109 161.552 166.385 160.521 166.938 159.562C167.49 158.604 168.219 157.792 169.125 157.125C170.031 156.458 171.062 155.885 172.219 155.406C174.5 154.469 176.906 154 179.438 154C181.01 154 182.083 154.333 182.656 155C183.156 155.594 183.406 156.37 183.406 157.328C183.406 158.276 183.177 159.516 182.719 161.047C182.271 162.568 181.557 164.693 180.578 167.422C179.609 170.141 178.875 172.281 178.375 173.844C177.875 175.396 177.094 176.531 176.031 177.25C174.969 177.958 173.484 178.312 171.578 178.312C169.682 178.312 167.901 178.078 166.234 177.609C164.578 177.13 163.75 176.583 163.75 175.969C163.75 175.5 164.099 175.229 164.797 175.156C165.828 175.031 166.573 174.802 167.031 174.469C167.5 174.135 167.938 173.542 168.344 172.688C168.75 171.833 169.271 170.51 169.906 168.719ZM172.75 158.922C172.75 158.672 172.672 158.469 172.516 158.312C172.37 158.156 172.182 158.078 171.953 158.078C171.724 158.078 171.479 158.167 171.219 158.344C170.958 158.51 170.688 158.771 170.406 159.125C169.708 159.969 169.359 161.135 169.359 162.625C169.359 164.115 169.76 165.505 170.562 166.797C172.021 162.464 172.75 159.839 172.75 158.922ZM185.812 176.781C185.552 176.656 185.422 176.396 185.422 176C185.422 175.604 185.74 174.76 186.375 173.469C187.01 172.167 187.51 171.516 187.875 171.516C188.083 171.516 188.406 171.661 188.844 171.953C189.281 172.234 189.786 172.578 190.359 172.984C190.943 173.391 191.573 173.792 192.25 174.188C193.896 175.167 195.495 175.656 197.047 175.656C197.818 175.656 198.37 175.5 198.703 175.188C199.036 174.875 199.203 174.562 199.203 174.25C199.203 173.927 199.026 173.568 198.672 173.172C198.318 172.766 197.854 172.349 197.281 171.922C196.719 171.495 196.094 171.047 195.406 170.578C194.719 170.099 194.031 169.594 193.344 169.062C192.656 168.531 192.031 168 191.469 167.469C190.188 166.26 189.547 165.083 189.547 163.938C189.547 163.125 189.76 162.391 190.188 161.734C190.625 161.078 191.177 160.547 191.844 160.141C192.521 159.734 193.286 159.396 194.141 159.125C195.672 158.625 197.25 158.375 198.875 158.375C199.323 158.375 199.656 158.443 199.875 158.578C200.094 158.714 200.203 158.87 200.203 159.047C200.203 159.224 200.125 159.495 199.969 159.859C199.812 160.214 199.734 160.531 199.734 160.812C199.734 161.094 199.922 161.453 200.297 161.891C200.682 162.328 201.177 162.776 201.781 163.234C202.385 163.693 203.052 164.182 203.781 164.703C204.51 165.224 205.24 165.776 205.969 166.359C206.698 166.943 207.365 167.536 207.969 168.141C209.333 169.505 210.016 170.828 210.016 172.109C210.016 173.38 209.682 174.443 209.016 175.297C208.359 176.151 207.443 176.812 206.266 177.281C205.089 177.75 203.797 178.089 202.391 178.297C200.984 178.516 199.271 178.625 197.25 178.625C195.229 178.625 193 178.417 190.562 178C188.135 177.573 186.552 177.167 185.812 176.781ZM211.688 161.484C210.323 159.859 208.63 158.651 206.609 157.859C204.599 157.057 202.5 156.656 200.312 156.656C196.302 156.656 192.438 157.411 188.719 158.922C188.219 159.12 187.865 159.219 187.656 159.219C187.24 159.219 187.031 159.021 187.031 158.625C187.031 158.302 187.307 157.917 187.859 157.469C188.422 157.021 189.224 156.562 190.266 156.094C191.318 155.615 192.505 155.172 193.828 154.766C196.849 153.839 200.089 153.375 203.547 153.375C208.661 153.375 212.521 154.094 215.125 155.531C215.271 155.615 215.333 155.865 215.312 156.281C215.302 156.688 215.115 157.318 214.75 158.172C214.385 159.026 213.943 159.818 213.422 160.547C212.911 161.276 212.474 161.641 212.109 161.641C212.016 161.536 211.875 161.484 211.688 161.484ZM239.906 154.141L244.812 154.203C245.396 154.203 245.922 154.375 246.391 154.719C246.859 155.052 247.094 155.479 247.094 156C247.094 156.521 246.964 157.083 246.703 157.688C245.391 160.656 244.255 163.578 243.297 166.453C242.339 169.328 241.859 171.38 241.859 172.609C241.859 173.12 241.979 173.536 242.219 173.859C242.458 174.172 242.75 174.391 243.094 174.516C243.448 174.63 243.797 174.729 244.141 174.812C244.964 174.99 245.375 175.255 245.375 175.609C245.375 176.161 244.786 176.682 243.609 177.172C242.432 177.661 241.13 178.026 239.703 178.266C238.276 178.505 237.031 178.625 235.969 178.625C233.01 178.625 231.531 177.422 231.531 175.016C231.531 174.807 231.536 174.646 231.547 174.531C230.536 175.656 229.219 176.62 227.594 177.422C225.969 178.224 224.401 178.625 222.891 178.625C219.755 178.625 217.802 177.484 217.031 175.203C216.802 174.526 216.688 173.698 216.688 172.719C216.688 171.729 216.885 170.562 217.281 169.219C217.688 167.875 218.13 166.698 218.609 165.688C219.099 164.677 219.635 163.583 220.219 162.406C221.062 160.719 221.484 159.703 221.484 159.359C221.484 158.672 220.849 158.224 219.578 158.016C219.245 157.964 218.984 157.859 218.797 157.703C218.609 157.536 218.516 157.328 218.516 157.078C218.516 156.828 218.672 156.557 218.984 156.266C219.307 155.974 219.786 155.698 220.422 155.438C221.057 155.167 221.802 154.927 222.656 154.719C224.552 154.24 226.781 154 229.344 154C231.25 154 232.203 154.583 232.203 155.75C232.203 155.958 231.891 156.724 231.266 158.047C230.641 159.359 229.953 160.797 229.203 162.359C228.464 163.922 227.781 165.625 227.156 167.469C226.531 169.312 226.219 170.698 226.219 171.625C226.219 172.542 226.396 173.135 226.75 173.406C227.115 173.677 227.536 173.812 228.016 173.812C228.495 173.812 228.875 173.797 229.156 173.766C229.438 173.724 229.714 173.667 229.984 173.594C230.266 173.521 230.49 173.458 230.656 173.406C230.833 173.354 231.052 173.281 231.312 173.188C231.583 173.094 231.734 173.042 231.766 173.031C232.234 170.76 233.349 167.531 235.109 163.344C236.766 159.385 237.594 156.901 237.594 155.891C237.594 154.724 238.365 154.141 239.906 154.141ZM266.547 178.625C263.078 178.625 261.344 177.474 261.344 175.172C261.344 173.859 262.172 171.24 263.828 167.312C265.484 163.375 266.312 160.646 266.312 159.125C266.312 158.271 265.995 157.667 265.359 157.312C264.734 156.948 263.823 156.766 262.625 156.766C261.438 156.766 260.229 156.87 259 157.078C257.771 157.286 256.979 157.391 256.625 157.391C256.281 157.391 256.109 157.234 256.109 156.922C256.109 156.516 256.844 155.979 258.312 155.312C261.135 154.021 264.245 153.375 267.641 153.375C270.328 153.375 272.339 153.859 273.672 154.828C275.016 155.797 275.688 157.37 275.688 159.547C275.688 160.839 275.458 162.458 275 164.406C274.542 166.344 274.083 168.167 273.625 169.875C273.177 171.583 272.953 172.755 272.953 173.391C272.953 174.026 273.073 174.469 273.312 174.719C273.615 175.031 274.198 175.188 275.062 175.188C275.594 175.188 275.891 175.245 275.953 175.359C276.026 175.474 276.062 175.594 276.062 175.719C276.062 176.198 275.844 176.589 275.406 176.891C273.75 178.047 270.797 178.625 266.547 178.625ZM257.453 167.312L261.453 167.219C262.182 167.219 262.547 167.432 262.547 167.859C262.547 168.161 262.375 168.401 262.031 168.578C260.823 169.193 258.74 169.583 255.781 169.75C254.938 171.417 254.516 172.88 254.516 174.141C254.516 174.703 254.589 175.224 254.734 175.703C254.88 176.172 254.953 176.51 254.953 176.719C254.953 177.271 254.604 177.646 253.906 177.844C253.208 178.031 252.182 178.125 250.828 178.125C249.484 178.125 248.599 178.005 248.172 177.766C247.745 177.516 247.531 177.078 247.531 176.453C247.531 175.286 247.87 174 248.547 172.594C249.234 171.188 250.109 169.844 251.172 168.562C252.234 167.271 253.411 166.005 254.703 164.766C255.995 163.526 257.25 162.458 258.469 161.562C261.177 159.552 263.021 158.547 264 158.547C264.448 158.547 264.672 158.682 264.672 158.953C264.672 159.224 264.453 159.526 264.016 159.859C263.089 160.536 261.979 161.568 260.688 162.953C259.396 164.339 258.245 165.792 257.234 167.312H257.453ZM285.406 178.125L279.172 178.281C278.141 178.281 277.625 177.927 277.625 177.219C277.625 176.896 277.76 176.615 278.031 176.375C278.312 176.135 278.677 175.865 279.125 175.562C279.573 175.25 279.979 174.844 280.344 174.344C280.708 173.833 281.109 172.979 281.547 171.781C281.995 170.573 282.359 169.396 282.641 168.25C283.536 164.615 284.177 162.25 284.562 161.156C284.958 160.052 285.255 159.25 285.453 158.75C285.661 158.24 285.885 157.771 286.125 157.344C286.375 156.917 286.615 156.542 286.844 156.219C287.073 155.896 287.344 155.609 287.656 155.359C287.969 155.099 288.266 154.885 288.547 154.719C288.839 154.542 289.193 154.391 289.609 154.266C290.026 154.13 290.427 154.026 290.812 153.953C291.198 153.88 291.677 153.823 292.25 153.781C293.115 153.719 294.266 153.688 295.703 153.688C297.141 153.688 298.208 153.755 298.906 153.891C299.604 154.026 299.953 154.312 299.953 154.75C299.953 155.104 299.552 155.526 298.75 156.016C297.854 156.568 297.062 157.464 296.375 158.703C295.635 160.057 295.057 161.328 294.641 162.516C294.224 163.693 293.896 164.641 293.656 165.359C293.417 166.078 293.125 166.964 292.781 168.016C292.438 169.068 292.146 169.943 291.906 170.641C290.927 173.443 289.589 175.214 287.891 175.953C290.516 175.818 292.688 175.354 294.406 174.562C295.344 174.135 296.146 173.734 296.812 173.359C297.49 172.984 298.245 172.427 299.078 171.688C300.172 170.708 301.146 169.776 302 168.891C302.854 167.995 303.318 167.51 303.391 167.438C303.661 167.156 303.99 167.016 304.375 167.016C304.76 167.016 305.073 167.109 305.312 167.297C305.552 167.484 305.672 167.729 305.672 168.031C305.672 169.229 305.286 171.068 304.516 173.547C304.245 174.401 303.974 175.099 303.703 175.641C303.432 176.182 303.083 176.667 302.656 177.094C301.844 177.906 300.536 178.312 298.734 178.312L285.406 178.125ZM314.75 178.125L308.516 178.281C307.484 178.281 306.969 177.927 306.969 177.219C306.969 176.896 307.104 176.615 307.375 176.375C307.656 176.135 308.021 175.865 308.469 175.562C308.917 175.25 309.323 174.844 309.688 174.344C310.052 173.833 310.453 172.979 310.891 171.781C311.339 170.573 311.703 169.396 311.984 168.25C312.88 164.615 313.521 162.25 313.906 161.156C314.302 160.052 314.599 159.25 314.797 158.75C315.005 158.24 315.229 157.771 315.469 157.344C315.719 156.917 315.958 156.542 316.188 156.219C316.417 155.896 316.688 155.609 317 155.359C317.312 155.099 317.609 154.885 317.891 154.719C318.182 154.542 318.536 154.391 318.953 154.266C319.37 154.13 319.771 154.026 320.156 153.953C320.542 153.88 321.021 153.823 321.594 153.781C322.458 153.719 323.609 153.688 325.047 153.688C326.484 153.688 327.552 153.755 328.25 153.891C328.948 154.026 329.297 154.312 329.297 154.75C329.297 155.104 328.896 155.526 328.094 156.016C327.198 156.568 326.406 157.464 325.719 158.703C324.979 160.057 324.401 161.328 323.984 162.516C323.568 163.693 323.24 164.641 323 165.359C322.76 166.078 322.469 166.964 322.125 168.016C321.781 169.068 321.49 169.943 321.25 170.641C320.271 173.443 318.932 175.214 317.234 175.953C319.859 175.818 322.031 175.354 323.75 174.562C324.688 174.135 325.49 173.734 326.156 173.359C326.833 172.984 327.589 172.427 328.422 171.688C329.516 170.708 330.49 169.776 331.344 168.891C332.198 167.995 332.661 167.51 332.734 167.438C333.005 167.156 333.333 167.016 333.719 167.016C334.104 167.016 334.417 167.109 334.656 167.297C334.896 167.484 335.016 167.729 335.016 168.031C335.016 169.229 334.63 171.068 333.859 173.547C333.589 174.401 333.318 175.099 333.047 175.641C332.776 176.182 332.427 176.667 332 177.094C331.188 177.906 329.88 178.312 328.078 178.312L314.75 178.125ZM362.75 154.156L366.969 154.203C367.531 154.203 368.042 154.339 368.5 154.609C368.969 154.88 369.203 155.229 369.203 155.656C369.203 155.844 369.125 156.094 368.969 156.406C368.292 157.76 367.12 161.167 365.453 166.625C363.797 172.073 362.766 175.307 362.359 176.328C361.964 177.339 361.505 178.307 360.984 179.234C360.474 180.161 359.948 180.964 359.406 181.641C358.865 182.328 358.276 182.922 357.641 183.422C357.005 183.932 356.37 184.349 355.734 184.672C355.109 184.995 354.422 185.25 353.672 185.438C352.318 185.792 350.776 185.969 349.047 185.969C348.016 185.969 347.5 185.693 347.5 185.141C347.5 184.807 347.797 184.333 348.391 183.719C348.995 183.115 349.344 182.75 349.438 182.625C350.698 181 352.089 178.302 353.609 174.531C352.547 175.312 351.292 175.964 349.844 176.484C348.406 177.005 347.125 177.266 346 177.266C344.875 177.266 343.958 177.161 343.25 176.953C342.542 176.745 341.896 176.438 341.312 176.031C340.031 175.135 339.391 173.776 339.391 171.953C339.391 171.078 339.594 169.969 340 168.625C340.406 167.281 340.849 166.057 341.328 164.953C341.818 163.849 342.302 162.771 342.781 161.719C343.26 160.667 343.526 160.052 343.578 159.875C343.641 159.698 343.672 159.526 343.672 159.359C343.672 158.672 343.036 158.224 341.766 158.016C341.432 157.964 341.172 157.859 340.984 157.703C340.797 157.536 340.703 157.312 340.703 157.031C340.703 156.74 340.938 156.417 341.406 156.062C341.875 155.698 342.531 155.365 343.375 155.062C345.302 154.354 347.865 154 351.062 154C352.969 154 353.922 154.568 353.922 155.703C353.922 156.536 353.026 158.958 351.234 162.969C349.453 166.969 348.562 169.703 348.562 171.172C348.562 172.568 349.448 173.266 351.219 173.266C352.156 173.266 353.193 173.083 354.328 172.719C356.297 167.521 358.073 161.641 359.656 155.078C359.74 154.703 360.016 154.458 360.484 154.344C360.964 154.219 361.719 154.156 362.75 154.156Z" fill="black" fill-opacity="0.71"/>
<path d="M74.7799 269V268.616L77.1799 267.656V254.48H73.2679L71.6359 258.008H71.2519V253.16H85.2679V258.008H84.8839L83.2519 254.48H79.3399V267.656L81.7399 268.616V269H74.7799ZM87.4958 269V268.616L89.0078 267.848V253.736L87.5678 252.488V252.32L90.7838 251H90.9278V259.736H91.0238C91.6318 259.128 92.2158 258.68 92.7758 258.392C93.3518 258.104 93.9838 257.96 94.6718 257.96C95.6158 257.96 96.3838 258.2 96.9758 258.68C97.5838 259.144 97.8878 259.84 97.8878 260.768V267.848L99.3998 268.616V269H94.2638V268.616L95.9678 267.92V261.896C95.9678 261.192 95.7438 260.656 95.2958 260.288C94.8638 259.92 94.2958 259.736 93.5918 259.736C93.1598 259.736 92.6798 259.808 92.1518 259.952C91.6398 260.096 91.2318 260.304 90.9278 260.576V267.92L92.6318 268.616V269H87.4958ZM106.529 269.24C104.977 269.24 103.753 268.768 102.857 267.824C101.961 266.88 101.513 265.632 101.513 264.08C101.513 262.88 101.745 261.824 102.209 260.912C102.689 259.984 103.313 259.264 104.081 258.752C104.865 258.224 105.713 257.96 106.625 257.96C107.889 257.96 108.881 258.4 109.601 259.28C110.337 260.16 110.705 261.424 110.705 263.072L110.585 263.192H103.409C103.425 263.928 103.569 264.624 103.84 265.28C104.113 265.92 104.545 266.44 105.137 266.84C105.745 267.24 106.553 267.44 107.561 267.44C108.441 267.44 109.473 267.12 110.657 266.48H110.729V266.72C110.361 267.408 109.809 268 109.073 268.496C108.353 268.992 107.505 269.24 106.529 269.24ZM106.241 259.016C105.473 259.016 104.841 259.288 104.345 259.832C103.865 260.36 103.569 261.112 103.457 262.088H108.881C108.705 261 108.393 260.216 107.945 259.736C107.513 259.256 106.945 259.016 106.241 259.016ZM125.618 269.24C124.29 269.24 123.162 268.968 122.234 268.424C121.306 267.864 120.594 267.104 120.098 266.144C119.618 265.168 119.378 264.048 119.378 262.784C119.378 261.424 119.626 260.144 120.122 258.944C120.618 257.744 121.29 256.696 122.138 255.8C123.002 254.904 123.986 254.2 125.09 253.688C126.21 253.176 127.386 252.92 128.618 252.92C129.53 252.92 130.298 253.008 130.922 253.184C131.562 253.36 132.266 253.656 133.034 254.072L132.41 258.272H132.026L131.066 255.296C130.666 254.88 130.258 254.568 129.842 254.36C129.442 254.136 128.938 254.024 128.33 254.024C127.242 254.024 126.282 254.24 125.45 254.672C124.618 255.104 123.914 255.704 123.338 256.472C122.778 257.224 122.346 258.088 122.042 259.064C121.754 260.024 121.61 261.048 121.61 262.136C121.61 264.024 122.042 265.496 122.906 266.552C123.786 267.608 124.906 268.136 126.266 268.136C126.954 268.136 127.594 268 128.186 267.728C128.778 267.456 129.306 267.168 129.77 266.864L131.69 264.248H132.074L131.161 268.064C130.666 268.304 130.154 268.512 129.626 268.688C129.114 268.864 128.538 269 127.898 269.096C127.258 269.192 126.498 269.24 125.618 269.24ZM139.272 269.24C137.88 269.24 136.848 268.808 136.176 267.944C135.52 267.08 135.192 265.96 135.192 264.584C135.192 263.832 135.328 263.072 135.6 262.304C135.872 261.52 136.264 260.8 136.776 260.144C137.288 259.488 137.896 258.96 138.6 258.56C139.304 258.16 140.08 257.96 140.928 257.96C142.32 257.96 143.344 258.392 144 259.256C144.672 260.12 145.008 261.24 145.008 262.616C145.008 263.336 144.872 264.088 144.6 264.872C144.344 265.64 143.96 266.36 143.448 267.032C142.952 267.688 142.352 268.224 141.648 268.64C140.944 269.04 140.152 269.24 139.272 269.24ZM139.536 268.328C140.224 268.328 140.824 268.064 141.336 267.536C141.848 266.992 142.24 266.28 142.512 265.4C142.784 264.504 142.92 263.528 142.92 262.472C142.92 261.288 142.76 260.392 142.44 259.784C142.136 259.16 141.56 258.848 140.712 258.848C140.04 258.848 139.44 259.096 138.912 259.592C138.4 260.072 138 260.744 137.712 261.608C137.424 262.472 137.28 263.488 137.28 264.656C137.28 265.84 137.44 266.752 137.76 267.392C138.08 268.016 138.672 268.328 139.536 268.328ZM148.627 269.24C148.067 269.24 147.683 269.024 147.475 268.592C147.267 268.16 147.227 267.584 147.355 266.864L149.827 252.68L147.739 251.864V251.72L151.891 251H151.963L149.299 266.144C149.219 266.624 149.203 266.968 149.251 267.176C149.299 267.384 149.435 267.488 149.659 267.488C149.931 267.488 150.227 267.344 150.547 267.056C150.867 266.752 151.171 266.296 151.459 265.688L151.771 265.832C151.307 267.032 150.803 267.904 150.259 268.448C149.731 268.976 149.187 269.24 148.627 269.24ZM154.815 269.24C154.255 269.24 153.871 269.024 153.663 268.592C153.455 268.16 153.415 267.584 153.543 266.864L156.015 252.68L153.927 251.864V251.72L158.079 251H158.151L155.487 266.144C155.407 266.624 155.391 266.968 155.439 267.176C155.487 267.384 155.623 267.488 155.847 267.488C156.119 267.488 156.415 267.344 156.735 267.056C157.055 266.752 157.359 266.296 157.647 265.688L157.959 265.832C157.495 267.032 156.991 267.904 156.447 268.448C155.919 268.976 155.375 269.24 154.815 269.24ZM161.842 269.24C161.202 269.24 160.682 268.968 160.282 268.424C159.898 267.864 159.706 267.032 159.706 265.928C159.706 264.936 159.858 263.968 160.162 263.024C160.482 262.08 160.914 261.224 161.458 260.456C162.018 259.688 162.658 259.08 163.378 258.632C164.098 258.184 164.866 257.96 165.682 257.96C166.082 257.96 166.466 258.008 166.834 258.104C167.202 258.2 167.53 258.328 167.818 258.488L168.658 257.96H169.258L167.794 266.144C167.714 266.624 167.698 266.968 167.746 267.176C167.81 267.384 167.946 267.488 168.154 267.488C168.426 267.488 168.722 267.344 169.042 267.056C169.362 266.752 169.666 266.296 169.954 265.688L170.266 265.832C169.802 267.032 169.298 267.904 168.754 268.448C168.226 268.976 167.682 269.24 167.122 269.24C166.562 269.24 166.178 269.024 165.97 268.592C165.762 268.16 165.722 267.584 165.85 266.864L165.97 266.24H165.874C165.266 267.168 164.626 267.904 163.954 268.448C163.282 268.976 162.578 269.24 161.842 269.24ZM161.53 264.992C161.53 265.888 161.626 266.56 161.818 267.008C162.026 267.44 162.41 267.656 162.97 267.656C163.354 267.656 163.738 267.528 164.122 267.272C164.506 267.016 164.874 266.688 165.226 266.288C165.578 265.888 165.89 265.48 166.162 265.064L167.05 260.12C166.746 259.72 166.434 259.416 166.114 259.208C165.81 259 165.434 258.896 164.986 258.896C164.298 258.896 163.69 259.192 163.162 259.784C162.65 260.376 162.25 261.136 161.962 262.064C161.674 262.992 161.53 263.968 161.53 264.992ZM175.398 269.24C174.982 269.24 174.582 269.184 174.198 269.072C173.814 268.976 173.478 268.84 173.19 268.664L171.966 269.24H171.822L174.702 252.68L172.854 251.864V251.72L176.766 251H176.838L175.11 260.96H175.23C175.566 260.464 175.934 259.992 176.334 259.544C176.734 259.08 177.174 258.704 177.654 258.416C178.134 258.112 178.662 257.96 179.238 257.96C179.878 257.96 180.39 258.24 180.774 258.8C181.174 259.344 181.374 260.168 181.374 261.272C181.374 262.264 181.214 263.232 180.894 264.176C180.59 265.12 180.158 265.976 179.598 266.744C179.054 267.512 178.422 268.12 177.702 268.568C176.982 269.016 176.214 269.24 175.398 269.24ZM178.11 259.544C177.662 259.544 177.15 259.784 176.574 260.264C175.998 260.728 175.438 261.368 174.894 262.184L174.054 267.032C174.406 267.496 174.734 267.824 175.038 268.016C175.342 268.208 175.694 268.304 176.094 268.304C176.718 268.304 177.294 268.04 177.822 267.512C178.35 266.968 178.766 266.24 179.07 265.328C179.39 264.4 179.55 263.36 179.55 262.208C179.55 261.232 179.438 260.544 179.214 260.144C179.006 259.744 178.638 259.544 178.11 259.544ZM187.624 269.24C186.232 269.24 185.2 268.808 184.528 267.944C183.872 267.08 183.544 265.96 183.544 264.584C183.544 263.832 183.68 263.072 183.952 262.304C184.224 261.52 184.616 260.8 185.128 260.144C185.64 259.488 186.248 258.96 186.952 258.56C187.656 258.16 188.432 257.96 189.28 257.96C190.672 257.96 191.696 258.392 192.352 259.256C193.024 260.12 193.36 261.24 193.36 262.616C193.36 263.336 193.224 264.088 192.952 264.872C192.696 265.64 192.312 266.36 191.8 267.032C191.304 267.688 190.704 268.224 190 268.64C189.296 269.04 188.504 269.24 187.624 269.24ZM187.888 268.328C188.576 268.328 189.176 268.064 189.688 267.536C190.2 266.992 190.592 266.28 190.864 265.4C191.136 264.504 191.272 263.528 191.272 262.472C191.272 261.288 191.112 260.392 190.792 259.784C190.488 259.16 189.912 258.848 189.064 258.848C188.392 258.848 187.792 259.096 187.264 259.592C186.752 260.072 186.352 260.744 186.064 261.608C185.776 262.472 185.632 263.488 185.632 264.656C185.632 265.84 185.792 266.752 186.112 267.392C186.432 268.016 187.024 268.328 187.888 268.328ZM195.587 269L197.243 259.664L195.371 258.824V258.68L198.755 257.96H198.827V260.912H198.923C199.435 259.968 199.867 259.296 200.219 258.896C200.587 258.48 200.907 258.224 201.179 258.128C201.467 258.016 201.723 257.96 201.947 257.96C202.235 257.96 202.499 258.056 202.739 258.248C202.979 258.424 203.099 258.632 203.099 258.872C203.099 258.952 203.075 259.04 203.027 259.136L202.427 260.36H202.283L202.019 260.168C201.891 260.072 201.747 260.008 201.587 259.976C201.443 259.928 201.299 259.904 201.155 259.904C200.867 259.904 200.603 259.968 200.363 260.096C200.139 260.208 199.883 260.456 199.595 260.84C199.323 261.208 198.971 261.768 198.539 262.52L197.411 269H195.587ZM205.623 269.24C204.983 269.24 204.463 268.968 204.063 268.424C203.679 267.864 203.487 267.032 203.487 265.928C203.487 264.936 203.639 263.968 203.943 263.024C204.263 262.08 204.695 261.224 205.239 260.456C205.799 259.688 206.439 259.08 207.159 258.632C207.879 258.184 208.647 257.96 209.463 257.96C209.863 257.96 210.247 258.008 210.615 258.104C210.983 258.2 211.311 258.328 211.599 258.488L212.439 257.96H213.039L211.575 266.144C211.495 266.624 211.479 266.968 211.527 267.176C211.591 267.384 211.727 267.488 211.935 267.488C212.207 267.488 212.503 267.344 212.823 267.056C213.143 266.752 213.447 266.296 213.735 265.688L214.047 265.832C213.583 267.032 213.079 267.904 212.535 268.448C212.007 268.976 211.463 269.24 210.903 269.24C210.343 269.24 209.959 269.024 209.751 268.592C209.543 268.16 209.503 267.584 209.631 266.864L209.751 266.24H209.655C209.047 267.168 208.407 267.904 207.735 268.448C207.063 268.976 206.359 269.24 205.623 269.24ZM205.311 264.992C205.311 265.888 205.407 266.56 205.599 267.008C205.807 267.44 206.191 267.656 206.751 267.656C207.135 267.656 207.519 267.528 207.903 267.272C208.287 267.016 208.655 266.688 209.007 266.288C209.359 265.888 209.671 265.48 209.943 265.064L210.831 260.12C210.527 259.72 210.215 259.416 209.895 259.208C209.591 259 209.215 258.896 208.767 258.896C208.079 258.896 207.471 259.192 206.943 259.784C206.431 260.376 206.031 261.136 205.743 262.064C205.455 262.992 205.311 263.968 205.311 264.992ZM217.667 269.24C217.139 269.24 216.739 269.072 216.467 268.736C216.195 268.4 216.059 267.928 216.059 267.32C216.059 267.192 216.067 267.048 216.083 266.888C216.099 266.728 216.123 266.568 216.155 266.408L217.427 259.256H215.651V259.112L217.691 258.2L219.755 255.56H219.899L219.443 258.2H222.443V259.256H219.251L218.171 265.352C218.139 265.56 218.115 265.752 218.099 265.928C218.083 266.088 218.075 266.232 218.075 266.36C218.075 266.744 218.139 267.016 218.267 267.176C218.395 267.336 218.563 267.416 218.771 267.416C219.139 267.416 219.531 267.208 219.947 266.792C220.379 266.376 220.771 265.776 221.123 264.992L221.435 265.136C220.907 266.656 220.315 267.72 219.659 268.328C219.019 268.936 218.355 269.24 217.667 269.24ZM227.009 254.96C226.641 254.96 226.321 254.824 226.049 254.552C225.777 254.28 225.641 253.96 225.641 253.592C225.641 253.224 225.777 252.904 226.049 252.632C226.321 252.36 226.641 252.224 227.009 252.224C227.377 252.224 227.697 252.36 227.969 252.632C228.241 252.904 228.377 253.224 228.377 253.592C228.377 253.96 228.241 254.28 227.969 254.552C227.697 254.824 227.377 254.96 227.009 254.96ZM225.305 269.24C224.745 269.24 224.361 269.024 224.153 268.592C223.945 268.16 223.905 267.584 224.033 266.864L225.305 259.64L223.217 258.824V258.68L227.369 257.96H227.441L225.977 266.144C225.897 266.624 225.881 266.968 225.929 267.176C225.977 267.384 226.113 267.488 226.337 267.488C226.609 267.488 226.905 267.344 227.225 267.056C227.545 266.752 227.849 266.296 228.137 265.688L228.449 265.832C227.985 267.032 227.481 267.904 226.937 268.448C226.409 268.976 225.865 269.24 225.305 269.24ZM233.947 269L231.811 259.544L229.771 258.824V258.68L233.323 257.96H233.395L235.219 266.336H235.315L237.115 263.648C237.675 262.8 238.011 262.144 238.123 261.68C238.251 261.216 238.315 260.832 238.315 260.528C238.315 260.272 238.251 260.072 238.123 259.928C237.995 259.768 237.835 259.632 237.643 259.52L237.331 259.328V259.232L237.715 258.512C237.843 258.288 237.947 258.144 238.027 258.08C238.123 258 238.259 257.96 238.435 257.96C238.691 257.96 238.923 258.064 239.131 258.272C239.355 258.48 239.531 258.728 239.659 259.016C239.787 259.304 239.851 259.584 239.851 259.856C239.851 260.24 239.723 260.712 239.467 261.272C239.211 261.832 238.763 262.584 238.123 263.528L234.451 269H233.947ZM244.518 269.24C243.286 269.24 242.382 268.904 241.806 268.232C241.23 267.544 240.942 266.616 240.942 265.448C240.942 264.504 241.094 263.592 241.398 262.712C241.718 261.816 242.15 261.016 242.694 260.312C243.254 259.592 243.894 259.024 244.614 258.608C245.35 258.176 246.142 257.96 246.99 257.96C247.79 257.96 248.39 258.144 248.79 258.512C249.206 258.88 249.414 259.312 249.414 259.808C249.414 260.352 249.222 260.856 248.838 261.32C248.454 261.768 247.782 262.184 246.822 262.568C245.878 262.936 244.542 263.264 242.814 263.552C242.782 263.872 242.766 264.208 242.766 264.56C242.766 265.536 242.974 266.312 243.39 266.888C243.806 267.464 244.462 267.752 245.358 267.752C245.886 267.752 246.406 267.608 246.918 267.32C247.43 267.032 247.958 266.56 248.502 265.904H248.55L248.79 266.096C248.246 267.04 247.59 267.8 246.822 268.376C246.07 268.952 245.302 269.24 244.518 269.24ZM246.342 258.8C245.478 258.8 244.742 259.16 244.134 259.88C243.542 260.584 243.142 261.52 242.934 262.688C244.134 262.48 245.07 262.256 245.742 262.016C246.414 261.776 246.886 261.496 247.158 261.176C247.43 260.84 247.566 260.424 247.566 259.928C247.566 259.608 247.462 259.344 247.254 259.136C247.046 258.912 246.742 258.8 246.342 258.8ZM259.366 269.24C258.726 269.24 258.206 268.968 257.806 268.424C257.422 267.864 257.23 267.032 257.23 265.928C257.23 264.936 257.382 263.968 257.686 263.024C258.006 262.08 258.438 261.224 258.982 260.456C259.542 259.688 260.182 259.08 260.902 258.632C261.622 258.184 262.39 257.96 263.206 257.96C263.606 257.96 263.99 258.008 264.358 258.104C264.726 258.2 265.054 258.328 265.342 258.488L266.182 257.96H266.782L265.318 266.144C265.238 266.624 265.222 266.968 265.27 267.176C265.334 267.384 265.47 267.488 265.678 267.488C265.95 267.488 266.246 267.344 266.566 267.056C266.886 266.752 267.19 266.296 267.478 265.688L267.79 265.832C267.326 267.032 266.822 267.904 266.278 268.448C265.75 268.976 265.206 269.24 264.646 269.24C264.086 269.24 263.702 269.024 263.494 268.592C263.286 268.16 263.246 267.584 263.374 266.864L263.494 266.24H263.398C262.79 267.168 262.15 267.904 261.478 268.448C260.806 268.976 260.102 269.24 259.366 269.24ZM259.054 264.992C259.054 265.888 259.15 266.56 259.342 267.008C259.55 267.44 259.934 267.656 260.494 267.656C260.878 267.656 261.262 267.528 261.646 267.272C262.03 267.016 262.398 266.688 262.75 266.288C263.102 265.888 263.414 265.48 263.686 265.064L264.574 260.12C264.27 259.72 263.958 259.416 263.638 259.208C263.334 259 262.958 258.896 262.51 258.896C261.822 258.896 261.214 259.192 260.686 259.784C260.174 260.376 259.774 261.136 259.486 262.064C259.198 262.992 259.054 263.968 259.054 264.992ZM269.298 269L270.954 259.664L269.082 258.824V258.68L272.49 257.96H272.562V260.48H272.658C273.218 259.856 273.714 259.36 274.146 258.992C274.578 258.624 274.994 258.36 275.394 258.2C275.794 258.04 276.258 257.96 276.786 257.96C277.57 257.96 278.17 258.28 278.586 258.92C279.018 259.56 279.138 260.424 278.946 261.512L278.106 266.144C278.026 266.624 278.01 266.968 278.058 267.176C278.122 267.384 278.258 267.488 278.466 267.488C278.738 267.488 279.034 267.344 279.354 267.056C279.674 266.752 279.978 266.296 280.266 265.688L280.578 265.832C280.114 267.032 279.61 267.904 279.066 268.448C278.538 268.976 277.994 269.24 277.434 269.24C276.874 269.24 276.49 269.024 276.282 268.592C276.074 268.16 276.034 267.584 276.162 266.864L277.098 261.584C277.178 261.024 277.106 260.528 276.882 260.096C276.674 259.648 276.218 259.424 275.514 259.424C275.162 259.424 274.794 259.544 274.41 259.784C274.042 260.024 273.682 260.312 273.33 260.648C272.978 260.968 272.666 261.28 272.394 261.584L271.122 269H269.298ZM284.094 269.24C283.454 269.24 282.934 268.968 282.534 268.424C282.15 267.864 281.958 267.032 281.958 265.928C281.958 264.936 282.11 263.968 282.414 263.024C282.734 262.08 283.166 261.224 283.71 260.456C284.27 259.688 284.91 259.08 285.63 258.632C286.35 258.184 287.118 257.96 287.934 257.96C288.51 257.96 289.062 258.064 289.59 258.272L290.574 252.68L288.486 251.864V251.72L292.638 251H292.71L290.046 266.144C289.966 266.624 289.95 266.968 289.998 267.176C290.046 267.384 290.182 267.488 290.406 267.488C290.678 267.488 290.974 267.344 291.294 267.056C291.614 266.752 291.918 266.296 292.206 265.688L292.518 265.832C292.054 267.032 291.55 267.904 291.006 268.448C290.478 268.976 289.934 269.24 289.374 269.24C288.814 269.24 288.43 269.024 288.222 268.592C288.014 268.16 287.974 267.584 288.102 266.864L288.222 266.24H288.126C286.782 268.24 285.438 269.24 284.094 269.24ZM283.782 264.992C283.782 266 283.894 266.696 284.118 267.08C284.342 267.464 284.71 267.656 285.222 267.656C285.686 267.656 286.206 267.424 286.782 266.96C287.358 266.48 287.902 265.848 288.414 265.064L289.278 260.144C288.942 259.696 288.614 259.376 288.294 259.184C287.99 258.992 287.638 258.896 287.238 258.896C286.598 258.896 286.014 259.176 285.486 259.736C284.974 260.296 284.558 261.04 284.238 261.968C283.934 262.88 283.782 263.888 283.782 264.992ZM299.068 269L299.14 268.616L301.132 267.656L303.436 254.504L301.78 253.544L301.852 253.16H312.772L312.052 257.288H311.668L310.756 254.36H305.524L304.492 260.216H308.116L309.604 258.176H309.988L309.052 263.432H308.668L307.924 261.416H304.276L303.172 267.656L305.308 268.616L305.236 269H299.068ZM316.379 269.24C315.787 269.24 315.299 269.008 314.915 268.544C314.547 268.08 314.363 267.448 314.363 266.648C314.363 266.488 314.371 266.328 314.387 266.168C314.419 266.008 314.443 265.848 314.459 265.688L315.539 259.664L313.667 258.824V258.68L317.507 257.96H317.603L316.355 265.304C316.291 265.704 316.259 265.992 316.259 266.168C316.259 266.616 316.363 267 316.571 267.32C316.795 267.624 317.155 267.776 317.651 267.776C317.987 267.776 318.323 267.656 318.659 267.416C319.011 267.176 319.347 266.888 319.667 266.552C319.987 266.216 320.275 265.904 320.531 265.616L321.563 259.664L319.907 258.824V258.68L323.555 257.96H323.651L322.211 266.144C322.131 266.624 322.115 266.968 322.163 267.176C322.227 267.384 322.379 267.488 322.619 267.488C322.891 267.488 323.187 267.344 323.507 267.056C323.827 266.752 324.131 266.296 324.419 265.688L324.731 265.832C324.267 267.032 323.763 267.904 323.219 268.448C322.691 268.976 322.147 269.24 321.587 269.24C321.027 269.24 320.643 269.024 320.435 268.592C320.243 268.16 320.203 267.584 320.315 266.864L320.339 266.72H320.267C319.723 267.328 319.251 267.816 318.851 268.184C318.451 268.552 318.059 268.824 317.675 269C317.307 269.16 316.875 269.24 316.379 269.24ZM326.134 269L327.79 259.664L325.918 258.824V258.68L329.326 257.96H329.398V260.48H329.494C330.054 259.856 330.55 259.36 330.982 258.992C331.414 258.624 331.83 258.36 332.23 258.2C332.63 258.04 333.094 257.96 333.622 257.96C334.406 257.96 335.006 258.28 335.422 258.92C335.854 259.56 335.974 260.424 335.782 261.512L334.942 266.144C334.862 266.624 334.846 266.968 334.894 267.176C334.958 267.384 335.094 267.488 335.302 267.488C335.574 267.488 335.87 267.344 336.19 267.056C336.51 266.752 336.814 266.296 337.102 265.688L337.414 265.832C336.95 267.032 336.446 267.904 335.902 268.448C335.374 268.976 334.83 269.24 334.27 269.24C333.71 269.24 333.326 269.024 333.118 268.592C332.91 268.16 332.87 267.584 332.998 266.864L333.934 261.584C334.014 261.024 333.942 260.528 333.718 260.096C333.51 259.648 333.054 259.424 332.35 259.424C331.998 259.424 331.63 259.544 331.246 259.784C330.878 260.024 330.518 260.312 330.166 260.648C329.814 260.968 329.502 261.28 329.23 261.584L327.958 269H326.134ZM133.393 306.12L131.713 291.456L130.129 290.544L130.225 290.16H136.009L135.937 290.544L133.753 291.408L134.857 302.208H135.025L141.001 290.04H141.841L143.881 302.184H144.001L148.729 291.36L146.785 290.544L146.857 290.16H151.897L151.825 290.544L150.193 291.336L143.449 306.12H142.609L140.521 294.144H140.353L134.257 306.12H133.393ZM152.772 306.24C152.132 306.24 151.612 305.968 151.212 305.424C150.828 304.864 150.636 304.032 150.636 302.928C150.636 301.936 150.788 300.968 151.092 300.024C151.412 299.08 151.844 298.224 152.388 297.456C152.948 296.688 153.588 296.08 154.308 295.632C155.028 295.184 155.796 294.96 156.612 294.96C157.012 294.96 157.396 295.008 157.764 295.104C158.132 295.2 158.46 295.328 158.748 295.488L159.588 294.96H160.188L158.724 303.144C158.644 303.624 158.628 303.968 158.676 304.176C158.74 304.384 158.876 304.488 159.084 304.488C159.356 304.488 159.652 304.344 159.972 304.056C160.292 303.752 160.596 303.296 160.884 302.688L161.196 302.832C160.732 304.032 160.228 304.904 159.684 305.448C159.156 305.976 158.612 306.24 158.052 306.24C157.492 306.24 157.108 306.024 156.9 305.592C156.692 305.16 156.652 304.584 156.78 303.864L156.9 303.24H156.804C156.196 304.168 155.556 304.904 154.884 305.448C154.212 305.976 153.508 306.24 152.772 306.24ZM152.46 301.992C152.46 302.888 152.556 303.56 152.748 304.008C152.956 304.44 153.34 304.656 153.9 304.656C154.284 304.656 154.668 304.528 155.052 304.272C155.436 304.016 155.804 303.688 156.156 303.288C156.508 302.888 156.82 302.48 157.092 302.064L157.98 297.12C157.676 296.72 157.364 296.416 157.044 296.208C156.74 296 156.364 295.896 155.916 295.896C155.228 295.896 154.62 296.192 154.092 296.784C153.58 297.376 153.18 298.136 152.892 299.064C152.604 299.992 152.46 300.968 152.46 301.992ZM161.083 311.76C160.635 311.76 160.411 311.528 160.411 311.064V309.912L160.579 309.768H161.731C162.131 309.768 162.443 309.752 162.667 309.72C162.907 309.688 163.107 309.608 163.267 309.48C163.443 309.352 163.627 309.144 163.819 308.856C164.027 308.584 164.283 308.192 164.587 307.68L165.715 305.856L163.651 296.592L161.611 295.824V295.68L165.163 294.96H165.235L167.059 303.48H167.155L168.883 300.648C169.411 299.784 169.755 299.128 169.915 298.68C170.075 298.216 170.155 297.832 170.155 297.528C170.155 297.272 170.091 297.072 169.963 296.928C169.835 296.768 169.675 296.632 169.483 296.52L169.171 296.328V296.232L169.555 295.512C169.683 295.288 169.787 295.144 169.867 295.08C169.963 295 170.099 294.96 170.275 294.96C170.547 294.96 170.787 295.064 170.995 295.272C171.219 295.464 171.387 295.712 171.499 296.016C171.627 296.304 171.691 296.584 171.691 296.856C171.691 297.24 171.547 297.712 171.259 298.272C170.987 298.816 170.555 299.568 169.963 300.528L165.331 307.896C165.107 308.264 164.923 308.568 164.779 308.808C164.635 309.048 164.483 309.288 164.323 309.528C164.179 309.768 163.963 310.056 163.675 310.392C163.275 310.856 162.843 311.2 162.379 311.424C161.915 311.648 161.483 311.76 161.083 311.76ZM182.546 306V305.616L184.946 304.656V291.48H181.034L179.402 295.008H179.018V290.16H193.034V295.008H192.65L191.018 291.48H187.106V304.656L189.506 305.616V306H182.546ZM199.394 306.24C198.338 306.24 197.41 305.992 196.61 305.496C195.826 305 195.21 304.328 194.762 303.48C194.33 302.632 194.114 301.672 194.114 300.6C194.114 299.528 194.33 298.568 194.762 297.72C195.21 296.872 195.826 296.2 196.61 295.704C197.41 295.208 198.338 294.96 199.394 294.96C200.45 294.96 201.37 295.208 202.154 295.704C202.954 296.2 203.57 296.872 204.002 297.72C204.45 298.568 204.674 299.528 204.674 300.6C204.674 301.672 204.45 302.632 204.002 303.48C203.57 304.328 202.954 305 202.154 305.496C201.37 305.992 200.45 306.24 199.394 306.24ZM199.73 305.208C200.37 305.208 200.898 305.008 201.314 304.608C201.73 304.208 202.034 303.696 202.226 303.072C202.418 302.432 202.514 301.768 202.514 301.08C202.514 300.232 202.394 299.416 202.154 298.632C201.93 297.848 201.562 297.208 201.05 296.712C200.554 296.216 199.906 295.968 199.106 295.968C198.45 295.968 197.914 296.168 197.498 296.568C197.082 296.968 196.77 297.48 196.562 298.104C196.37 298.728 196.274 299.392 196.274 300.096C196.274 300.944 196.394 301.76 196.634 302.544C196.874 303.328 197.25 303.968 197.762 304.464C198.274 304.96 198.93 305.208 199.73 305.208ZM213.435 306V305.616L215.355 304.656V291.504L213.435 290.544V290.16H219.675V290.544L217.515 291.504V304.68H223.347L224.979 300.672H225.363V306H213.435ZM233.255 306.24C231.703 306.24 230.479 305.768 229.583 304.824C228.687 303.88 228.239 302.632 228.239 301.08C228.239 299.88 228.471 298.824 228.935 297.912C229.415 296.984 230.039 296.264 230.807 295.752C231.591 295.224 232.439 294.96 233.351 294.96C234.615 294.96 235.607 295.4 236.327 296.28C237.063 297.16 237.431 298.424 237.431 300.072L237.311 300.192H230.135C230.151 300.928 230.295 301.624 230.567 302.28C230.839 302.92 231.271 303.44 231.863 303.84C232.471 304.24 233.279 304.44 234.287 304.44C235.167 304.44 236.199 304.12 237.383 303.48H237.455V303.72C237.087 304.408 236.535 305 235.799 305.496C235.079 305.992 234.231 306.24 233.255 306.24ZM232.967 296.016C232.199 296.016 231.567 296.288 231.071 296.832C230.591 297.36 230.295 298.112 230.183 299.088H235.607C235.431 298 235.119 297.216 234.671 296.736C234.239 296.256 233.671 296.016 232.967 296.016ZM242.525 306.24C241.773 306.24 241.149 306.024 240.653 305.592C240.157 305.144 239.909 304.528 239.909 303.744C239.909 302.96 240.197 302.28 240.773 301.704C241.365 301.128 242.349 300.68 243.725 300.36L246.005 299.832V298.08C246.005 297.536 245.781 297.072 245.333 296.688C244.901 296.288 244.405 296.088 243.845 296.088C243.237 296.088 242.813 296.256 242.573 296.592C242.333 296.912 242.213 297.344 242.213 297.888V298.56L242.093 298.68H240.845C240.605 298.68 240.437 298.64 240.341 298.56C240.261 298.48 240.221 298.296 240.221 298.008C240.221 297.656 240.325 297.296 240.533 296.928C240.741 296.56 241.061 296.24 241.493 295.968C241.941 295.68 242.405 295.44 242.885 295.248C243.381 295.056 243.909 294.96 244.469 294.96C245.029 294.96 245.573 295.04 246.101 295.2C246.645 295.36 247.085 295.632 247.421 296.016C247.757 296.384 247.925 296.904 247.925 297.576V304.392C248.037 304.504 248.197 304.6 248.405 304.68C248.613 304.76 248.901 304.8 249.269 304.8H250.181L250.253 304.848V304.92C250.061 305.272 249.773 305.584 249.389 305.856C249.021 306.112 248.565 306.24 248.021 306.24C247.525 306.24 247.117 306.112 246.797 305.856C246.493 305.584 246.277 305.232 246.149 304.8H246.005C245.589 305.216 245.069 305.56 244.445 305.832C243.837 306.104 243.197 306.24 242.525 306.24ZM241.781 303.264C241.781 304.256 242.381 304.752 243.581 304.752C243.965 304.752 244.341 304.712 244.709 304.632C245.093 304.552 245.525 304.408 246.005 304.2V300.648C244.725 300.888 243.789 301.144 243.197 301.416C242.605 301.672 242.221 301.952 242.045 302.256C241.869 302.56 241.781 302.896 241.781 303.264ZM251.771 306V305.616L253.283 304.848V297.696L251.843 296.448V296.28L254.819 294.96H254.963L255.179 297H255.275C255.643 296.408 255.979 295.968 256.283 295.68C256.603 295.376 256.899 295.184 257.171 295.104C257.443 295.008 257.715 294.96 257.987 294.96C258.115 294.96 258.259 294.984 258.419 295.032C258.595 295.08 258.739 295.128 258.851 295.176C259.027 295.256 259.187 295.352 259.331 295.464C259.491 295.576 259.571 295.704 259.571 295.848C259.571 295.992 259.539 296.136 259.475 296.28L258.995 297.456H258.827L257.915 297.096C257.739 297.016 257.563 296.968 257.387 296.952C257.227 296.936 257.067 296.928 256.907 296.928C256.235 296.928 255.667 297.272 255.203 297.96V304.848L256.907 305.616V306H251.771ZM261.215 306V305.616L262.727 304.848V297.696L261.287 296.448V296.28L264.263 294.96H264.407L264.623 296.736H264.743C265.351 296.128 265.935 295.68 266.495 295.392C267.071 295.104 267.703 294.96 268.391 294.96C269.335 294.96 270.103 295.2 270.695 295.68C271.303 296.144 271.607 296.84 271.607 297.768V304.848L273.119 305.616V306H267.983V305.616L269.687 304.848V298.896C269.687 298.192 269.463 297.656 269.015 297.288C268.583 296.92 268.015 296.736 267.311 296.736C266.879 296.736 266.399 296.808 265.871 296.952C265.359 297.096 264.951 297.304 264.647 297.576V304.848L266.351 305.616V306H261.215ZM96.5918 343V342.616L98.6078 341.632V328.528L96.5918 327.544V327.16H104.32C106.16 327.16 107.72 327.472 109 328.096C110.296 328.72 111.28 329.576 111.952 330.664C112.64 331.752 112.984 332.984 112.984 334.36C112.984 335.608 112.76 336.76 112.312 337.816C111.88 338.872 111.264 339.784 110.464 340.552C109.68 341.32 108.744 341.92 107.656 342.352C106.584 342.784 105.416 343 104.152 343H96.5918ZM103.504 328.48H101.608V341.68H103.864C105.128 341.68 106.2 341.416 107.08 340.888C107.976 340.344 108.656 339.584 109.12 338.608C109.6 337.616 109.84 336.448 109.84 335.104C109.84 333.088 109.296 331.48 108.208 330.28C107.136 329.08 105.568 328.48 103.504 328.48ZM118 343.24C117.232 343.24 116.576 343.008 116.032 342.544C115.504 342.08 115.248 341.424 115.264 340.576C115.28 339.744 115.56 339.064 116.104 338.536C116.648 337.992 117.656 337.544 119.128 337.192L121.384 336.64V335.056C121.384 334.464 121.184 333.984 120.784 333.616C120.384 333.232 119.904 333.04 119.344 333.04C118.784 333.04 118.392 333.176 118.168 333.448C117.944 333.704 117.832 334.08 117.832 334.576V335.512L117.712 335.608H116.272C116.032 335.608 115.864 335.56 115.768 335.464C115.672 335.368 115.624 335.176 115.624 334.888C115.624 334.136 116.104 333.472 117.064 332.896C117.576 332.576 118.08 332.328 118.576 332.152C119.088 331.96 119.624 331.864 120.184 331.864C120.888 331.864 121.544 331.96 122.152 332.152C122.76 332.344 123.248 332.648 123.616 333.064C123.984 333.48 124.168 334.04 124.168 334.744V341.296C124.392 341.552 124.8 341.68 125.392 341.68H126.184L126.256 341.752V341.992C126.064 342.312 125.768 342.6 125.368 342.856C124.968 343.112 124.456 343.24 123.832 343.24C123.224 343.24 122.728 343.104 122.344 342.832C121.976 342.544 121.712 342.16 121.552 341.68H121.384C120.968 342.128 120.472 342.504 119.896 342.808C119.32 343.096 118.688 343.24 118 343.24ZM117.904 339.976C117.904 340.488 118.048 340.872 118.336 341.128C118.64 341.368 119.056 341.488 119.584 341.488C119.888 341.488 120.176 341.456 120.448 341.392C120.736 341.328 121.048 341.224 121.384 341.08V337.552C120.392 337.744 119.648 337.96 119.152 338.2C118.656 338.424 118.32 338.68 118.144 338.968C117.984 339.256 117.904 339.592 117.904 339.976ZM131.606 343.24C130.742 343.24 130.014 343.032 129.422 342.616C128.846 342.2 128.558 341.616 128.558 340.864V333.208H126.734V332.968L128.894 332.104L131.006 329.464H131.342V332.104H134.606V333.208H131.342V340.336C131.342 340.736 131.518 341.04 131.87 341.248C132.222 341.44 132.646 341.536 133.142 341.536C133.446 341.536 133.718 341.52 133.958 341.488C134.214 341.456 134.446 341.416 134.654 341.368L134.726 341.392V341.728C134.502 342.096 134.11 342.44 133.55 342.76C132.99 343.08 132.342 343.24 131.606 343.24ZM139.047 343.24C138.279 343.24 137.623 343.008 137.079 342.544C136.551 342.08 136.295 341.424 136.311 340.576C136.327 339.744 136.607 339.064 137.151 338.536C137.695 337.992 138.703 337.544 140.175 337.192L142.431 336.64V335.056C142.431 334.464 142.231 333.984 141.831 333.616C141.431 333.232 140.951 333.04 140.391 333.04C139.831 333.04 139.439 333.176 139.215 333.448C138.991 333.704 138.879 334.08 138.879 334.576V335.512L138.759 335.608H137.319C137.079 335.608 136.911 335.56 136.815 335.464C136.719 335.368 136.671 335.176 136.671 334.888C136.671 334.136 137.151 333.472 138.111 332.896C138.623 332.576 139.127 332.328 139.623 332.152C140.135 331.96 140.671 331.864 141.231 331.864C141.935 331.864 142.591 331.96 143.199 332.152C143.807 332.344 144.295 332.648 144.663 333.064C145.031 333.48 145.215 334.04 145.215 334.744V341.296C145.439 341.552 145.847 341.68 146.439 341.68H147.231L147.303 341.752V341.992C147.111 342.312 146.815 342.6 146.415 342.856C146.015 343.112 145.503 343.24 144.879 343.24C144.271 343.24 143.775 343.104 143.391 342.832C143.023 342.544 142.759 342.16 142.599 341.68H142.431C142.015 342.128 141.519 342.504 140.943 342.808C140.367 343.096 139.735 343.24 139.047 343.24ZM138.951 339.976C138.951 340.488 139.095 340.872 139.383 341.128C139.687 341.368 140.103 341.488 140.631 341.488C140.935 341.488 141.223 341.456 141.495 341.392C141.783 341.328 142.095 341.224 142.431 341.08V337.552C141.439 337.744 140.695 337.96 140.199 338.2C139.703 338.424 139.367 338.68 139.191 338.968C139.031 339.256 138.951 339.592 138.951 339.976ZM159.901 343.24C158.877 343.24 157.981 343.144 157.213 342.952C156.461 342.744 155.709 342.448 154.957 342.064L154.717 338.056H155.149L156.613 340.816C157.605 341.632 158.645 342.04 159.733 342.04C160.629 342.04 161.349 341.824 161.893 341.392C162.437 340.944 162.709 340.312 162.709 339.496C162.709 338.888 162.565 338.4 162.277 338.032C162.005 337.648 161.581 337.304 161.005 337C160.429 336.68 159.677 336.312 158.749 335.896C157.629 335.352 156.765 334.768 156.157 334.144C155.549 333.504 155.245 332.648 155.245 331.576C155.245 330.968 155.397 330.384 155.701 329.824C156.005 329.264 156.405 328.768 156.901 328.336C157.413 327.904 157.981 327.56 158.605 327.304C159.245 327.048 159.901 326.92 160.573 326.92C161.373 326.92 162.117 327.016 162.805 327.208C163.509 327.384 164.181 327.64 164.821 327.976L165.061 331.816H164.653L163.189 329.176C162.725 328.824 162.293 328.56 161.893 328.384C161.493 328.208 161.037 328.12 160.525 328.12C159.853 328.12 159.293 328.344 158.845 328.792C158.413 329.24 158.197 329.808 158.197 330.496C158.197 331.216 158.437 331.8 158.917 332.248C159.397 332.68 160.197 333.16 161.317 333.688C162.293 334.136 163.093 334.576 163.717 335.008C164.341 335.44 164.805 335.928 165.109 336.472C165.413 337.016 165.565 337.688 165.565 338.488C165.565 339.256 165.397 339.936 165.061 340.528C164.741 341.104 164.301 341.6 163.741 342.016C163.197 342.416 162.589 342.72 161.917 342.928C161.245 343.136 160.573 343.24 159.901 343.24ZM172.106 343.24C171.242 343.24 170.514 343.032 169.922 342.616C169.346 342.2 169.058 341.616 169.058 340.864V333.208H167.234V332.968L169.394 332.104L171.506 329.464H171.842V332.104H175.106V333.208H171.842V340.336C171.842 340.736 172.018 341.04 172.37 341.248C172.722 341.44 173.146 341.536 173.642 341.536C173.946 341.536 174.218 341.52 174.458 341.488C174.714 341.456 174.946 341.416 175.154 341.368L175.226 341.392V341.728C175.002 342.096 174.61 342.44 174.05 342.76C173.49 343.08 172.842 343.24 172.106 343.24ZM177 343V342.616L178.56 341.848V334.696L177.072 333.52V333.28L180.864 331.864H181.08L181.296 333.976H181.416C181.8 333.368 182.144 332.912 182.448 332.608C182.752 332.304 183.04 332.104 183.312 332.008C183.6 331.912 183.888 331.864 184.176 331.864C184.304 331.864 184.448 331.888 184.608 331.936C184.768 331.984 184.912 332.032 185.04 332.08C185.52 332.24 185.76 332.464 185.76 332.752C185.76 332.88 185.736 333.016 185.688 333.16L185.136 334.576H184.968L184.224 334.288C184 334.208 183.8 334.16 183.624 334.144C183.464 334.112 183.28 334.096 183.072 334.096C182.4 334.096 181.816 334.424 181.32 335.08V341.848L183.168 342.616V343H177ZM191.234 343.24C190.29 343.24 189.506 343 188.882 342.52C188.274 342.024 187.97 341.296 187.97 340.336V333.256L186.41 332.488V332.104H190.754V339.304C190.754 339.928 190.938 340.4 191.306 340.72C191.674 341.04 192.154 341.2 192.746 341.2C193.098 341.2 193.474 341.136 193.874 341.008C194.29 340.88 194.634 340.704 194.906 340.48V333.256L193.346 332.488V332.104H197.69V341.896L199.274 342.616V343H194.906V341.488H194.81C194.218 342.064 193.65 342.504 193.106 342.808C192.562 343.096 191.938 343.24 191.234 343.24ZM205.949 343.24C204.925 343.24 204.029 343.024 203.261 342.592C202.493 342.16 201.893 341.56 201.461 340.792C201.045 340.008 200.837 339.096 200.837 338.056C200.837 336.84 201.085 335.768 201.581 334.84C202.077 333.912 202.757 333.184 203.621 332.656C204.501 332.128 205.509 331.864 206.645 331.864C207.349 331.864 208.005 331.976 208.613 332.2C209.237 332.408 209.701 332.688 210.005 333.04C210.261 333.344 210.389 333.584 210.389 333.76C210.389 333.984 210.285 334.176 210.077 334.336L209.045 335.224H208.877L208.037 334.096C207.765 333.728 207.477 333.44 207.173 333.232C206.869 333.024 206.477 332.92 205.997 332.92C205.197 332.92 204.581 333.28 204.149 334C203.733 334.72 203.525 335.696 203.525 336.928C203.525 337.648 203.645 338.32 203.885 338.944C204.141 339.552 204.541 340.048 205.085 340.432C205.645 340.8 206.381 340.984 207.293 340.984C207.741 340.984 208.221 340.92 208.733 340.792C209.245 340.664 209.789 340.448 210.365 340.144H210.437V340.48C210.053 341.248 209.469 341.904 208.685 342.448C207.917 342.976 207.005 343.24 205.949 343.24ZM216.567 343.24C215.703 343.24 214.975 343.032 214.383 342.616C213.807 342.2 213.519 341.616 213.519 340.864V333.208H211.695V332.968L213.855 332.104L215.967 329.464H216.303V332.104H219.567V333.208H216.303V340.336C216.303 340.736 216.479 341.04 216.831 341.248C217.183 341.44 217.607 341.536 218.103 341.536C218.407 341.536 218.679 341.52 218.919 341.488C219.175 341.456 219.407 341.416 219.615 341.368L219.687 341.392V341.728C219.463 342.096 219.071 342.44 218.511 342.76C217.951 343.08 217.303 343.24 216.567 343.24ZM225.64 343.24C224.696 343.24 223.912 343 223.288 342.52C222.68 342.024 222.376 341.296 222.376 340.336V333.256L220.816 332.488V332.104H225.16V339.304C225.16 339.928 225.344 340.4 225.712 340.72C226.08 341.04 226.56 341.2 227.152 341.2C227.504 341.2 227.88 341.136 228.28 341.008C228.696 340.88 229.04 340.704 229.312 340.48V333.256L227.752 332.488V332.104H232.096V341.896L233.68 342.616V343H229.312V341.488H229.216C228.624 342.064 228.056 342.504 227.512 342.808C226.968 343.096 226.344 343.24 225.64 343.24ZM235.195 343V342.616L236.755 341.848V334.696L235.267 333.52V333.28L239.059 331.864H239.275L239.491 333.976H239.611C239.995 333.368 240.339 332.912 240.643 332.608C240.947 332.304 241.235 332.104 241.507 332.008C241.795 331.912 242.083 331.864 242.371 331.864C242.499 331.864 242.643 331.888 242.803 331.936C242.963 331.984 243.107 332.032 243.235 332.08C243.715 332.24 243.955 332.464 243.955 332.752C243.955 332.88 243.931 333.016 243.883 333.16L243.331 334.576H243.163L242.419 334.288C242.195 334.208 241.995 334.16 241.819 334.144C241.659 334.112 241.475 334.096 241.267 334.096C240.595 334.096 240.011 334.424 239.515 335.08V341.848L241.363 342.616V343H235.195ZM250.365 343.24C248.765 343.24 247.493 342.768 246.549 341.824C245.621 340.88 245.157 339.624 245.157 338.056C245.157 336.84 245.413 335.768 245.925 334.84C246.437 333.912 247.109 333.184 247.941 332.656C248.789 332.128 249.725 331.864 250.749 331.864C252.029 331.864 253.029 332.304 253.749 333.184C254.469 334.064 254.837 335.304 254.853 336.904L254.757 337.024H247.845C247.845 337.744 247.973 338.408 248.229 339.016C248.485 339.608 248.901 340.088 249.477 340.456C250.053 340.808 250.813 340.984 251.757 340.984C252.205 340.984 252.685 340.92 253.197 340.792C253.709 340.664 254.245 340.448 254.805 340.144H254.877V340.48C254.493 341.264 253.909 341.92 253.125 342.448C252.341 342.976 251.421 343.24 250.365 343.24ZM250.269 332.944C249.629 332.944 249.101 333.208 248.685 333.736C248.269 334.264 248.005 335 247.893 335.944H252.525C252.381 334.84 252.117 334.064 251.733 333.616C251.349 333.168 250.861 332.944 250.269 332.944ZM260.978 343.24C260.194 343.24 259.522 343.168 258.962 343.024C258.402 342.88 257.842 342.672 257.282 342.4V339.64H257.618L258.434 340.936C258.994 341.816 259.81 342.256 260.882 342.256C261.506 342.256 261.986 342.128 262.322 341.872C262.658 341.6 262.826 341.232 262.826 340.768C262.826 340.368 262.73 340.056 262.538 339.832C262.346 339.592 262.042 339.376 261.626 339.184C261.226 338.992 260.714 338.76 260.09 338.488C259.226 338.12 258.578 337.704 258.146 337.24C257.714 336.76 257.498 336.144 257.498 335.392C257.498 334.736 257.666 334.144 258.002 333.616C258.354 333.072 258.818 332.648 259.394 332.344C259.986 332.024 260.626 331.864 261.314 331.864C261.874 331.864 262.41 331.928 262.922 332.056C263.434 332.184 263.946 332.376 264.458 332.632V335.392H264.098L263.33 334.216C262.77 333.336 262.098 332.896 261.314 332.896C260.818 332.896 260.41 333.024 260.09 333.28C259.786 333.52 259.634 333.872 259.634 334.336C259.634 334.8 259.802 335.168 260.138 335.44C260.49 335.712 261.114 336.032 262.01 336.4C262.458 336.608 262.906 336.824 263.354 337.048C263.802 337.272 264.17 337.592 264.458 338.008C264.762 338.424 264.914 339.008 264.914 339.76C264.914 340.496 264.714 341.128 264.314 341.656C263.93 342.168 263.434 342.56 262.826 342.832C262.218 343.104 261.602 343.24 260.978 343.24ZM276.016 343.24C275.248 343.24 274.592 343.008 274.048 342.544C273.52 342.08 273.264 341.424 273.28 340.576C273.296 339.744 273.576 339.064 274.12 338.536C274.664 337.992 275.672 337.544 277.144 337.192L279.4 336.64V335.056C279.4 334.464 279.2 333.984 278.8 333.616C278.4 333.232 277.92 333.04 277.36 333.04C276.8 333.04 276.408 333.176 276.184 333.448C275.96 333.704 275.848 334.08 275.848 334.576V335.512L275.728 335.608H274.288C274.048 335.608 273.88 335.56 273.784 335.464C273.688 335.368 273.64 335.176 273.64 334.888C273.64 334.136 274.12 333.472 275.08 332.896C275.592 332.576 276.096 332.328 276.592 332.152C277.104 331.96 277.64 331.864 278.2 331.864C278.904 331.864 279.56 331.96 280.168 332.152C280.776 332.344 281.264 332.648 281.632 333.064C282 333.48 282.184 334.04 282.184 334.744V341.296C282.408 341.552 282.816 341.68 283.408 341.68H284.2L284.272 341.752V341.992C284.08 342.312 283.784 342.6 283.384 342.856C282.984 343.112 282.472 343.24 281.848 343.24C281.24 343.24 280.744 343.104 280.36 342.832C279.992 342.544 279.728 342.16 279.568 341.68H279.4C278.984 342.128 278.488 342.504 277.912 342.808C277.336 343.096 276.704 343.24 276.016 343.24ZM275.92 339.976C275.92 340.488 276.064 340.872 276.352 341.128C276.656 341.368 277.072 341.488 277.6 341.488C277.904 341.488 278.192 341.456 278.464 341.392C278.752 341.328 279.064 341.224 279.4 341.08V337.552C278.408 337.744 277.664 337.96 277.168 338.2C276.672 338.424 276.336 338.68 276.16 338.968C276 339.256 275.92 339.592 275.92 339.976ZM285.35 343V342.616L286.91 341.848V334.6L285.422 333.52V333.28L289.214 331.864H289.454L289.67 333.64H289.79C290.382 333.064 290.95 332.624 291.493 332.32C292.054 332.016 292.686 331.864 293.39 331.864C294.35 331.864 295.134 332.112 295.742 332.608C296.366 333.104 296.678 333.824 296.678 334.768V341.848L298.238 342.616V343H292.478V342.616L293.894 341.848V335.8C293.894 335.192 293.71 334.728 293.342 334.408C292.974 334.072 292.494 333.904 291.902 333.904C291.534 333.904 291.142 333.968 290.726 334.096C290.31 334.224 289.966 334.4 289.694 334.624V341.848L291.11 342.616V343H285.35ZM303.89 343.24C303.122 343.24 302.426 343.04 301.802 342.64C301.194 342.24 300.706 341.672 300.338 340.936C299.97 340.2 299.786 339.336 299.786 338.344C299.786 337 300.034 335.848 300.53 334.888C301.042 333.912 301.73 333.168 302.594 332.656C303.458 332.128 304.426 331.864 305.498 331.864C306.282 331.864 306.954 331.936 307.514 332.08V327.736L305.906 326.536V326.32L310.058 325H310.274V341.92L311.978 342.616V343H307.754L307.562 341.8H307.394C306.786 342.312 306.21 342.68 305.666 342.904C305.122 343.128 304.53 343.24 303.89 343.24ZM302.57 337.672C302.57 338.952 302.874 339.896 303.482 340.504C304.09 341.096 304.794 341.392 305.594 341.392C306.234 341.392 306.874 341.2 307.514 340.816V333.976C307.226 333.704 306.922 333.496 306.602 333.352C306.298 333.192 305.954 333.112 305.57 333.112C305.026 333.112 304.53 333.256 304.082 333.544C303.634 333.816 303.266 334.288 302.978 334.96C302.706 335.616 302.57 336.52 302.57 337.672ZM142.385 380V379.616L143.873 378.8L150.089 364.04H151.769L157.913 378.752L159.545 379.616V380H152.633V379.616L154.721 378.776L153.017 374.6H147.257L145.577 378.776L147.569 379.616V380H142.385ZM147.809 373.28H152.465L150.137 367.544L147.809 373.28ZM160.813 380V379.616L162.397 378.848V364.736L160.885 363.56V363.32L164.941 362H165.157V378.848L166.621 379.616V380H160.813ZM173.664 376.448C172.928 376.448 172.248 376.32 171.624 376.064C171.384 376.192 171.216 376.352 171.12 376.544C171.024 376.72 170.976 376.904 170.976 377.096C170.976 377.512 171.12 377.816 171.408 378.008C171.696 378.184 172.144 378.272 172.752 378.272H175.512C176.728 378.272 177.624 378.544 178.2 379.088C178.776 379.616 179.064 380.4 179.064 381.44C179.064 382.16 178.816 382.848 178.32 383.504C177.84 384.16 177.152 384.696 176.256 385.112C175.36 385.544 174.296 385.76 173.064 385.76C171.512 385.76 170.4 385.504 169.728 384.992C169.072 384.48 168.744 383.84 168.744 383.072C168.744 382.48 168.888 381.976 169.176 381.56L170.736 380.552V380.456C169.504 380.104 168.888 379.36 168.888 378.224C168.888 377.536 169.104 376.976 169.536 376.544L170.88 375.8V375.656C170.368 375.32 169.96 374.896 169.656 374.384C169.352 373.856 169.2 373.28 169.2 372.656C169.2 371.952 169.392 371.312 169.776 370.736C170.176 370.16 170.712 369.712 171.384 369.392C172.056 369.056 172.816 368.888 173.664 368.888C174.064 368.888 174.472 368.936 174.888 369.032C175.304 369.112 175.664 369.224 175.968 369.368L179.64 369.128V370.52L177.288 370.352L177.192 370.424C177.48 370.696 177.704 371.032 177.864 371.432C178.04 371.832 178.128 372.24 178.128 372.656C178.128 373.376 177.928 374.024 177.528 374.6C177.144 375.16 176.616 375.608 175.944 375.944C175.272 376.28 174.512 376.448 173.664 376.448ZM173.88 375.44C174.424 375.44 174.848 375.184 175.152 374.672C175.472 374.16 175.632 373.512 175.632 372.728C175.632 371.848 175.432 371.152 175.032 370.64C174.648 370.128 174.16 369.872 173.568 369.872C172.96 369.872 172.496 370.136 172.176 370.664C171.872 371.176 171.72 371.816 171.72 372.584C171.72 373.464 171.92 374.16 172.32 374.672C172.72 375.184 173.24 375.44 173.88 375.44ZM170.64 382.688C170.64 383.344 170.88 383.888 171.36 384.32C171.84 384.752 172.488 384.968 173.304 384.968C174.344 384.968 175.176 384.704 175.8 384.176C176.424 383.664 176.736 383.056 176.736 382.352C176.736 381.712 176.56 381.264 176.208 381.008C175.872 380.752 175.264 380.624 174.384 380.624H172.104C171.944 380.624 171.792 380.616 171.648 380.6C171.296 380.84 171.04 381.128 170.88 381.464C170.72 381.8 170.64 382.208 170.64 382.688ZM186.915 380.24C185.827 380.24 184.859 379.984 184.011 379.472C183.179 378.96 182.531 378.28 182.067 377.432C181.603 376.568 181.371 375.608 181.371 374.552C181.371 373.496 181.603 372.544 182.067 371.696C182.531 370.832 183.179 370.144 184.011 369.632C184.859 369.12 185.827 368.864 186.915 368.864C188.019 368.864 188.987 369.12 189.819 369.632C190.651 370.144 191.299 370.832 191.763 371.696C192.227 372.544 192.459 373.496 192.459 374.552C192.459 375.608 192.227 376.568 191.763 377.432C191.299 378.28 190.651 378.96 189.819 379.472C188.987 379.984 188.019 380.24 186.915 380.24ZM187.203 379.112C187.747 379.112 188.187 378.92 188.523 378.536C188.875 378.152 189.131 377.648 189.291 377.024C189.451 376.4 189.531 375.736 189.531 375.032C189.531 374.168 189.427 373.352 189.219 372.584C189.027 371.8 188.723 371.168 188.307 370.688C187.891 370.208 187.347 369.968 186.675 369.968C186.131 369.968 185.683 370.16 185.331 370.544C184.979 370.928 184.715 371.432 184.539 372.056C184.379 372.68 184.299 373.344 184.299 374.048C184.299 374.912 184.395 375.728 184.587 376.496C184.795 377.264 185.115 377.896 185.547 378.392C185.979 378.872 186.531 379.112 187.203 379.112ZM194.425 380V379.616L195.985 378.848V371.696L194.497 370.52V370.28L198.289 368.864H198.505L198.721 370.976H198.841C199.225 370.368 199.569 369.912 199.873 369.608C200.177 369.304 200.465 369.104 200.737 369.008C201.025 368.912 201.313 368.864 201.601 368.864C201.729 368.864 201.873 368.888 202.033 368.936C202.193 368.984 202.337 369.032 202.465 369.08C202.945 369.24 203.185 369.464 203.185 369.752C203.185 369.88 203.161 370.016 203.113 370.16L202.561 371.576H202.393L201.649 371.288C201.425 371.208 201.225 371.16 201.049 371.144C200.889 371.112 200.705 371.096 200.497 371.096C199.825 371.096 199.241 371.424 198.745 372.08V378.848L200.593 379.616V380H194.425ZM207.243 366.296C206.779 366.296 206.395 366.144 206.091 365.84C205.787 365.52 205.635 365.128 205.635 364.664C205.635 364.2 205.787 363.816 206.091 363.512C206.395 363.208 206.779 363.056 207.243 363.056C207.707 363.056 208.091 363.208 208.395 363.512C208.715 363.816 208.875 364.2 208.875 364.664C208.875 365.128 208.715 365.52 208.395 365.84C208.091 366.144 207.707 366.296 207.243 366.296ZM204.363 380V379.616L205.923 378.848V371.6L204.435 370.448V370.184L208.467 368.864H208.707V378.848L210.171 379.616V380H204.363ZM216.344 380.24C215.48 380.24 214.752 380.032 214.16 379.616C213.584 379.2 213.296 378.616 213.296 377.864V370.208H211.472V369.968L213.632 369.104L215.744 366.464H216.08V369.104H219.344V370.208H216.08V377.336C216.08 377.736 216.256 378.04 216.608 378.248C216.96 378.44 217.384 378.536 217.88 378.536C218.184 378.536 218.456 378.52 218.696 378.488C218.952 378.456 219.184 378.416 219.392 378.368L219.464 378.392V378.728C219.24 379.096 218.848 379.44 218.288 379.76C217.728 380.08 217.08 380.24 216.344 380.24ZM221.025 380V379.616L222.585 378.848V364.736L221.097 363.56V363.32L225.129 362H225.369V370.64H225.465C226.057 370.064 226.625 369.624 227.169 369.32C227.729 369.016 228.361 368.864 229.065 368.864C230.025 368.864 230.809 369.112 231.417 369.608C232.041 370.104 232.353 370.824 232.353 371.768V378.848L233.913 379.616V380H228.153V379.616L229.569 378.896V372.8C229.569 372.192 229.385 371.728 229.017 371.408C228.649 371.072 228.169 370.904 227.577 370.904C227.209 370.904 226.817 370.968 226.401 371.096C225.985 371.224 225.641 371.4 225.369 371.624V378.896L226.785 379.616V380H221.025ZM235.486 380V379.616L237.046 378.848V371.6L235.558 370.52V370.28L239.35 368.864H239.59L239.806 370.64H239.926C240.502 370.064 241.054 369.624 241.582 369.32C242.126 369.016 242.75 368.864 243.454 368.864C244.222 368.864 244.878 369.04 245.422 369.392C245.982 369.728 246.35 370.232 246.526 370.904H246.598C247.238 370.248 247.838 369.744 248.398 369.392C248.974 369.04 249.638 368.864 250.39 368.864C251.318 368.864 252.078 369.112 252.67 369.608C253.262 370.104 253.558 370.824 253.558 371.768V378.848L255.118 379.616V380H249.358V379.616L250.774 378.848V372.8C250.774 372.192 250.598 371.728 250.246 371.408C249.894 371.072 249.438 370.904 248.878 370.904C248.446 370.904 248.03 370.984 247.63 371.144C247.23 371.288 246.894 371.496 246.622 371.768V378.848L248.014 379.616V380H242.494V379.616L243.838 378.848V372.8C243.838 372.192 243.662 371.728 243.31 371.408C242.958 371.072 242.502 370.904 241.942 370.904C241.59 370.904 241.214 370.968 240.814 371.096C240.43 371.224 240.102 371.4 239.83 371.624V378.848L241.15 379.616V380H235.486ZM260.849 380.24C260.065 380.24 259.393 380.168 258.833 380.024C258.273 379.88 257.713 379.672 257.153 379.4V376.64H257.489L258.305 377.936C258.865 378.816 259.681 379.256 260.753 379.256C261.377 379.256 261.857 379.128 262.193 378.872C262.529 378.6 262.697 378.232 262.697 377.768C262.697 377.368 262.601 377.056 262.409 376.832C262.217 376.592 261.913 376.376 261.497 376.184C261.097 375.992 260.585 375.76 259.961 375.488C259.097 375.12 258.449 374.704 258.017 374.24C257.585 373.76 257.369 373.144 257.369 372.392C257.369 371.736 257.537 371.144 257.873 370.616C258.225 370.072 258.689 369.648 259.265 369.344C259.857 369.024 260.497 368.864 261.185 368.864C261.745 368.864 262.281 368.928 262.793 369.056C263.305 369.184 263.817 369.376 264.329 369.632V372.392H263.969L263.201 371.216C262.641 370.336 261.969 369.896 261.185 369.896C260.689 369.896 260.281 370.024 259.961 370.28C259.657 370.52 259.505 370.872 259.505 371.336C259.505 371.8 259.673 372.168 260.009 372.44C260.361 372.712 260.985 373.032 261.881 373.4C262.329 373.608 262.777 373.824 263.225 374.048C263.673 374.272 264.041 374.592 264.329 375.008C264.633 375.424 264.785 376.008 264.785 376.76C264.785 377.496 264.585 378.128 264.185 378.656C263.801 379.168 263.305 379.56 262.697 379.832C262.089 380.104 261.473 380.24 260.849 380.24Z" fill="black"/>
<defs>
<linearGradient id="paint0_linear" x1="1.89273e-07" y1="27.0588" x2="405.548" y2="20.4222" gradientUnits="userSpaceOnUse">
<stop offset="0.150403" stop-color="#F7980B"/>
<stop offset="0.424216" stop-color="#EC9F2C"/>
<stop offset="0.934806" stop-color="#FFB648"/>
</linearGradient>
<linearGradient id="paint1_linear" x1="405" y1="510.941" x2="-0.548219" y2="517.578" gradientUnits="userSpaceOnUse">
<stop offset="0.150403" stop-color="#F7980B"/>
<stop offset="0.424216" stop-color="#EC9F2C"/>
<stop offset="0.934806" stop-color="#FFB648"/>
</linearGradient>
</defs>
</svg>
