<svg width="244" height="159" viewBox="0 0 244 159" fill="none" xmlns="http://www.w3.org/2000/svg">
<rect x="0.25" y="0.25" width="243.5" height="158.5" rx="0.75" fill="white" stroke="#D960F8" stroke-width="0.5"/>
<path d="M5.71995 107.301C3.73232 105.283 -1.78814e-06 106.691 -1.78814e-06 109.523V156C-1.78814e-06 157.657 1.34314 159 2.99999 159L240.187 159C242.13 159 243.563 157.167 242.762 155.398C236.122 140.728 212.584 135.241 190.026 142.991C165.707 151.346 134.136 108.611 110.183 131.706C86.2304 154.801 76.9686 98.9004 54.9319 120.421C38.5296 136.439 16.1114 117.852 5.71995 107.301Z" fill="#C067F8" fill-opacity="0.906879"/>
<path d="M45.1172 81.7451L43.8369 82.3018C42.4886 79.6917 41.8145 77.1745 41.8145 74.75C41.8145 71.7441 42.7793 69.1712 44.709 67.0312C46.5768 64.9531 48.9023 63.543 51.6855 62.8008C53.0586 62.4297 54.4997 62.2441 56.0088 62.2441C57.5179 62.2441 58.891 62.3988 60.1279 62.708C61.3649 63.0173 62.5153 63.611 63.5791 64.4893C64.7295 63.5492 66.3499 63.0791 68.4404 63.0791L68.8115 64.2295C66.82 64.6253 65.4902 65.083 64.8223 65.6025C66.1211 66.8024 67.1045 68.3734 67.7725 70.3154C68.4404 72.2451 68.7744 74.113 68.7744 75.9189C68.7744 77.7126 68.6693 79.2155 68.459 80.4277C68.2487 81.64 67.9023 82.7842 67.4199 83.8604C66.9499 84.9242 66.3561 85.8333 65.6387 86.5879C64.1172 88.2331 62.1504 89.0557 59.7383 89.0557C57.3262 89.0557 54.7285 88.4557 51.9453 87.2559C51.2897 87.7507 50.3558 88.196 49.1436 88.5918C47.9437 88.9876 46.818 89.1855 45.7666 89.1855C43.6514 89.1855 42.5938 88.363 42.5938 86.7178C42.5938 85.7529 43.1318 84.9489 44.208 84.3057C45.2842 83.6501 46.6263 83.3223 48.2344 83.3223C49.8548 83.3223 51.4505 83.7057 53.0215 84.4727C54.4069 82.679 55.4954 80.1865 56.2871 76.9951C56.6087 75.7334 56.9674 74.4531 57.3633 73.1543C58.2786 70.1484 59.9424 67.5755 62.3545 65.4355C61.6989 64.8294 60.833 64.3656 59.7568 64.0439C58.693 63.71 57.654 63.543 56.6396 63.543C54.277 63.543 52.1556 64.0068 50.2754 64.9346C48.4076 65.8499 46.9108 67.2354 45.7852 69.0908C44.6595 70.9463 44.0967 73.1296 44.0967 75.6406C44.0967 77.459 44.4368 79.4938 45.1172 81.7451ZM66.6035 75.9746C66.6035 74.1686 66.3252 72.4368 65.7686 70.7793C65.2243 69.1217 64.5192 67.8477 63.6533 66.957C62.9111 68.0951 62.2988 69.8083 61.8164 72.0967C60.9876 76.1169 59.596 79.3763 57.6416 81.875C56.7262 83.0501 55.6439 84.1263 54.3945 85.1035C56.7819 86.3405 58.8167 86.959 60.499 86.959C62.2061 86.959 63.5049 86.3838 64.3955 85.2334C65.3109 84.0583 65.9108 82.6667 66.1953 81.0586C66.4674 79.4753 66.6035 77.7806 66.6035 75.9746ZM50.7021 86.3838C49.0075 85.6787 47.4242 85.3262 45.9521 85.3262C44.4925 85.3262 43.7627 85.7777 43.7627 86.6807C43.7627 87.4476 44.443 87.8311 45.8037 87.8311C46.5706 87.8311 47.4056 87.7012 48.3086 87.4414C49.224 87.1693 50.0218 86.8167 50.7021 86.3838ZM71.5205 88.8701C70.7165 88.5856 70.1413 88.2516 69.7949 87.8682C69.4486 87.4723 69.2754 87.0394 69.2754 86.5693C69.2754 86.0993 69.4053 85.7096 69.665 85.4004C69.9248 85.0911 70.265 84.9365 70.6855 84.9365C71.1185 84.9365 71.4958 85.0664 71.8174 85.3262C72.1514 85.5736 72.3184 85.9323 72.3184 86.4023C72.3184 86.86 72.0339 87.2435 71.4648 87.5527C71.9349 87.9609 72.6523 88.165 73.6172 88.165C75.7077 88.165 76.7529 87.5713 76.7529 86.3838C76.7529 85.6416 76.0911 85.0479 74.7676 84.6025C74.2233 84.417 73.6729 84.2191 73.1162 84.0088C72.5719 83.7985 72.0957 83.4893 71.6875 83.0811C71.2793 82.6729 71.0566 82.1781 71.0195 81.5967C71.0195 80.7555 71.2979 80.0443 71.8545 79.4629C72.9059 78.3496 74.4769 77.793 76.5674 77.793C77.5941 77.793 78.5033 77.9909 79.2949 78.3867C80.0866 78.7702 80.4824 79.2712 80.4824 79.8896C80.4824 80.5081 80.3216 80.9535 80 81.2256C79.6908 81.4977 79.3258 81.6338 78.9053 81.6338C78.4847 81.6338 78.126 81.5225 77.8291 81.2998C77.5446 81.0648 77.4023 80.7432 77.4023 80.335C77.4023 79.9268 77.6436 79.5742 78.126 79.2773C77.8291 79.0671 77.3158 78.9619 76.5859 78.9619C75.8561 78.9619 75.2005 79.0732 74.6191 79.2959C74.0378 79.5062 73.7471 79.7969 73.7471 80.168C73.7471 80.5391 73.9574 80.8483 74.3779 81.0957C74.8109 81.3431 75.3304 81.5719 75.9365 81.7822C76.5426 81.9925 77.1488 82.2337 77.7549 82.5059C78.361 82.778 78.8743 83.1676 79.2949 83.6748C79.7279 84.182 79.9443 84.8066 79.9443 85.5488C79.9443 86.291 79.6413 86.9652 79.0352 87.5713C77.8848 88.7217 76.3138 89.2969 74.3223 89.2969C73.2708 89.2969 72.3369 89.1546 71.5205 88.8701ZM92.2646 78.2012H95.1592L93.6934 83.749C93.4583 84.5283 93.3408 85.2396 93.3408 85.8828C93.3408 86.5137 93.4521 86.8291 93.6748 86.8291C93.8975 86.8291 94.2005 86.6374 94.584 86.2539C94.9798 85.8581 95.3138 85.4622 95.5859 85.0664L96.0127 84.4727L96.8105 85.2148C96.4023 86.0065 95.8828 86.7301 95.252 87.3857C94.0273 88.6598 92.9635 89.2969 92.0605 89.2969C90.9967 89.2969 90.4648 88.4743 90.4648 86.8291C90.4648 86.557 90.4772 86.3529 90.502 86.2168C90.3164 86.8477 89.9639 87.4043 89.4443 87.8867C88.4548 88.8268 87.3353 89.2969 86.0859 89.2969C84.849 89.2969 83.8532 88.8763 83.0986 88.0352C82.3564 87.1816 81.9854 86.1178 81.9854 84.8438C81.9854 82.8646 82.6286 81.1947 83.915 79.834C85.2015 78.4733 86.7106 77.793 88.4424 77.793C89.3083 77.793 90.0257 78.0342 90.5947 78.5166C91.1637 78.9867 91.5348 79.6051 91.708 80.3721L92.2646 78.2012ZM89.166 79.3887C88.4486 79.3887 87.7744 79.6917 87.1436 80.2979C86.5251 80.8916 86.0488 81.6152 85.7148 82.4688C85.3809 83.3099 85.2139 84.1325 85.2139 84.9365C85.2139 85.7406 85.387 86.39 85.7334 86.8848C86.0921 87.3796 86.6364 87.627 87.3662 87.627C88.1084 87.627 88.7764 87.293 89.3701 86.625C90.4958 85.3385 91.0586 83.8109 91.0586 82.042C91.0586 80.2731 90.4277 79.3887 89.166 79.3887ZM102.859 87.2188C103.911 87.2188 104.975 86.8477 106.051 86.1055C107.127 85.3633 107.987 84.4974 108.63 83.5078C109.273 82.5059 109.595 81.6152 109.595 80.8359C109.521 80.9349 109.248 80.9844 108.778 80.9844C108.321 80.9844 107.95 80.8359 107.665 80.5391C107.381 80.2298 107.238 79.8649 107.238 79.4443C107.238 79.0114 107.399 78.6279 107.721 78.2939C108.042 77.96 108.488 77.793 109.057 77.793C110.628 77.793 111.413 78.6527 111.413 80.3721C111.413 81.1514 111.172 82.042 110.689 83.0439C110.207 84.0459 109.545 85.0169 108.704 85.957C107.875 86.8971 106.799 87.6888 105.476 88.332C104.164 88.9753 102.773 89.2969 101.301 89.2969C99.8411 89.2969 99.1113 88.5856 99.1113 87.1631C99.1113 86.359 99.3402 85.2705 99.7979 83.8975C100.268 82.512 100.503 81.6276 100.503 81.2441C100.503 80.8607 100.392 80.6689 100.169 80.6689C99.835 80.6689 99.1732 81.473 98.1836 83.0811L96.9775 82.3945C98.7959 79.3268 100.466 77.793 101.987 77.793C102.396 77.793 102.748 77.9476 103.045 78.2568C103.354 78.5537 103.509 79.0485 103.509 79.7412C103.509 80.4215 103.261 81.6833 102.767 83.5264C102.272 85.3695 102.024 86.3467 102.024 86.458C102.024 86.9652 102.303 87.2188 102.859 87.2188ZM115.996 89.2969C115.477 89.2969 115.068 89.1361 114.771 88.8145C114.475 88.4928 114.326 88.0537 114.326 87.4971C114.326 86.9281 114.468 86.1611 114.753 85.1963C115.05 84.2191 115.34 83.3346 115.625 82.543C115.922 81.7513 116.07 81.2256 116.07 80.9658C116.07 80.6937 115.984 80.5576 115.811 80.5576C115.378 80.5576 114.679 81.4111 113.714 83.1182L112.471 82.3945C114.289 79.3268 115.959 77.793 117.48 77.793C118.52 77.793 119.039 78.4486 119.039 79.7598C119.039 80.1432 118.915 80.7555 118.668 81.5967L117.332 85.4189C117.196 85.7777 117.128 86.1055 117.128 86.4023C117.128 86.6868 117.239 86.8291 117.462 86.8291C117.882 86.8291 118.656 86.0498 119.781 84.4912L120.561 85.2148C119.893 86.4518 119.095 87.4414 118.167 88.1836C117.252 88.9258 116.528 89.2969 115.996 89.2969ZM121.284 72.3193C121.284 72.8141 121.117 73.2656 120.783 73.6738C120.449 74.082 119.998 74.2861 119.429 74.2861C118.86 74.2861 118.433 74.1191 118.148 73.7852C117.864 73.4388 117.722 73.0059 117.722 72.4863C117.722 71.9668 117.895 71.5091 118.241 71.1133C118.6 70.7051 119.058 70.501 119.614 70.501C120.171 70.501 120.585 70.6803 120.857 71.0391C121.142 71.3854 121.284 71.8122 121.284 72.3193ZM123.399 88.8701C122.595 88.5856 122.02 88.2516 121.674 87.8682C121.327 87.4723 121.154 87.0394 121.154 86.5693C121.154 86.0993 121.284 85.7096 121.544 85.4004C121.804 85.0911 122.144 84.9365 122.564 84.9365C122.997 84.9365 123.375 85.0664 123.696 85.3262C124.03 85.5736 124.197 85.9323 124.197 86.4023C124.197 86.86 123.913 87.2435 123.344 87.5527C123.814 87.9609 124.531 88.165 125.496 88.165C127.587 88.165 128.632 87.5713 128.632 86.3838C128.632 85.6416 127.97 85.0479 126.646 84.6025C126.102 84.417 125.552 84.2191 124.995 84.0088C124.451 83.7985 123.975 83.4893 123.566 83.0811C123.158 82.6729 122.936 82.1781 122.898 81.5967C122.898 80.7555 123.177 80.0443 123.733 79.4629C124.785 78.3496 126.356 77.793 128.446 77.793C129.473 77.793 130.382 77.9909 131.174 78.3867C131.965 78.7702 132.361 79.2712 132.361 79.8896C132.361 80.5081 132.201 80.9535 131.879 81.2256C131.57 81.4977 131.205 81.6338 130.784 81.6338C130.364 81.6338 130.005 81.5225 129.708 81.2998C129.424 81.0648 129.281 80.7432 129.281 80.335C129.281 79.9268 129.522 79.5742 130.005 79.2773C129.708 79.0671 129.195 78.9619 128.465 78.9619C127.735 78.9619 127.079 79.0732 126.498 79.2959C125.917 79.5062 125.626 79.7969 125.626 80.168C125.626 80.5391 125.836 80.8483 126.257 81.0957C126.69 81.3431 127.209 81.5719 127.815 81.7822C128.422 81.9925 129.028 82.2337 129.634 82.5059C130.24 82.778 130.753 83.1676 131.174 83.6748C131.607 84.182 131.823 84.8066 131.823 85.5488C131.823 86.291 131.52 86.9652 130.914 87.5713C129.764 88.7217 128.193 89.2969 126.201 89.2969C125.15 89.2969 124.216 89.1546 123.399 88.8701ZM148.541 78.2012C146.883 82.6172 146.055 85.2952 146.055 86.2354C146.055 86.6312 146.154 86.8291 146.352 86.8291C146.896 86.8291 147.688 86.0374 148.727 84.4541L149.524 85.2148C148.869 86.39 148.09 87.3672 147.187 88.1465C146.296 88.9134 145.572 89.2969 145.016 89.2969C143.865 89.2969 143.29 88.7155 143.29 87.5527C143.29 86.6497 143.5 85.5488 143.921 84.25C144.341 82.9512 144.552 82.2956 144.552 82.2832C144.49 82.3945 144.341 82.6543 144.106 83.0625C143.871 83.4583 143.698 83.7552 143.587 83.9531C143.476 84.151 143.29 84.4541 143.03 84.8623C142.783 85.2581 142.573 85.5736 142.399 85.8086C142.239 86.0312 142.016 86.3219 141.731 86.6807C141.459 87.0394 141.212 87.3239 140.989 87.5342C140.779 87.7445 140.525 87.9795 140.229 88.2393C139.932 88.4867 139.647 88.6784 139.375 88.8145C138.757 89.1361 138.15 89.2969 137.557 89.2969C136.085 89.2969 135.349 88.4867 135.349 86.8662C135.349 86.124 135.615 84.9736 136.146 83.415C136.678 81.8441 136.944 80.9225 136.944 80.6504C136.944 80.3659 136.858 80.2236 136.685 80.2236C136.19 80.2236 135.503 81.0091 134.625 82.5801L133.419 81.8564C135.114 79.1475 136.746 77.793 138.317 77.793C138.837 77.793 139.251 77.9414 139.561 78.2383C139.87 78.5228 140.012 78.9681 139.987 79.5742C139.975 80.168 139.672 81.238 139.078 82.7842C138.497 84.318 138.206 85.4932 138.206 86.3096C138.206 86.7549 138.41 86.9775 138.818 86.9775C139.288 86.9775 139.845 86.6807 140.488 86.0869C141.144 85.4808 141.775 84.7448 142.381 83.8789C143.346 82.5182 144.348 80.9225 145.387 79.0918L145.888 78.2012H148.541ZM160.769 78.2012H163.663L162.197 83.749C161.962 84.5283 161.845 85.2396 161.845 85.8828C161.845 86.5137 161.956 86.8291 162.179 86.8291C162.401 86.8291 162.704 86.6374 163.088 86.2539C163.484 85.8581 163.818 85.4622 164.09 85.0664L164.517 84.4727L165.314 85.2148C164.906 86.0065 164.387 86.7301 163.756 87.3857C162.531 88.6598 161.467 89.2969 160.564 89.2969C159.501 89.2969 158.969 88.4743 158.969 86.8291C158.969 86.557 158.981 86.3529 159.006 86.2168C158.82 86.8477 158.468 87.4043 157.948 87.8867C156.959 88.8268 155.839 89.2969 154.59 89.2969C153.353 89.2969 152.357 88.8763 151.603 88.0352C150.86 87.1816 150.489 86.1178 150.489 84.8438C150.489 82.8646 151.132 81.1947 152.419 79.834C153.705 78.4733 155.215 77.793 156.946 77.793C157.812 77.793 158.53 78.0342 159.099 78.5166C159.668 78.9867 160.039 79.6051 160.212 80.3721L160.769 78.2012ZM157.67 79.3887C156.952 79.3887 156.278 79.6917 155.647 80.2979C155.029 80.8916 154.553 81.6152 154.219 82.4688C153.885 83.3099 153.718 84.1325 153.718 84.9365C153.718 85.7406 153.891 86.39 154.237 86.8848C154.596 87.3796 155.14 87.627 155.87 87.627C156.612 87.627 157.28 87.293 157.874 86.625C159 85.3385 159.562 83.8109 159.562 82.042C159.562 80.2731 158.932 79.3887 157.67 79.3887ZM173.219 64.3223H176.225C175.693 65.2376 174.876 67.2725 173.775 70.4268C172.674 73.5687 171.666 76.7354 170.751 79.9268C169.848 83.1058 169.396 85.054 169.396 85.7715C169.396 86.4766 169.483 86.8291 169.656 86.8291C170.176 86.8291 170.986 86.0436 172.087 84.4727L172.866 85.2148C172.322 86.1549 171.734 86.9466 171.104 87.5898C169.99 88.7279 169.087 89.2969 168.395 89.2969C167.133 89.2969 166.502 88.5361 166.502 87.0146C166.502 84.751 167.25 81.1823 168.747 76.3086C170.256 71.4349 171.747 67.4395 173.219 64.3223ZM180.752 64.3223H183.758C183.226 65.2376 182.41 67.2725 181.309 70.4268C180.208 73.5687 179.2 76.7354 178.284 79.9268C177.381 83.1058 176.93 85.054 176.93 85.7715C176.93 86.4766 177.016 86.8291 177.189 86.8291C177.709 86.8291 178.519 86.0436 179.62 84.4727L180.399 85.2148C179.855 86.1549 179.268 86.9466 178.637 87.5898C177.523 88.7279 176.62 89.2969 175.928 89.2969C174.666 89.2969 174.035 88.5361 174.035 87.0146C174.035 84.751 174.784 81.1823 176.28 76.3086C177.789 71.4349 179.28 67.4395 180.752 64.3223ZM182.255 82.5801L181.049 81.8564C181.667 80.7803 182.434 79.834 183.35 79.0176C184.277 78.2012 185.106 77.793 185.836 77.793C187.023 77.793 187.617 78.3249 187.617 79.3887C187.617 79.834 187.308 80.9163 186.689 82.6357C186.083 84.3551 185.78 85.4437 185.78 85.9014C185.78 86.359 185.811 86.6559 185.873 86.792C185.935 86.9157 186.071 86.9775 186.281 86.9775C187.407 86.9775 188.563 86.557 189.751 85.7158C190.951 84.8623 191.73 83.9222 192.089 82.8955L193.388 79.1104C193.524 78.7269 193.734 78.4238 194.019 78.2012C194.303 77.9785 194.575 77.8672 194.835 77.8672C195.107 77.8672 195.324 77.9538 195.484 78.127C195.658 78.3001 195.744 78.529 195.744 78.8135C195.744 79.098 195.688 79.3949 195.577 79.7041L194.167 83.8232C193.388 86.2477 192.182 88.6351 190.549 90.9854C191.971 91.1338 193.239 91.3874 194.353 91.7461L194.204 92.7852C192.497 92.4388 190.988 92.2347 189.677 92.1729C188.477 93.7191 187.246 94.9499 185.984 95.8652C184.735 96.793 183.64 97.2568 182.7 97.2568C181.772 97.2568 181.08 97.0651 180.622 96.6816C180.152 96.3105 179.917 95.7972 179.917 95.1416C179.917 94.486 180.164 93.8861 180.659 93.3418C181.154 92.8099 181.816 92.377 182.645 92.043C184.327 91.3503 186.257 90.9544 188.434 90.8555C188.607 90.6576 189.021 89.9648 189.677 88.7773C190.332 87.5775 190.685 86.8229 190.734 86.5137C188.545 88.3691 186.615 89.2969 184.945 89.2969C184.265 89.2969 183.77 89.068 183.461 88.6104C183.152 88.1403 182.997 87.5651 182.997 86.8848C182.997 86.2044 183.251 85.0417 183.758 83.3965C184.277 81.7389 184.537 80.7988 184.537 80.5762C184.537 80.3411 184.481 80.2236 184.37 80.2236C184.271 80.2236 184.16 80.2546 184.036 80.3164C183.912 80.3659 183.789 80.4525 183.665 80.5762C183.554 80.6875 183.449 80.7988 183.35 80.9102C183.251 81.0091 183.139 81.1514 183.016 81.3369C182.904 81.5225 182.818 81.6647 182.756 81.7637C182.496 82.1719 182.329 82.444 182.255 82.5801ZM187.617 92.1729C186.615 92.2347 185.595 92.4141 184.556 92.7109C182.552 93.2799 181.55 93.9479 181.55 94.7148C181.55 95.1725 181.834 95.4014 182.403 95.4014C182.972 95.4014 183.9 94.987 185.187 94.1582C186.473 93.3418 187.283 92.68 187.617 92.1729Z" fill="black" fill-opacity="0.78"/>
<path d="M243.596 1.96022C243.724 8.26376 244.402 43.7215 243.654 51.9359C243.615 52.37 243.293 52.7054 242.86 52.7581C238.645 53.2712 216.763 54.8057 202.881 33.7824C187.467 10.4374 159.104 42.2264 130.741 24.3451C113.061 13.1987 92.2666 6.87742 79.1103 3.69689C77.9074 3.4061 78.1535 1 79.391 1H242.597C243.141 1 243.585 1.41641 243.596 1.96022Z" fill="#C067F8"/>
</svg>
