<svg width="415" height="546" viewBox="0 0 415 546" fill="none" xmlns="http://www.w3.org/2000/svg">
<g filter="url(#filter0_d)">
<rect x="5.5" y="1.5" width="404" height="535" fill="white" stroke="#FFB648" stroke-width="3"/>
<path d="M409 538V446C409 446 394.518 470.654 383.032 470.654C371.546 470.654 332.095 457.425 330.097 480.275C328.1 503.124 237.212 502.523 224.727 488.693C212.243 474.863 138.334 471.255 121.854 488.693C98.3835 510.34 28.2252 492.301 19.9803 508.536C11.7353 524.771 4 538 4 538H409Z" fill="url(#paint0_linear)"/>
<path d="M6 0V92C6 92 20.4821 67.3464 31.9679 67.3464C43.4538 67.3464 82.9051 80.5752 84.9026 57.7255C86.9001 34.8758 177.788 35.4771 190.273 49.3072C202.757 63.1373 276.666 66.7451 293.146 49.3072C316.617 27.6601 386.775 45.6993 395.02 29.4641C403.265 13.2288 411 0 411 0H6Z" fill="url(#paint1_linear)"/>
<path d="M108.752 269V268.616L110.288 267.824L116.432 253.04H117.512L123.56 267.752L125.168 268.616V269H119.216V268.616L121.328 267.8L119.528 263.36H113.696L111.92 267.8L113.936 268.616V269H108.752ZM114.248 262.04H119L116.624 256.136L114.248 262.04ZM138.536 269.12L134.12 254.408L132.32 253.544V253.16H138.416V253.544L136.376 254.432L139.376 264.824H139.496L143.648 253.04H144.536L148.784 264.824H148.928L151.88 254.456L149.84 253.544V253.16H155.144V253.544L153.536 254.432L149.072 269.12H148.232L143.864 257.36H143.744L139.376 269.12H138.536ZM161.526 269.24C160.47 269.24 159.542 268.992 158.742 268.496C157.958 268 157.342 267.328 156.894 266.48C156.462 265.632 156.246 264.672 156.246 263.6C156.246 262.528 156.462 261.568 156.894 260.72C157.342 259.872 157.958 259.2 158.742 258.704C159.542 258.208 160.47 257.96 161.526 257.96C162.582 257.96 163.502 258.208 164.286 258.704C165.086 259.2 165.702 259.872 166.134 260.72C166.582 261.568 166.806 262.528 166.806 263.6C166.806 264.672 166.582 265.632 166.134 266.48C165.702 267.328 165.086 268 164.286 268.496C163.502 268.992 162.582 269.24 161.526 269.24ZM161.862 268.208C162.502 268.208 163.03 268.008 163.446 267.608C163.862 267.208 164.166 266.696 164.358 266.072C164.55 265.432 164.646 264.768 164.646 264.08C164.646 263.232 164.526 262.416 164.286 261.632C164.062 260.848 163.694 260.208 163.182 259.712C162.686 259.216 162.038 258.968 161.238 258.968C160.582 258.968 160.046 259.168 159.63 259.568C159.214 259.968 158.902 260.48 158.694 261.104C158.502 261.728 158.406 262.392 158.406 263.096C158.406 263.944 158.526 264.76 158.766 265.544C159.006 266.328 159.382 266.968 159.894 267.464C160.406 267.96 161.062 268.208 161.862 268.208ZM169.255 269V268.616L170.767 267.848V260.696L169.327 259.448V259.28L172.303 257.96H172.447L172.663 260H172.759C173.127 259.408 173.463 258.968 173.767 258.68C174.087 258.376 174.383 258.184 174.655 258.104C174.927 258.008 175.199 257.96 175.471 257.96C175.599 257.96 175.743 257.984 175.903 258.032C176.079 258.08 176.223 258.128 176.335 258.176C176.511 258.256 176.671 258.352 176.815 258.464C176.975 258.576 177.055 258.704 177.055 258.848C177.055 258.992 177.023 259.136 176.959 259.28L176.479 260.456H176.311L175.399 260.096C175.223 260.016 175.047 259.968 174.871 259.952C174.711 259.936 174.551 259.928 174.391 259.928C173.719 259.928 173.151 260.272 172.687 260.96V267.848L174.391 268.616V269H169.255ZM178.602 269V268.616L180.114 267.848V253.736L178.674 252.488V252.32L181.89 251H182.034V267.848L183.546 268.616V269H178.602ZM189.832 269.24C189.032 269.24 188.312 269.04 187.672 268.64C187.048 268.24 186.552 267.68 186.184 266.96C185.832 266.224 185.656 265.352 185.656 264.344C185.656 262.984 185.92 261.832 186.448 260.888C186.976 259.928 187.68 259.2 188.56 258.704C189.44 258.208 190.4 257.96 191.44 257.96C191.888 257.96 192.28 257.984 192.616 258.032C192.952 258.064 193.256 258.112 193.528 258.176V253.736L191.968 252.488V252.32L195.304 251H195.448V267.92L197.152 268.616V269H193.768L193.576 267.776H193.408C192.8 268.288 192.208 268.664 191.632 268.904C191.072 269.128 190.472 269.24 189.832 269.24ZM187.576 263.792C187.576 265.12 187.928 266.088 188.632 266.696C189.336 267.288 190.176 267.584 191.152 267.584C191.536 267.584 191.928 267.528 192.328 267.416C192.744 267.288 193.144 267.104 193.528 266.864V260.144C193.144 259.808 192.76 259.56 192.376 259.4C192.008 259.224 191.592 259.136 191.128 259.136C190.488 259.136 189.896 259.296 189.352 259.616C188.824 259.92 188.392 260.416 188.056 261.104C187.736 261.776 187.576 262.672 187.576 263.792ZM200.767 257.24L199.927 251.24H202.087L201.247 257.24H200.767ZM209.119 269.24C208.367 269.24 207.719 269.176 207.175 269.048C206.631 268.92 206.079 268.712 205.519 268.424V265.736H205.855L206.623 267.056C207.119 267.936 207.927 268.376 209.047 268.376C209.687 268.376 210.183 268.224 210.535 267.92C210.903 267.616 211.087 267.2 211.087 266.672C211.087 266.208 210.975 265.848 210.751 265.592C210.527 265.336 210.207 265.112 209.791 264.92C209.391 264.712 208.911 264.48 208.351 264.224C207.535 263.856 206.903 263.456 206.455 263.024C206.023 262.576 205.807 261.952 205.807 261.152C205.807 260.56 205.975 260.024 206.311 259.544C206.647 259.064 207.071 258.68 207.583 258.392C208.111 258.104 208.655 257.96 209.215 257.96C209.807 257.96 210.351 258.032 210.847 258.176C211.343 258.32 211.847 258.52 212.359 258.776V261.392H212.023L211.231 260.12C210.959 259.688 210.663 259.376 210.343 259.184C210.023 258.992 209.679 258.896 209.311 258.896C208.767 258.896 208.327 259.032 207.991 259.304C207.671 259.576 207.511 259.952 207.511 260.432C207.511 260.976 207.703 261.392 208.087 261.68C208.487 261.952 209.063 262.264 209.815 262.616C210.263 262.84 210.711 263.064 211.159 263.288C211.623 263.512 211.999 263.832 212.287 264.248C212.591 264.648 212.743 265.224 212.743 265.976C212.743 266.68 212.551 267.28 212.167 267.776C211.783 268.256 211.311 268.624 210.751 268.88C210.191 269.12 209.647 269.24 209.119 269.24ZM221.926 269V268.616L223.846 267.656V254.504L221.926 253.544V253.16H233.422V257.288H233.038L231.55 254.48H226.006V260.168H229.846L231.046 258.176H231.43V263.432H231.046L229.846 261.488H226.006V267.656L228.166 268.616V269H221.926ZM238.57 255.056C238.154 255.056 237.81 254.92 237.538 254.648C237.266 254.36 237.13 254.016 237.13 253.616C237.13 253.2 237.266 252.856 237.538 252.584C237.81 252.312 238.154 252.176 238.57 252.176C238.986 252.176 239.33 252.312 239.602 252.584C239.874 252.856 240.01 253.2 240.01 253.616C240.01 254.016 239.874 254.36 239.602 254.648C239.33 254.92 238.986 255.056 238.57 255.056ZM236.17 269V268.616L237.682 267.848V260.696L236.242 259.448V259.28L239.458 257.96H239.602V267.848L241.114 268.616V269H236.17ZM243.645 269V268.616L245.157 267.848V260.696L243.717 259.448V259.28L246.693 257.96H246.837L247.053 260H247.149C247.517 259.408 247.853 258.968 248.157 258.68C248.477 258.376 248.773 258.184 249.045 258.104C249.317 258.008 249.589 257.96 249.861 257.96C249.989 257.96 250.133 257.984 250.293 258.032C250.469 258.08 250.613 258.128 250.725 258.176C250.901 258.256 251.061 258.352 251.205 258.464C251.365 258.576 251.445 258.704 251.445 258.848C251.445 258.992 251.413 259.136 251.349 259.28L250.869 260.456H250.701L249.789 260.096C249.613 260.016 249.437 259.968 249.261 259.952C249.101 259.936 248.941 259.928 248.781 259.928C248.109 259.928 247.541 260.272 247.077 260.96V267.848L248.781 268.616V269H243.645ZM257.048 269.24C256.296 269.24 255.648 269.176 255.104 269.048C254.56 268.92 254.008 268.712 253.448 268.424V265.736H253.784L254.552 267.056C255.048 267.936 255.856 268.376 256.976 268.376C257.616 268.376 258.112 268.224 258.464 267.92C258.832 267.616 259.016 267.2 259.016 266.672C259.016 266.208 258.904 265.848 258.68 265.592C258.456 265.336 258.136 265.112 257.72 264.92C257.32 264.712 256.84 264.48 256.28 264.224C255.464 263.856 254.832 263.456 254.384 263.024C253.952 262.576 253.736 261.952 253.736 261.152C253.736 260.56 253.904 260.024 254.24 259.544C254.576 259.064 255 258.68 255.512 258.392C256.04 258.104 256.584 257.96 257.144 257.96C257.736 257.96 258.28 258.032 258.776 258.176C259.272 258.32 259.776 258.52 260.288 258.776V261.392H259.952L259.16 260.12C258.888 259.688 258.592 259.376 258.272 259.184C257.952 258.992 257.608 258.896 257.24 258.896C256.696 258.896 256.256 259.032 255.92 259.304C255.6 259.576 255.44 259.952 255.44 260.432C255.44 260.976 255.632 261.392 256.016 261.68C256.416 261.952 256.992 262.264 257.744 262.616C258.192 262.84 258.64 263.064 259.088 263.288C259.552 263.512 259.928 263.832 260.216 264.248C260.52 264.648 260.672 265.224 260.672 265.976C260.672 266.68 260.48 267.28 260.096 267.776C259.712 268.256 259.24 268.624 258.68 268.88C258.12 269.12 257.576 269.24 257.048 269.24ZM267.053 269.24C266.349 269.24 265.741 269.032 265.229 268.616C264.717 268.2 264.461 267.616 264.461 266.864V259.328H262.493V259.184L264.533 258.2L266.237 255.56H266.381V258.2H269.549V259.328H266.381V266.456C266.381 266.872 266.565 267.176 266.933 267.368C267.301 267.56 267.733 267.656 268.229 267.656C268.533 267.656 268.813 267.64 269.069 267.608C269.341 267.576 269.573 267.536 269.765 267.488H269.837V267.728C269.677 268.096 269.357 268.44 268.877 268.76C268.413 269.08 267.805 269.24 267.053 269.24ZM281.394 269.24C280.594 269.24 279.85 269.104 279.162 268.832C278.49 268.544 277.954 268.144 277.554 267.632C277.154 267.104 276.954 266.496 276.954 265.808C276.954 264.848 277.314 263.976 278.034 263.192C278.77 262.408 279.834 261.656 281.226 260.936C280.362 260.296 279.754 259.712 279.402 259.184C279.05 258.64 278.874 258.016 278.874 257.312C278.874 256.528 279.106 255.8 279.57 255.128C280.034 254.456 280.642 253.92 281.394 253.52C282.162 253.12 282.994 252.92 283.89 252.92C284.642 252.92 285.306 253.08 285.882 253.4C286.474 253.704 286.93 254.12 287.25 254.648C287.586 255.176 287.754 255.76 287.754 256.4C287.754 257.12 287.466 257.816 286.89 258.488C286.33 259.144 285.346 259.84 283.938 260.576C284.69 261.104 285.266 261.6 285.666 262.064C286.066 262.528 286.338 262.992 286.482 263.456C286.642 263.904 286.722 264.384 286.722 264.896C286.722 265.648 286.482 266.352 286.002 267.008C285.538 267.664 284.898 268.2 284.082 268.616C283.282 269.032 282.386 269.24 281.394 269.24ZM280.818 256.568C280.818 257.176 280.97 257.752 281.274 258.296C281.578 258.84 282.21 259.424 283.17 260.048C284.162 259.504 284.858 258.984 285.258 258.488C285.658 257.992 285.858 257.352 285.858 256.568C285.858 255.704 285.65 255.048 285.234 254.6C284.818 254.152 284.218 253.928 283.434 253.928C282.554 253.928 281.898 254.184 281.466 254.696C281.034 255.208 280.818 255.832 280.818 256.568ZM278.898 265.424C278.898 266.336 279.146 267.04 279.642 267.536C280.138 268.016 280.842 268.256 281.754 268.256C282.746 268.256 283.514 267.976 284.058 267.416C284.618 266.84 284.898 266.112 284.898 265.232C284.898 264.384 284.634 263.696 284.106 263.168C283.594 262.624 282.858 262.032 281.898 261.392C281.066 261.936 280.434 262.408 280.002 262.808C279.57 263.208 279.274 263.608 279.114 264.008C278.97 264.408 278.898 264.88 278.898 265.424ZM288.786 269L288.858 268.616L290.85 267.656L293.154 254.504L291.498 253.544L291.57 253.16H296.874C298.778 253.16 300.322 253.44 301.506 254C302.69 254.544 303.554 255.304 304.098 256.28C304.642 257.24 304.914 258.344 304.914 259.592C304.914 260.376 304.794 261.2 304.554 262.064C304.33 262.912 303.97 263.752 303.474 264.584C302.994 265.4 302.37 266.144 301.602 266.816C300.85 267.472 299.954 268 298.914 268.4C297.874 268.8 296.674 269 295.314 269H288.786ZM296.538 254.36H295.242L292.866 267.8H295.506C297.09 267.8 298.41 267.472 299.466 266.816C300.538 266.16 301.338 265.24 301.866 264.056C302.41 262.872 302.682 261.48 302.682 259.88C302.682 258.184 302.186 256.84 301.194 255.848C300.218 254.856 298.666 254.36 296.538 254.36ZM117.615 306.24C116.303 306.24 115.159 305.944 114.183 305.352C113.207 304.76 112.447 303.936 111.903 302.88C111.359 301.824 111.087 300.608 111.087 299.232C111.087 298.032 111.311 296.872 111.759 295.752C112.207 294.632 112.831 293.632 113.631 292.752C114.447 291.872 115.399 291.176 116.487 290.664C117.575 290.152 118.759 289.896 120.039 289.896C121.367 289.896 122.519 290.192 123.495 290.784C124.471 291.376 125.231 292.208 125.775 293.28C126.319 294.336 126.591 295.552 126.591 296.928C126.591 298.112 126.367 299.256 125.919 300.36C125.487 301.464 124.871 302.464 124.071 303.36C123.271 304.24 122.319 304.944 121.215 305.472C120.127 305.984 118.927 306.24 117.615 306.24ZM118.383 305.088C119.279 305.088 120.095 304.88 120.831 304.464C121.567 304.048 122.199 303.472 122.727 302.736C123.271 301.984 123.687 301.136 123.975 300.192C124.279 299.232 124.431 298.208 124.431 297.12C124.431 295.904 124.215 294.84 123.783 293.928C123.367 293.016 122.775 292.304 122.007 291.792C121.255 291.264 120.383 291 119.391 291C118.207 291 117.151 291.36 116.223 292.08C115.295 292.784 114.567 293.744 114.039 294.96C113.527 296.16 113.271 297.504 113.271 298.992C113.271 300.192 113.487 301.256 113.919 302.184C114.351 303.096 114.943 303.808 115.695 304.32C116.463 304.832 117.359 305.088 118.383 305.088ZM129.054 306L130.71 296.664L128.838 295.824V295.68L132.246 294.96H132.318V297.48H132.414C132.974 296.856 133.47 296.36 133.902 295.992C134.334 295.624 134.75 295.36 135.15 295.2C135.55 295.04 136.014 294.96 136.542 294.96C137.326 294.96 137.926 295.28 138.342 295.92C138.774 296.56 138.894 297.424 138.702 298.512L137.862 303.144C137.782 303.624 137.766 303.968 137.814 304.176C137.878 304.384 138.014 304.488 138.222 304.488C138.494 304.488 138.79 304.344 139.11 304.056C139.43 303.752 139.734 303.296 140.022 302.688L140.334 302.832C139.87 304.032 139.366 304.904 138.822 305.448C138.294 305.976 137.75 306.24 137.19 306.24C136.63 306.24 136.246 306.024 136.038 305.592C135.83 305.16 135.79 304.584 135.918 303.864L136.854 298.584C136.934 298.024 136.862 297.528 136.638 297.096C136.43 296.648 135.974 296.424 135.27 296.424C134.918 296.424 134.55 296.544 134.166 296.784C133.798 297.024 133.438 297.312 133.086 297.648C132.734 297.968 132.422 298.28 132.15 298.584L130.878 306H129.054ZM143.173 306.24C142.613 306.24 142.229 306.024 142.021 305.592C141.813 305.16 141.773 304.584 141.901 303.864L144.373 289.68L142.285 288.864V288.72L146.437 288H146.509L143.845 303.144C143.765 303.624 143.749 303.968 143.797 304.176C143.845 304.384 143.981 304.488 144.205 304.488C144.477 304.488 144.773 304.344 145.093 304.056C145.413 303.752 145.717 303.296 146.005 302.688L146.317 302.832C145.853 304.032 145.349 304.904 144.805 305.448C144.277 305.976 143.733 306.24 143.173 306.24ZM151.64 291.96C151.272 291.96 150.952 291.824 150.68 291.552C150.408 291.28 150.272 290.96 150.272 290.592C150.272 290.224 150.408 289.904 150.68 289.632C150.952 289.36 151.272 289.224 151.64 289.224C152.008 289.224 152.328 289.36 152.6 289.632C152.872 289.904 153.008 290.224 153.008 290.592C153.008 290.96 152.872 291.28 152.6 291.552C152.328 291.824 152.008 291.96 151.64 291.96ZM149.936 306.24C149.376 306.24 148.992 306.024 148.784 305.592C148.576 305.16 148.536 304.584 148.664 303.864L149.936 296.64L147.848 295.824V295.68L152 294.96H152.072L150.608 303.144C150.528 303.624 150.512 303.968 150.56 304.176C150.608 304.384 150.744 304.488 150.968 304.488C151.24 304.488 151.536 304.344 151.856 304.056C152.176 303.752 152.48 303.296 152.768 302.688L153.08 302.832C152.616 304.032 152.112 304.904 151.568 305.448C151.04 305.976 150.496 306.24 149.936 306.24ZM154.882 306L156.538 296.664L154.666 295.824V295.68L158.074 294.96H158.146V297.48H158.242C158.802 296.856 159.298 296.36 159.73 295.992C160.162 295.624 160.578 295.36 160.978 295.2C161.378 295.04 161.842 294.96 162.37 294.96C163.154 294.96 163.754 295.28 164.17 295.92C164.602 296.56 164.722 297.424 164.53 298.512L163.69 303.144C163.61 303.624 163.594 303.968 163.642 304.176C163.706 304.384 163.842 304.488 164.05 304.488C164.322 304.488 164.618 304.344 164.938 304.056C165.258 303.752 165.562 303.296 165.85 302.688L166.162 302.832C165.698 304.032 165.194 304.904 164.65 305.448C164.122 305.976 163.578 306.24 163.018 306.24C162.458 306.24 162.074 306.024 161.866 305.592C161.658 305.16 161.618 304.584 161.746 303.864L162.682 298.584C162.762 298.024 162.69 297.528 162.466 297.096C162.258 296.648 161.802 296.424 161.098 296.424C160.746 296.424 160.378 296.544 159.994 296.784C159.626 297.024 159.266 297.312 158.914 297.648C158.562 297.968 158.25 298.28 157.978 298.584L156.706 306H154.882ZM171.119 306.24C169.887 306.24 168.983 305.904 168.407 305.232C167.831 304.544 167.543 303.616 167.543 302.448C167.543 301.504 167.695 300.592 167.999 299.712C168.319 298.816 168.751 298.016 169.295 297.312C169.855 296.592 170.495 296.024 171.215 295.608C171.951 295.176 172.743 294.96 173.591 294.96C174.391 294.96 174.991 295.144 175.391 295.512C175.807 295.88 176.015 296.312 176.015 296.808C176.015 297.352 175.823 297.856 175.439 298.32C175.055 298.768 174.383 299.184 173.423 299.568C172.479 299.936 171.143 300.264 169.415 300.552C169.383 300.872 169.367 301.208 169.367 301.56C169.367 302.536 169.575 303.312 169.991 303.888C170.407 304.464 171.063 304.752 171.959 304.752C172.487 304.752 173.007 304.608 173.519 304.32C174.031 304.032 174.559 303.56 175.103 302.904H175.151L175.391 303.096C174.847 304.04 174.191 304.8 173.423 305.376C172.671 305.952 171.903 306.24 171.119 306.24ZM172.943 295.8C172.079 295.8 171.343 296.16 170.735 296.88C170.143 297.584 169.743 298.52 169.535 299.688C170.735 299.48 171.671 299.256 172.343 299.016C173.015 298.776 173.487 298.496 173.759 298.176C174.031 297.84 174.167 297.424 174.167 296.928C174.167 296.608 174.063 296.344 173.855 296.136C173.647 295.912 173.343 295.8 172.943 295.8ZM182.942 306L183.014 305.616L185.006 304.656L187.31 291.504L185.654 290.544L185.726 290.16H190.982C192.758 290.16 194.182 290.472 195.254 291.096C196.342 291.72 196.886 292.712 196.886 294.072C196.886 294.92 196.606 295.72 196.046 296.472C195.502 297.208 194.71 297.808 193.67 298.272C192.63 298.736 191.398 298.968 189.974 298.968H188.054L187.046 304.656L188.942 305.616L188.87 306H182.942ZM189.398 291.36L188.27 297.768H190.526C191.918 297.768 192.95 297.44 193.622 296.784C194.294 296.112 194.63 295.264 194.63 294.24C194.63 293.232 194.302 292.504 193.646 292.056C192.99 291.592 192.062 291.36 190.862 291.36H189.398ZM200.032 306.24C199.472 306.24 199.088 306.024 198.88 305.592C198.672 305.16 198.632 304.584 198.76 303.864L201.232 289.68L199.144 288.864V288.72L203.296 288H203.368L200.704 303.144C200.624 303.624 200.608 303.968 200.656 304.176C200.704 304.384 200.84 304.488 201.064 304.488C201.336 304.488 201.632 304.344 201.952 304.056C202.272 303.752 202.576 303.296 202.864 302.688L203.176 302.832C202.712 304.032 202.208 304.904 201.664 305.448C201.136 305.976 200.592 306.24 200.032 306.24ZM207.06 306.24C206.42 306.24 205.9 305.968 205.5 305.424C205.116 304.864 204.924 304.032 204.924 302.928C204.924 301.936 205.076 300.968 205.38 300.024C205.7 299.08 206.132 298.224 206.676 297.456C207.236 296.688 207.876 296.08 208.596 295.632C209.316 295.184 210.084 294.96 210.9 294.96C211.3 294.96 211.684 295.008 212.052 295.104C212.42 295.2 212.748 295.328 213.036 295.488L213.876 294.96H214.476L213.012 303.144C212.932 303.624 212.916 303.968 212.964 304.176C213.028 304.384 213.164 304.488 213.372 304.488C213.644 304.488 213.94 304.344 214.26 304.056C214.58 303.752 214.884 303.296 215.172 302.688L215.484 302.832C215.02 304.032 214.516 304.904 213.972 305.448C213.444 305.976 212.9 306.24 212.34 306.24C211.78 306.24 211.396 306.024 211.188 305.592C210.98 305.16 210.94 304.584 211.068 303.864L211.188 303.24H211.092C210.484 304.168 209.844 304.904 209.172 305.448C208.5 305.976 207.796 306.24 207.06 306.24ZM206.748 301.992C206.748 302.888 206.844 303.56 207.036 304.008C207.244 304.44 207.628 304.656 208.188 304.656C208.572 304.656 208.956 304.528 209.34 304.272C209.724 304.016 210.092 303.688 210.444 303.288C210.796 302.888 211.108 302.48 211.38 302.064L212.268 297.12C211.964 296.72 211.652 296.416 211.332 296.208C211.028 296 210.652 295.896 210.204 295.896C209.516 295.896 208.908 296.192 208.38 296.784C207.868 297.376 207.468 298.136 207.18 299.064C206.892 299.992 206.748 300.968 206.748 301.992ZM215.371 311.76C214.923 311.76 214.699 311.528 214.699 311.064V309.912L214.867 309.768H216.019C216.419 309.768 216.731 309.752 216.955 309.72C217.195 309.688 217.395 309.608 217.555 309.48C217.731 309.352 217.915 309.144 218.107 308.856C218.315 308.584 218.571 308.192 218.875 307.68L220.003 305.856L217.939 296.592L215.899 295.824V295.68L219.451 294.96H219.523L221.347 303.48H221.443L223.171 300.648C223.699 299.784 224.043 299.128 224.203 298.68C224.363 298.216 224.443 297.832 224.443 297.528C224.443 297.272 224.379 297.072 224.251 296.928C224.123 296.768 223.963 296.632 223.771 296.52L223.459 296.328V296.232L223.843 295.512C223.971 295.288 224.075 295.144 224.155 295.08C224.251 295 224.387 294.96 224.563 294.96C224.835 294.96 225.075 295.064 225.283 295.272C225.507 295.464 225.675 295.712 225.787 296.016C225.915 296.304 225.979 296.584 225.979 296.856C225.979 297.24 225.835 297.712 225.547 298.272C225.275 298.816 224.843 299.568 224.251 300.528L219.619 307.896C219.395 308.264 219.211 308.568 219.067 308.808C218.923 309.048 218.771 309.288 218.611 309.528C218.467 309.768 218.251 310.056 217.963 310.392C217.563 310.856 217.131 311.2 216.667 311.424C216.203 311.648 215.771 311.76 215.371 311.76ZM231.001 306.24C229.769 306.24 228.865 305.904 228.289 305.232C227.713 304.544 227.425 303.616 227.425 302.448C227.425 301.504 227.577 300.592 227.881 299.712C228.201 298.816 228.633 298.016 229.177 297.312C229.737 296.592 230.377 296.024 231.097 295.608C231.833 295.176 232.625 294.96 233.473 294.96C234.273 294.96 234.873 295.144 235.273 295.512C235.689 295.88 235.897 296.312 235.897 296.808C235.897 297.352 235.705 297.856 235.321 298.32C234.937 298.768 234.265 299.184 233.305 299.568C232.361 299.936 231.025 300.264 229.297 300.552C229.265 300.872 229.249 301.208 229.249 301.56C229.249 302.536 229.457 303.312 229.873 303.888C230.289 304.464 230.945 304.752 231.841 304.752C232.369 304.752 232.889 304.608 233.401 304.32C233.913 304.032 234.441 303.56 234.985 302.904H235.033L235.273 303.096C234.729 304.04 234.073 304.8 233.305 305.376C232.553 305.952 231.785 306.24 231.001 306.24ZM232.825 295.8C231.961 295.8 231.225 296.16 230.617 296.88C230.025 297.584 229.625 298.52 229.417 299.688C230.617 299.48 231.553 299.256 232.225 299.016C232.897 298.776 233.369 298.496 233.641 298.176C233.913 297.84 234.049 297.424 234.049 296.928C234.049 296.608 233.945 296.344 233.737 296.136C233.529 295.912 233.225 295.8 232.825 295.8ZM237.898 306L239.554 296.664L237.682 295.824V295.68L241.066 294.96H241.138V297.912H241.234C241.746 296.968 242.178 296.296 242.53 295.896C242.898 295.48 243.218 295.224 243.49 295.128C243.778 295.016 244.034 294.96 244.258 294.96C244.546 294.96 244.81 295.056 245.05 295.248C245.29 295.424 245.41 295.632 245.41 295.872C245.41 295.952 245.386 296.04 245.338 296.136L244.738 297.36H244.594L244.33 297.168C244.202 297.072 244.058 297.008 243.898 296.976C243.754 296.928 243.61 296.904 243.466 296.904C243.178 296.904 242.914 296.968 242.674 297.096C242.45 297.208 242.194 297.456 241.906 297.84C241.634 298.208 241.282 298.768 240.85 299.52L239.722 306H237.898ZM257.715 306.12L253.299 291.408L251.499 290.544V290.16H257.595V290.544L255.555 291.432L258.555 301.824H258.675L262.827 290.04H263.715L267.963 301.824H268.107L271.059 291.456L269.019 290.544V290.16H274.323V290.544L272.715 291.432L268.251 306.12H267.411L263.043 294.36H262.923L258.555 306.12H257.715ZM278.156 292.056C277.74 292.056 277.396 291.92 277.124 291.648C276.852 291.36 276.716 291.016 276.716 290.616C276.716 290.2 276.852 289.856 277.124 289.584C277.396 289.312 277.74 289.176 278.156 289.176C278.572 289.176 278.916 289.312 279.188 289.584C279.46 289.856 279.596 290.2 279.596 290.616C279.596 291.016 279.46 291.36 279.188 291.648C278.916 291.92 278.572 292.056 278.156 292.056ZM275.756 306V305.616L277.268 304.848V297.696L275.828 296.448V296.28L279.044 294.96H279.188V304.848L280.7 305.616V306H275.756ZM286.975 306.24C286.271 306.24 285.663 306.032 285.151 305.616C284.639 305.2 284.383 304.616 284.383 303.864V296.328H282.415V296.184L284.455 295.2L286.159 292.56H286.303V295.2H289.471V296.328H286.303V303.456C286.303 303.872 286.487 304.176 286.855 304.368C287.223 304.56 287.655 304.656 288.151 304.656C288.455 304.656 288.735 304.64 288.991 304.608C289.263 304.576 289.495 304.536 289.687 304.488H289.759V304.728C289.599 305.096 289.279 305.44 288.799 305.76C288.335 306.08 287.727 306.24 286.975 306.24ZM291.62 306V305.616L293.132 304.848V290.736L291.692 289.488V289.32L294.908 288H295.052V296.736H295.148C295.756 296.128 296.34 295.68 296.9 295.392C297.476 295.104 298.108 294.96 298.796 294.96C299.74 294.96 300.508 295.2 301.1 295.68C301.708 296.144 302.012 296.84 302.012 297.768V304.848L303.524 305.616V306H298.388V305.616L300.092 304.92V298.896C300.092 298.192 299.868 297.656 299.42 297.288C298.988 296.92 298.42 296.736 297.716 296.736C297.284 296.736 296.804 296.808 296.276 296.952C295.764 297.096 295.356 297.304 295.052 297.576V304.92L296.756 305.616V306H291.62ZM100.62 343.24C99.628 343.24 98.788 343.152 98.1 342.976C97.412 342.784 96.7 342.504 95.964 342.136L95.724 338.2H96.108L97.284 340.744C97.86 341.224 98.42 341.576 98.964 341.8C99.508 342.008 100.06 342.112 100.62 342.112C101.564 342.112 102.3 341.864 102.828 341.368C103.372 340.872 103.644 340.2 103.644 339.352C103.644 338.648 103.484 338.096 103.164 337.696C102.86 337.296 102.412 336.944 101.82 336.64C101.244 336.32 100.556 335.96 99.756 335.56C99.004 335.176 98.364 334.8 97.836 334.432C97.308 334.064 96.908 333.64 96.636 333.16C96.364 332.664 96.228 332.048 96.228 331.312C96.228 330.768 96.356 330.24 96.612 329.728C96.884 329.2 97.244 328.728 97.692 328.312C98.156 327.88 98.668 327.544 99.228 327.304C99.804 327.048 100.396 326.92 101.004 326.92C101.74 326.92 102.42 327.008 103.044 327.184C103.668 327.36 104.308 327.608 104.964 327.928L105.204 331.768H104.82L103.716 329.248C103.156 328.832 102.668 328.536 102.252 328.36C101.836 328.168 101.356 328.072 100.812 328.072C100.108 328.072 99.524 328.312 99.06 328.792C98.612 329.272 98.388 329.864 98.388 330.568C98.388 331.384 98.636 332.024 99.132 332.488C99.628 332.936 100.404 333.416 101.46 333.928C102.436 334.408 103.236 334.856 103.86 335.272C104.484 335.672 104.948 336.136 105.252 336.664C105.556 337.192 105.708 337.864 105.708 338.68C105.708 339.432 105.548 340.096 105.228 340.672C104.908 341.232 104.492 341.704 103.98 342.088C103.484 342.472 102.932 342.76 102.324 342.952C101.732 343.144 101.164 343.24 100.62 343.24ZM113.983 343.24C112.927 343.24 111.999 342.992 111.199 342.496C110.415 342 109.799 341.328 109.351 340.48C108.919 339.632 108.703 338.672 108.703 337.6C108.703 336.528 108.919 335.568 109.351 334.72C109.799 333.872 110.415 333.2 111.199 332.704C111.999 332.208 112.927 331.96 113.983 331.96C115.039 331.96 115.959 332.208 116.743 332.704C117.543 333.2 118.159 333.872 118.591 334.72C119.039 335.568 119.263 336.528 119.263 337.6C119.263 338.672 119.039 339.632 118.591 340.48C118.159 341.328 117.543 342 116.743 342.496C115.959 342.992 115.039 343.24 113.983 343.24ZM114.319 342.208C114.959 342.208 115.487 342.008 115.903 341.608C116.319 341.208 116.623 340.696 116.815 340.072C117.007 339.432 117.103 338.768 117.103 338.08C117.103 337.232 116.983 336.416 116.743 335.632C116.519 334.848 116.151 334.208 115.639 333.712C115.143 333.216 114.495 332.968 113.695 332.968C113.039 332.968 112.503 333.168 112.087 333.568C111.671 333.968 111.359 334.48 111.151 335.104C110.959 335.728 110.863 336.392 110.863 337.096C110.863 337.944 110.983 338.76 111.223 339.544C111.463 340.328 111.839 340.968 112.351 341.464C112.863 341.96 113.519 342.208 114.319 342.208ZM121.616 343V342.616L123.128 341.848V334.696L121.688 333.448V333.28L124.664 331.96H124.808L125.024 333.736H125.144C125.736 333.128 126.304 332.68 126.848 332.392C127.408 332.104 128.016 331.96 128.672 331.96C129.44 331.96 130.096 332.136 130.64 332.488C131.184 332.824 131.536 333.336 131.696 334.024H131.768C132.44 333.32 133.064 332.8 133.64 332.464C134.232 332.128 134.88 331.96 135.584 331.96C136.48 331.96 137.216 332.2 137.792 332.68C138.384 333.144 138.68 333.84 138.68 334.768V341.848L140.192 342.616V343H135.056V342.616L136.76 341.848V335.896C136.76 335.192 136.544 334.656 136.112 334.288C135.696 333.92 135.16 333.736 134.504 333.736C133.96 333.736 133.448 333.824 132.968 334C132.488 334.176 132.088 334.44 131.768 334.792V341.848L133.424 342.616V343H128.24V342.616L129.848 341.848V335.896C129.848 335.192 129.632 334.656 129.2 334.288C128.784 333.92 128.248 333.736 127.592 333.736C127.192 333.736 126.744 333.808 126.248 333.952C125.752 334.096 125.352 334.304 125.048 334.576V341.848L126.608 342.616V343H121.616ZM147.328 343.24C145.776 343.24 144.552 342.768 143.656 341.824C142.76 340.88 142.312 339.632 142.312 338.08C142.312 336.88 142.544 335.824 143.008 334.912C143.488 333.984 144.112 333.264 144.88 332.752C145.664 332.224 146.512 331.96 147.424 331.96C148.688 331.96 149.68 332.4 150.4 333.28C151.136 334.16 151.504 335.424 151.504 337.072L151.384 337.192H144.208C144.224 337.928 144.368 338.624 144.64 339.28C144.912 339.92 145.344 340.44 145.936 340.84C146.544 341.24 147.352 341.44 148.36 341.44C149.24 341.44 150.272 341.12 151.456 340.48H151.528V340.72C151.16 341.408 150.608 342 149.872 342.496C149.152 342.992 148.304 343.24 147.328 343.24ZM147.04 333.016C146.272 333.016 145.64 333.288 145.144 333.832C144.664 334.36 144.368 335.112 144.256 336.088H149.68C149.504 335 149.192 334.216 148.744 333.736C148.312 333.256 147.744 333.016 147.04 333.016ZM168.337 343.24C166.705 343.24 165.297 342.904 164.113 342.232C162.929 341.56 162.017 340.648 161.377 339.496C160.737 338.328 160.417 337 160.417 335.512C160.417 334.376 160.633 333.296 161.065 332.272C161.513 331.232 162.113 330.312 162.865 329.512C163.633 328.712 164.513 328.08 165.505 327.616C166.513 327.152 167.577 326.92 168.697 326.92C169.497 326.92 170.177 326.976 170.737 327.088C171.297 327.184 171.793 327.32 172.225 327.496C172.673 327.656 173.121 327.848 173.569 328.072L173.689 332.272H173.257L171.793 329.344C171.185 328.912 170.649 328.6 170.185 328.408C169.737 328.216 169.225 328.12 168.649 328.12C167.497 328.12 166.465 328.408 165.553 328.984C164.657 329.56 163.945 330.352 163.417 331.36C162.905 332.352 162.649 333.496 162.649 334.792C162.649 336.312 162.897 337.616 163.393 338.704C163.905 339.776 164.585 340.6 165.433 341.176C166.297 341.736 167.249 342.016 168.289 342.016C169.169 342.016 169.905 341.896 170.497 341.656C171.105 341.4 171.641 341.12 172.105 340.816L173.545 338.248H173.953L173.689 342.064C173.225 342.304 172.745 342.512 172.249 342.688C171.769 342.864 171.217 343 170.593 343.096C169.969 343.192 169.217 343.24 168.337 343.24ZM182.631 343.24C181.575 343.24 180.647 342.992 179.847 342.496C179.063 342 178.447 341.328 177.999 340.48C177.567 339.632 177.351 338.672 177.351 337.6C177.351 336.528 177.567 335.568 177.999 334.72C178.447 333.872 179.063 333.2 179.847 332.704C180.647 332.208 181.575 331.96 182.631 331.96C183.687 331.96 184.607 332.208 185.391 332.704C186.191 333.2 186.807 333.872 187.239 334.72C187.687 335.568 187.911 336.528 187.911 337.6C187.911 338.672 187.687 339.632 187.239 340.48C186.807 341.328 186.191 342 185.391 342.496C184.607 342.992 183.687 343.24 182.631 343.24ZM182.967 342.208C183.607 342.208 184.135 342.008 184.551 341.608C184.967 341.208 185.271 340.696 185.463 340.072C185.655 339.432 185.751 338.768 185.751 338.08C185.751 337.232 185.631 336.416 185.391 335.632C185.167 334.848 184.799 334.208 184.287 333.712C183.791 333.216 183.143 332.968 182.343 332.968C181.687 332.968 181.151 333.168 180.735 333.568C180.319 333.968 180.007 334.48 179.799 335.104C179.607 335.728 179.511 336.392 179.511 337.096C179.511 337.944 179.631 338.76 179.871 339.544C180.111 340.328 180.487 340.968 180.999 341.464C181.511 341.96 182.167 342.208 182.967 342.208ZM195.709 343.24C194.653 343.24 193.725 342.992 192.925 342.496C192.141 342 191.525 341.328 191.077 340.48C190.645 339.632 190.429 338.672 190.429 337.6C190.429 336.528 190.645 335.568 191.077 334.72C191.525 333.872 192.141 333.2 192.925 332.704C193.725 332.208 194.653 331.96 195.709 331.96C196.765 331.96 197.685 332.208 198.469 332.704C199.269 333.2 199.885 333.872 200.317 334.72C200.765 335.568 200.989 336.528 200.989 337.6C200.989 338.672 200.765 339.632 200.317 340.48C199.885 341.328 199.269 342 198.469 342.496C197.685 342.992 196.765 343.24 195.709 343.24ZM196.045 342.208C196.685 342.208 197.213 342.008 197.629 341.608C198.045 341.208 198.349 340.696 198.541 340.072C198.733 339.432 198.829 338.768 198.829 338.08C198.829 337.232 198.709 336.416 198.469 335.632C198.245 334.848 197.877 334.208 197.365 333.712C196.869 333.216 196.221 332.968 195.421 332.968C194.765 332.968 194.229 333.168 193.813 333.568C193.397 333.968 193.085 334.48 192.877 335.104C192.685 335.728 192.589 336.392 192.589 337.096C192.589 337.944 192.709 338.76 192.949 339.544C193.189 340.328 193.565 340.968 194.077 341.464C194.589 341.96 195.245 342.208 196.045 342.208ZM203.246 343V342.616L204.758 341.848V327.736L203.318 326.488V326.32L206.534 325H206.678V341.848L208.19 342.616V343H203.246ZM221.581 343.24C220.589 343.24 219.749 343.152 219.061 342.976C218.373 342.784 217.661 342.504 216.925 342.136L216.685 338.2H217.069L218.245 340.744C218.821 341.224 219.381 341.576 219.925 341.8C220.469 342.008 221.021 342.112 221.581 342.112C222.525 342.112 223.261 341.864 223.789 341.368C224.333 340.872 224.605 340.2 224.605 339.352C224.605 338.648 224.445 338.096 224.125 337.696C223.821 337.296 223.373 336.944 222.781 336.64C222.205 336.32 221.517 335.96 220.717 335.56C219.965 335.176 219.325 334.8 218.797 334.432C218.269 334.064 217.869 333.64 217.597 333.16C217.325 332.664 217.189 332.048 217.189 331.312C217.189 330.768 217.317 330.24 217.573 329.728C217.845 329.2 218.205 328.728 218.653 328.312C219.117 327.88 219.629 327.544 220.189 327.304C220.765 327.048 221.357 326.92 221.965 326.92C222.701 326.92 223.381 327.008 224.005 327.184C224.629 327.36 225.269 327.608 225.925 327.928L226.165 331.768H225.781L224.677 329.248C224.117 328.832 223.629 328.536 223.213 328.36C222.797 328.168 222.317 328.072 221.773 328.072C221.069 328.072 220.485 328.312 220.021 328.792C219.573 329.272 219.349 329.864 219.349 330.568C219.349 331.384 219.597 332.024 220.093 332.488C220.589 332.936 221.365 333.416 222.421 333.928C223.397 334.408 224.197 334.856 224.821 335.272C225.445 335.672 225.909 336.136 226.213 336.664C226.517 337.192 226.669 337.864 226.669 338.68C226.669 339.432 226.509 340.096 226.189 340.672C225.869 341.232 225.453 341.704 224.941 342.088C224.445 342.472 223.893 342.76 223.285 342.952C222.693 343.144 222.125 343.24 221.581 343.24ZM233.221 343.24C232.517 343.24 231.909 343.032 231.397 342.616C230.885 342.2 230.629 341.616 230.629 340.864V333.328H228.661V333.184L230.701 332.2L232.405 329.56H232.549V332.2H235.717V333.328H232.549V340.456C232.549 340.872 232.733 341.176 233.101 341.368C233.469 341.56 233.901 341.656 234.397 341.656C234.701 341.656 234.981 341.64 235.237 341.608C235.509 341.576 235.741 341.536 235.933 341.488H236.005V341.728C235.845 342.096 235.525 342.44 235.045 342.76C234.581 343.08 233.973 343.24 233.221 343.24ZM242.114 343.24C241.17 343.24 240.394 343.008 239.786 342.544C239.194 342.064 238.898 341.36 238.898 340.432V333.328L237.386 332.584V332.2H240.818V339.304C240.818 340.008 241.034 340.544 241.466 340.912C241.914 341.28 242.49 341.464 243.194 341.464C243.626 341.464 244.098 341.392 244.61 341.248C245.138 341.104 245.554 340.896 245.858 340.624V333.328L244.154 332.584V332.2H247.778V341.92L249.482 342.616V343H245.858V341.488H245.738C245.13 342.096 244.538 342.544 243.962 342.832C243.402 343.104 242.786 343.24 242.114 343.24ZM251.463 343V342.616L252.975 341.848V333.328H251.103V332.2H252.975V331.24C252.975 330.92 253.055 330.504 253.215 329.992C253.375 329.48 253.607 328.944 253.911 328.384C254.215 327.808 254.583 327.264 255.015 326.752C255.447 326.24 255.943 325.824 256.503 325.504C257.063 325.168 257.679 325 258.351 325C258.559 325 258.743 325.024 258.903 325.072C259.063 325.12 259.183 325.16 259.263 325.192C259.471 325.272 259.575 325.392 259.575 325.552C259.575 325.648 259.535 325.792 259.455 325.984L258.975 327.232H258.807L258.351 327.064C258.143 327 257.927 326.944 257.703 326.896C257.479 326.832 257.255 326.8 257.031 326.8C256.327 326.8 255.791 327.112 255.423 327.736C255.071 328.344 254.895 329.192 254.895 330.28V332.2H261.183V331.24C261.183 330.92 261.263 330.504 261.423 329.992C261.583 329.48 261.815 328.944 262.119 328.384C262.439 327.808 262.823 327.264 263.271 326.752C263.719 326.24 264.223 325.824 264.783 325.504C265.359 325.168 265.991 325 266.679 325C266.823 325 266.975 325.024 267.135 325.072C267.295 325.12 267.431 325.168 267.543 325.216C268.023 325.392 268.263 325.616 268.263 325.888C268.263 326.032 268.231 326.176 268.167 326.32L267.687 327.496H267.519L266.871 327.232C266.423 327.056 265.903 326.968 265.311 326.968C264.431 326.968 263.839 327.248 263.535 327.808C263.247 328.352 263.103 329.176 263.103 330.28V332.2H266.271V333.328H263.103V341.896L264.807 342.616V343H259.671V342.616L261.183 341.848V333.328H254.895V341.896L256.599 342.616V343H251.463ZM274.133 343V342.616L276.053 341.656V328.504L274.133 327.544V327.16H280.373V327.544L278.213 328.504V341.68H284.045L285.677 337.672H286.061V343H274.133ZM291.433 329.056C291.017 329.056 290.673 328.92 290.401 328.648C290.129 328.36 289.993 328.016 289.993 327.616C289.993 327.2 290.129 326.856 290.401 326.584C290.673 326.312 291.017 326.176 291.433 326.176C291.849 326.176 292.193 326.312 292.465 326.584C292.737 326.856 292.873 327.2 292.873 327.616C292.873 328.016 292.737 328.36 292.465 328.648C292.193 328.92 291.849 329.056 291.433 329.056ZM289.033 343V342.616L290.545 341.848V334.696L289.105 333.448V333.28L292.321 331.96H292.465V341.848L293.977 342.616V343H289.033ZM296.413 343V342.616L297.925 341.848V327.736L296.485 326.488V326.32L299.701 325H299.845V336.88L303.709 333.592V333.448L302.533 332.584V332.2H307.093V332.584L305.557 333.424L301.597 336.472L306.445 341.8L307.981 342.616V343H304.813L303.901 341.752L299.845 337.24V341.92L301.549 342.616V343H296.413ZM314.391 343.24C312.839 343.24 311.615 342.768 310.719 341.824C309.823 340.88 309.375 339.632 309.375 338.08C309.375 336.88 309.607 335.824 310.071 334.912C310.551 333.984 311.175 333.264 311.943 332.752C312.727 332.224 313.575 331.96 314.487 331.96C315.751 331.96 316.743 332.4 317.463 333.28C318.199 334.16 318.567 335.424 318.567 337.072L318.447 337.192H311.271C311.287 337.928 311.431 338.624 311.703 339.28C311.975 339.92 312.407 340.44 312.999 340.84C313.607 341.24 314.415 341.44 315.423 341.44C316.303 341.44 317.335 341.12 318.519 340.48H318.591V340.72C318.223 341.408 317.671 342 316.935 342.496C316.215 342.992 315.367 343.24 314.391 343.24ZM314.103 333.016C313.335 333.016 312.703 333.288 312.207 333.832C311.727 334.36 311.431 335.112 311.319 336.088H316.743C316.567 335 316.255 334.216 315.807 333.736C315.375 333.256 314.807 333.016 314.103 333.016ZM94.2077 380.12L91.0637 365.384L89.6237 364.544L89.7197 364.16H95.4077L95.3357 364.544L93.1997 365.36L95.5997 376.928H95.7437L102.032 365.36L100.112 364.544L100.184 364.16H104.984L104.888 364.544L103.472 365.312L95.2397 380.12H94.2077ZM108.504 365.96C108.136 365.96 107.816 365.824 107.544 365.552C107.272 365.28 107.136 364.96 107.136 364.592C107.136 364.224 107.272 363.904 107.544 363.632C107.816 363.36 108.136 363.224 108.504 363.224C108.872 363.224 109.192 363.36 109.464 363.632C109.736 363.904 109.872 364.224 109.872 364.592C109.872 364.96 109.736 365.28 109.464 365.552C109.192 365.824 108.872 365.96 108.504 365.96ZM106.8 380.24C106.24 380.24 105.856 380.024 105.648 379.592C105.44 379.16 105.4 378.584 105.528 377.864L106.8 370.64L104.712 369.824V369.68L108.864 368.96H108.936L107.472 377.144C107.392 377.624 107.376 377.968 107.424 378.176C107.472 378.384 107.608 378.488 107.832 378.488C108.104 378.488 108.4 378.344 108.72 378.056C109.04 377.752 109.344 377.296 109.632 376.688L109.944 376.832C109.48 378.032 108.976 378.904 108.432 379.448C107.904 379.976 107.36 380.24 106.8 380.24ZM114.098 380.24C113.282 380.24 112.618 380.128 112.106 379.904C111.594 379.664 111.226 379.368 111.002 379.016C110.906 378.872 110.842 378.752 110.81 378.656C110.778 378.56 110.762 378.456 110.762 378.344C110.762 378.248 110.778 378.152 110.81 378.056C110.842 377.944 110.922 377.856 111.05 377.792L111.578 377.504H111.746L112.154 378.2C112.394 378.6 112.714 378.904 113.114 379.112C113.514 379.304 113.914 379.4 114.314 379.4C114.922 379.4 115.418 379.24 115.802 378.92C116.202 378.6 116.402 378.136 116.402 377.528C116.402 376.904 116.194 376.424 115.778 376.088C115.378 375.752 114.922 375.432 114.41 375.128C113.802 374.76 113.346 374.424 113.042 374.12C112.738 373.816 112.53 373.504 112.418 373.184C112.306 372.864 112.25 372.48 112.25 372.032C112.25 371.568 112.426 371.104 112.778 370.64C113.13 370.16 113.594 369.76 114.17 369.44C114.746 369.12 115.354 368.96 115.994 368.96C116.698 368.96 117.25 369.072 117.65 369.296C118.05 369.504 118.362 369.776 118.586 370.112C118.73 370.336 118.802 370.544 118.802 370.736C118.802 370.848 118.77 370.96 118.706 371.072C118.658 371.184 118.578 371.272 118.466 371.336L118.01 371.576H117.842L117.314 370.832C117.09 370.512 116.834 370.272 116.546 370.112C116.274 369.936 115.93 369.848 115.514 369.848C115.05 369.848 114.65 369.992 114.314 370.28C113.994 370.552 113.834 370.912 113.834 371.36C113.834 371.872 113.986 372.296 114.29 372.632C114.61 372.968 114.978 373.256 115.394 373.496C115.97 373.832 116.442 374.152 116.81 374.456C117.194 374.76 117.482 375.104 117.674 375.488C117.866 375.872 117.962 376.36 117.962 376.952C117.962 377.512 117.794 378.048 117.458 378.56C117.122 379.056 116.658 379.464 116.066 379.784C115.49 380.088 114.834 380.24 114.098 380.24ZM122.991 380.24C122.399 380.24 121.911 380.008 121.527 379.544C121.159 379.08 120.975 378.448 120.975 377.648C120.975 377.488 120.983 377.328 120.999 377.168C121.031 377.008 121.055 376.848 121.071 376.688L122.151 370.664L120.279 369.824V369.68L124.119 368.96H124.215L122.967 376.304C122.903 376.704 122.871 376.992 122.871 377.168C122.871 377.616 122.975 378 123.183 378.32C123.407 378.624 123.767 378.776 124.263 378.776C124.599 378.776 124.935 378.656 125.271 378.416C125.623 378.176 125.959 377.888 126.279 377.552C126.599 377.216 126.887 376.904 127.143 376.616L128.175 370.664L126.519 369.824V369.68L130.167 368.96H130.263L128.823 377.144C128.743 377.624 128.727 377.968 128.775 378.176C128.839 378.384 128.991 378.488 129.231 378.488C129.503 378.488 129.799 378.344 130.119 378.056C130.439 377.752 130.743 377.296 131.031 376.688L131.343 376.832C130.879 378.032 130.375 378.904 129.831 379.448C129.303 379.976 128.759 380.24 128.199 380.24C127.639 380.24 127.255 380.024 127.047 379.592C126.855 379.16 126.815 378.584 126.927 377.864L126.951 377.72H126.879C126.335 378.328 125.863 378.816 125.463 379.184C125.063 379.552 124.671 379.824 124.287 380C123.919 380.16 123.487 380.24 122.991 380.24ZM134.978 380.24C134.338 380.24 133.818 379.968 133.418 379.424C133.034 378.864 132.842 378.032 132.842 376.928C132.842 375.936 132.994 374.968 133.298 374.024C133.618 373.08 134.05 372.224 134.594 371.456C135.154 370.688 135.794 370.08 136.514 369.632C137.234 369.184 138.002 368.96 138.818 368.96C139.218 368.96 139.602 369.008 139.97 369.104C140.338 369.2 140.666 369.328 140.954 369.488L141.794 368.96H142.394L140.93 377.144C140.85 377.624 140.834 377.968 140.882 378.176C140.946 378.384 141.082 378.488 141.29 378.488C141.562 378.488 141.858 378.344 142.178 378.056C142.498 377.752 142.802 377.296 143.09 376.688L143.402 376.832C142.938 378.032 142.434 378.904 141.89 379.448C141.362 379.976 140.818 380.24 140.258 380.24C139.698 380.24 139.314 380.024 139.106 379.592C138.898 379.16 138.858 378.584 138.986 377.864L139.106 377.24H139.01C138.402 378.168 137.762 378.904 137.09 379.448C136.418 379.976 135.714 380.24 134.978 380.24ZM134.666 375.992C134.666 376.888 134.762 377.56 134.954 378.008C135.162 378.44 135.546 378.656 136.106 378.656C136.49 378.656 136.874 378.528 137.258 378.272C137.642 378.016 138.01 377.688 138.362 377.288C138.714 376.888 139.026 376.48 139.298 376.064L140.186 371.12C139.882 370.72 139.57 370.416 139.25 370.208C138.946 370 138.57 369.896 138.122 369.896C137.434 369.896 136.826 370.192 136.298 370.784C135.786 371.376 135.386 372.136 135.098 373.064C134.81 373.992 134.666 374.968 134.666 375.992ZM146.302 380.24C145.742 380.24 145.358 380.024 145.15 379.592C144.942 379.16 144.902 378.584 145.03 377.864L147.502 363.68L145.414 362.864V362.72L149.566 362H149.638L146.974 377.144C146.894 377.624 146.878 377.968 146.926 378.176C146.974 378.384 147.11 378.488 147.334 378.488C147.606 378.488 147.902 378.344 148.222 378.056C148.542 377.752 148.846 377.296 149.134 376.688L149.446 376.832C148.982 378.032 148.478 378.904 147.934 379.448C147.406 379.976 146.862 380.24 146.302 380.24ZM154.769 365.96C154.401 365.96 154.081 365.824 153.809 365.552C153.537 365.28 153.401 364.96 153.401 364.592C153.401 364.224 153.537 363.904 153.809 363.632C154.081 363.36 154.401 363.224 154.769 363.224C155.137 363.224 155.457 363.36 155.729 363.632C156.001 363.904 156.137 364.224 156.137 364.592C156.137 364.96 156.001 365.28 155.729 365.552C155.457 365.824 155.137 365.96 154.769 365.96ZM153.065 380.24C152.505 380.24 152.121 380.024 151.913 379.592C151.705 379.16 151.665 378.584 151.793 377.864L153.065 370.64L150.977 369.824V369.68L155.129 368.96H155.201L153.737 377.144C153.657 377.624 153.641 377.968 153.689 378.176C153.737 378.384 153.873 378.488 154.097 378.488C154.369 378.488 154.665 378.344 154.985 378.056C155.305 377.752 155.609 377.296 155.897 376.688L156.209 376.832C155.745 378.032 155.241 378.904 154.697 379.448C154.169 379.976 153.625 380.24 153.065 380.24ZM157.747 380.024L157.363 379.64L164.011 370.784H160.147L159.139 372.464H158.755L159.259 369.2H165.691L165.955 369.656L160.339 377.216L163.891 378.176L164.971 376.256H165.355L164.611 380.12L160.219 378.944C160.075 378.912 159.939 378.888 159.811 378.872C159.699 378.84 159.587 378.824 159.475 378.824C159.219 378.824 158.987 378.888 158.779 379.016C158.571 379.144 158.347 379.344 158.107 379.616L157.747 380.024ZM169.642 380.24C169.002 380.24 168.482 379.968 168.082 379.424C167.698 378.864 167.506 378.032 167.506 376.928C167.506 375.936 167.658 374.968 167.962 374.024C168.282 373.08 168.714 372.224 169.258 371.456C169.818 370.688 170.458 370.08 171.178 369.632C171.898 369.184 172.666 368.96 173.482 368.96C173.882 368.96 174.266 369.008 174.634 369.104C175.002 369.2 175.33 369.328 175.618 369.488L176.458 368.96H177.058L175.594 377.144C175.514 377.624 175.498 377.968 175.546 378.176C175.61 378.384 175.746 378.488 175.954 378.488C176.226 378.488 176.522 378.344 176.842 378.056C177.162 377.752 177.466 377.296 177.754 376.688L178.066 376.832C177.602 378.032 177.098 378.904 176.554 379.448C176.026 379.976 175.482 380.24 174.922 380.24C174.362 380.24 173.978 380.024 173.77 379.592C173.562 379.16 173.522 378.584 173.65 377.864L173.77 377.24H173.674C173.066 378.168 172.426 378.904 171.754 379.448C171.082 379.976 170.378 380.24 169.642 380.24ZM169.33 375.992C169.33 376.888 169.426 377.56 169.618 378.008C169.826 378.44 170.21 378.656 170.77 378.656C171.154 378.656 171.538 378.528 171.922 378.272C172.306 378.016 172.674 377.688 173.026 377.288C173.378 376.888 173.69 376.48 173.962 376.064L174.85 371.12C174.546 370.72 174.234 370.416 173.914 370.208C173.61 370 173.234 369.896 172.786 369.896C172.098 369.896 171.49 370.192 170.962 370.784C170.45 371.376 170.05 372.136 169.762 373.064C169.474 373.992 169.33 374.968 169.33 375.992ZM181.686 380.24C181.158 380.24 180.758 380.072 180.486 379.736C180.214 379.4 180.078 378.928 180.078 378.32C180.078 378.192 180.086 378.048 180.102 377.888C180.118 377.728 180.142 377.568 180.174 377.408L181.446 370.256H179.67V370.112L181.71 369.2L183.774 366.56H183.918L183.462 369.2H186.462V370.256H183.27L182.19 376.352C182.158 376.56 182.134 376.752 182.118 376.928C182.102 377.088 182.094 377.232 182.094 377.36C182.094 377.744 182.158 378.016 182.286 378.176C182.414 378.336 182.582 378.416 182.79 378.416C183.158 378.416 183.55 378.208 183.966 377.792C184.398 377.376 184.79 376.776 185.142 375.992L185.454 376.136C184.926 377.656 184.334 378.72 183.678 379.328C183.038 379.936 182.374 380.24 181.686 380.24ZM191.027 365.96C190.659 365.96 190.339 365.824 190.067 365.552C189.795 365.28 189.659 364.96 189.659 364.592C189.659 364.224 189.795 363.904 190.067 363.632C190.339 363.36 190.659 363.224 191.027 363.224C191.395 363.224 191.715 363.36 191.987 363.632C192.259 363.904 192.395 364.224 192.395 364.592C192.395 364.96 192.259 365.28 191.987 365.552C191.715 365.824 191.395 365.96 191.027 365.96ZM189.323 380.24C188.763 380.24 188.379 380.024 188.171 379.592C187.963 379.16 187.923 378.584 188.051 377.864L189.323 370.64L187.235 369.824V369.68L191.387 368.96H191.459L189.995 377.144C189.915 377.624 189.899 377.968 189.947 378.176C189.995 378.384 190.131 378.488 190.355 378.488C190.627 378.488 190.923 378.344 191.243 378.056C191.563 377.752 191.867 377.296 192.155 376.688L192.467 376.832C192.003 378.032 191.499 378.904 190.955 379.448C190.427 379.976 189.883 380.24 189.323 380.24ZM198.517 380.24C197.125 380.24 196.093 379.808 195.421 378.944C194.765 378.08 194.437 376.96 194.437 375.584C194.437 374.832 194.573 374.072 194.845 373.304C195.117 372.52 195.509 371.8 196.021 371.144C196.533 370.488 197.141 369.96 197.845 369.56C198.549 369.16 199.325 368.96 200.173 368.96C201.565 368.96 202.589 369.392 203.245 370.256C203.917 371.12 204.253 372.24 204.253 373.616C204.253 374.336 204.117 375.088 203.845 375.872C203.589 376.64 203.205 377.36 202.693 378.032C202.197 378.688 201.597 379.224 200.893 379.64C200.189 380.04 199.397 380.24 198.517 380.24ZM198.781 379.328C199.469 379.328 200.069 379.064 200.581 378.536C201.093 377.992 201.485 377.28 201.757 376.4C202.029 375.504 202.165 374.528 202.165 373.472C202.165 372.288 202.005 371.392 201.685 370.784C201.381 370.16 200.805 369.848 199.957 369.848C199.285 369.848 198.685 370.096 198.157 370.592C197.645 371.072 197.245 371.744 196.957 372.608C196.669 373.472 196.525 374.488 196.525 375.656C196.525 376.84 196.685 377.752 197.005 378.392C197.325 379.016 197.917 379.328 198.781 379.328ZM206.48 380L208.136 370.664L206.264 369.824V369.68L209.672 368.96H209.744V371.48H209.84C210.4 370.856 210.896 370.36 211.328 369.992C211.76 369.624 212.176 369.36 212.576 369.2C212.976 369.04 213.44 368.96 213.968 368.96C214.752 368.96 215.352 369.28 215.768 369.92C216.2 370.56 216.32 371.424 216.128 372.512L215.288 377.144C215.208 377.624 215.192 377.968 215.24 378.176C215.304 378.384 215.44 378.488 215.648 378.488C215.92 378.488 216.216 378.344 216.536 378.056C216.856 377.752 217.16 377.296 217.448 376.688L217.76 376.832C217.296 378.032 216.792 378.904 216.248 379.448C215.72 379.976 215.176 380.24 214.616 380.24C214.056 380.24 213.672 380.024 213.464 379.592C213.256 379.16 213.216 378.584 213.344 377.864L214.28 372.584C214.36 372.024 214.288 371.528 214.064 371.096C213.856 370.648 213.4 370.424 212.696 370.424C212.344 370.424 211.976 370.544 211.592 370.784C211.224 371.024 210.864 371.312 210.512 371.648C210.16 371.968 209.848 372.28 209.576 372.584L208.304 380H206.48ZM221.559 380.24C220.743 380.24 220.079 380.128 219.567 379.904C219.055 379.664 218.687 379.368 218.463 379.016C218.367 378.872 218.303 378.752 218.271 378.656C218.239 378.56 218.223 378.456 218.223 378.344C218.223 378.248 218.239 378.152 218.271 378.056C218.303 377.944 218.383 377.856 218.511 377.792L219.039 377.504H219.207L219.615 378.2C219.855 378.6 220.175 378.904 220.575 379.112C220.975 379.304 221.375 379.4 221.775 379.4C222.383 379.4 222.879 379.24 223.263 378.92C223.663 378.6 223.863 378.136 223.863 377.528C223.863 376.904 223.655 376.424 223.239 376.088C222.839 375.752 222.383 375.432 221.871 375.128C221.263 374.76 220.807 374.424 220.503 374.12C220.199 373.816 219.991 373.504 219.879 373.184C219.767 372.864 219.711 372.48 219.711 372.032C219.711 371.568 219.887 371.104 220.239 370.64C220.591 370.16 221.055 369.76 221.631 369.44C222.207 369.12 222.815 368.96 223.455 368.96C224.159 368.96 224.711 369.072 225.111 369.296C225.511 369.504 225.823 369.776 226.047 370.112C226.191 370.336 226.263 370.544 226.263 370.736C226.263 370.848 226.231 370.96 226.167 371.072C226.119 371.184 226.039 371.272 225.927 371.336L225.471 371.576H225.303L224.775 370.832C224.551 370.512 224.295 370.272 224.007 370.112C223.735 369.936 223.391 369.848 222.975 369.848C222.511 369.848 222.111 369.992 221.775 370.28C221.455 370.552 221.295 370.912 221.295 371.36C221.295 371.872 221.447 372.296 221.751 372.632C222.071 372.968 222.439 373.256 222.855 373.496C223.431 373.832 223.903 374.152 224.271 374.456C224.655 374.76 224.943 375.104 225.135 375.488C225.327 375.872 225.423 376.36 225.423 376.952C225.423 377.512 225.255 378.048 224.919 378.56C224.583 379.056 224.119 379.464 223.527 379.784C222.951 380.088 222.295 380.24 221.559 380.24ZM228.1 384.92V384.416C228.772 384.064 229.26 383.664 229.564 383.216C229.868 382.768 230.02 382.296 230.02 381.8C230.02 381.352 229.916 380.976 229.708 380.672C229.516 380.384 229.22 380.136 228.82 379.928L228.004 379.496L227.932 379.256L228.628 378.056C228.74 377.88 228.836 377.752 228.916 377.672C228.996 377.576 229.1 377.528 229.228 377.528C229.356 377.528 229.556 377.6 229.828 377.744C230.324 378.032 230.708 378.432 230.98 378.944C231.268 379.456 231.412 380.008 231.412 380.6C231.412 381.448 231.156 382.24 230.644 382.976C230.132 383.712 229.284 384.36 228.1 384.92ZM239.428 380V379.616L240.964 378.824L247.108 364.04H248.188L254.236 378.752L255.844 379.616V380H249.892V379.616L252.004 378.8L250.204 374.36H244.372L242.596 378.8L244.612 379.616V380H239.428ZM244.924 373.04H249.676L247.3 367.136L244.924 373.04ZM257.788 380V379.616L259.3 378.848V371.696L257.86 370.448V370.28L260.836 368.96H260.98L261.196 370.736H261.316C261.924 370.128 262.508 369.68 263.068 369.392C263.644 369.104 264.276 368.96 264.964 368.96C265.908 368.96 266.676 369.2 267.268 369.68C267.876 370.144 268.18 370.84 268.18 371.768V378.848L269.692 379.616V380H264.556V379.616L266.26 378.848V372.896C266.26 372.192 266.036 371.656 265.588 371.288C265.156 370.92 264.588 370.736 263.884 370.736C263.452 370.736 262.972 370.808 262.444 370.952C261.932 371.096 261.524 371.304 261.22 371.576V378.848L262.924 379.616V380H257.788ZM275.836 380.24C275.036 380.24 274.316 380.04 273.676 379.64C273.052 379.24 272.556 378.68 272.188 377.96C271.836 377.224 271.66 376.352 271.66 375.344C271.66 373.984 271.924 372.832 272.452 371.888C272.98 370.928 273.684 370.2 274.564 369.704C275.444 369.208 276.404 368.96 277.444 368.96C277.892 368.96 278.284 368.984 278.62 369.032C278.956 369.064 279.26 369.112 279.532 369.176V364.736L277.972 363.488V363.32L281.308 362H281.452V378.92L283.156 379.616V380H279.772L279.58 378.776H279.412C278.804 379.288 278.212 379.664 277.636 379.904C277.076 380.128 276.476 380.24 275.836 380.24ZM273.58 374.792C273.58 376.12 273.932 377.088 274.636 377.696C275.34 378.288 276.18 378.584 277.156 378.584C277.54 378.584 277.932 378.528 278.332 378.416C278.748 378.288 279.148 378.104 279.532 377.864V371.144C279.148 370.808 278.764 370.56 278.38 370.4C278.012 370.224 277.596 370.136 277.132 370.136C276.492 370.136 275.9 370.296 275.356 370.616C274.828 370.92 274.396 371.416 274.06 372.104C273.74 372.776 273.58 373.672 273.58 374.792ZM291.571 380V379.616L293.491 378.656V365.504L291.571 364.544V364.16H297.811V364.544L295.651 365.504V378.68H301.483L303.115 374.672H303.499V380H291.571ZM311.655 380.24C310.599 380.24 309.671 379.992 308.871 379.496C308.087 379 307.471 378.328 307.023 377.48C306.591 376.632 306.375 375.672 306.375 374.6C306.375 373.528 306.591 372.568 307.023 371.72C307.471 370.872 308.087 370.2 308.871 369.704C309.671 369.208 310.599 368.96 311.655 368.96C312.711 368.96 313.631 369.208 314.415 369.704C315.215 370.2 315.831 370.872 316.263 371.72C316.711 372.568 316.935 373.528 316.935 374.6C316.935 375.672 316.711 376.632 316.263 377.48C315.831 378.328 315.215 379 314.415 379.496C313.631 379.992 312.711 380.24 311.655 380.24ZM311.991 379.208C312.631 379.208 313.159 379.008 313.575 378.608C313.991 378.208 314.295 377.696 314.487 377.072C314.679 376.432 314.775 375.768 314.775 375.08C314.775 374.232 314.655 373.416 314.415 372.632C314.191 371.848 313.823 371.208 313.311 370.712C312.815 370.216 312.167 369.968 311.367 369.968C310.711 369.968 310.175 370.168 309.759 370.568C309.343 370.968 309.031 371.48 308.823 372.104C308.631 372.728 308.535 373.392 308.535 374.096C308.535 374.944 308.655 375.76 308.895 376.544C309.135 377.328 309.511 377.968 310.023 378.464C310.535 378.96 311.191 379.208 311.991 379.208ZM323.128 380.24C322.424 380.24 321.816 380.032 321.304 379.616C320.792 379.2 320.536 378.616 320.536 377.864V370.328H318.568V370.184L320.608 369.2L322.312 366.56H322.456V369.2H325.624V370.328H322.456V377.456C322.456 377.872 322.64 378.176 323.008 378.368C323.376 378.56 323.808 378.656 324.304 378.656C324.608 378.656 324.888 378.64 325.144 378.608C325.416 378.576 325.648 378.536 325.84 378.488H325.912V378.728C325.752 379.096 325.432 379.44 324.952 379.76C324.488 380.08 323.88 380.24 323.128 380.24ZM92.0443 417V416.616L93.9403 415.656L94.4443 402.528L92.3803 401.544V401.16H96.8203L102.364 413.928L107.884 401.16H112.108V401.544L110.092 402.504L110.5 415.656L112.18 416.616V417H106.66V416.616L108.436 415.68L108.196 403.848L102.46 417.12H101.38L95.7403 404.016L95.4283 415.68L97.3723 416.616V417H92.0443ZM120.1 417.24C119.044 417.24 118.116 416.992 117.316 416.496C116.532 416 115.916 415.328 115.468 414.48C115.036 413.632 114.82 412.672 114.82 411.6C114.82 410.528 115.036 409.568 115.468 408.72C115.916 407.872 116.532 407.2 117.316 406.704C118.116 406.208 119.044 405.96 120.1 405.96C121.156 405.96 122.076 406.208 122.86 406.704C123.66 407.2 124.276 407.872 124.708 408.72C125.156 409.568 125.38 410.528 125.38 411.6C125.38 412.672 125.156 413.632 124.708 414.48C124.276 415.328 123.66 416 122.86 416.496C122.076 416.992 121.156 417.24 120.1 417.24ZM120.436 416.208C121.076 416.208 121.604 416.008 122.02 415.608C122.436 415.208 122.74 414.696 122.932 414.072C123.124 413.432 123.22 412.768 123.22 412.08C123.22 411.232 123.1 410.416 122.86 409.632C122.636 408.848 122.268 408.208 121.756 407.712C121.26 407.216 120.612 406.968 119.812 406.968C119.156 406.968 118.62 407.168 118.204 407.568C117.788 407.968 117.476 408.48 117.268 409.104C117.076 409.728 116.98 410.392 116.98 411.096C116.98 411.944 117.1 412.76 117.34 413.544C117.58 414.328 117.956 414.968 118.468 415.464C118.98 415.96 119.636 416.208 120.436 416.208ZM127.829 417V416.616L129.341 415.848V408.696L127.901 407.448V407.28L130.877 405.96H131.021L131.237 408H131.333C131.701 407.408 132.037 406.968 132.341 406.68C132.661 406.376 132.957 406.184 133.229 406.104C133.501 406.008 133.773 405.96 134.045 405.96C134.173 405.96 134.317 405.984 134.477 406.032C134.653 406.08 134.797 406.128 134.909 406.176C135.085 406.256 135.245 406.352 135.389 406.464C135.549 406.576 135.629 406.704 135.629 406.848C135.629 406.992 135.597 407.136 135.533 407.28L135.053 408.456H134.885L133.973 408.096C133.797 408.016 133.621 407.968 133.445 407.952C133.285 407.936 133.125 407.928 132.965 407.928C132.293 407.928 131.725 408.272 131.261 408.96V415.848L132.965 416.616V417H127.829ZM142.336 417.24C140.784 417.24 139.56 416.768 138.664 415.824C137.768 414.88 137.32 413.632 137.32 412.08C137.32 410.88 137.552 409.824 138.016 408.912C138.496 407.984 139.12 407.264 139.888 406.752C140.672 406.224 141.52 405.96 142.432 405.96C143.696 405.96 144.688 406.4 145.408 407.28C146.144 408.16 146.512 409.424 146.512 411.072L146.392 411.192H139.216C139.232 411.928 139.376 412.624 139.648 413.28C139.92 413.92 140.352 414.44 140.944 414.84C141.552 415.24 142.36 415.44 143.368 415.44C144.248 415.44 145.28 415.12 146.464 414.48H146.536V414.72C146.168 415.408 145.616 416 144.88 416.496C144.16 416.992 143.312 417.24 142.336 417.24ZM142.048 407.016C141.28 407.016 140.648 407.288 140.152 407.832C139.672 408.36 139.376 409.112 139.264 410.088H144.688C144.512 409 144.2 408.216 143.752 407.736C143.32 407.256 142.752 407.016 142.048 407.016ZM155.425 417V416.616L157.345 415.656V402.504L155.425 401.544V401.16H161.425V401.544L159.505 402.504V415.656L161.425 416.616V417H155.425ZM164.248 417V416.616L165.76 415.848V408.696L164.32 407.448V407.28L167.296 405.96H167.44L167.656 407.736H167.776C168.384 407.128 168.968 406.68 169.528 406.392C170.104 406.104 170.736 405.96 171.424 405.96C172.368 405.96 173.136 406.2 173.728 406.68C174.336 407.144 174.64 407.84 174.64 408.768V415.848L176.152 416.616V417H171.016V416.616L172.72 415.848V409.896C172.72 409.192 172.496 408.656 172.048 408.288C171.616 407.92 171.048 407.736 170.344 407.736C169.912 407.736 169.432 407.808 168.904 407.952C168.392 408.096 167.984 408.304 167.68 408.576V415.848L169.384 416.616V417H164.248ZM183.281 417.24C181.729 417.24 180.505 416.768 179.609 415.824C178.713 414.88 178.265 413.632 178.265 412.08C178.265 410.88 178.505 409.824 178.985 408.912C179.481 407.984 180.145 407.264 180.977 406.752C181.809 406.224 182.745 405.96 183.785 405.96C184.425 405.96 185.049 406.072 185.657 406.296C186.265 406.504 186.729 406.784 187.049 407.136C187.305 407.44 187.433 407.68 187.433 407.856C187.433 408.08 187.329 408.272 187.121 408.432L186.209 409.2H186.041L185.225 408.096C184.985 407.776 184.681 407.52 184.313 407.328C183.961 407.12 183.521 407.016 182.993 407.016C182.113 407.016 181.417 407.368 180.905 408.072C180.409 408.76 180.161 409.728 180.161 410.976C180.161 411.744 180.289 412.472 180.545 413.16C180.801 413.832 181.225 414.384 181.817 414.816C182.425 415.232 183.257 415.44 184.313 415.44C185.193 415.44 186.225 415.12 187.409 414.48H187.481V414.72C187.113 415.408 186.561 416 185.825 416.496C185.105 416.992 184.257 417.24 183.281 417.24ZM189.606 417V416.616L191.118 415.848V401.736L189.678 400.488V400.32L192.894 399H193.038V415.848L194.55 416.616V417H189.606ZM201.004 417.24C200.06 417.24 199.284 417.008 198.676 416.544C198.084 416.064 197.788 415.36 197.788 414.432V407.328L196.276 406.584V406.2H199.708V413.304C199.708 414.008 199.924 414.544 200.356 414.912C200.804 415.28 201.38 415.464 202.084 415.464C202.516 415.464 202.988 415.392 203.5 415.248C204.028 415.104 204.444 414.896 204.748 414.624V407.328L203.044 406.584V406.2H206.668V415.92L208.372 416.616V417H204.748V415.488H204.628C204.02 416.096 203.428 416.544 202.852 416.832C202.292 417.104 201.676 417.24 201.004 417.24ZM214.289 417.24C213.489 417.24 212.769 417.04 212.129 416.64C211.505 416.24 211.009 415.68 210.641 414.96C210.289 414.224 210.113 413.352 210.113 412.344C210.113 410.984 210.377 409.832 210.905 408.888C211.433 407.928 212.137 407.2 213.017 406.704C213.897 406.208 214.857 405.96 215.897 405.96C216.345 405.96 216.737 405.984 217.073 406.032C217.409 406.064 217.713 406.112 217.985 406.176V401.736L216.425 400.488V400.32L219.761 399H219.905V415.92L221.609 416.616V417H218.225L218.033 415.776H217.865C217.257 416.288 216.665 416.664 216.089 416.904C215.529 417.128 214.929 417.24 214.289 417.24ZM212.033 411.792C212.033 413.12 212.385 414.088 213.089 414.696C213.793 415.288 214.633 415.584 215.609 415.584C215.993 415.584 216.385 415.528 216.785 415.416C217.201 415.288 217.601 415.104 217.985 414.864V408.144C217.601 407.808 217.217 407.56 216.833 407.4C216.465 407.224 216.049 407.136 215.585 407.136C214.945 407.136 214.353 407.296 213.809 407.616C213.281 407.92 212.849 408.416 212.513 409.104C212.193 409.776 212.033 410.672 212.033 411.792ZM228.68 417.24C227.128 417.24 225.904 416.768 225.008 415.824C224.112 414.88 223.664 413.632 223.664 412.08C223.664 410.88 223.896 409.824 224.36 408.912C224.84 407.984 225.464 407.264 226.232 406.752C227.016 406.224 227.864 405.96 228.776 405.96C230.04 405.96 231.032 406.4 231.752 407.28C232.488 408.16 232.856 409.424 232.856 411.072L232.736 411.192H225.56C225.576 411.928 225.72 412.624 225.992 413.28C226.264 413.92 226.696 414.44 227.288 414.84C227.896 415.24 228.704 415.44 229.712 415.44C230.592 415.44 231.624 415.12 232.808 414.48H232.88V414.72C232.512 415.408 231.96 416 231.224 416.496C230.504 416.992 229.656 417.24 228.68 417.24ZM228.392 407.016C227.624 407.016 226.992 407.288 226.496 407.832C226.016 408.36 225.72 409.112 225.608 410.088H231.032C230.856 409 230.544 408.216 230.096 407.736C229.664 407.256 229.096 407.016 228.392 407.016ZM239.321 417.24C238.521 417.24 237.801 417.04 237.161 416.64C236.537 416.24 236.041 415.68 235.673 414.96C235.321 414.224 235.145 413.352 235.145 412.344C235.145 410.984 235.409 409.832 235.937 408.888C236.465 407.928 237.169 407.2 238.049 406.704C238.929 406.208 239.889 405.96 240.929 405.96C241.377 405.96 241.769 405.984 242.105 406.032C242.441 406.064 242.745 406.112 243.017 406.176V401.736L241.457 400.488V400.32L244.793 399H244.937V415.92L246.641 416.616V417H243.257L243.065 415.776H242.897C242.289 416.288 241.697 416.664 241.121 416.904C240.561 417.128 239.961 417.24 239.321 417.24ZM237.065 411.792C237.065 413.12 237.417 414.088 238.121 414.696C238.825 415.288 239.665 415.584 240.641 415.584C241.025 415.584 241.417 415.528 241.817 415.416C242.233 415.288 242.633 415.104 243.017 414.864V408.144C242.633 407.808 242.249 407.56 241.865 407.4C241.497 407.224 241.081 407.136 240.617 407.136C239.977 407.136 239.385 407.296 238.841 407.616C238.313 407.92 237.881 408.416 237.545 409.104C237.225 409.776 237.065 410.672 237.065 411.792ZM255.175 417V416.616L257.095 415.656V402.504L255.175 401.544V401.16H261.175V401.544L259.255 402.504V415.656L261.175 416.616V417H255.175ZM263.998 417V416.616L265.51 415.848V408.696L264.07 407.448V407.28L267.046 405.96H267.19L267.406 407.736H267.526C268.134 407.128 268.718 406.68 269.278 406.392C269.854 406.104 270.486 405.96 271.174 405.96C272.118 405.96 272.886 406.2 273.478 406.68C274.086 407.144 274.39 407.84 274.39 408.768V415.848L275.902 416.616V417H270.766V416.616L272.47 415.848V409.896C272.47 409.192 272.246 408.656 271.798 408.288C271.366 407.92 270.798 407.736 270.094 407.736C269.662 407.736 269.182 407.808 268.654 407.952C268.142 408.096 267.734 408.304 267.43 408.576V415.848L269.134 416.616V417H263.998ZM284.375 417V416.616L286.295 415.656V402.504L284.375 401.544V401.16H290.447C291.503 401.16 292.447 401.296 293.279 401.568C294.127 401.824 294.791 402.216 295.271 402.744C295.751 403.256 295.991 403.912 295.991 404.712C295.991 405.528 295.719 406.28 295.175 406.968C294.631 407.64 293.847 408.12 292.823 408.408C294.247 408.6 295.359 409.048 296.159 409.752C296.959 410.44 297.359 411.32 297.359 412.392C297.359 413.272 297.079 414.064 296.519 414.768C295.975 415.456 295.223 416 294.263 416.4C293.303 416.8 292.215 417 290.999 417H284.375ZM289.895 402.48H288.455V408.168H290.039C291.175 408.168 292.063 407.928 292.703 407.448C293.343 406.952 293.663 406.264 293.663 405.384C293.663 403.448 292.407 402.48 289.895 402.48ZM290.807 409.488H288.455V415.68H290.975C292.239 415.68 293.231 415.392 293.951 414.816C294.671 414.24 295.031 413.496 295.031 412.584C295.031 411.496 294.663 410.712 293.927 410.232C293.207 409.736 292.167 409.488 290.807 409.488ZM305.326 417.24C304.27 417.24 303.342 416.992 302.542 416.496C301.758 416 301.142 415.328 300.694 414.48C300.262 413.632 300.046 412.672 300.046 411.6C300.046 410.528 300.262 409.568 300.694 408.72C301.142 407.872 301.758 407.2 302.542 406.704C303.342 406.208 304.27 405.96 305.326 405.96C306.382 405.96 307.302 406.208 308.086 406.704C308.886 407.2 309.502 407.872 309.934 408.72C310.382 409.568 310.606 410.528 310.606 411.6C310.606 412.672 310.382 413.632 309.934 414.48C309.502 415.328 308.886 416 308.086 416.496C307.302 416.992 306.382 417.24 305.326 417.24ZM305.662 416.208C306.302 416.208 306.83 416.008 307.246 415.608C307.662 415.208 307.966 414.696 308.158 414.072C308.35 413.432 308.446 412.768 308.446 412.08C308.446 411.232 308.326 410.416 308.086 409.632C307.862 408.848 307.494 408.208 306.982 407.712C306.486 407.216 305.838 406.968 305.038 406.968C304.382 406.968 303.846 407.168 303.43 407.568C303.014 407.968 302.702 408.48 302.494 409.104C302.302 409.728 302.206 410.392 302.206 411.096C302.206 411.944 302.326 412.76 302.566 413.544C302.806 414.328 303.182 414.968 303.694 415.464C304.206 415.96 304.862 416.208 305.662 416.208ZM312.197 417V416.616L313.493 415.776L316.637 411.648L313.445 407.328L312.317 406.584V406.2H317.285V406.584L315.653 407.304V407.448L317.885 410.472L319.829 407.592V407.448L318.461 406.584V406.2H322.445V406.584L321.173 407.424L318.365 411.12L321.869 415.872L322.853 416.616V417H318.197V416.616L319.661 415.896V415.752L317.117 412.32L314.909 415.608V415.752L316.397 416.616V417H312.197Z" fill="black"/>
<path d="M111.844 178.125L105.609 178.281C104.578 178.281 104.062 177.927 104.062 177.219C104.062 176.896 104.198 176.615 104.469 176.375C104.75 176.135 105.115 175.865 105.562 175.562C106.01 175.25 106.417 174.844 106.781 174.344C107.146 173.833 107.547 172.979 107.984 171.781C108.432 170.573 108.797 169.396 109.078 168.25C109.974 164.615 110.615 162.25 111 161.156C111.396 160.052 111.693 159.25 111.891 158.75C112.099 158.24 112.323 157.771 112.562 157.344C112.812 156.917 113.052 156.542 113.281 156.219C113.51 155.896 113.781 155.609 114.094 155.359C114.406 155.099 114.703 154.885 114.984 154.719C115.276 154.542 115.63 154.391 116.047 154.266C116.464 154.13 116.865 154.026 117.25 153.953C117.635 153.88 118.115 153.823 118.688 153.781C119.552 153.719 120.703 153.688 122.141 153.688C123.578 153.688 124.646 153.755 125.344 153.891C126.042 154.026 126.391 154.312 126.391 154.75C126.391 155.104 125.99 155.526 125.188 156.016C124.292 156.568 123.5 157.464 122.812 158.703C122.073 160.057 121.495 161.328 121.078 162.516C120.661 163.693 120.333 164.641 120.094 165.359C119.854 166.078 119.562 166.964 119.219 168.016C118.875 169.068 118.583 169.943 118.344 170.641C117.365 173.443 116.026 175.214 114.328 175.953C116.953 175.818 119.125 175.354 120.844 174.562C121.781 174.135 122.583 173.734 123.25 173.359C123.927 172.984 124.682 172.427 125.516 171.688C126.609 170.708 127.583 169.776 128.438 168.891C129.292 167.995 129.755 167.51 129.828 167.438C130.099 167.156 130.427 167.016 130.812 167.016C131.198 167.016 131.51 167.109 131.75 167.297C131.99 167.484 132.109 167.729 132.109 168.031C132.109 169.229 131.724 171.068 130.953 173.547C130.682 174.401 130.411 175.099 130.141 175.641C129.87 176.182 129.521 176.667 129.094 177.094C128.281 177.906 126.974 178.312 125.172 178.312L111.844 178.125ZM149.344 155.969C149.344 157.083 148.724 158.057 147.484 158.891C146.255 159.714 144.953 160.125 143.578 160.125C142.214 160.125 141.151 159.849 140.391 159.297C139.63 158.734 139.25 158.052 139.25 157.25C139.25 156.448 139.542 155.719 140.125 155.062C140.708 154.406 141.464 153.891 142.391 153.516C143.328 153.141 144.344 152.953 145.438 152.953C146.531 152.953 147.453 153.245 148.203 153.828C148.964 154.401 149.344 155.115 149.344 155.969ZM144.953 175.359C145.661 175.359 146.62 175.193 147.828 174.859C149.047 174.516 149.932 174.214 150.484 173.953C151.036 173.682 151.422 173.547 151.641 173.547C152.078 173.547 152.297 173.766 152.297 174.203C152.297 174.401 152.135 174.625 151.812 174.875C150.75 175.667 148.839 176.49 146.078 177.344C143.318 178.198 140.854 178.625 138.688 178.625C137.344 178.625 136.219 178.411 135.312 177.984C134.406 177.557 133.953 176.906 133.953 176.031C133.953 175.5 134.406 174.198 135.312 172.125C137.021 168.198 137.875 165.24 137.875 163.25L137.859 162.656C137.859 162.135 138.365 161.875 139.375 161.875L147.094 161.703C147.365 161.703 147.568 161.786 147.703 161.953C147.839 162.109 147.906 162.286 147.906 162.484C147.906 163.203 147.578 164.391 146.922 166.047C146.266 167.693 145.609 169.312 144.953 170.906C144.297 172.5 143.969 173.641 143.969 174.328C143.969 175.016 144.297 175.359 144.953 175.359ZM160.625 178.609C160.365 178.62 159.979 178.625 159.469 178.625C157.073 178.625 154.812 178.401 152.688 177.953C150.573 177.505 149.323 176.984 148.938 176.391C148.812 176.203 148.75 175.969 148.75 175.688C148.75 175.406 149.083 174.958 149.75 174.344C150.417 173.719 150.875 173.406 151.125 173.406C151.375 173.406 151.63 173.5 151.891 173.688C152.161 173.865 152.458 174.083 152.781 174.344C153.104 174.604 153.464 174.865 153.859 175.125C154.807 175.75 155.948 176.062 157.281 176.062C157.812 176.062 158.24 175.927 158.562 175.656C158.896 175.385 159.062 175.047 159.062 174.641C159.062 174.224 158.922 173.865 158.641 173.562C158.37 173.26 158.01 173 157.562 172.781C157.125 172.552 156.641 172.328 156.109 172.109C155.578 171.88 155.042 171.635 154.5 171.375C153.969 171.104 153.479 170.812 153.031 170.5C152.042 169.802 151.547 168.938 151.547 167.906C151.547 166.865 151.859 165.964 152.484 165.203C153.12 164.443 153.917 163.833 154.875 163.375C155.833 162.917 156.917 162.531 158.125 162.219C160.25 161.688 162.255 161.422 164.141 161.422C166.036 161.422 167.797 161.521 169.422 161.719C171.057 161.906 172.182 162.188 172.797 162.562C172.964 162.656 173.047 162.906 173.047 163.312C173.047 163.708 172.906 164.281 172.625 165.031C172.344 165.771 171.984 166.458 171.547 167.094C171.12 167.719 170.734 168.031 170.391 168.031C170.255 168.031 170.141 167.974 170.047 167.859C169.057 166.672 168.094 165.76 167.156 165.125C166.229 164.479 165.219 164.156 164.125 164.156C163.292 164.156 162.693 164.328 162.328 164.672C161.974 165.005 161.797 165.354 161.797 165.719C161.797 166.083 161.995 166.432 162.391 166.766C162.797 167.099 163.297 167.401 163.891 167.672C164.495 167.943 165.146 168.26 165.844 168.625C166.552 168.979 167.203 169.344 167.797 169.719C168.401 170.083 168.901 170.547 169.297 171.109C169.703 171.661 169.906 172.359 169.906 173.203C169.906 174.047 169.599 174.87 168.984 175.672C171.568 175.151 173.589 174.51 175.047 173.75C175.297 173.615 175.51 173.547 175.688 173.547C176.083 173.547 176.281 173.745 176.281 174.141C176.281 174.474 176.078 174.781 175.672 175.062C175.266 175.333 174.594 175.667 173.656 176.062C172.719 176.448 171.604 176.839 170.312 177.234C167.302 178.151 164.073 178.609 160.625 178.609ZM188.781 162.094L192.891 161.562C193.661 161.562 194.047 161.865 194.047 162.469C194.047 163.073 193.682 163.453 192.953 163.609C192.224 163.755 190.578 163.953 188.016 164.203C187.661 165.13 187.13 166.417 186.422 168.062C184.974 171.438 184.25 173.464 184.25 174.141C184.25 174.88 184.708 175.25 185.625 175.25C188.583 175.25 191.24 174.755 193.594 173.766C193.938 173.62 194.208 173.547 194.406 173.547C194.792 173.547 194.984 173.719 194.984 174.062C194.984 174.406 194.734 174.745 194.234 175.078C192.703 176.089 190.396 176.932 187.312 177.609C184.229 178.286 181.385 178.625 178.781 178.625C177.302 178.625 176.172 178.396 175.391 177.938C174.609 177.469 174.219 176.828 174.219 176.016C174.219 175.193 174.76 173.656 175.844 171.406C177.062 168.885 177.938 166.672 178.469 164.766C177.823 164.797 177.375 164.812 177.125 164.812C176.51 164.812 176.203 164.562 176.203 164.062C176.203 163.698 176.302 163.453 176.5 163.328C176.698 163.203 176.901 163.115 177.109 163.062C177.328 163.01 177.51 162.979 177.656 162.969C177.812 162.948 178.026 162.927 178.297 162.906C178.568 162.885 178.766 162.87 178.891 162.859C179.026 162.068 179.094 161.323 179.094 160.625L179.078 160.031C179.078 159.562 179.672 159.245 180.859 159.078C181.255 159.026 182.5 158.766 184.594 158.297C186.688 157.828 187.969 157.594 188.438 157.594C189.188 157.594 189.562 157.854 189.562 158.375C189.562 159.271 189.302 160.51 188.781 162.094ZM218.469 173.547C218.833 173.547 219.016 173.719 219.016 174.062C219.016 174.396 218.766 174.708 218.266 175C217.776 175.281 217.167 175.589 216.438 175.922C215.708 176.245 214.703 176.63 213.422 177.078C210.474 178.109 207.146 178.625 203.438 178.625C196.396 178.625 192.875 176.458 192.875 172.125C192.875 170.01 193.542 168.135 194.875 166.5C196.219 164.854 198.016 163.599 200.266 162.734C202.516 161.859 204.969 161.422 207.625 161.422C210.281 161.422 212.224 161.833 213.453 162.656C214.693 163.479 215.312 164.609 215.312 166.047C215.312 167.526 214.719 168.734 213.531 169.672C212.354 170.609 210.786 171.307 208.828 171.766C206.859 172.224 204.604 172.547 202.062 172.734C202.229 174.349 203.385 175.354 205.531 175.75C206.083 175.844 206.667 175.891 207.281 175.891C209.719 175.891 213.234 175.156 217.828 173.688C218.109 173.594 218.323 173.547 218.469 173.547ZM202.078 171.016C203.891 170.516 205.323 169.75 206.375 168.719C207.427 167.688 207.953 166.443 207.953 164.984C207.953 164.599 207.828 164.292 207.578 164.062C207.328 163.833 206.948 163.719 206.438 163.719C205.938 163.719 205.411 163.938 204.859 164.375C204.318 164.812 203.859 165.385 203.484 166.094C202.693 167.562 202.224 169.203 202.078 171.016ZM247.828 173.547C248.214 173.547 248.406 173.729 248.406 174.094C248.406 174.448 248.214 174.76 247.828 175.031C247.453 175.302 246.896 175.615 246.156 175.969C245.417 176.312 244.495 176.693 243.391 177.109C242.297 177.526 241.026 177.88 239.578 178.172C238.141 178.474 236.766 178.625 235.453 178.625C232.359 178.625 230.812 177.917 230.812 176.5C230.812 175.583 231.333 173.948 232.375 171.594C233.427 169.229 233.953 167.635 233.953 166.812C233.953 165.885 233.229 165.422 231.781 165.422C231.125 165.422 230.38 165.505 229.547 165.672C229.151 167.068 228.443 169.286 227.422 172.328C226.411 175.37 225.839 177.099 225.703 177.516C225.578 177.932 225.302 178.141 224.875 178.141L216.828 178.312C216.714 178.312 216.583 178.24 216.438 178.094C216.302 177.958 216.234 177.797 216.234 177.609C216.234 177.411 216.453 176.729 216.891 175.562C217.339 174.385 217.828 173.125 218.359 171.781C218.901 170.427 219.391 168.943 219.828 167.328C220.276 165.703 220.5 164.359 220.5 163.297L220.484 162.703C220.484 162.182 220.99 161.922 222 161.922L229.406 161.75C229.677 161.75 229.88 161.833 230.016 162C230.151 162.156 230.219 162.354 230.219 162.594C230.219 162.823 230.161 163.198 230.047 163.719C233.714 162.188 236.724 161.422 239.078 161.422C240.078 161.422 240.99 161.698 241.812 162.25C242.729 162.865 243.188 163.797 243.188 165.047C243.188 166.328 242.703 168.005 241.734 170.078C240.766 172.151 240.281 173.432 240.281 173.922C240.281 174.891 240.667 175.375 241.438 175.375C241.927 175.375 242.76 175.193 243.938 174.828C245.125 174.453 246 174.146 246.562 173.906C247.135 173.667 247.557 173.547 247.828 173.547ZM261.5 155.969C261.5 157.083 260.88 158.057 259.641 158.891C258.411 159.714 257.109 160.125 255.734 160.125C254.37 160.125 253.307 159.849 252.547 159.297C251.786 158.734 251.406 158.052 251.406 157.25C251.406 156.448 251.698 155.719 252.281 155.062C252.865 154.406 253.62 153.891 254.547 153.516C255.484 153.141 256.5 152.953 257.594 152.953C258.688 152.953 259.609 153.245 260.359 153.828C261.12 154.401 261.5 155.115 261.5 155.969ZM257.109 175.359C257.818 175.359 258.776 175.193 259.984 174.859C261.203 174.516 262.089 174.214 262.641 173.953C263.193 173.682 263.578 173.547 263.797 173.547C264.234 173.547 264.453 173.766 264.453 174.203C264.453 174.401 264.292 174.625 263.969 174.875C262.906 175.667 260.995 176.49 258.234 177.344C255.474 178.198 253.01 178.625 250.844 178.625C249.5 178.625 248.375 178.411 247.469 177.984C246.562 177.557 246.109 176.906 246.109 176.031C246.109 175.5 246.562 174.198 247.469 172.125C249.177 168.198 250.031 165.24 250.031 163.25L250.016 162.656C250.016 162.135 250.521 161.875 251.531 161.875L259.25 161.703C259.521 161.703 259.724 161.786 259.859 161.953C259.995 162.109 260.062 162.286 260.062 162.484C260.062 163.203 259.734 164.391 259.078 166.047C258.422 167.693 257.766 169.312 257.109 170.906C256.453 172.5 256.125 173.641 256.125 174.328C256.125 175.016 256.453 175.359 257.109 175.359ZM270.656 184.109C270.646 184.328 270.557 184.516 270.391 184.672C270.224 184.839 270.068 184.922 269.922 184.922C269.776 184.922 268.708 184.88 266.719 184.797C264.74 184.714 263.24 184.672 262.219 184.672C262.073 184.672 261.948 184.615 261.844 184.5C261.74 184.396 261.688 184.281 261.688 184.156C261.917 181.552 262.427 178.505 263.219 175.016C262.635 174.693 262.177 174.406 261.844 174.156C261.312 173.802 261.047 173.443 261.047 173.078C261.047 172.714 261.271 172.531 261.719 172.531C261.906 172.531 262.135 172.594 262.406 172.719C262.688 172.844 263.099 173.016 263.641 173.234C265.172 167.036 266.875 162.385 268.75 159.281C269.812 157.531 271.01 156.26 272.344 155.469C273.677 154.667 275.245 154.266 277.047 154.266C278.849 154.266 280.24 154.75 281.219 155.719C282.198 156.688 282.688 158.12 282.688 160.016C282.688 163.245 281.76 166.229 279.906 168.969C278.062 171.698 275.62 173.755 272.578 175.141C272.901 175.172 273.188 175.188 273.438 175.188C277.75 175.188 281.474 174.672 284.609 173.641C284.786 173.578 284.974 173.547 285.172 173.547C285.599 173.547 285.812 173.729 285.812 174.094C285.812 174.365 285.651 174.604 285.328 174.812C284.036 175.583 282.188 176.229 279.781 176.75C277.385 177.26 274.641 177.557 271.547 177.641C271.089 180.151 270.792 182.307 270.656 184.109ZM272.281 173.875C274.396 172.448 276.141 170.359 277.516 167.609C278.891 164.859 279.578 162.068 279.578 159.234C279.578 158.203 279.479 157.49 279.281 157.094C279.083 156.688 278.823 156.484 278.5 156.484C278.188 156.484 277.932 156.578 277.734 156.766C277.547 156.943 277.318 157.312 277.047 157.875C276.786 158.438 276.505 159.135 276.203 159.969C275.911 160.802 275.38 162.406 274.609 164.781C273.839 167.146 273.062 170.177 272.281 173.875ZM314.562 173.547C314.948 173.547 315.141 173.724 315.141 174.078C315.141 174.776 313.807 175.682 311.141 176.797C309.474 177.495 307.641 178.057 305.641 178.484C305.391 179.182 305.167 179.797 304.969 180.328C304.771 180.87 304.406 181.474 303.875 182.141C303.354 182.807 302.734 183.365 302.016 183.812C301.307 184.26 300.542 184.635 299.719 184.938C298.906 185.25 297.99 185.49 296.969 185.656C295.125 185.969 292.964 186.125 290.484 186.125C288.016 186.125 286.115 185.849 284.781 185.297C283.448 184.745 282.781 183.948 282.781 182.906C282.781 182.302 283.042 181.755 283.562 181.266C284.083 180.776 284.76 180.365 285.594 180.031C286.438 179.698 287.51 179.396 288.812 179.125C291.031 178.677 293.818 178.307 297.172 178.016C297.453 177.089 297.656 176.312 297.781 175.688C294.75 176.812 291.969 177.375 289.438 177.375C286.052 177.375 284.359 176.255 284.359 174.016C284.359 172.443 284.828 170.5 285.766 168.188C286.714 165.865 287.188 164.234 287.188 163.297L287.172 162.703C287.172 162.182 287.677 161.922 288.688 161.922L292.328 161.984L295.625 161.75C295.896 161.75 296.099 161.833 296.234 162C296.37 162.156 296.438 162.438 296.438 162.844C296.438 163.24 296.281 163.938 295.969 164.938C295.667 165.927 295.333 166.854 294.969 167.719C293.979 170.042 293.484 171.604 293.484 172.406C293.484 172.865 293.651 173.214 293.984 173.453C294.318 173.693 294.755 173.812 295.297 173.812C296.443 173.812 297.51 173.495 298.5 172.859C299.615 169.849 300.641 166.5 301.578 162.812C301.672 162.427 301.948 162.234 302.406 162.234C303.917 162.234 305.536 162.156 307.266 162C308.995 161.833 309.984 161.75 310.234 161.75C310.495 161.75 310.698 161.812 310.844 161.938C310.99 162.062 311.062 162.182 311.062 162.297C311.062 162.745 309.505 167.438 306.391 176.375C307.932 176.01 309.365 175.578 310.688 175.078C312.021 174.568 312.927 174.188 313.406 173.938C313.896 173.677 314.281 173.547 314.562 173.547ZM295.828 181.953C296.13 181.193 296.391 180.474 296.609 179.797C291.922 180.391 289.578 181.474 289.578 183.047C289.578 183.453 289.786 183.833 290.203 184.188C290.63 184.552 291.057 184.734 291.484 184.734C292.432 184.734 293.318 184.49 294.141 184C294.964 183.521 295.526 182.839 295.828 181.953Z" fill="black" fill-opacity="0.71"/>
</g>
<defs>
<filter id="filter0_d" x="0" y="0" width="415" height="546" filterUnits="userSpaceOnUse" color-interpolation-filters="sRGB">
<feFlood flood-opacity="0" result="BackgroundImageFix"/>
<feColorMatrix in="SourceAlpha" type="matrix" values="0 0 0 0 0 0 0 0 0 0 0 0 0 0 0 0 0 0 127 0"/>
<feOffset dy="4"/>
<feGaussianBlur stdDeviation="2"/>
<feColorMatrix type="matrix" values="0 0 0 0 0 0 0 0 0 0 0 0 0 0 0 0 0 0 0.25 0"/>
<feBlend mode="normal" in2="BackgroundImageFix" result="effect1_dropShadow"/>
<feBlend mode="normal" in="SourceGraphic" in2="effect1_dropShadow" result="shape"/>
</filter>
<linearGradient id="paint0_linear" x1="409" y1="510.941" x2="3.45178" y2="517.578" gradientUnits="userSpaceOnUse">
<stop offset="0.150403" stop-color="#F7980B"/>
<stop offset="0.424216" stop-color="#EC9F2C"/>
<stop offset="0.934806" stop-color="#FFB648"/>
</linearGradient>
<linearGradient id="paint1_linear" x1="6" y1="27.0588" x2="411.548" y2="20.4222" gradientUnits="userSpaceOnUse">
<stop offset="0.150403" stop-color="#F7980B"/>
<stop offset="0.424216" stop-color="#EC9F2C"/>
<stop offset="0.934806" stop-color="#FFB648"/>
</linearGradient>
</defs>
</svg>
