<svg width="407" height="538" viewBox="0 0 407 538" fill="none" xmlns="http://www.w3.org/2000/svg">
<rect x="1.5" y="1.5" width="404" height="535" fill="white" stroke="#FFB648" stroke-width="3"/>
<path d="M2 0V92C2 92 16.4821 67.3464 27.9679 67.3464C39.4538 67.3464 78.9051 80.5752 80.9026 57.7255C82.9001 34.8758 173.788 35.4771 186.273 49.3072C198.757 63.1373 272.666 66.7451 289.146 49.3072C312.617 27.6601 382.775 45.6993 391.02 29.4641C399.265 13.2288 407 0 407 0H2Z" fill="url(#paint0_linear)"/>
<path d="M407 538V446C407 446 392.518 470.654 381.032 470.654C369.546 470.654 330.095 457.425 328.097 480.275C326.1 503.124 235.212 502.523 222.727 488.693C210.243 474.863 136.334 471.255 119.854 488.693C96.3835 510.34 26.2252 492.301 17.9803 508.536C9.73532 524.771 2 538 2 538H407Z" fill="url(#paint1_linear)"/>
<path d="M117.625 158.828L115.781 159.203C115.552 159.203 115.38 159.172 115.266 159.109C115.151 159.047 115.094 158.896 115.094 158.656C115.094 158.281 115.562 157.688 116.5 156.875C117.438 156.052 118.755 155.318 120.453 154.672C122.151 154.016 123.651 153.688 124.953 153.688C126.266 153.688 127.161 153.958 127.641 154.5C128.12 155.031 128.359 155.906 128.359 157.125C128.359 157.281 128.339 157.547 128.297 157.922C132.078 154.88 135.552 153.359 138.719 153.359C140.208 153.359 141.339 153.698 142.109 154.375C142.88 155.052 143.266 156.01 143.266 157.25V157.391C146.714 154.703 149.797 153.359 152.516 153.359C154.057 153.359 155.271 153.724 156.156 154.453C157.042 155.172 157.484 156.146 157.484 157.375C157.484 158.594 157.214 159.995 156.672 161.578C156.141 163.161 155.557 164.578 154.922 165.828C153.214 169.193 152.359 171.422 152.359 172.516C152.359 173.214 152.568 173.766 152.984 174.172C153.401 174.568 153.839 174.807 154.297 174.891C154.755 174.964 155.052 175.021 155.188 175.062C155.333 175.094 155.495 175.146 155.672 175.219C156.005 175.344 156.172 175.557 156.172 175.859C156.172 176.599 155.365 177.245 153.75 177.797C152.146 178.349 150.167 178.625 147.812 178.625C144.688 178.625 143.125 177.464 143.125 175.141C143.125 174.109 143.385 172.823 143.906 171.281C144.427 169.729 145 168.292 145.625 166.969C147.281 163.438 148.109 161.078 148.109 159.891C148.109 159.453 147.979 159.099 147.719 158.828C147.469 158.557 147.073 158.422 146.531 158.422C145.583 158.422 144.38 158.797 142.922 159.547C142.516 161.13 141.729 163.312 140.562 166.094C139.396 168.865 138.562 171.078 138.062 172.734C137.562 174.38 137.281 175.797 137.219 176.984C137.198 177.328 137.099 177.615 136.922 177.844C136.755 178.073 136.536 178.188 136.266 178.188L129.922 178.281C128.807 178.281 128.125 178.094 127.875 177.719C127.76 177.542 127.703 177.281 127.703 176.938C127.703 176.594 127.823 175.922 128.062 174.922C128.302 173.922 128.766 172.531 129.453 170.75C130.151 168.958 130.812 167.401 131.438 166.078C133 162.734 133.781 160.651 133.781 159.828C133.781 158.88 133.208 158.406 132.062 158.406C130.917 158.406 129.542 158.854 127.938 159.75C127.583 161.094 126.922 162.948 125.953 165.312C124.995 167.667 124.156 169.812 123.438 171.75C122.729 173.688 122.375 175.141 122.375 176.109L122.422 177.141C122.422 177.464 122.245 177.719 121.891 177.906C121.536 178.094 121.167 178.188 120.781 178.188L114.984 178.281C113.828 178.281 113.125 178.083 112.875 177.688C112.76 177.49 112.703 177.188 112.703 176.781C112.703 176.365 112.792 175.771 112.969 175C113.146 174.229 113.708 172.724 114.656 170.484C115.615 168.234 116.484 166.146 117.266 164.219C118.057 162.292 118.453 161.016 118.453 160.391C118.453 159.766 118.385 159.349 118.25 159.141C118.115 158.932 117.906 158.828 117.625 158.828ZM190.5 173.547C190.885 173.547 191.078 173.724 191.078 174.078C191.078 174.776 189.745 175.682 187.078 176.797C185.411 177.495 183.578 178.057 181.578 178.484C181.328 179.182 181.104 179.797 180.906 180.328C180.708 180.87 180.344 181.474 179.812 182.141C179.292 182.807 178.672 183.365 177.953 183.812C177.245 184.26 176.479 184.635 175.656 184.938C174.844 185.25 173.927 185.49 172.906 185.656C171.062 185.969 168.901 186.125 166.422 186.125C163.953 186.125 162.052 185.849 160.719 185.297C159.385 184.745 158.719 183.948 158.719 182.906C158.719 182.302 158.979 181.755 159.5 181.266C160.021 180.776 160.698 180.365 161.531 180.031C162.375 179.698 163.448 179.396 164.75 179.125C166.969 178.677 169.755 178.307 173.109 178.016C173.391 177.089 173.594 176.312 173.719 175.688C170.688 176.812 167.906 177.375 165.375 177.375C161.99 177.375 160.297 176.255 160.297 174.016C160.297 172.443 160.766 170.5 161.703 168.188C162.651 165.865 163.125 164.234 163.125 163.297L163.109 162.703C163.109 162.182 163.615 161.922 164.625 161.922L168.266 161.984L171.562 161.75C171.833 161.75 172.036 161.833 172.172 162C172.307 162.156 172.375 162.438 172.375 162.844C172.375 163.24 172.219 163.938 171.906 164.938C171.604 165.927 171.271 166.854 170.906 167.719C169.917 170.042 169.422 171.604 169.422 172.406C169.422 172.865 169.589 173.214 169.922 173.453C170.255 173.693 170.693 173.812 171.234 173.812C172.38 173.812 173.448 173.495 174.438 172.859C175.552 169.849 176.578 166.5 177.516 162.812C177.609 162.427 177.885 162.234 178.344 162.234C179.854 162.234 181.474 162.156 183.203 162C184.932 161.833 185.922 161.75 186.172 161.75C186.432 161.75 186.635 161.812 186.781 161.938C186.927 162.062 187 162.182 187 162.297C187 162.745 185.443 167.438 182.328 176.375C183.87 176.01 185.302 175.578 186.625 175.078C187.958 174.568 188.865 174.188 189.344 173.938C189.833 173.677 190.219 173.547 190.5 173.547ZM171.766 181.953C172.068 181.193 172.328 180.474 172.547 179.797C167.859 180.391 165.516 181.474 165.516 183.047C165.516 183.453 165.724 183.833 166.141 184.188C166.568 184.552 166.995 184.734 167.422 184.734C168.37 184.734 169.255 184.49 170.078 184C170.901 183.521 171.464 182.839 171.766 181.953ZM205.891 160.828C205.255 161.849 204.214 164.667 202.766 169.281C203.109 169.302 203.62 169.312 204.297 169.312C206.38 169.312 208.135 168.599 209.562 167.172C211 165.745 211.719 163.891 211.719 161.609C211.719 158.276 209.714 156.609 205.703 156.609C204.12 156.609 202.589 156.724 201.109 156.953C199.641 157.182 198.479 157.432 197.625 157.703C196.771 157.974 195.984 158.224 195.266 158.453C194.547 158.682 194.073 158.797 193.844 158.797C193.323 158.797 193.062 158.609 193.062 158.234C193.062 157.859 193.417 157.479 194.125 157.094C194.844 156.698 195.661 156.318 196.578 155.953C197.495 155.578 198.63 155.188 199.984 154.781C203.057 153.844 206.385 153.375 209.969 153.375C214.698 153.375 217.917 154.427 219.625 156.531C220.552 157.667 221.016 159.036 221.016 160.641C221.016 163.682 219.75 166.193 217.219 168.172C215.062 169.859 212.26 170.932 208.812 171.391C207.802 171.526 206.646 171.594 205.344 171.594C204.052 171.594 202.979 171.505 202.125 171.328C201.688 172.734 201.344 173.807 201.094 174.547C200.854 175.286 200.583 175.88 200.281 176.328C199.979 176.776 199.656 177.13 199.312 177.391C198.979 177.651 198.552 177.849 198.031 177.984C197.208 178.203 196.109 178.312 194.734 178.312C193.37 178.312 192.073 178.161 190.844 177.859C189.615 177.557 188.641 177.188 187.922 176.75C187.193 176.312 186.828 175.885 186.828 175.469C186.828 175.229 186.932 175.036 187.141 174.891C187.349 174.745 187.589 174.672 187.859 174.672C188.818 174.672 189.526 174.521 189.984 174.219C190.453 173.906 190.901 173.333 191.328 172.5C191.766 171.667 192.198 170.698 192.625 169.594C193.062 168.479 193.469 167.448 193.844 166.5C194.219 165.542 194.646 164.568 195.125 163.578C196.177 161.411 197.422 159.99 198.859 159.312C199.557 158.979 200.469 158.724 201.594 158.547C202.719 158.359 203.599 158.266 204.234 158.266C204.88 158.266 205.297 158.276 205.484 158.297C205.682 158.307 205.88 158.339 206.078 158.391C206.474 158.495 206.672 158.714 206.672 159.047C206.672 159.276 206.625 159.49 206.531 159.688C206.448 159.875 206.234 160.255 205.891 160.828ZM232.328 174.656C234.286 174.656 235.922 173.156 237.234 170.156C237.839 168.781 238.141 167.667 238.141 166.812C238.141 165.958 237.995 165.37 237.703 165.047C237.422 164.724 236.859 164.562 236.016 164.562C235.182 164.562 234.276 164.953 233.297 165.734C232.328 166.505 231.547 167.479 230.953 168.656C230.359 169.833 230.062 170.896 230.062 171.844C230.062 172.781 230.271 173.484 230.688 173.953C231.104 174.422 231.651 174.656 232.328 174.656ZM240.453 161.422L247.609 161.75C247.88 161.75 248.083 161.833 248.219 162C248.354 162.156 248.422 162.333 248.422 162.531C248.422 163.292 248.104 164.505 247.469 166.172C246.844 167.828 246.214 169.474 245.578 171.109C244.953 172.734 244.641 173.812 244.641 174.344C244.641 174.865 244.719 175.198 244.875 175.344C245.042 175.49 245.354 175.562 245.812 175.562C246.271 175.562 247.104 175.344 248.312 174.906C249.531 174.458 250.354 174.12 250.781 173.891C251.219 173.661 251.552 173.547 251.781 173.547C252.188 173.547 252.391 173.729 252.391 174.094C252.391 174.865 250.828 175.875 247.703 177.125C246.651 177.552 245.38 177.906 243.891 178.188C242.411 178.479 240.906 178.625 239.375 178.625C236.823 178.625 235.286 177.812 234.766 176.188C233.141 177.812 230.953 178.625 228.203 178.625C226.318 178.625 224.724 178.172 223.422 177.266C222.005 176.276 221.297 174.719 221.297 172.594C221.297 170.354 221.958 168.292 223.281 166.406C224.729 164.312 226.667 162.87 229.094 162.078C230.438 161.641 231.88 161.422 233.422 161.422C235.786 161.422 237.625 162.005 238.938 163.172C238.948 163.109 238.953 163.01 238.953 162.875L238.938 162.203C238.938 161.682 239.443 161.422 240.453 161.422ZM260.719 178.609C260.458 178.62 260.073 178.625 259.562 178.625C257.167 178.625 254.906 178.401 252.781 177.953C250.667 177.505 249.417 176.984 249.031 176.391C248.906 176.203 248.844 175.969 248.844 175.688C248.844 175.406 249.177 174.958 249.844 174.344C250.51 173.719 250.969 173.406 251.219 173.406C251.469 173.406 251.724 173.5 251.984 173.688C252.255 173.865 252.552 174.083 252.875 174.344C253.198 174.604 253.557 174.865 253.953 175.125C254.901 175.75 256.042 176.062 257.375 176.062C257.906 176.062 258.333 175.927 258.656 175.656C258.99 175.385 259.156 175.047 259.156 174.641C259.156 174.224 259.016 173.865 258.734 173.562C258.464 173.26 258.104 173 257.656 172.781C257.219 172.552 256.734 172.328 256.203 172.109C255.672 171.88 255.135 171.635 254.594 171.375C254.062 171.104 253.573 170.812 253.125 170.5C252.135 169.802 251.641 168.938 251.641 167.906C251.641 166.865 251.953 165.964 252.578 165.203C253.214 164.443 254.01 163.833 254.969 163.375C255.927 162.917 257.01 162.531 258.219 162.219C260.344 161.688 262.349 161.422 264.234 161.422C266.13 161.422 267.891 161.521 269.516 161.719C271.151 161.906 272.276 162.188 272.891 162.562C273.057 162.656 273.141 162.906 273.141 163.312C273.141 163.708 273 164.281 272.719 165.031C272.438 165.771 272.078 166.458 271.641 167.094C271.214 167.719 270.828 168.031 270.484 168.031C270.349 168.031 270.234 167.974 270.141 167.859C269.151 166.672 268.188 165.76 267.25 165.125C266.323 164.479 265.312 164.156 264.219 164.156C263.385 164.156 262.786 164.328 262.422 164.672C262.068 165.005 261.891 165.354 261.891 165.719C261.891 166.083 262.089 166.432 262.484 166.766C262.891 167.099 263.391 167.401 263.984 167.672C264.589 167.943 265.24 168.26 265.938 168.625C266.646 168.979 267.297 169.344 267.891 169.719C268.495 170.083 268.995 170.547 269.391 171.109C269.797 171.661 270 172.359 270 173.203C270 174.047 269.693 174.87 269.078 175.672C271.661 175.151 273.682 174.51 275.141 173.75C275.391 173.615 275.604 173.547 275.781 173.547C276.177 173.547 276.375 173.745 276.375 174.141C276.375 174.474 276.172 174.781 275.766 175.062C275.359 175.333 274.688 175.667 273.75 176.062C272.812 176.448 271.698 176.839 270.406 177.234C267.396 178.151 264.167 178.609 260.719 178.609ZM284.688 178.609C284.427 178.62 284.042 178.625 283.531 178.625C281.135 178.625 278.875 178.401 276.75 177.953C274.635 177.505 273.385 176.984 273 176.391C272.875 176.203 272.812 175.969 272.812 175.688C272.812 175.406 273.146 174.958 273.812 174.344C274.479 173.719 274.938 173.406 275.188 173.406C275.438 173.406 275.693 173.5 275.953 173.688C276.224 173.865 276.521 174.083 276.844 174.344C277.167 174.604 277.526 174.865 277.922 175.125C278.87 175.75 280.01 176.062 281.344 176.062C281.875 176.062 282.302 175.927 282.625 175.656C282.958 175.385 283.125 175.047 283.125 174.641C283.125 174.224 282.984 173.865 282.703 173.562C282.432 173.26 282.073 173 281.625 172.781C281.188 172.552 280.703 172.328 280.172 172.109C279.641 171.88 279.104 171.635 278.562 171.375C278.031 171.104 277.542 170.812 277.094 170.5C276.104 169.802 275.609 168.938 275.609 167.906C275.609 166.865 275.922 165.964 276.547 165.203C277.182 164.443 277.979 163.833 278.938 163.375C279.896 162.917 280.979 162.531 282.188 162.219C284.312 161.688 286.318 161.422 288.203 161.422C290.099 161.422 291.859 161.521 293.484 161.719C295.12 161.906 296.245 162.188 296.859 162.562C297.026 162.656 297.109 162.906 297.109 163.312C297.109 163.708 296.969 164.281 296.688 165.031C296.406 165.771 296.047 166.458 295.609 167.094C295.182 167.719 294.797 168.031 294.453 168.031C294.318 168.031 294.203 167.974 294.109 167.859C293.12 166.672 292.156 165.76 291.219 165.125C290.292 164.479 289.281 164.156 288.188 164.156C287.354 164.156 286.755 164.328 286.391 164.672C286.036 165.005 285.859 165.354 285.859 165.719C285.859 166.083 286.057 166.432 286.453 166.766C286.859 167.099 287.359 167.401 287.953 167.672C288.557 167.943 289.208 168.26 289.906 168.625C290.615 168.979 291.266 169.344 291.859 169.719C292.464 170.083 292.964 170.547 293.359 171.109C293.766 171.661 293.969 172.359 293.969 173.203C293.969 174.047 293.661 174.87 293.047 175.672C295.63 175.151 297.651 174.51 299.109 173.75C299.359 173.615 299.573 173.547 299.75 173.547C300.146 173.547 300.344 173.745 300.344 174.141C300.344 174.474 300.141 174.781 299.734 175.062C299.328 175.333 298.656 175.667 297.719 176.062C296.781 176.448 295.667 176.839 294.375 177.234C291.365 178.151 288.135 178.609 284.688 178.609Z" fill="black" fill-opacity="0.71"/>
<path d="M91.1474 279V278.552L92.9394 277.628L100.107 260.38H101.367L108.423 277.544L110.299 278.552V279H103.355V278.552L105.819 277.6L103.719 272.42H96.9154L94.8434 277.6L97.1954 278.552V279H91.1474ZM97.5594 270.88H103.103L100.331 263.992L97.5594 270.88ZM123.179 279.28C122.078 279.28 121.163 279.177 120.435 278.972C119.707 278.748 118.97 278.421 118.223 277.992L118.755 273.4H119.203L120.295 276.676C120.799 277.18 121.303 277.544 121.807 277.768C122.33 277.992 122.862 278.104 123.403 278.104C124.729 278.104 125.727 277.721 126.399 276.956C127.071 276.172 127.407 275.164 127.407 273.932C127.407 273.167 127.155 272.513 126.651 271.972C126.166 271.431 125.279 270.805 123.991 270.096C122.946 269.499 122.181 268.864 121.695 268.192C121.21 267.52 120.967 266.727 120.967 265.812C120.967 264.748 121.257 263.796 121.835 262.956C122.414 262.116 123.151 261.453 124.047 260.968C124.962 260.483 125.914 260.24 126.903 260.24C127.725 260.24 128.462 260.343 129.115 260.548C129.769 260.753 130.422 261.043 131.075 261.416L130.571 265.896H130.123L129.087 262.648C128.77 262.349 128.397 262.079 127.967 261.836C127.557 261.593 127.025 261.472 126.371 261.472C125.793 261.472 125.251 261.631 124.747 261.948C124.262 262.247 123.861 262.685 123.543 263.264C123.245 263.824 123.095 264.477 123.095 265.224C123.095 265.896 123.301 266.484 123.711 266.988C124.141 267.473 124.85 267.996 125.839 268.556C126.81 269.097 127.575 269.611 128.135 270.096C128.695 270.563 129.097 271.067 129.339 271.608C129.601 272.131 129.731 272.737 129.731 273.428C129.731 274.585 129.423 275.603 128.807 276.48C128.191 277.357 127.379 278.048 126.371 278.552C125.382 279.037 124.318 279.28 123.179 279.28ZM137.221 279.28C135.784 279.28 134.729 278.888 134.057 278.104C133.385 277.301 133.049 276.219 133.049 274.856C133.049 273.755 133.227 272.691 133.581 271.664C133.955 270.619 134.459 269.685 135.093 268.864C135.747 268.024 136.493 267.361 137.333 266.876C138.192 266.372 139.116 266.12 140.105 266.12C141.039 266.12 141.739 266.335 142.205 266.764C142.691 267.193 142.933 267.697 142.933 268.276C142.933 268.911 142.709 269.499 142.261 270.04C141.813 270.563 141.029 271.048 139.909 271.496C138.808 271.925 137.249 272.308 135.233 272.644C135.196 273.017 135.177 273.409 135.177 273.82C135.177 274.959 135.42 275.864 135.905 276.536C136.391 277.208 137.156 277.544 138.201 277.544C138.817 277.544 139.424 277.376 140.021 277.04C140.619 276.704 141.235 276.153 141.869 275.388H141.925L142.205 275.612C141.571 276.713 140.805 277.6 139.909 278.272C139.032 278.944 138.136 279.28 137.221 279.28ZM139.349 267.1C138.341 267.1 137.483 267.52 136.773 268.36C136.083 269.181 135.616 270.273 135.373 271.636C136.773 271.393 137.865 271.132 138.649 270.852C139.433 270.572 139.984 270.245 140.301 269.872C140.619 269.48 140.777 268.995 140.777 268.416C140.777 268.043 140.656 267.735 140.413 267.492C140.171 267.231 139.816 267.1 139.349 267.1ZM149.607 279.28C148.263 279.28 147.237 278.879 146.527 278.076C145.818 277.255 145.463 276.069 145.463 274.52C145.463 273.549 145.65 272.579 146.023 271.608C146.415 270.619 146.938 269.713 147.591 268.892C148.263 268.052 149.01 267.38 149.831 266.876C150.671 266.372 151.53 266.12 152.407 266.12C153.098 266.12 153.658 266.251 154.087 266.512C154.517 266.755 154.862 267.081 155.123 267.492C155.235 267.66 155.31 267.8 155.347 267.912C155.385 268.024 155.403 268.145 155.403 268.276C155.403 268.407 155.366 268.537 155.291 268.668C155.235 268.799 155.133 268.911 154.983 269.004L154.171 269.48H153.975L153.415 268.668C153.117 268.22 152.809 267.893 152.491 267.688C152.193 267.464 151.754 267.352 151.175 267.352C150.559 267.352 149.971 267.651 149.411 268.248C148.87 268.845 148.422 269.611 148.067 270.544C147.731 271.459 147.563 272.42 147.563 273.428C147.563 274.753 147.787 275.771 148.235 276.48C148.702 277.189 149.449 277.544 150.475 277.544C150.793 277.544 151.147 277.488 151.539 277.376C151.931 277.245 152.361 276.993 152.827 276.62C153.294 276.228 153.807 275.64 154.367 274.856H154.423L154.703 275.08C153.901 276.499 153.089 277.553 152.267 278.244C151.446 278.935 150.559 279.28 149.607 279.28ZM160.464 279.28C159.774 279.28 159.204 279.009 158.756 278.468C158.327 277.927 158.112 277.189 158.112 276.256C158.112 276.069 158.122 275.883 158.14 275.696C158.178 275.509 158.206 275.323 158.224 275.136L159.484 268.108L157.3 267.128V266.96L161.78 266.12H161.892L160.436 274.688C160.362 275.155 160.324 275.491 160.324 275.696C160.324 276.219 160.446 276.667 160.688 277.04C160.95 277.395 161.37 277.572 161.948 277.572C162.34 277.572 162.732 277.432 163.124 277.152C163.535 276.872 163.927 276.536 164.3 276.144C164.674 275.752 165.01 275.388 165.308 275.052L166.512 268.108L164.58 267.128V266.96L168.836 266.12H168.948L167.268 275.668C167.175 276.228 167.156 276.629 167.212 276.872C167.287 277.115 167.464 277.236 167.744 277.236C168.062 277.236 168.407 277.068 168.78 276.732C169.154 276.377 169.508 275.845 169.844 275.136L170.208 275.304C169.667 276.704 169.079 277.721 168.444 278.356C167.828 278.972 167.194 279.28 166.54 279.28C165.887 279.28 165.439 279.028 165.196 278.524C164.972 278.02 164.926 277.348 165.056 276.508L165.084 276.34H165C164.366 277.049 163.815 277.619 163.348 278.048C162.882 278.477 162.424 278.795 161.976 279C161.547 279.187 161.043 279.28 160.464 279.28ZM171.845 279L173.777 268.108L171.593 267.128V266.96L175.541 266.12H175.625V269.564H175.737C176.335 268.463 176.839 267.679 177.249 267.212C177.679 266.727 178.052 266.428 178.369 266.316C178.705 266.185 179.004 266.12 179.265 266.12C179.601 266.12 179.909 266.232 180.189 266.456C180.469 266.661 180.609 266.904 180.609 267.184C180.609 267.277 180.581 267.38 180.525 267.492L179.825 268.92H179.657L179.349 268.696C179.2 268.584 179.032 268.509 178.845 268.472C178.677 268.416 178.509 268.388 178.341 268.388C178.005 268.388 177.697 268.463 177.417 268.612C177.156 268.743 176.857 269.032 176.521 269.48C176.204 269.909 175.793 270.563 175.289 271.44L173.973 279H171.845ZM185.319 279.28C183.882 279.28 182.827 278.888 182.155 278.104C181.483 277.301 181.147 276.219 181.147 274.856C181.147 273.755 181.324 272.691 181.679 271.664C182.052 270.619 182.556 269.685 183.191 268.864C183.844 268.024 184.591 267.361 185.431 266.876C186.29 266.372 187.214 266.12 188.203 266.12C189.136 266.12 189.836 266.335 190.303 266.764C190.788 267.193 191.031 267.697 191.031 268.276C191.031 268.911 190.807 269.499 190.359 270.04C189.911 270.563 189.127 271.048 188.007 271.496C186.906 271.925 185.347 272.308 183.331 272.644C183.294 273.017 183.275 273.409 183.275 273.82C183.275 274.959 183.518 275.864 184.003 276.536C184.488 277.208 185.254 277.544 186.299 277.544C186.915 277.544 187.522 277.376 188.119 277.04C188.716 276.704 189.332 276.153 189.967 275.388H190.023L190.303 275.612C189.668 276.713 188.903 277.6 188.007 278.272C187.13 278.944 186.234 279.28 185.319 279.28ZM187.447 267.1C186.439 267.1 185.58 267.52 184.871 268.36C184.18 269.181 183.714 270.273 183.471 271.636C184.871 271.393 185.963 271.132 186.747 270.852C187.531 270.572 188.082 270.245 188.399 269.872C188.716 269.48 188.875 268.995 188.875 268.416C188.875 268.043 188.754 267.735 188.511 267.492C188.268 267.231 187.914 267.1 187.447 267.1ZM204.041 279L201.857 267.968L199.477 267.128V266.96L203.621 266.12H203.705L205.413 275.584H205.497L209.725 266.4H210.117L212.357 275.92H212.469L214.149 272.756C214.69 271.729 215.045 270.955 215.213 270.432C215.399 269.909 215.493 269.471 215.493 269.116C215.493 268.817 215.418 268.584 215.269 268.416C215.119 268.229 214.933 268.071 214.709 267.94L214.345 267.716V267.604L214.793 266.764C214.942 266.503 215.063 266.335 215.157 266.26C215.269 266.167 215.427 266.12 215.633 266.12C215.931 266.12 216.202 266.241 216.445 266.484C216.706 266.727 216.911 267.016 217.061 267.352C217.21 267.688 217.285 268.015 217.285 268.332C217.285 268.78 217.107 269.321 216.753 269.956C216.417 270.572 215.922 271.459 215.269 272.616L211.573 279H210.985L208.801 270.712L204.629 279H204.041ZM222.999 279.28C221.561 279.28 220.507 278.888 219.835 278.104C219.163 277.301 218.827 276.219 218.827 274.856C218.827 273.755 219.004 272.691 219.359 271.664C219.732 270.619 220.236 269.685 220.871 268.864C221.524 268.024 222.271 267.361 223.111 266.876C223.969 266.372 224.893 266.12 225.883 266.12C226.816 266.12 227.516 266.335 227.983 266.764C228.468 267.193 228.711 267.697 228.711 268.276C228.711 268.911 228.487 269.499 228.039 270.04C227.591 270.563 226.807 271.048 225.687 271.496C224.585 271.925 223.027 272.308 221.011 272.644C220.973 273.017 220.955 273.409 220.955 273.82C220.955 274.959 221.197 275.864 221.683 276.536C222.168 277.208 222.933 277.544 223.979 277.544C224.595 277.544 225.201 277.376 225.799 277.04C226.396 276.704 227.012 276.153 227.647 275.388H227.703L227.983 275.612C227.348 276.713 226.583 277.6 225.687 278.272C224.809 278.944 223.913 279.28 222.999 279.28ZM225.127 267.1C224.119 267.1 223.26 267.52 222.551 268.36C221.86 269.181 221.393 270.273 221.151 271.636C222.551 271.393 223.643 271.132 224.427 270.852C225.211 270.572 225.761 270.245 226.079 269.872C226.396 269.48 226.555 268.995 226.555 268.416C226.555 268.043 226.433 267.735 226.191 267.492C225.948 267.231 225.593 267.1 225.127 267.1ZM235.273 279.28C234.787 279.28 234.321 279.215 233.873 279.084C233.425 278.972 233.033 278.813 232.697 278.608L231.269 279.28H231.101L234.461 259.96L232.305 259.008V258.84L236.869 258H236.953L234.937 269.62H235.077C235.469 269.041 235.898 268.491 236.365 267.968C236.831 267.427 237.345 266.988 237.905 266.652C238.465 266.297 239.081 266.12 239.753 266.12C240.499 266.12 241.097 266.447 241.545 267.1C242.011 267.735 242.245 268.696 242.245 269.984C242.245 271.141 242.058 272.271 241.685 273.372C241.33 274.473 240.826 275.472 240.173 276.368C239.538 277.264 238.801 277.973 237.961 278.496C237.121 279.019 236.225 279.28 235.273 279.28ZM238.437 267.968C237.914 267.968 237.317 268.248 236.645 268.808C235.973 269.349 235.319 270.096 234.685 271.048L233.705 276.704C234.115 277.245 234.498 277.628 234.853 277.852C235.207 278.076 235.618 278.188 236.085 278.188C236.813 278.188 237.485 277.88 238.101 277.264C238.717 276.629 239.202 275.78 239.557 274.716C239.93 273.633 240.117 272.42 240.117 271.076C240.117 269.937 239.986 269.135 239.725 268.668C239.482 268.201 239.053 267.968 238.437 267.968ZM244.769 272.588L245.049 271.02H252.329L252.049 272.588H244.769ZM258.87 279.28C258.385 279.28 257.918 279.215 257.47 279.084C257.022 278.972 256.63 278.813 256.294 278.608L254.866 279.28H254.698L258.058 259.96L255.902 259.008V258.84L260.466 258H260.55L258.534 269.62H258.674C259.066 269.041 259.496 268.491 259.962 267.968C260.429 267.427 260.942 266.988 261.502 266.652C262.062 266.297 262.678 266.12 263.35 266.12C264.097 266.12 264.694 266.447 265.142 267.1C265.609 267.735 265.842 268.696 265.842 269.984C265.842 271.141 265.656 272.271 265.282 273.372C264.928 274.473 264.424 275.472 263.77 276.368C263.136 277.264 262.398 277.973 261.558 278.496C260.718 279.019 259.822 279.28 258.87 279.28ZM262.034 267.968C261.512 267.968 260.914 268.248 260.242 268.808C259.57 269.349 258.917 270.096 258.282 271.048L257.302 276.704C257.713 277.245 258.096 277.628 258.45 277.852C258.805 278.076 259.216 278.188 259.682 278.188C260.41 278.188 261.082 277.88 261.698 277.264C262.314 276.629 262.8 275.78 263.154 274.716C263.528 273.633 263.714 272.42 263.714 271.076C263.714 269.937 263.584 269.135 263.322 268.668C263.08 268.201 262.65 267.968 262.034 267.968ZM270.781 279.28C270.035 279.28 269.428 278.963 268.961 278.328C268.513 277.675 268.289 276.704 268.289 275.416C268.289 274.259 268.467 273.129 268.821 272.028C269.195 270.927 269.699 269.928 270.333 269.032C270.987 268.136 271.733 267.427 272.573 266.904C273.413 266.381 274.309 266.12 275.261 266.12C275.728 266.12 276.176 266.176 276.605 266.288C277.035 266.4 277.417 266.549 277.753 266.736L278.733 266.12H279.433L277.725 275.668C277.632 276.228 277.613 276.629 277.669 276.872C277.744 277.115 277.903 277.236 278.145 277.236C278.463 277.236 278.808 277.068 279.181 276.732C279.555 276.377 279.909 275.845 280.245 275.136L280.609 275.304C280.068 276.704 279.48 277.721 278.845 278.356C278.229 278.972 277.595 279.28 276.941 279.28C276.288 279.28 275.84 279.028 275.597 278.524C275.355 278.02 275.308 277.348 275.457 276.508L275.597 275.78H275.485C274.776 276.863 274.029 277.721 273.245 278.356C272.461 278.972 271.64 279.28 270.781 279.28ZM270.417 274.324C270.417 275.369 270.529 276.153 270.753 276.676C270.996 277.18 271.444 277.432 272.097 277.432C272.545 277.432 272.993 277.283 273.441 276.984C273.889 276.685 274.319 276.303 274.729 275.836C275.14 275.369 275.504 274.893 275.821 274.408L276.857 268.64C276.503 268.173 276.139 267.819 275.765 267.576C275.411 267.333 274.972 267.212 274.449 267.212C273.647 267.212 272.937 267.557 272.321 268.248C271.724 268.939 271.257 269.825 270.921 270.908C270.585 271.991 270.417 273.129 270.417 274.324ZM285.113 279.28C284.161 279.28 283.386 279.149 282.789 278.888C282.191 278.608 281.762 278.263 281.501 277.852C281.389 277.684 281.314 277.544 281.277 277.432C281.239 277.32 281.221 277.199 281.221 277.068C281.221 276.956 281.239 276.844 281.277 276.732C281.314 276.601 281.407 276.499 281.557 276.424L282.173 276.088H282.369L282.845 276.9C283.125 277.367 283.498 277.721 283.965 277.964C284.431 278.188 284.898 278.3 285.365 278.3C286.074 278.3 286.653 278.113 287.101 277.74C287.567 277.367 287.801 276.825 287.801 276.116C287.801 275.388 287.558 274.828 287.073 274.436C286.606 274.044 286.074 273.671 285.477 273.316C284.767 272.887 284.235 272.495 283.881 272.14C283.526 271.785 283.283 271.421 283.153 271.048C283.022 270.675 282.957 270.227 282.957 269.704C282.957 269.163 283.162 268.621 283.573 268.08C283.983 267.52 284.525 267.053 285.197 266.68C285.869 266.307 286.578 266.12 287.325 266.12C288.146 266.12 288.79 266.251 289.257 266.512C289.723 266.755 290.087 267.072 290.349 267.464C290.517 267.725 290.601 267.968 290.601 268.192C290.601 268.323 290.563 268.453 290.489 268.584C290.433 268.715 290.339 268.817 290.209 268.892L289.677 269.172H289.481L288.865 268.304C288.603 267.931 288.305 267.651 287.969 267.464C287.651 267.259 287.25 267.156 286.765 267.156C286.223 267.156 285.757 267.324 285.365 267.66C284.991 267.977 284.805 268.397 284.805 268.92C284.805 269.517 284.982 270.012 285.337 270.404C285.71 270.796 286.139 271.132 286.625 271.412C287.297 271.804 287.847 272.177 288.277 272.532C288.725 272.887 289.061 273.288 289.285 273.736C289.509 274.184 289.621 274.753 289.621 275.444C289.621 276.097 289.425 276.723 289.033 277.32C288.641 277.899 288.099 278.375 287.409 278.748C286.737 279.103 285.971 279.28 285.113 279.28ZM296.608 279.28C295.171 279.28 294.116 278.888 293.444 278.104C292.772 277.301 292.436 276.219 292.436 274.856C292.436 273.755 292.613 272.691 292.968 271.664C293.341 270.619 293.845 269.685 294.48 268.864C295.133 268.024 295.88 267.361 296.72 266.876C297.579 266.372 298.503 266.12 299.492 266.12C300.425 266.12 301.125 266.335 301.592 266.764C302.077 267.193 302.32 267.697 302.32 268.276C302.32 268.911 302.096 269.499 301.648 270.04C301.2 270.563 300.416 271.048 299.296 271.496C298.195 271.925 296.636 272.308 294.62 272.644C294.583 273.017 294.564 273.409 294.564 273.82C294.564 274.959 294.807 275.864 295.292 276.536C295.777 277.208 296.543 277.544 297.588 277.544C298.204 277.544 298.811 277.376 299.408 277.04C300.005 276.704 300.621 276.153 301.256 275.388H301.312L301.592 275.612C300.957 276.713 300.192 277.6 299.296 278.272C298.419 278.944 297.523 279.28 296.608 279.28ZM298.736 267.1C297.728 267.1 296.869 267.52 296.16 268.36C295.469 269.181 295.003 270.273 294.76 271.636C296.16 271.393 297.252 271.132 298.036 270.852C298.82 270.572 299.371 270.245 299.688 269.872C300.005 269.48 300.164 268.995 300.164 268.416C300.164 268.043 300.043 267.735 299.8 267.492C299.557 267.231 299.203 267.1 298.736 267.1ZM307.342 279.28C306.595 279.28 305.989 278.963 305.522 278.328C305.074 277.675 304.85 276.704 304.85 275.416C304.85 274.259 305.027 273.129 305.382 272.028C305.755 270.927 306.259 269.928 306.894 269.032C307.547 268.136 308.294 267.427 309.134 266.904C309.974 266.381 310.87 266.12 311.822 266.12C312.494 266.12 313.138 266.241 313.754 266.484L314.902 259.96L312.466 259.008V258.84L317.31 258H317.394L314.286 275.668C314.193 276.228 314.174 276.629 314.23 276.872C314.286 277.115 314.445 277.236 314.706 277.236C315.023 277.236 315.369 277.068 315.742 276.732C316.115 276.377 316.47 275.845 316.806 275.136L317.17 275.304C316.629 276.704 316.041 277.721 315.406 278.356C314.79 278.972 314.155 279.28 313.502 279.28C312.849 279.28 312.401 279.028 312.158 278.524C311.915 278.02 311.869 277.348 312.018 276.508L312.158 275.78H312.046C310.478 278.113 308.91 279.28 307.342 279.28ZM306.978 274.324C306.978 275.5 307.109 276.312 307.37 276.76C307.631 277.208 308.061 277.432 308.658 277.432C309.199 277.432 309.806 277.161 310.478 276.62C311.15 276.06 311.785 275.323 312.382 274.408L313.39 268.668C312.998 268.145 312.615 267.772 312.242 267.548C311.887 267.324 311.477 267.212 311.01 267.212C310.263 267.212 309.582 267.539 308.966 268.192C308.369 268.845 307.883 269.713 307.51 270.796C307.155 271.86 306.978 273.036 306.978 274.324ZM110.011 322.28C108.667 322.28 107.426 322.047 106.287 321.58C105.167 321.095 104.187 320.432 103.347 319.592C102.507 318.733 101.854 317.725 101.387 316.568C100.921 315.411 100.687 314.141 100.687 312.76C100.687 311.379 100.921 310.109 101.387 308.952C101.854 307.795 102.507 306.796 103.347 305.956C104.187 305.097 105.167 304.435 106.287 303.968C107.426 303.483 108.667 303.24 110.011 303.24C111.355 303.24 112.597 303.483 113.735 303.968C114.874 304.435 115.863 305.097 116.703 305.956C117.543 306.796 118.197 307.795 118.663 308.952C119.13 310.109 119.363 311.379 119.363 312.76C119.363 314.141 119.13 315.411 118.663 316.568C118.197 317.725 117.543 318.733 116.703 319.592C115.863 320.432 114.874 321.095 113.735 321.58C112.597 322.047 111.355 322.28 110.011 322.28ZM110.599 320.88C111.794 320.88 112.839 320.581 113.735 319.984C114.65 319.387 115.359 318.547 115.863 317.464C116.386 316.381 116.647 315.103 116.647 313.628C116.647 311.817 116.33 310.24 115.695 308.896C115.061 307.533 114.202 306.479 113.119 305.732C112.055 304.985 110.861 304.612 109.535 304.612C108.341 304.612 107.277 304.911 106.343 305.508C105.429 306.087 104.71 306.917 104.187 308C103.665 309.083 103.403 310.361 103.403 311.836C103.403 313.647 103.721 315.233 104.355 316.596C105.009 317.959 105.877 319.013 106.959 319.76C108.042 320.507 109.255 320.88 110.599 320.88ZM122.657 322V321.552L124.421 320.656V312.312L122.741 310.856V310.66L126.213 309.12H126.381L126.633 311.192H126.773C127.483 310.483 128.164 309.96 128.817 309.624C129.489 309.288 130.227 309.12 131.029 309.12C132.131 309.12 133.027 309.4 133.717 309.96C134.427 310.501 134.781 311.313 134.781 312.396V320.656L136.545 321.552V322H130.553V321.552L132.541 320.656V313.712C132.541 312.891 132.28 312.265 131.757 311.836C131.253 311.407 130.591 311.192 129.769 311.192C129.265 311.192 128.705 311.276 128.089 311.444C127.492 311.612 127.016 311.855 126.661 312.172V320.656L128.649 321.552V322H122.657ZM138.842 322V321.552L140.606 320.656V304.192L138.926 302.736V302.54L142.678 301H142.846V320.656L144.61 321.552V322H138.842ZM150.153 305.732C149.667 305.732 149.266 305.573 148.949 305.256C148.631 304.92 148.473 304.519 148.473 304.052C148.473 303.567 148.631 303.165 148.949 302.848C149.266 302.531 149.667 302.372 150.153 302.372C150.638 302.372 151.039 302.531 151.357 302.848C151.674 303.165 151.833 303.567 151.833 304.052C151.833 304.519 151.674 304.92 151.357 305.256C151.039 305.573 150.638 305.732 150.153 305.732ZM147.353 322V321.552L149.117 320.656V312.312L147.437 310.856V310.66L151.189 309.12H151.357V320.656L153.121 321.552V322H147.353ZM155.962 322V321.552L157.726 320.656V312.312L156.046 310.856V310.66L159.518 309.12H159.686L159.938 311.192H160.078C160.787 310.483 161.469 309.96 162.122 309.624C162.794 309.288 163.531 309.12 164.334 309.12C165.435 309.12 166.331 309.4 167.022 309.96C167.731 310.501 168.086 311.313 168.086 312.396V320.656L169.85 321.552V322H163.858V321.552L165.846 320.656V313.712C165.846 312.891 165.585 312.265 165.062 311.836C164.558 311.407 163.895 311.192 163.074 311.192C162.57 311.192 162.01 311.276 161.394 311.444C160.797 311.612 160.321 311.855 159.966 312.172V320.656L161.954 321.552V322H155.962ZM178.167 322.28C176.356 322.28 174.928 321.729 173.883 320.628C172.837 319.527 172.315 318.071 172.315 316.26C172.315 314.86 172.585 313.628 173.127 312.564C173.687 311.481 174.415 310.641 175.311 310.044C176.225 309.428 177.215 309.12 178.279 309.12C179.753 309.12 180.911 309.633 181.751 310.66C182.609 311.687 183.039 313.161 183.039 315.084L182.899 315.224H174.527C174.545 316.083 174.713 316.895 175.031 317.66C175.348 318.407 175.852 319.013 176.543 319.48C177.252 319.947 178.195 320.18 179.371 320.18C180.397 320.18 181.601 319.807 182.983 319.06H183.067V319.34C182.637 320.143 181.993 320.833 181.135 321.412C180.295 321.991 179.305 322.28 178.167 322.28ZM177.831 310.352C176.935 310.352 176.197 310.669 175.619 311.304C175.059 311.92 174.713 312.797 174.583 313.936H180.911C180.705 312.667 180.341 311.752 179.819 311.192C179.315 310.632 178.652 310.352 177.831 310.352ZM193.297 322V321.552L195.537 320.432V305.088L193.297 303.968V303.52H200.577C202.78 303.52 204.544 303.921 205.869 304.724C207.213 305.527 207.885 306.796 207.885 308.532C207.885 309.559 207.531 310.473 206.821 311.276C206.131 312.06 205.179 312.685 203.965 313.152C202.771 313.619 201.417 313.852 199.905 313.852H198.057V320.432L200.577 321.552V322H193.297ZM198.057 305.06V312.312H200.437C201.912 312.312 203.069 311.985 203.909 311.332C204.749 310.66 205.169 309.801 205.169 308.756C205.169 307.449 204.74 306.507 203.881 305.928C203.041 305.349 201.828 305.06 200.241 305.06H198.057ZM213.154 322.28C212.277 322.28 211.549 322.028 210.97 321.524C210.391 321.001 210.102 320.283 210.102 319.368C210.102 318.453 210.438 317.66 211.11 316.988C211.801 316.316 212.949 315.793 214.554 315.42L217.214 314.804V312.76C217.214 312.125 216.953 311.584 216.43 311.136C215.926 310.669 215.347 310.436 214.694 310.436C213.985 310.436 213.49 310.632 213.21 311.024C212.93 311.397 212.79 311.901 212.79 312.536V313.32L212.65 313.46H211.194C210.914 313.46 210.718 313.413 210.606 313.32C210.513 313.227 210.466 313.012 210.466 312.676C210.466 312.265 210.587 311.845 210.83 311.416C211.073 310.987 211.446 310.613 211.95 310.296C212.473 309.96 213.014 309.68 213.574 309.456C214.153 309.232 214.769 309.12 215.422 309.12C216.075 309.12 216.71 309.213 217.326 309.4C217.961 309.587 218.474 309.904 218.866 310.352C219.258 310.781 219.454 311.388 219.454 312.172V320.124C219.585 320.255 219.771 320.367 220.014 320.46C220.257 320.553 220.593 320.6 221.022 320.6H222.086L222.17 320.656V320.74C221.946 321.151 221.61 321.515 221.162 321.832C220.733 322.131 220.201 322.28 219.566 322.28C218.987 322.28 218.511 322.131 218.138 321.832C217.783 321.515 217.531 321.104 217.382 320.6H217.214C216.729 321.085 216.122 321.487 215.394 321.804C214.685 322.121 213.938 322.28 213.154 322.28ZM212.286 318.808C212.286 319.965 212.986 320.544 214.386 320.544C214.834 320.544 215.273 320.497 215.702 320.404C216.15 320.311 216.654 320.143 217.214 319.9V315.756C215.721 316.036 214.629 316.335 213.938 316.652C213.247 316.951 212.799 317.277 212.594 317.632C212.389 317.987 212.286 318.379 212.286 318.808ZM228.449 322.28C227.572 322.28 226.816 322.205 226.181 322.056C225.546 321.907 224.902 321.664 224.249 321.328V318.192H224.641L225.537 319.732C226.116 320.759 227.058 321.272 228.365 321.272C229.112 321.272 229.69 321.095 230.101 320.74C230.53 320.385 230.745 319.9 230.745 319.284C230.745 318.743 230.614 318.323 230.353 318.024C230.092 317.725 229.718 317.464 229.233 317.24C228.766 316.997 228.206 316.727 227.553 316.428C226.601 315.999 225.864 315.532 225.341 315.028C224.837 314.505 224.585 313.777 224.585 312.844C224.585 312.153 224.781 311.528 225.173 310.968C225.565 310.408 226.06 309.96 226.657 309.624C227.273 309.288 227.908 309.12 228.561 309.12C229.252 309.12 229.886 309.204 230.465 309.372C231.044 309.54 231.632 309.773 232.229 310.072V313.124H231.837L230.913 311.64C230.596 311.136 230.25 310.772 229.877 310.548C229.504 310.324 229.102 310.212 228.673 310.212C228.038 310.212 227.525 310.371 227.133 310.688C226.76 311.005 226.573 311.444 226.573 312.004C226.573 312.639 226.797 313.124 227.245 313.46C227.712 313.777 228.384 314.141 229.261 314.552C229.784 314.813 230.306 315.075 230.829 315.336C231.37 315.597 231.809 315.971 232.145 316.456C232.5 316.923 232.677 317.595 232.677 318.472C232.677 319.293 232.453 319.993 232.005 320.572C231.557 321.132 231.006 321.561 230.353 321.86C229.7 322.14 229.065 322.28 228.449 322.28ZM240.262 322.28C239.384 322.28 238.628 322.205 237.994 322.056C237.359 321.907 236.715 321.664 236.062 321.328V318.192H236.454L237.35 319.732C237.928 320.759 238.871 321.272 240.178 321.272C240.924 321.272 241.503 321.095 241.914 320.74C242.343 320.385 242.558 319.9 242.558 319.284C242.558 318.743 242.427 318.323 242.166 318.024C241.904 317.725 241.531 317.464 241.046 317.24C240.579 316.997 240.019 316.727 239.366 316.428C238.414 315.999 237.676 315.532 237.154 315.028C236.65 314.505 236.398 313.777 236.398 312.844C236.398 312.153 236.594 311.528 236.986 310.968C237.378 310.408 237.872 309.96 238.47 309.624C239.086 309.288 239.72 309.12 240.374 309.12C241.064 309.12 241.699 309.204 242.278 309.372C242.856 309.54 243.444 309.773 244.042 310.072V313.124H243.65L242.726 311.64C242.408 311.136 242.063 310.772 241.69 310.548C241.316 310.324 240.915 310.212 240.486 310.212C239.851 310.212 239.338 310.371 238.946 310.688C238.572 311.005 238.386 311.444 238.386 312.004C238.386 312.639 238.61 313.124 239.058 313.46C239.524 313.777 240.196 314.141 241.074 314.552C241.596 314.813 242.119 315.075 242.642 315.336C243.183 315.597 243.622 315.971 243.958 316.456C244.312 316.923 244.49 317.595 244.49 318.472C244.49 319.293 244.266 319.993 243.818 320.572C243.37 321.132 242.819 321.561 242.166 321.86C241.512 322.14 240.878 322.28 240.262 322.28ZM252.012 322L247.616 310.716L245.74 309.848V309.4H252.432V309.848L250.136 310.688V310.856L253.048 318.612H253.16L257.136 309.4H257.724L261.7 318.528H261.812L264.64 311.024V310.856L262.624 309.848V309.4H268.112V309.848L266.04 310.828L261.364 322H260.776L256.744 312.872L252.6 322H252.012ZM275.026 322.28C273.794 322.28 272.711 321.991 271.778 321.412C270.863 320.833 270.144 320.049 269.622 319.06C269.118 318.071 268.866 316.951 268.866 315.7C268.866 314.449 269.118 313.329 269.622 312.34C270.144 311.351 270.863 310.567 271.778 309.988C272.711 309.409 273.794 309.12 275.026 309.12C276.258 309.12 277.331 309.409 278.246 309.988C279.179 310.567 279.898 311.351 280.402 312.34C280.924 313.329 281.186 314.449 281.186 315.7C281.186 316.951 280.924 318.071 280.402 319.06C279.898 320.049 279.179 320.833 278.246 321.412C277.331 321.991 276.258 322.28 275.026 322.28ZM275.418 321.076C276.164 321.076 276.78 320.843 277.266 320.376C277.751 319.909 278.106 319.312 278.33 318.584C278.554 317.837 278.666 317.063 278.666 316.26C278.666 315.271 278.526 314.319 278.246 313.404C277.984 312.489 277.555 311.743 276.958 311.164C276.379 310.585 275.623 310.296 274.69 310.296C273.924 310.296 273.299 310.529 272.814 310.996C272.328 311.463 271.964 312.06 271.722 312.788C271.498 313.516 271.386 314.291 271.386 315.112C271.386 316.101 271.526 317.053 271.806 317.968C272.086 318.883 272.524 319.629 273.122 320.208C273.719 320.787 274.484 321.076 275.418 321.076ZM284.043 322V321.552L285.807 320.656V312.312L284.127 310.856V310.66L287.599 309.12H287.767L288.019 311.5H288.131C288.56 310.809 288.952 310.296 289.307 309.96C289.68 309.605 290.025 309.381 290.343 309.288C290.66 309.176 290.977 309.12 291.295 309.12C291.444 309.12 291.612 309.148 291.799 309.204C292.004 309.26 292.172 309.316 292.303 309.372C292.508 309.465 292.695 309.577 292.863 309.708C293.049 309.839 293.143 309.988 293.143 310.156C293.143 310.324 293.105 310.492 293.031 310.66L292.471 312.032H292.275L291.211 311.612C291.005 311.519 290.8 311.463 290.595 311.444C290.408 311.425 290.221 311.416 290.035 311.416C289.251 311.416 288.588 311.817 288.047 312.62V320.656L290.035 321.552V322H284.043ZM299.82 322.28C298.886 322.28 298.046 322.047 297.3 321.58C296.572 321.113 295.993 320.46 295.564 319.62C295.153 318.761 294.948 317.744 294.948 316.568C294.948 314.981 295.256 313.637 295.872 312.536C296.488 311.416 297.309 310.567 298.336 309.988C299.362 309.409 300.482 309.12 301.696 309.12C302.218 309.12 302.676 309.148 303.068 309.204C303.46 309.241 303.814 309.297 304.132 309.372V304.192L302.312 302.736V302.54L306.204 301H306.372V320.74L308.36 321.552V322H304.412L304.188 320.572H303.992C303.282 321.169 302.592 321.608 301.92 321.888C301.266 322.149 300.566 322.28 299.82 322.28ZM297.188 315.924C297.188 317.473 297.598 318.603 298.42 319.312C299.241 320.003 300.221 320.348 301.36 320.348C301.808 320.348 302.265 320.283 302.732 320.152C303.217 320.003 303.684 319.788 304.132 319.508V311.668C303.684 311.276 303.236 310.987 302.788 310.8C302.358 310.595 301.873 310.492 301.332 310.492C300.585 310.492 299.894 310.679 299.26 311.052C298.644 311.407 298.14 311.985 297.748 312.788C297.374 313.572 297.188 314.617 297.188 315.924ZM150.733 365V364.552L152.945 363.432L153.533 348.116L151.125 346.968V346.52H156.305L162.773 361.416L169.213 346.52H174.141V346.968L171.789 348.088L172.265 363.432L174.225 364.552V365H167.785V364.552L169.857 363.46L169.577 349.656L162.885 365.14H161.625L155.045 349.852L154.681 363.46L156.949 364.552V365H150.733ZM180.273 365.28C179.396 365.28 178.668 365.028 178.089 364.524C177.51 364.001 177.221 363.283 177.221 362.368C177.221 361.453 177.557 360.66 178.229 359.988C178.92 359.316 180.068 358.793 181.673 358.42L184.333 357.804V355.76C184.333 355.125 184.072 354.584 183.549 354.136C183.045 353.669 182.466 353.436 181.813 353.436C181.104 353.436 180.609 353.632 180.329 354.024C180.049 354.397 179.909 354.901 179.909 355.536V356.32L179.769 356.46H178.313C178.033 356.46 177.837 356.413 177.725 356.32C177.632 356.227 177.585 356.012 177.585 355.676C177.585 355.265 177.706 354.845 177.949 354.416C178.192 353.987 178.565 353.613 179.069 353.296C179.592 352.96 180.133 352.68 180.693 352.456C181.272 352.232 181.888 352.12 182.541 352.12C183.194 352.12 183.829 352.213 184.445 352.4C185.08 352.587 185.593 352.904 185.985 353.352C186.377 353.781 186.573 354.388 186.573 355.172V363.124C186.704 363.255 186.89 363.367 187.133 363.46C187.376 363.553 187.712 363.6 188.141 363.6H189.205L189.289 363.656V363.74C189.065 364.151 188.729 364.515 188.281 364.832C187.852 365.131 187.32 365.28 186.685 365.28C186.106 365.28 185.63 365.131 185.257 364.832C184.902 364.515 184.65 364.104 184.501 363.6H184.333C183.848 364.085 183.241 364.487 182.513 364.804C181.804 365.121 181.057 365.28 180.273 365.28ZM179.405 361.808C179.405 362.965 180.105 363.544 181.505 363.544C181.953 363.544 182.392 363.497 182.821 363.404C183.269 363.311 183.773 363.143 184.333 362.9V358.756C182.84 359.036 181.748 359.335 181.057 359.652C180.366 359.951 179.918 360.277 179.713 360.632C179.508 360.987 179.405 361.379 179.405 361.808ZM190.948 365V364.552L192.712 363.656V355.312L191.032 353.856V353.66L194.504 352.12H194.672L194.924 354.192H195.064C195.774 353.483 196.455 352.96 197.108 352.624C197.78 352.288 198.518 352.12 199.32 352.12C200.422 352.12 201.318 352.4 202.008 352.96C202.718 353.501 203.072 354.313 203.072 355.396V363.656L204.836 364.552V365H198.844V364.552L200.832 363.656V356.712C200.832 355.891 200.571 355.265 200.048 354.836C199.544 354.407 198.882 354.192 198.06 354.192C197.556 354.192 196.996 354.276 196.38 354.444C195.783 354.612 195.307 354.855 194.952 355.172V363.656L196.94 364.552V365H190.948ZM210.132 365.28C209.255 365.28 208.527 365.028 207.948 364.524C207.37 364.001 207.08 363.283 207.08 362.368C207.08 361.453 207.416 360.66 208.088 359.988C208.779 359.316 209.927 358.793 211.532 358.42L214.192 357.804V355.76C214.192 355.125 213.931 354.584 213.408 354.136C212.904 353.669 212.326 353.436 211.672 353.436C210.963 353.436 210.468 353.632 210.188 354.024C209.908 354.397 209.768 354.901 209.768 355.536V356.32L209.628 356.46H208.172C207.892 356.46 207.696 356.413 207.584 356.32C207.491 356.227 207.444 356.012 207.444 355.676C207.444 355.265 207.566 354.845 207.808 354.416C208.051 353.987 208.424 353.613 208.928 353.296C209.451 352.96 209.992 352.68 210.552 352.456C211.131 352.232 211.747 352.12 212.4 352.12C213.054 352.12 213.688 352.213 214.304 352.4C214.939 352.587 215.452 352.904 215.844 353.352C216.236 353.781 216.432 354.388 216.432 355.172V363.124C216.563 363.255 216.75 363.367 216.992 363.46C217.235 363.553 217.571 363.6 218 363.6H219.064L219.148 363.656V363.74C218.924 364.151 218.588 364.515 218.14 364.832C217.711 365.131 217.179 365.28 216.544 365.28C215.966 365.28 215.49 365.131 215.116 364.832C214.762 364.515 214.51 364.104 214.36 363.6H214.192C213.707 364.085 213.1 364.487 212.372 364.804C211.663 365.121 210.916 365.28 210.132 365.28ZM209.264 361.808C209.264 362.965 209.964 363.544 211.364 363.544C211.812 363.544 212.251 363.497 212.68 363.404C213.128 363.311 213.632 363.143 214.192 362.9V358.756C212.699 359.036 211.607 359.335 210.916 359.652C210.226 359.951 209.778 360.277 209.572 360.632C209.367 360.987 209.264 361.379 209.264 361.808ZM226.551 361.024C225.73 361.024 224.974 360.875 224.283 360.576C223.91 360.725 223.639 360.921 223.471 361.164C223.322 361.407 223.247 361.668 223.247 361.948C223.247 362.881 223.91 363.348 225.235 363.348H228.595C229.958 363.348 230.956 363.647 231.591 364.244C232.244 364.841 232.571 365.728 232.571 366.904C232.571 367.707 232.3 368.472 231.759 369.2C231.236 369.947 230.48 370.553 229.491 371.02C228.52 371.487 227.363 371.72 226.019 371.72C224.246 371.72 222.967 371.393 222.183 370.74C221.418 370.105 221.035 369.321 221.035 368.388C221.035 367.697 221.203 367.1 221.539 366.596L223.471 365.308V365.196C222.762 365.047 222.22 364.776 221.847 364.384C221.474 363.973 221.287 363.479 221.287 362.9C221.287 362.191 221.53 361.593 222.015 361.108L223.527 360.324V360.156C222.93 359.764 222.454 359.26 222.099 358.644C221.744 358.028 221.567 357.337 221.567 356.572C221.567 355.732 221.782 354.976 222.211 354.304C222.64 353.632 223.228 353.1 223.975 352.708C224.74 352.316 225.599 352.12 226.551 352.12C226.943 352.12 227.363 352.167 227.811 352.26C228.278 352.353 228.679 352.475 229.015 352.624L233.215 352.4V353.912L230.611 353.744L230.499 353.856C230.798 354.192 231.04 354.603 231.227 355.088C231.432 355.573 231.535 356.068 231.535 356.572C231.535 357.412 231.32 358.168 230.891 358.84C230.462 359.512 229.864 360.044 229.099 360.436C228.352 360.828 227.503 361.024 226.551 361.024ZM226.831 359.876C227.578 359.876 228.166 359.559 228.595 358.924C229.024 358.271 229.239 357.515 229.239 356.656C229.239 355.629 228.959 354.808 228.399 354.192C227.839 353.557 227.158 353.24 226.355 353.24C225.552 353.24 224.936 353.567 224.507 354.22C224.078 354.855 223.863 355.611 223.863 356.488C223.863 357.459 224.143 358.271 224.703 358.924C225.263 359.559 225.972 359.876 226.831 359.876ZM223.023 368.08C223.023 368.901 223.34 369.583 223.975 370.124C224.628 370.665 225.422 370.936 226.355 370.936C227.195 370.936 227.923 370.768 228.539 370.432C229.174 370.115 229.659 369.685 229.995 369.144C230.35 368.621 230.527 368.061 230.527 367.464C230.527 366.643 230.303 366.073 229.855 365.756C229.426 365.439 228.642 365.28 227.503 365.28H224.507C224.451 365.28 224.404 365.28 224.367 365.28C223.863 365.579 223.508 365.952 223.303 366.4C223.116 366.867 223.023 367.427 223.023 368.08ZM241.591 365.28C239.78 365.28 238.352 364.729 237.307 363.628C236.261 362.527 235.739 361.071 235.739 359.26C235.739 357.86 236.009 356.628 236.551 355.564C237.111 354.481 237.839 353.641 238.735 353.044C239.649 352.428 240.639 352.12 241.703 352.12C243.177 352.12 244.335 352.633 245.175 353.66C246.033 354.687 246.463 356.161 246.463 358.084L246.323 358.224H237.951C237.969 359.083 238.137 359.895 238.455 360.66C238.772 361.407 239.276 362.013 239.967 362.48C240.676 362.947 241.619 363.18 242.795 363.18C243.821 363.18 245.025 362.807 246.407 362.06H246.491V362.34C246.061 363.143 245.417 363.833 244.559 364.412C243.719 364.991 242.729 365.28 241.591 365.28ZM241.255 353.352C240.359 353.352 239.621 353.669 239.043 354.304C238.483 354.92 238.137 355.797 238.007 356.936H244.335C244.129 355.667 243.765 354.752 243.243 354.192C242.739 353.632 242.076 353.352 241.255 353.352ZM249.357 365V364.552L251.121 363.656V355.312L249.441 353.856V353.66L252.913 352.12H253.081L253.333 354.5H253.445C253.874 353.809 254.266 353.296 254.621 352.96C254.994 352.605 255.34 352.381 255.657 352.288C255.974 352.176 256.292 352.12 256.609 352.12C256.758 352.12 256.926 352.148 257.113 352.204C257.318 352.26 257.486 352.316 257.617 352.372C257.822 352.465 258.009 352.577 258.177 352.708C258.364 352.839 258.457 352.988 258.457 353.156C258.457 353.324 258.42 353.492 258.345 353.66L257.785 355.032H257.589L256.525 354.612C256.32 354.519 256.114 354.463 255.909 354.444C255.722 354.425 255.536 354.416 255.349 354.416C254.565 354.416 253.902 354.817 253.361 355.62V363.656L255.349 364.552V365H249.357Z" fill="black"/>
<defs>
<linearGradient id="paint0_linear" x1="2" y1="27.0588" x2="407.548" y2="20.4222" gradientUnits="userSpaceOnUse">
<stop offset="0.150403" stop-color="#F7980B"/>
<stop offset="0.424216" stop-color="#EC9F2C"/>
<stop offset="0.934806" stop-color="#FFB648"/>
</linearGradient>
<linearGradient id="paint1_linear" x1="407" y1="510.941" x2="1.45178" y2="517.578" gradientUnits="userSpaceOnUse">
<stop offset="0.150403" stop-color="#F7980B"/>
<stop offset="0.424216" stop-color="#EC9F2C"/>
<stop offset="0.934806" stop-color="#FFB648"/>
</linearGradient>
</defs>
</svg>
