<svg width="244" height="159" viewBox="0 0 244 159" fill="none" xmlns="http://www.w3.org/2000/svg">
<rect x="0.25" y="0.25" width="243.5" height="158.5" rx="0.75" fill="white" stroke="#D960F8" stroke-width="0.5"/>
<path d="M5.71995 107.301C3.73232 105.283 -1.78814e-06 106.691 -1.78814e-06 109.523V156C-1.78814e-06 157.657 1.34314 159 2.99999 159L240.187 159C242.13 159 243.563 157.167 242.762 155.398C236.122 140.728 212.584 135.241 190.026 142.991C165.707 151.346 134.136 108.611 110.183 131.706C86.2304 154.801 76.9686 98.9004 54.9319 120.421C38.5296 136.439 16.1114 117.852 5.71995 107.301Z" fill="#C067F8" fill-opacity="0.906879"/>
<path d="M85.9746 67.6064C85.9746 64.9469 84.7191 63.6172 82.208 63.6172C81.1195 63.6172 80.1794 63.9512 79.3877 64.6191C78.596 65.2871 77.9837 66.1468 77.5508 67.1982C77.1178 68.2497 76.6911 69.5176 76.2705 71.002C75.8623 72.4863 75.4974 73.9583 75.1758 75.418C74.3717 79.0176 73.2337 82.0173 71.7617 84.417C72.207 84.6149 72.8874 84.9365 73.8027 85.3818C74.7181 85.8148 75.4541 86.1549 76.0107 86.4023C77.5693 87.1074 78.9362 87.46 80.1113 87.46C80.6309 87.46 81.1195 87.3301 81.5771 87.0703C82.0348 86.8105 82.3812 86.5322 82.6162 86.2354C82.8636 85.9261 83.0739 85.6416 83.2471 85.3818C83.4326 85.1221 83.5439 84.9922 83.5811 84.9922L84.416 85.4746C83.3275 87.528 82.1771 88.8021 80.9648 89.2969C80.4206 89.5195 79.7217 89.6309 78.8682 89.6309C78.0146 89.6309 77.0745 89.4762 76.0479 89.167C75.0335 88.8701 73.8893 88.4372 72.6152 87.8682C71.3535 87.2992 70.4629 86.9219 69.9434 86.7363C68.9538 87.5898 67.6859 88.2887 66.1396 88.833C64.6058 89.3649 62.8431 89.6309 60.8516 89.6309C59.8496 89.6309 58.9404 89.4453 58.124 89.0742C56.5778 88.3568 55.8047 87.4476 55.8047 86.3467C55.8047 85.2458 56.1449 84.318 56.8252 83.5635C58.124 82.1286 59.9238 81.4111 62.2246 81.4111C63.8698 81.4111 65.6077 81.7513 67.4385 82.4316C68.1064 82.6914 68.9785 83.0501 70.0547 83.5078C70.5866 82.0358 71.0381 80.3411 71.4092 78.4238C71.7803 76.5065 72.1266 74.9232 72.4482 73.6738C72.7699 72.4121 73.0977 71.2555 73.4316 70.2041C73.778 69.1403 74.2233 68.1074 74.7676 67.1055C75.3242 66.1035 75.9365 65.25 76.6045 64.5449C78.0765 63.0111 79.9938 62.2441 82.3564 62.2441C84.1501 62.2441 85.6097 62.7637 86.7354 63.8027C87.8734 64.8418 88.4424 66.3014 88.4424 68.1816C88.4424 69.5794 88.1579 70.9401 87.5889 72.2637C87.0322 73.5749 86.29 74.7314 85.3623 75.7334C84.4346 76.7354 83.3584 77.5827 82.1338 78.2754C80.9215 78.9681 79.666 79.4258 78.3672 79.6484L78.1074 78.6279C79.6165 78.2568 80.9772 77.5023 82.1895 76.3643C83.4017 75.2139 84.3356 73.8717 84.9912 72.3379C85.6468 70.7917 85.9746 69.2145 85.9746 67.6064ZM56.9736 86.124C56.9736 87.1012 57.5798 87.7568 58.792 88.0908C61.3031 88.7835 63.8018 88.5671 66.2881 87.4414C67.2158 87.0085 67.9271 86.4704 68.4219 85.8271C65.9479 84.1572 63.7028 83.3223 61.6865 83.3223C58.5446 83.3223 56.9736 84.2562 56.9736 86.124ZM89.1846 89.2969C88.665 89.2969 88.2568 89.1361 87.96 88.8145C87.6631 88.4928 87.5146 88.0537 87.5146 87.4971C87.5146 86.9281 87.6569 86.1611 87.9414 85.1963C88.2383 84.2191 88.529 83.3346 88.8135 82.543C89.1104 81.7513 89.2588 81.2256 89.2588 80.9658C89.2588 80.6937 89.1722 80.5576 88.999 80.5576C88.5661 80.5576 87.8672 81.4111 86.9023 83.1182L85.6592 82.3945C87.4775 79.3268 89.1475 77.793 90.6689 77.793C91.708 77.793 92.2275 78.4486 92.2275 79.7598C92.2275 80.1432 92.1038 80.7555 91.8564 81.5967L90.5205 85.4189C90.3844 85.7777 90.3164 86.1055 90.3164 86.4023C90.3164 86.6868 90.4277 86.8291 90.6504 86.8291C91.071 86.8291 91.8441 86.0498 92.9697 84.4912L93.749 85.2148C93.0811 86.4518 92.2832 87.4414 91.3555 88.1836C90.4401 88.9258 89.7165 89.2969 89.1846 89.2969ZM94.4727 72.3193C94.4727 72.8141 94.3057 73.2656 93.9717 73.6738C93.6377 74.082 93.1862 74.2861 92.6172 74.2861C92.0482 74.2861 91.6214 74.1191 91.3369 73.7852C91.0524 73.4388 90.9102 73.0059 90.9102 72.4863C90.9102 71.9668 91.0833 71.5091 91.4297 71.1133C91.7884 70.7051 92.2461 70.501 92.8027 70.501C93.3594 70.501 93.7738 70.6803 94.0459 71.0391C94.3304 71.3854 94.4727 71.8122 94.4727 72.3193ZM96.5879 88.8701C95.7839 88.5856 95.2087 88.2516 94.8623 87.8682C94.516 87.4723 94.3428 87.0394 94.3428 86.5693C94.3428 86.0993 94.4727 85.7096 94.7324 85.4004C94.9922 85.0911 95.3324 84.9365 95.7529 84.9365C96.1859 84.9365 96.5632 85.0664 96.8848 85.3262C97.2188 85.5736 97.3857 85.9323 97.3857 86.4023C97.3857 86.86 97.1012 87.2435 96.5322 87.5527C97.0023 87.9609 97.7197 88.165 98.6846 88.165C100.775 88.165 101.82 87.5713 101.82 86.3838C101.82 85.6416 101.159 85.0479 99.835 84.6025C99.2907 84.417 98.7402 84.2191 98.1836 84.0088C97.6393 83.7985 97.1631 83.4893 96.7549 83.0811C96.3467 82.6729 96.124 82.1781 96.0869 81.5967C96.0869 80.7555 96.3652 80.0443 96.9219 79.4629C97.9733 78.3496 99.5443 77.793 101.635 77.793C102.661 77.793 103.571 77.9909 104.362 78.3867C105.154 78.7702 105.55 79.2712 105.55 79.8896C105.55 80.5081 105.389 80.9535 105.067 81.2256C104.758 81.4977 104.393 81.6338 103.973 81.6338C103.552 81.6338 103.193 81.5225 102.896 81.2998C102.612 81.0648 102.47 80.7432 102.47 80.335C102.47 79.9268 102.711 79.5742 103.193 79.2773C102.896 79.0671 102.383 78.9619 101.653 78.9619C100.924 78.9619 100.268 79.0732 99.6865 79.2959C99.1051 79.5062 98.8145 79.7969 98.8145 80.168C98.8145 80.5391 99.0247 80.8483 99.4453 81.0957C99.8783 81.3431 100.398 81.5719 101.004 81.7822C101.61 81.9925 102.216 82.2337 102.822 82.5059C103.428 82.778 103.942 83.1676 104.362 83.6748C104.795 84.182 105.012 84.8066 105.012 85.5488C105.012 86.291 104.709 86.9652 104.103 87.5713C102.952 88.7217 101.381 89.2969 99.3896 89.2969C98.3382 89.2969 97.4043 89.1546 96.5879 88.8701ZM109.595 78.2012C110.869 74.2428 112.168 70.9277 113.491 68.2559L115.792 68.4414C115.656 68.8372 115.322 69.7897 114.79 71.2988C113.64 74.6263 112.897 76.9271 112.563 78.2012H115.477L115.18 79.4258H112.174C111.036 82.9388 110.467 85.0788 110.467 85.8457C110.467 86.6003 110.541 86.9775 110.689 86.9775C110.85 86.9775 110.993 86.9466 111.116 86.8848C111.45 86.6992 112.168 85.7962 113.269 84.1758L114.029 84.8623C113.201 86.3714 112.347 87.4909 111.469 88.2207C110.59 88.9382 109.867 89.2969 109.298 89.2969C108.729 89.2969 108.296 89.099 107.999 88.7031C107.715 88.3073 107.572 87.8001 107.572 87.1816C107.572 85.6107 108.123 83.0254 109.224 79.4258H107.275L107.572 78.2012H109.595ZM118.835 85.3447C118.909 86.7673 119.868 87.4785 121.711 87.4785C122.391 87.4785 123.096 87.2868 123.826 86.9033C124.568 86.5075 125.168 86.0436 125.626 85.5117L126.424 86.0312C125.397 87.7507 123.758 88.8021 121.507 89.1855C121.012 89.2598 120.536 89.2969 120.078 89.2969C118.742 89.2969 117.629 88.8577 116.738 87.9795C115.848 87.0889 115.402 86.0065 115.402 84.7324C115.402 83.4583 115.792 82.2832 116.571 81.207C117.351 80.1185 118.322 79.2773 119.484 78.6836C120.66 78.0898 121.816 77.793 122.954 77.793C124.092 77.793 125.076 78.0527 125.904 78.5723C126.745 79.0918 127.172 79.7907 127.185 80.6689C127.209 81.5472 126.956 82.3079 126.424 82.9512C125.892 83.582 125.218 84.0645 124.401 84.3984C122.781 85.054 121.191 85.3818 119.633 85.3818L118.835 85.3447ZM118.724 84.3242C120.097 84.2747 121.198 84.0583 122.026 83.6748C122.868 83.279 123.449 82.8337 123.771 82.3389C124.104 81.8317 124.271 81.306 124.271 80.7617C124.271 80.2051 124.129 79.7969 123.845 79.5371C123.56 79.265 123.257 79.1289 122.936 79.1289C122.144 79.1289 121.414 79.4072 120.746 79.9639C120.09 80.5081 119.59 81.1761 119.243 81.9678C118.897 82.7471 118.724 83.5326 118.724 84.3242ZM133.567 83.7861C136.153 79.7907 138.472 77.793 140.525 77.793C141.218 77.793 141.738 78.0033 142.084 78.4238C142.43 78.8444 142.604 79.3763 142.604 80.0195C142.604 80.6628 142.313 81.776 141.731 83.3594C141.162 84.9427 140.878 85.9261 140.878 86.3096C140.878 86.6807 140.971 86.8662 141.156 86.8662C141.404 86.8662 141.769 86.6126 142.251 86.1055C142.733 85.5859 143.16 85.0417 143.531 84.4727L144.311 85.2148C143.568 86.5632 142.752 87.5837 141.861 88.2764C140.983 88.9567 140.266 89.2969 139.709 89.2969C139.165 89.2969 138.738 89.1175 138.429 88.7588C138.119 88.3877 137.965 87.8867 137.965 87.2559C137.965 86.625 138.212 85.5983 138.707 84.1758C139.214 82.7409 139.468 81.7266 139.468 81.1328C139.468 80.5267 139.264 80.2236 138.855 80.2236C138.385 80.2236 137.829 80.5267 137.186 81.1328C136.542 81.7266 135.918 82.4564 135.312 83.3223C134.347 84.7077 133.363 86.3034 132.361 88.1094L131.86 89H129.244L129.819 87.2559C130.896 84.0397 131.434 82.1348 131.434 81.541C131.434 80.9349 131.335 80.6318 131.137 80.6318C130.778 80.6318 130.351 81.0586 129.856 81.9121C129.745 82.11 129.652 82.2708 129.578 82.3945C129.504 82.5059 129.417 82.6481 129.318 82.8213C129.232 82.9821 129.176 83.0811 129.151 83.1182L127.908 82.3945C128.873 80.8236 129.757 79.667 130.562 78.9248C131.366 78.1702 132.188 77.793 133.029 77.793C133.413 77.793 133.741 77.9538 134.013 78.2754C134.297 78.597 134.439 78.9867 134.439 79.4443C134.439 79.902 134.402 80.3535 134.328 80.7988C134.254 81.2318 134.174 81.5967 134.087 81.8936C134.013 82.1781 133.908 82.5492 133.771 83.0068C133.648 83.4645 133.58 83.7243 133.567 83.7861ZM151.862 79.4258L151.417 81.3184C150.588 84.819 149.902 87.2806 149.357 88.7031C148.306 91.4121 146.958 93.1253 145.312 93.8428C144.632 94.1396 143.946 94.2881 143.253 94.2881C142.548 94.2881 142.053 94.152 141.769 93.8799C141.484 93.6201 141.342 93.2985 141.342 92.915C141.342 92.5439 141.465 92.2223 141.713 91.9502C141.96 91.6781 142.276 91.542 142.659 91.542C143.03 91.542 143.34 91.6286 143.587 91.8018C143.834 91.9749 143.958 92.21 143.958 92.5068C143.958 92.8161 143.871 93.1068 143.698 93.3789C144.972 93.181 146.117 90.7689 147.131 86.1426C147.292 85.4128 147.471 84.5469 147.669 83.5449C147.879 82.5306 148.04 81.7884 148.151 81.3184L148.597 79.4258H145.108L145.405 78.2012H148.856C150.328 72.2266 152.054 68.0579 154.033 65.6953C155.666 63.7533 157.639 62.7822 159.952 62.7822C160.991 62.7822 161.863 62.9925 162.568 63.4131C163.286 63.8337 163.645 64.5326 163.645 65.5098C163.645 66.0788 163.447 66.5303 163.051 66.8643C162.667 67.1859 162.21 67.3467 161.678 67.3467C161.158 67.3467 160.713 67.1982 160.342 66.9014C159.983 66.5921 159.804 66.1963 159.804 65.7139C159.804 65.2314 159.971 64.7614 160.305 64.3037C159.699 64.0934 159.222 63.9883 158.876 63.9883C158.53 63.9883 158.115 64.1615 157.633 64.5078C157.163 64.8418 156.742 65.2933 156.371 65.8623C154.924 68.0889 153.514 72.2018 152.141 78.2012H156.575L156.278 79.4258H151.862ZM159.136 89.2969C158.616 89.2969 158.208 89.1361 157.911 88.8145C157.614 88.4928 157.466 88.0537 157.466 87.4971C157.466 86.9281 157.608 86.1611 157.893 85.1963C158.189 84.2191 158.48 83.3346 158.765 82.543C159.062 81.7513 159.21 81.2256 159.21 80.9658C159.21 80.6937 159.123 80.5576 158.95 80.5576C158.517 80.5576 157.818 81.4111 156.854 83.1182L155.61 82.3945C157.429 79.3268 159.099 77.793 160.62 77.793C161.659 77.793 162.179 78.4486 162.179 79.7598C162.179 80.1432 162.055 80.7555 161.808 81.5967L160.472 85.4189C160.336 85.7777 160.268 86.1055 160.268 86.4023C160.268 86.6868 160.379 86.8291 160.602 86.8291C161.022 86.8291 161.795 86.0498 162.921 84.4912L163.7 85.2148C163.032 86.4518 162.234 87.4414 161.307 88.1836C160.391 88.9258 159.668 89.2969 159.136 89.2969ZM164.424 72.3193C164.424 72.8141 164.257 73.2656 163.923 73.6738C163.589 74.082 163.137 74.2861 162.568 74.2861C161.999 74.2861 161.573 74.1191 161.288 73.7852C161.004 73.4388 160.861 73.0059 160.861 72.4863C160.861 71.9668 161.035 71.5091 161.381 71.1133C161.74 70.7051 162.197 70.501 162.754 70.501C163.311 70.501 163.725 70.6803 163.997 71.0391C164.282 71.3854 164.424 71.8122 164.424 72.3193ZM165.686 82.5801L164.479 81.8564C165.098 80.7803 165.865 79.834 166.78 79.0176C167.708 78.2012 168.537 77.793 169.267 77.793C170.454 77.793 171.048 78.3249 171.048 79.3887C171.048 79.834 170.739 80.9163 170.12 82.6357C169.514 84.3551 169.211 85.4437 169.211 85.9014C169.211 86.359 169.242 86.6559 169.304 86.792C169.366 86.9157 169.502 86.9775 169.712 86.9775C170.838 86.9775 171.994 86.557 173.182 85.7158C174.382 84.8623 175.161 83.9222 175.52 82.8955L176.818 79.1104C176.954 78.7269 177.165 78.4238 177.449 78.2012C177.734 77.9785 178.006 77.8672 178.266 77.8672C178.538 77.8672 178.754 77.9538 178.915 78.127C179.088 78.3001 179.175 78.529 179.175 78.8135C179.175 79.098 179.119 79.3949 179.008 79.7041L177.598 83.8232C176.818 86.2477 175.612 88.6351 173.979 90.9854C175.402 91.1338 176.67 91.3874 177.783 91.7461L177.635 92.7852C175.928 92.4388 174.419 92.2347 173.107 92.1729C171.908 93.7191 170.677 94.9499 169.415 95.8652C168.166 96.793 167.071 97.2568 166.131 97.2568C165.203 97.2568 164.51 97.0651 164.053 96.6816C163.583 96.3105 163.348 95.7972 163.348 95.1416C163.348 94.486 163.595 93.8861 164.09 93.3418C164.585 92.8099 165.246 92.377 166.075 92.043C167.757 91.3503 169.687 90.9544 171.864 90.8555C172.037 90.6576 172.452 89.9648 173.107 88.7773C173.763 87.5775 174.116 86.8229 174.165 86.5137C171.976 88.3691 170.046 89.2969 168.376 89.2969C167.696 89.2969 167.201 89.068 166.892 88.6104C166.582 88.1403 166.428 87.5651 166.428 86.8848C166.428 86.2044 166.681 85.0417 167.188 83.3965C167.708 81.7389 167.968 80.7988 167.968 80.5762C167.968 80.3411 167.912 80.2236 167.801 80.2236C167.702 80.2236 167.59 80.2546 167.467 80.3164C167.343 80.3659 167.219 80.4525 167.096 80.5762C166.984 80.6875 166.879 80.7988 166.78 80.9102C166.681 81.0091 166.57 81.1514 166.446 81.3369C166.335 81.5225 166.248 81.6647 166.187 81.7637C165.927 82.1719 165.76 82.444 165.686 82.5801ZM171.048 92.1729C170.046 92.2347 169.025 92.4141 167.986 92.7109C165.982 93.2799 164.98 93.9479 164.98 94.7148C164.98 95.1725 165.265 95.4014 165.834 95.4014C166.403 95.4014 167.331 94.987 168.617 94.1582C169.904 93.3418 170.714 92.68 171.048 92.1729Z" fill="black" fill-opacity="0.78"/>
<path d="M243.596 1.96022C243.724 8.26376 244.402 43.7215 243.654 51.9359C243.615 52.37 243.293 52.7054 242.86 52.7581C238.645 53.2712 216.763 54.8057 202.881 33.7824C187.467 10.4374 159.104 42.2264 130.741 24.3451C113.061 13.1987 92.2666 6.87742 79.1103 3.69689C77.9074 3.4061 78.1535 1 79.391 1H242.597C243.141 1 243.585 1.41641 243.596 1.96022Z" fill="#C067F8"/>
</svg>
