<svg width="422" height="382" viewBox="0 0 422 382" fill="none" xmlns="http://www.w3.org/2000/svg">
<g filter="url(#filter0_ddddii)">
<rect x="51.2798" y="51.2581" width="310" height="270" rx="16" fill="url(#paint0_linear)"/>
</g>
<path d="M123.876 152.502C123.236 152.502 122.575 152.075 121.892 151.222C121.209 150.411 120.868 149.387 120.868 148.15C120.868 147.168 121.103 146.208 121.572 145.27C122.425 143.478 123.279 142.027 124.132 140.918C124.431 140.491 124.644 140.128 124.772 139.83C124.943 139.531 125.049 139.126 125.092 138.614C125.689 137.846 126.479 136.459 127.46 134.454C129.124 131.766 131.492 127.627 134.564 122.038C134.991 121.27 135.823 119.755 137.06 117.494C138.34 115.232 139.193 113.888 139.62 113.462L139.94 113.014C139.812 113.227 140.025 112.736 140.58 111.542C141.177 110.347 141.796 109.28 142.436 108.342C143.119 107.36 143.716 106.87 144.228 106.87C144.783 106.87 145.423 107.104 146.148 107.574C146.873 108 147.492 108.662 148.004 109.558C148.559 110.411 148.836 111.435 148.836 112.63C148.836 113.142 148.815 113.547 148.772 113.846L148.132 118.198L147.812 119.606C147.257 122.422 146.425 126.283 145.316 131.19C144.335 135.542 143.844 138.166 143.844 139.062C143.844 139.318 143.887 139.531 143.972 139.702C144.057 139.83 144.164 139.894 144.292 139.894C144.377 139.894 144.591 139.766 144.932 139.51C145.273 139.211 145.572 138.784 145.828 138.23L146.66 136.95L147.748 135.35C148.943 133.686 150.415 131.446 152.164 128.63C153.913 125.771 156.751 120.886 160.676 113.974C161.487 112.779 162.148 111.734 162.66 110.838C163.343 109.728 164.004 108.683 164.644 107.702C165.284 106.72 165.775 106.102 166.116 105.846C166.543 105.504 167.076 105.334 167.716 105.334C168.356 105.376 169.017 105.611 169.7 106.038C170.425 106.464 171.023 107.062 171.492 107.83C172.004 108.598 172.26 109.43 172.26 110.326C172.26 111.35 171.94 113.227 171.3 115.958C170.703 118.688 169.999 121.334 169.188 123.894C169.017 124.79 168.484 126.902 167.588 130.23C166.905 132.704 166.393 134.667 166.052 136.118C165.753 137.568 165.604 138.742 165.604 139.638V140.15C164.964 141.302 164.644 143.606 164.644 147.062C164.473 148.47 164.153 149.558 163.684 150.326C163.215 151.136 162.831 151.542 162.532 151.542L162.34 151.478C162.127 151.478 161.913 151.563 161.7 151.734C161.529 151.947 161.273 152.054 160.932 152.054C159.865 152.054 159.161 151.67 158.82 150.902C158.521 150.134 158.372 149.088 158.372 147.766C158.372 146.998 158.393 146.358 158.436 145.846C158.564 144.736 159.929 138.955 162.532 128.502C164.58 120.31 165.604 116.022 165.604 115.638L164.708 117.174C163.855 118.795 162.788 120.694 161.508 122.87L157.028 131.254C156.473 132.022 156.004 132.768 155.62 133.494C155.279 134.219 155.087 134.646 155.044 134.774C154.532 135.798 153.508 137.27 151.972 139.19C151.46 139.83 151.161 140.235 151.076 140.406C150.863 140.875 150.18 141.707 149.028 142.902C147.876 144.054 146.66 145.12 145.38 146.102C144.1 147.04 143.033 147.51 142.18 147.51C141.028 147.51 139.983 146.955 139.044 145.846C138.148 144.736 137.7 143.392 137.7 141.814C137.7 140.662 137.913 138.742 138.34 136.054C139.023 133.11 139.748 130.123 140.516 127.094C141.284 124.064 141.817 122.08 142.116 121.142C142.244 120.758 142.308 120.331 142.308 119.862C142.308 119.563 142.265 119.371 142.18 119.286C142.137 119.286 142.073 119.328 141.988 119.414C141.945 119.499 141.881 119.606 141.796 119.734C141.156 120.758 140.153 122.55 138.788 125.11C137.423 127.67 135.951 130.678 134.372 134.134C128.271 145.355 124.772 151.478 123.876 152.502ZM189.908 125.174C190.463 125.771 190.868 126.283 191.124 126.71C191.38 127.094 191.508 127.563 191.508 128.118C191.508 129.014 191.167 130.08 190.484 131.318C190.143 132.299 189.759 133.216 189.332 134.07C188.948 134.923 188.649 135.478 188.436 135.734L186.964 139.126C186.324 140.534 185.535 142.176 184.596 144.054C183.444 146.443 182.633 148.214 182.164 149.366L181.332 150.71C179.199 154.123 177.556 156.512 176.404 157.878C175.465 158.731 174.356 159.606 173.076 160.502C171.796 161.44 170.772 161.974 170.004 162.102C169.193 162.272 168.297 162.358 167.316 162.358C165.567 162.358 164.009 162.059 162.644 161.462C161.279 160.864 160.489 160.139 160.276 159.286L160.148 158.518C160.148 157.792 160.447 157.216 161.044 156.79C161.599 156.406 162.217 156.214 162.9 156.214C163.327 156.214 163.647 156.32 163.86 156.534C163.945 156.576 164.287 156.811 164.884 157.238C165.481 157.664 166.292 157.878 167.316 157.878C169.236 157.878 171.113 156.619 172.948 154.102C174.74 151.243 176.105 148.96 177.044 147.254C176.191 146.742 175.359 145.888 174.548 144.694C173.737 143.456 173.375 142.603 173.46 142.134V141.43C173.119 141.43 172.863 140.79 172.692 139.51C172.564 138.23 172.5 136.651 172.5 134.774C172.5 132.726 172.543 131.296 172.628 130.486C172.799 129.803 172.884 128.971 172.884 127.99C172.927 126.966 172.948 126.304 172.948 126.006C172.905 125.408 173.012 124.896 173.268 124.47C173.567 124 173.844 123.68 174.1 123.51C174.655 123.296 175.103 123.19 175.444 123.19C177.407 123.19 178.388 125.28 178.388 129.462C178.388 130.272 178.367 130.891 178.324 131.318C178.239 133.366 178.196 134.816 178.196 135.67C178.196 138.955 178.644 141.088 179.54 142.07C179.924 141.174 180.244 140.534 180.5 140.15C181.097 138.912 181.439 138.123 181.524 137.782C181.609 137.483 181.844 136.992 182.228 136.31L183.06 134.582C183.145 134.326 183.423 133.515 183.892 132.15C184.361 130.742 184.831 129.611 185.3 128.758C185.471 128.416 185.727 127.926 186.068 127.286C186.409 126.603 186.687 126.112 186.9 125.814C187.113 125.515 187.348 125.323 187.604 125.238C187.945 124.939 188.308 124.79 188.692 124.79C189.076 124.79 189.481 124.918 189.908 125.174ZM209.173 152.438C208.959 152.438 208.725 152.352 208.469 152.182C208.255 152.054 208.063 151.862 207.893 151.606C207.551 151.307 207.274 150.944 207.061 150.518C206.847 150.091 206.741 149.451 206.741 148.598C206.741 147.104 207.21 144.95 208.149 142.134C208.447 140.939 208.767 139.787 209.109 138.678C209.407 137.91 209.557 137.334 209.557 136.95C209.557 136.608 209.599 136.224 209.685 135.798C209.813 135.328 209.877 135.008 209.877 134.838C210.389 134.838 210.858 133.963 211.285 132.214C211.455 131.574 211.605 131.04 211.733 130.614C211.861 130.144 211.946 129.782 211.989 129.526C212.074 129.398 212.159 129.206 212.245 128.95C212.373 128.694 212.479 128.459 212.565 128.246C212.906 127.222 213.311 126.24 213.781 125.302C214.293 123.382 214.89 121.376 215.573 119.286C216.298 117.152 216.895 115.574 217.365 114.55L218.133 112.63C218.175 112.502 218.261 112.267 218.389 111.926C218.559 111.542 218.645 111.264 218.645 111.094C218.645 110.923 218.581 110.795 218.453 110.71C218.154 110.496 218.005 110.07 218.005 109.43C218.005 108.363 218.41 107.488 219.221 106.806C219.69 106.251 220.309 105.867 221.077 105.654C221.887 105.398 222.847 105.27 223.957 105.27C224.426 105.27 225.258 105.312 226.453 105.398C226.965 105.44 228.33 105.462 230.549 105.462C230.805 105.59 231.274 105.782 231.957 106.038C233.407 106.635 234.133 106.998 234.133 107.126C234.133 107.339 234.197 107.488 234.325 107.574C234.495 107.659 234.73 107.723 235.029 107.766C235.498 107.766 236.33 108.342 237.525 109.494C238.762 110.646 239.615 111.712 240.085 112.694C240.469 113.462 240.725 114.059 240.853 114.486C241.023 114.912 241.109 115.446 241.109 116.086C241.109 116.342 241.066 116.811 240.981 117.494C240.895 118.176 240.789 118.838 240.661 119.478C240.533 120.118 240.383 120.523 240.213 120.694C239.53 121.206 239.189 121.654 239.189 122.038C239.189 122.464 238.57 123.659 237.333 125.622C236.095 127.584 235.007 129.014 234.069 129.91C232.959 131.19 231.637 132.32 230.101 133.302C228.309 134.112 226.282 134.816 224.021 135.414C221.802 136.011 220.117 136.288 218.965 136.246C217.599 136.459 216.746 136.651 216.405 136.822C216.106 136.95 215.871 137.291 215.701 137.846C215.487 138.443 215.274 139.04 215.061 139.638C214.89 140.235 214.805 140.64 214.805 140.854C214.549 141.323 214.015 142.752 213.205 145.142C212.437 147.531 211.903 149.366 211.605 150.646C211.434 151.2 211.093 151.627 210.581 151.926C210.069 152.267 209.599 152.438 209.173 152.438ZM218.261 131.062C218.346 131.147 218.581 131.19 218.965 131.19C220.074 131.19 221.525 130.848 223.317 130.166C224.853 129.654 226.559 128.822 228.437 127.67C229.375 127.03 230.485 125.899 231.765 124.278C232.021 123.851 232.533 122.848 233.301 121.27C233.642 120.672 233.962 119.904 234.261 118.966C234.602 118.027 234.773 117.195 234.773 116.47C234.773 116.128 234.751 115.872 234.709 115.702C234.282 113.483 233.045 112.011 230.997 111.286C229.631 111.072 228.671 110.966 228.117 110.966C227.818 110.966 227.327 111.008 226.645 111.094C225.962 111.307 225.471 111.606 225.173 111.99C224.917 112.331 224.533 113.142 224.021 114.422C222.655 117.024 221.759 118.902 221.333 120.054C220.522 122.955 219.818 125.195 219.221 126.774C218.623 128.31 218.282 129.206 218.197 129.462V129.718C218.197 129.974 218.175 130.23 218.133 130.486C218.09 130.742 218.133 130.934 218.261 131.062ZM237.124 147.446C236.996 147.19 236.633 146.848 236.036 146.422C235.438 145.995 235.14 145.739 235.14 145.654C235.14 145.483 235.033 145.248 234.82 144.95C234.649 144.608 234.478 144.31 234.308 144.054C233.966 143.712 234.201 142.603 235.012 140.726C235.822 138.848 236.91 136.63 238.276 134.07C238.532 133.814 238.852 133.366 239.236 132.726C239.662 132.086 239.94 131.723 240.068 131.638C240.068 131.467 240.132 131.318 240.26 131.19C240.388 131.019 240.537 130.934 240.708 130.934L241.22 129.91C241.39 129.526 242.222 128.608 243.716 127.158C245.209 125.707 246.382 124.726 247.236 124.214C248.046 123.659 248.921 123.382 249.86 123.382C250.884 123.382 251.758 123.68 252.484 124.278L254.212 125.75C255.492 126.816 256.217 127.435 256.388 127.606L258.756 129.718L257.668 132.918C257.284 134.07 257.092 135.158 257.092 136.182C257.092 137.803 257.54 139.318 258.436 140.726C258.649 141.195 258.926 141.558 259.268 141.814C259.652 142.07 260.142 142.24 260.74 142.326C261.678 142.496 262.148 142.966 262.148 143.734C262.148 144.672 261.977 145.376 261.636 145.846C261.294 146.315 260.889 146.614 260.42 146.742C259.737 146.827 259.268 146.87 259.012 146.87C257.774 146.87 256.644 146.55 255.62 145.91C254.596 145.27 253.7 144.182 252.932 142.646C252.761 142.39 252.526 141.92 252.228 141.238C251.972 140.555 251.822 140.086 251.78 139.83C251.481 140.256 250.99 140.811 250.308 141.494C245.913 145.931 242.35 148.15 239.62 148.15C238.681 148.15 237.849 147.915 237.124 147.446ZM240.644 142.134C241.326 142.219 242.649 141.451 244.612 139.83C244.825 139.659 245.06 139.467 245.316 139.254C245.572 138.998 245.849 138.742 246.148 138.486C247.342 137.504 248.26 136.694 248.9 136.054C249.582 135.371 250.265 134.56 250.948 133.622L252.356 131.318C251.929 130.379 251.545 129.76 251.204 129.462C250.862 129.12 250.521 128.95 250.18 128.95C249.326 128.95 248.26 129.718 246.98 131.254C245.7 132.747 244.164 135.03 242.372 138.102C241.902 138.87 241.518 139.68 241.22 140.534C240.921 141.344 240.729 141.878 240.644 142.134ZM270.55 149.75C269.526 149.75 268.459 149.536 267.35 149.11C266.283 148.683 265.366 148.171 264.598 147.574C263.873 146.934 263.51 146.358 263.51 145.846C263.51 145.334 263.745 145.014 264.214 144.886L264.534 144.63C264.619 144.587 264.79 144.566 265.046 144.566C265.217 144.523 265.43 144.544 265.686 144.63C265.942 144.672 266.155 144.694 266.326 144.694C266.625 144.779 267.073 144.864 267.67 144.95L269.334 145.142C270.187 145.142 270.977 145.056 271.702 144.886C272.47 144.715 272.854 144.523 272.854 144.31C272.854 144.182 272.683 143.968 272.342 143.67C272.001 143.371 271.638 143.222 271.254 143.222C271.254 143.051 270.593 142.475 269.27 141.494C268.545 140.939 267.841 140.384 267.158 139.83C266.518 139.275 266.198 138.87 266.198 138.614L266.262 138.486V138.166C265.963 138.166 265.686 137.76 265.43 136.95C265.174 136.139 265.046 135.35 265.046 134.582C265.046 133.131 265.686 131.531 266.966 129.782C268.246 128.032 269.825 126.454 271.702 125.046C273.622 123.638 275.435 122.678 277.142 122.166C277.782 121.867 278.721 121.718 279.958 121.718C280.769 121.718 281.323 121.803 281.622 121.974L282.134 121.846C282.646 121.846 283.307 122.272 284.118 123.126C284.929 123.979 285.441 124.662 285.654 125.174C285.654 126.582 285.611 127.712 285.526 128.566C285.441 129.419 285.227 129.846 284.886 129.846C284.843 129.846 284.779 129.867 284.694 129.91C284.609 129.952 284.566 130.059 284.566 130.23C284.566 130.827 284.033 131.488 282.966 132.214C281.942 132.939 281.003 133.302 280.15 133.302L279.894 133.238C279.638 133.195 279.254 132.939 278.742 132.47C278.273 132 278.038 131.531 278.038 131.062C278.038 130.934 278.294 130.592 278.806 130.038C279.318 129.483 279.745 128.95 280.086 128.438C280.47 127.883 280.662 127.307 280.662 126.71C280.662 126.496 280.577 126.368 280.406 126.326C280.278 126.24 280.001 126.198 279.574 126.198C277.227 127.264 275.542 128.267 274.518 129.206C274.39 129.462 274.262 129.654 274.134 129.782C274.049 129.91 273.921 129.974 273.75 129.974C273.75 129.931 273.729 129.91 273.686 129.91C273.601 129.91 273.323 130.166 272.854 130.678C272.385 131.147 271.937 131.702 271.51 132.342C271.126 132.982 270.891 133.579 270.806 134.134L270.678 134.326V134.646C270.635 134.731 270.614 134.902 270.614 135.158C270.614 135.542 270.785 135.947 271.126 136.374C271.467 136.758 272.15 137.312 273.174 138.038C275.094 139.488 276.395 140.576 277.078 141.302C277.803 141.984 278.251 142.603 278.422 143.158C278.806 143.926 278.998 144.608 278.998 145.206C278.998 146.656 278.23 147.787 276.694 148.598C275.201 149.366 273.153 149.75 270.55 149.75ZM292.541 149.174C291.218 149.174 289.981 148.875 288.829 148.278C287.677 147.68 286.76 146.934 286.077 146.038C285.394 145.099 285.053 144.182 285.053 143.286C285.053 142.56 285.352 142.198 285.949 142.198C286.333 142.283 286.781 142.518 287.293 142.902C287.933 143.286 288.466 143.584 288.893 143.798C289.362 144.011 289.832 144.118 290.301 144.118C291.026 144.118 291.645 144.011 292.157 143.798C292.712 143.542 293.032 143.179 293.117 142.71C293.117 142.539 293.032 142.176 292.861 141.622C292.69 141.024 292.477 140.491 292.221 140.022C291.282 138.614 290.642 137.248 290.301 135.926C290.002 134.56 289.81 132.982 289.725 131.19C289.725 130.208 290.429 129.035 291.837 127.67C293.288 126.304 294.952 125.088 296.829 124.022C298.749 122.955 300.306 122.358 301.501 122.23C303.848 122.23 305.256 122.422 305.725 122.806C306.322 123.275 306.877 124.043 307.389 125.11C307.901 126.176 308.157 127.072 308.157 127.798C308.157 128.096 308.008 128.48 307.709 128.95C307.453 129.376 307.282 129.654 307.197 129.782L306.621 130.678L306.173 131.638C306.088 131.851 305.938 132.171 305.725 132.598C305.554 133.024 305.384 133.28 305.213 133.366C305.085 133.451 304.872 133.472 304.573 133.43C303.848 133.43 303.186 133.11 302.589 132.47C301.992 131.83 301.693 131.126 301.693 130.358C301.693 129.803 301.885 129.248 302.269 128.694C302.653 128.139 302.845 127.819 302.845 127.734C302.845 127.563 302.653 127.478 302.269 127.478C301.714 127.478 300.861 127.755 299.709 128.31C298.557 128.864 297.533 129.611 296.637 130.55C295.741 131.446 295.293 132.448 295.293 133.558C295.293 134.155 295.4 134.859 295.613 135.67C295.869 136.438 296.146 137.078 296.445 137.59C296.786 137.931 297.277 138.955 297.917 140.662C298.6 142.326 298.941 143.648 298.941 144.63C298.941 146.123 298.365 147.254 297.213 148.022C296.104 148.79 294.546 149.174 292.541 149.174Z" fill="black" fill-opacity="0.51"/>
<path d="M103.155 216.32C102.861 216.16 102.648 216.013 102.515 215.88C102.408 215.747 102.355 215.573 102.355 215.36C102.355 215.093 102.461 214.72 102.675 214.24C102.915 213.733 103.315 212.947 103.875 211.88C104.035 211.533 104.341 210.92 104.795 210.04C105.942 207.853 106.515 206.24 106.515 205.2C106.488 205.147 106.475 205.067 106.475 204.96C106.475 204.693 106.688 204.453 107.115 204.24C107.195 204.16 107.475 203.933 107.955 203.56C108.462 203.187 108.862 202.76 109.155 202.28C109.502 201.48 109.942 200.6 110.475 199.64C111.008 198.653 111.928 197.053 113.235 194.84C114.515 192.493 115.875 190.373 117.315 188.48C117.582 188.107 117.875 187.813 118.195 187.6C118.542 187.387 118.835 187.28 119.075 187.28C119.902 187.28 120.742 187.6 121.595 188.24C122.475 188.88 123.048 189.52 123.315 190.16C123.422 190.347 123.475 190.747 123.475 191.36C123.475 192.187 123.382 193.587 123.195 195.56C123.142 195.907 123.088 196.453 123.035 197.2C122.955 198.4 122.835 199.68 122.675 201.04C122.382 204.027 122.168 206.36 122.035 208.04C121.902 209.72 121.835 211.293 121.835 212.76C121.835 213.507 121.848 214.053 121.875 214.4V214.68L121.835 215.6C121.675 215.76 121.355 215.84 120.875 215.84C120.342 215.84 119.808 215.747 119.275 215.56C118.742 215.4 118.448 215.2 118.395 214.96C118.368 214.933 118.328 214.907 118.275 214.88C118.222 214.853 118.195 214.733 118.195 214.52L118.235 213.64L118.355 211.4L118.555 205.28L118.035 205.32C117.502 205.32 116.368 205.427 114.635 205.64C112.928 205.853 111.848 206.027 111.395 206.16C111.155 206.16 110.862 206.32 110.515 206.64C110.168 206.96 109.862 207.373 109.595 207.88C109.515 208.147 109.328 208.533 109.035 209.04C108.742 209.52 108.595 209.8 108.595 209.88C108.435 209.987 108.288 210.133 108.155 210.32C108.048 210.48 107.982 210.587 107.955 210.64C107.955 210.933 107.688 211.693 107.155 212.92C106.648 214.12 106.141 215.107 105.635 215.88L104.555 217.4L103.155 216.32ZM112.715 202.56C112.902 202.533 113.275 202.48 113.835 202.4C114.395 202.293 114.888 202.227 115.315 202.2C116.595 201.88 117.475 201.72 117.955 201.72C118.222 201.72 118.408 201.747 118.515 201.8C118.595 201.907 118.675 201.987 118.755 202.04C118.862 202.067 118.928 202.08 118.955 202.08C119.008 201.867 119.222 200.413 119.595 197.72C119.968 195.027 120.155 193.373 120.155 192.76C120.155 192.333 120.142 191.973 120.115 191.68C120.088 191.36 120.062 191.16 120.035 191.08C119.795 191.08 119.248 191.72 118.395 193C117.542 194.253 116.715 195.68 115.915 197.28C115.302 198.373 114.875 198.92 114.635 198.92C114.448 199.107 114.048 199.733 113.435 200.8C112.822 201.867 112.582 202.453 112.715 202.56ZM139.872 217.12L139.912 217C139.912 216.733 139.685 216.587 139.232 216.56C138.672 216.213 138.072 215.627 137.432 214.8C136.792 213.947 136.392 213.293 136.232 212.84C136.152 212.627 136.112 212.48 136.112 212.4C136.112 212.267 136.165 212.173 136.272 212.12C136.379 212.04 136.512 211.973 136.672 211.92C136.832 211.84 136.952 211.787 137.032 211.76C137.512 211.44 137.872 211.28 138.112 211.28C138.379 211.28 138.605 211.453 138.792 211.8C139.165 212.467 139.765 213.027 140.592 213.48C141.419 213.907 142.339 214.12 143.352 214.12C144.259 214.12 145.072 213.96 145.792 213.64C146.485 213.32 146.832 212.853 146.832 212.24C146.832 211.787 146.632 211.24 146.232 210.6C146.179 210.44 146.085 210.293 145.952 210.16C145.819 210.027 145.659 209.893 145.472 209.76C145.045 209.44 144.579 209.027 144.072 208.52C143.645 208.36 143.205 208.147 142.752 207.88L141.912 207.48C141.245 207.16 140.499 206.653 139.672 205.96C138.845 205.24 138.272 204.573 137.952 203.96C137.365 203.4 137.072 202.547 137.072 201.4C137.072 200.147 137.365 198.973 137.952 197.88C138.272 197.16 139.045 196.053 140.272 194.56C141.499 193.067 142.405 192.133 142.992 191.76L144.032 190.76C144.059 190.653 144.099 190.6 144.152 190.6C144.205 190.573 144.245 190.56 144.272 190.56C144.352 190.507 144.632 190.387 145.112 190.2C145.592 189.987 146.099 189.627 146.632 189.12C148.259 188.32 149.699 187.76 150.952 187.44C152.232 187.093 153.299 186.92 154.152 186.92C155.192 186.973 156.152 187.347 157.032 188.04C157.939 188.733 158.459 189.533 158.592 190.44C158.645 190.707 158.672 190.92 158.672 191.08C158.672 192.067 158.272 193.173 157.472 194.4C156.672 195.627 155.819 196.493 154.912 197C154.512 197.187 154.125 197.28 153.752 197.28C153.299 197.28 152.925 197.16 152.632 196.92C152.365 196.68 152.245 196.373 152.272 196C152.272 195.76 152.352 195.493 152.512 195.2C152.699 194.88 153.099 194.373 153.712 193.68C154.619 192.347 155.072 191.387 155.072 190.8C155.072 190.4 154.832 190.16 154.352 190.08C154.059 190 153.259 190.12 151.952 190.44C150.672 190.733 150.032 190.947 150.032 191.08C150.032 191.107 150.019 191.16 149.992 191.24C149.992 191.293 149.952 191.307 149.872 191.28C149.765 191.253 149.005 191.693 147.592 192.6C146.205 193.507 145.485 194.027 145.432 194.16C145.405 194.293 145.299 194.44 145.112 194.6C144.952 194.733 144.752 194.853 144.512 194.96C144.032 195.253 143.592 195.653 143.192 196.16C142.819 196.667 142.325 197.467 141.712 198.56C141.392 199.013 141.125 199.507 140.912 200.04C140.725 200.573 140.632 201.053 140.632 201.48C140.632 201.773 140.672 202.027 140.752 202.24C140.859 202.64 141.139 203.013 141.592 203.36C142.072 203.68 142.979 204.24 144.312 205.04C145.672 205.813 146.899 206.64 147.992 207.52C149.085 208.373 149.752 209.053 149.992 209.56C150.419 210.173 150.632 210.973 150.632 211.96C150.632 212.733 150.525 213.467 150.312 214.16C150.072 214.667 149.765 215.133 149.392 215.56C149.019 216.013 148.685 216.227 148.392 216.2C148.125 216.28 147.899 216.373 147.712 216.48C147.525 216.613 147.365 216.707 147.232 216.76C146.912 216.947 146.085 217.133 144.752 217.32C143.445 217.533 142.352 217.627 141.472 217.6L139.872 217.12ZM158.775 215C157.255 215 156.029 214.573 155.095 213.72C154.162 212.867 153.695 211.653 153.695 210.08C153.695 209.467 153.735 208.787 153.815 208.04C153.869 207.4 154.122 206.52 154.575 205.4C155.055 204.28 155.695 203.187 156.495 202.12C157.322 201.053 158.282 200.267 159.375 199.76C159.882 199.52 160.309 199.36 160.655 199.28C161.002 199.173 161.402 199.12 161.855 199.12C162.949 199.12 163.829 199.32 164.495 199.72C165.189 200.12 165.669 200.573 165.935 201.08C166.229 201.587 166.375 202.027 166.375 202.4V202.6V202.72C166.375 203.04 166.189 203.627 165.815 204.48C165.442 205.333 164.842 206.133 164.015 206.88C163.215 207.627 162.175 208.04 160.895 208.12C160.255 208.12 159.629 208.067 159.015 207.96C158.429 207.827 158.055 207.76 157.895 207.76C157.495 207.76 157.242 207.907 157.135 208.2C157.029 208.493 156.975 208.987 156.975 209.68C157.055 210.427 157.255 210.947 157.575 211.24C157.922 211.533 158.415 211.68 159.055 211.68C159.375 211.68 159.749 211.587 160.175 211.4C160.602 211.187 161.109 210.853 161.695 210.4C162.015 210.133 162.269 209.947 162.455 209.84C162.642 209.733 162.869 209.68 163.135 209.68C163.375 209.68 163.655 209.84 163.975 210.16C164.295 210.48 164.469 210.787 164.495 211.08C164.442 211.4 164.149 211.88 163.615 212.52C163.082 213.16 162.389 213.733 161.535 214.24C160.682 214.747 159.762 215 158.775 215ZM160.175 205.36C160.682 205.36 161.029 205.307 161.215 205.2C161.482 205.067 161.882 204.733 162.415 204.2C162.975 203.64 163.269 203.253 163.295 203.04C163.295 202.773 163.175 202.56 162.935 202.4C162.722 202.213 162.415 202.093 162.015 202.04H161.575C161.229 202.04 160.722 202.333 160.055 202.92C159.415 203.48 158.855 204.133 158.375 204.88C158.402 205.013 158.602 205.133 158.975 205.24C159.349 205.32 159.749 205.36 160.175 205.36ZM172.055 215.16C171.735 215.213 171.482 215.24 171.295 215.24C170.202 215.24 169.228 214.893 168.375 214.2C167.548 213.48 167.135 212.573 167.135 211.48L167.095 210.84C167.095 209.587 167.375 208.133 167.935 206.48C168.495 204.827 169.188 203.48 170.015 202.44C170.682 201.667 171.255 201.04 171.735 200.56C172.215 200.08 172.655 199.76 173.055 199.6C173.402 199.467 173.842 199.347 174.375 199.24C174.908 199.133 175.308 199.08 175.575 199.08C176.108 199.213 176.602 199.4 177.055 199.64C177.535 199.88 177.775 200.147 177.775 200.44L177.975 200.64C178.162 200.64 178.375 200.933 178.615 201.52C178.882 202.107 179.015 202.64 179.015 203.12C179.015 203.36 178.975 203.56 178.895 203.72C178.788 204.227 178.575 204.72 178.255 205.2C177.962 205.68 177.708 205.92 177.495 205.92C177.202 205.92 177.055 206 177.055 206.16C177.055 206.293 176.895 206.36 176.575 206.36C176.308 206.36 176.028 206.307 175.735 206.2C175.442 206.067 175.268 205.907 175.215 205.72C175.215 205.587 175.322 205.053 175.535 204.12C175.615 203.72 175.655 203.387 175.655 203.12C175.655 202.64 175.495 202.4 175.175 202.4C175.095 202.4 174.895 202.453 174.575 202.56C173.882 202.933 173.322 203.373 172.895 203.88C172.495 204.36 172.135 205.027 171.815 205.88C171.495 206.733 171.122 207.973 170.695 209.6C170.615 209.92 170.575 210.213 170.575 210.48C170.575 210.8 170.615 211.067 170.695 211.28C170.775 211.467 170.855 211.573 170.935 211.6C171.068 211.653 171.308 211.68 171.655 211.68C172.322 211.68 172.855 211.56 173.255 211.32C173.735 211.053 174.202 210.76 174.655 210.44C175.108 210.093 175.388 209.88 175.495 209.8C175.548 209.747 175.655 209.6 175.815 209.36C175.975 209.093 176.148 208.92 176.335 208.84C176.495 208.6 176.695 208.453 176.935 208.4C177.175 208.347 177.415 208.32 177.655 208.32C177.895 208.32 178.055 208.32 178.135 208.32C178.482 208.427 178.815 208.667 179.135 209.04C179.455 209.413 179.508 209.653 179.295 209.76C179.215 209.76 179.162 209.787 179.135 209.84C179.108 209.893 179.095 209.933 179.095 209.96C179.148 210.093 178.935 210.453 178.455 211.04C177.975 211.6 177.442 212.147 176.855 212.68C176.268 213.187 175.868 213.44 175.655 213.44C175.548 213.44 175.455 213.453 175.375 213.48C175.295 213.507 175.255 213.573 175.255 213.68C175.255 213.787 174.842 214.04 174.015 214.44C173.215 214.813 172.562 215.053 172.055 215.16ZM191.505 215.24C191.318 215.347 191.065 215.307 190.745 215.12C190.452 214.933 190.158 214.653 189.865 214.28C189.652 213.933 189.505 213.6 189.425 213.28C189.345 212.933 189.305 212.44 189.305 211.8L189.345 210.88C189.345 210.64 189.305 210.52 189.225 210.52C189.145 210.52 188.958 210.653 188.665 210.92C188.398 211.16 188.052 211.48 187.625 211.88C186.825 212.653 186.145 213.253 185.585 213.68C185.052 214.08 184.612 214.267 184.265 214.24C183.972 214.24 183.558 213.987 183.025 213.48C182.492 212.947 182.132 212.44 181.945 211.96C181.865 211.64 181.825 211.28 181.825 210.88C181.825 209.653 182.092 208.16 182.625 206.4C183.158 204.64 183.785 203.12 184.505 201.84C185.225 200.533 185.825 199.907 186.305 199.96C186.732 200.013 187.105 200.227 187.425 200.6C187.772 200.947 188.052 201.373 188.265 201.88C188.345 202.04 188.385 202.173 188.385 202.28C188.385 202.467 188.278 202.653 188.065 202.84C187.665 203.373 187.158 204.253 186.545 205.48C185.932 206.68 185.438 207.787 185.065 208.8C184.692 209.787 184.598 210.28 184.785 210.28C185.158 210.28 185.492 210.187 185.785 210C186.105 209.813 186.518 209.48 187.025 209C187.985 208.04 188.918 206.813 189.825 205.32C190.945 203.533 191.558 202.493 191.665 202.2L192.105 201.4C192.372 200.867 192.572 200.52 192.705 200.36C192.838 200.173 192.998 200.053 193.185 200H194.105C194.265 200.027 194.452 200.147 194.665 200.36C194.905 200.467 195.132 200.613 195.345 200.8C195.558 200.987 195.665 201.147 195.665 201.28L195.025 202.76L194.665 203.6C193.945 205.2 193.398 206.48 193.025 207.44C192.652 208.373 192.372 209.347 192.185 210.36C192.158 210.493 192.145 210.72 192.145 211.04C192.145 211.84 192.225 212.4 192.385 212.72C192.625 213.2 192.865 213.547 193.105 213.76C193.318 213.92 193.318 214.12 193.105 214.36C192.892 214.573 192.585 214.773 192.185 214.96C191.812 215.147 191.585 215.24 191.505 215.24ZM199.67 214.16C199.457 214.16 199.15 214.107 198.75 214C198.377 213.893 198.15 213.8 198.07 213.72C197.91 213.587 197.75 213.387 197.59 213.12C197.43 212.827 197.35 212.493 197.35 212.12C197.35 211.533 197.563 210.92 197.99 210.28C198.15 209.96 198.55 208.853 199.19 206.96L199.99 204.76C200.043 204.307 200.017 203.987 199.91 203.8C199.803 203.587 199.577 203.467 199.23 203.44C198.937 203.44 198.723 203.347 198.59 203.16C198.457 202.947 198.39 202.613 198.39 202.16C198.47 201.387 198.777 200.827 199.31 200.48C199.737 200.267 200.323 200.16 201.07 200.16C201.737 200.16 202.177 200.253 202.39 200.44C202.603 200.6 202.79 200.96 202.95 201.52C203.11 202.08 203.23 202.6 203.31 203.08C203.443 203 203.79 202.64 204.35 202L205.23 201.08C205.683 200.76 206.203 200.453 206.79 200.16C207.377 199.867 207.79 199.72 208.03 199.72C208.297 199.72 208.643 199.853 209.07 200.12C209.497 200.387 209.777 200.64 209.91 200.88C210.31 201.627 210.51 202.24 210.51 202.72C210.51 203.093 210.417 203.387 210.23 203.6C209.51 204.507 208.71 204.96 207.83 204.96C207.617 204.96 207.443 204.947 207.31 204.92C207.177 204.893 207.017 204.707 206.83 204.36C206.643 204.013 206.537 203.747 206.51 203.56C206.51 203.48 206.31 203.64 205.91 204.04C205.537 204.413 205.297 204.653 205.19 204.76L204.51 205.48C204.083 205.987 203.643 206.653 203.19 207.48C202.763 208.307 202.123 209.56 201.27 211.24L200.75 212.48C200.483 213.093 200.283 213.533 200.15 213.8C200.017 214.04 199.857 214.16 199.67 214.16ZM213.684 214.64C212.804 214.293 212.151 213.76 211.724 213.04C211.324 212.293 211.124 211.333 211.124 210.16C211.124 209.893 211.151 209.413 211.204 208.72C211.231 208.507 211.244 208.253 211.244 207.96C211.244 207.507 211.191 207.173 211.084 206.96C210.977 206.72 210.791 206.48 210.524 206.24C210.444 206.16 210.257 205.987 209.964 205.72C209.671 205.453 209.537 205.253 209.564 205.12V205C209.564 204.813 209.604 204.613 209.684 204.4C209.791 204.16 209.884 204.013 209.964 203.96C210.044 203.933 210.204 203.853 210.444 203.72C210.684 203.587 210.871 203.547 211.004 203.6C211.111 203.6 211.271 203.667 211.484 203.8C211.724 203.933 211.844 204.053 211.844 204.16C212.004 204.48 212.417 203.96 213.084 202.6C213.457 202.04 213.964 201.493 214.604 200.96C215.244 200.4 215.831 199.973 216.364 199.68C216.551 199.6 216.964 199.493 217.604 199.36C218.271 199.2 218.791 199.12 219.164 199.12C219.591 199.12 220.084 199.293 220.644 199.64C221.231 199.987 221.711 200.36 222.084 200.76C222.644 201.16 222.924 201.92 222.924 203.04C222.924 203.707 222.817 204.28 222.604 204.76C222.497 205.16 221.964 205.773 221.004 206.6C220.071 207.4 219.311 207.92 218.724 208.16C218.137 208.293 217.484 208.36 216.764 208.36C216.044 208.36 215.551 208.293 215.284 208.16C215.097 208.053 214.937 208.107 214.804 208.32C214.697 208.507 214.604 208.947 214.524 209.64L214.484 210.04C214.484 210.333 214.551 210.613 214.684 210.88C214.871 211.2 215.044 211.427 215.204 211.56C215.364 211.693 215.604 211.76 215.924 211.76L216.284 211.72C216.577 211.693 216.884 211.547 217.204 211.28C217.551 211.013 217.951 210.653 218.404 210.2C218.884 209.747 219.164 209.48 219.244 209.4C219.377 209.133 219.737 209 220.324 209C220.564 209 220.871 209.04 221.244 209.12C221.511 209.333 221.644 209.6 221.644 209.92C221.644 210.373 221.431 210.987 221.004 211.76C220.871 212.027 220.457 212.48 219.764 213.12C219.097 213.76 218.564 214.2 218.164 214.44C217.444 214.84 216.644 215.04 215.764 215.04C215.097 215.04 214.404 214.907 213.684 214.64ZM216.644 205.64C217.284 205.48 217.777 205.293 218.124 205.08C218.497 204.84 218.924 204.387 219.404 203.72C219.617 203.08 219.657 202.693 219.524 202.56C219.364 202.4 219.177 202.32 218.964 202.32C218.697 202.32 218.377 202.467 218.004 202.76C217.737 202.84 217.364 203.093 216.884 203.52C216.431 203.92 216.044 204.32 215.724 204.72C215.404 205.093 215.311 205.32 215.444 205.4C215.391 205.48 215.524 205.547 215.844 205.6C216.164 205.627 216.431 205.64 216.644 205.64ZM237.531 216.4C236.491 215.627 235.691 214.933 235.131 214.32C234.571 213.707 234.277 213.12 234.251 212.56C234.224 212.427 234.211 212.187 234.211 211.84C234.211 211.093 234.277 210.16 234.411 209.04C234.544 207.92 234.677 207.027 234.811 206.36C234.917 206.253 234.971 206.093 234.971 205.88C234.997 205.667 234.997 205.533 234.971 205.48C234.971 205.4 235.037 205.133 235.171 204.68C235.491 203.693 235.717 202.867 235.851 202.2C236.571 200.013 237.277 198.267 237.971 196.96C238.664 195.653 239.437 194.427 240.291 193.28C242.104 191.413 244.037 190 246.091 189.04C247.131 188.427 247.877 188.12 248.331 188.12C248.411 188.12 248.531 188.147 248.691 188.2C251.971 188.92 253.931 191 254.571 194.44C254.811 196.067 254.931 197.293 254.931 198.12C254.931 199.453 254.691 200.8 254.211 202.16C253.731 203.52 252.864 205.227 251.611 207.28C250.544 209.413 249.331 211.24 247.971 212.76C246.637 214.253 245.291 215.373 243.931 216.12C242.597 216.867 241.344 217.24 240.171 217.24C239.131 217.24 238.251 216.96 237.531 216.4ZM240.731 213.76C241.371 213.68 241.864 213.56 242.211 213.4C242.584 213.24 242.957 212.973 243.331 212.6C243.731 212.2 244.371 211.493 245.251 210.48C246.371 209.2 247.157 208.267 247.611 207.68C248.064 207.067 248.477 206.307 248.851 205.4C249.251 204.493 249.691 203.187 250.171 201.48L250.411 200.56C250.571 200 250.677 199.547 250.731 199.2C250.811 198.827 250.851 198.427 250.851 198L250.811 195.48C250.784 195 250.691 194.48 250.531 193.92C250.371 193.36 250.184 192.96 249.971 192.72C249.757 192.48 249.464 192.28 249.091 192.12C248.744 191.933 248.384 191.84 248.011 191.84C247.744 191.84 247.437 191.907 247.091 192.04C246.584 192.253 245.877 192.827 244.971 193.76C244.064 194.667 243.251 195.6 242.531 196.56C241.837 197.52 241.491 198.16 241.491 198.48C241.491 198.507 241.477 198.587 241.451 198.72C241.424 198.853 241.371 198.973 241.291 199.08C240.597 199.827 239.891 201.4 239.171 203.8C238.477 206.2 238.077 208.293 237.971 210.08C237.944 210.853 237.944 211.387 237.971 211.68C238.024 211.973 238.171 212.307 238.411 212.68C238.597 212.973 238.931 213.253 239.411 213.52C239.917 213.76 240.357 213.84 240.731 213.76ZM266.726 213.8C266.326 213.8 265.926 213.693 265.526 213.48C265.126 213.267 264.806 212.947 264.566 212.52L264.366 212.12C264.046 211.213 263.886 210.333 263.886 209.48V207.72C263.886 207.427 263.859 207.28 263.806 207.28C263.593 207.28 262.673 208.147 261.046 209.88C259.899 211.08 258.899 212.013 258.046 212.68C257.219 213.32 256.646 213.64 256.326 213.64C256.219 213.64 255.966 213.547 255.566 213.36C255.166 213.147 254.913 212.987 254.806 212.88C254.619 212.693 254.499 212.467 254.446 212.2C254.393 211.933 254.366 211.427 254.366 210.68C254.366 209.827 254.539 208.867 254.886 207.8C255.233 206.707 255.819 205.253 256.646 203.44C256.859 203.067 257.073 202.613 257.286 202.08C257.899 200.693 258.473 199.733 259.006 199.2C259.219 199.2 259.366 199.213 259.446 199.24C259.793 199.267 260.193 199.427 260.646 199.72C261.126 200.013 261.419 200.4 261.526 200.88C261.526 201.333 261.459 201.787 261.326 202.24C261.193 202.693 260.886 203.253 260.406 203.92C260.113 204.32 259.726 205.187 259.246 206.52C259.113 206.733 258.926 207.067 258.686 207.52C258.473 207.947 258.366 208.187 258.366 208.24C258.393 208.267 258.473 208.213 258.606 208.08C258.739 207.92 258.873 207.773 259.006 207.64L260.086 206.56C262.193 204.453 263.819 203.373 264.966 203.32C265.553 203.32 266.073 203.627 266.526 204.24C266.979 204.853 267.206 205.587 267.206 206.44C267.206 206.6 267.179 207.053 267.126 207.8V210.08C267.739 209.92 268.206 209.773 268.526 209.64C269.193 209.4 269.886 209.253 270.606 209.2C270.553 209.653 270.299 210.253 269.846 211C269.419 211.747 268.913 212.4 268.326 212.96C267.739 213.52 267.206 213.8 266.726 213.8ZM274.285 215.44C274.205 215.467 274.099 215.48 273.965 215.48C273.405 215.48 272.939 215.16 272.565 214.52C272.192 213.88 272.005 213.067 272.005 212.08C272.005 211.547 272.059 211.027 272.165 210.52C272.459 209.747 272.605 209.187 272.605 208.84C272.685 208.333 272.952 207.427 273.405 206.12C273.885 204.787 274.192 203.987 274.325 203.72C274.432 203.72 274.525 203.64 274.605 203.48C274.685 203.293 274.725 203.093 274.725 202.88C274.725 202.64 274.765 202.4 274.845 202.16C274.952 201.893 275.059 201.707 275.165 201.6C275.165 201.52 275.192 201.373 275.245 201.16C275.325 200.947 275.365 200.8 275.365 200.72C275.365 200.667 275.392 200.573 275.445 200.44C275.525 200.28 275.565 200.16 275.565 200.08C275.992 199.253 276.739 197.4 277.805 194.52C278.872 191.613 279.405 190 279.405 189.68C279.405 189.467 279.485 189.267 279.645 189.08C279.805 188.893 279.992 188.8 280.205 188.8C280.285 188.72 280.459 188.667 280.725 188.64C280.992 188.587 281.205 188.56 281.365 188.56L282.005 189.2C282.299 189.467 282.525 189.707 282.685 189.92C282.845 190.133 282.925 190.387 282.925 190.68C282.925 191.16 282.832 191.64 282.645 192.12C282.485 192.573 281.992 193.667 281.165 195.4C281.112 195.533 280.899 196.013 280.525 196.84C280.259 197.373 280.125 197.68 280.125 197.76C280.125 197.84 280.072 198.013 279.965 198.28C279.859 198.52 279.765 198.773 279.685 199.04C279.472 199.467 279.125 200.227 278.645 201.32C278.192 202.387 277.965 202.973 277.965 203.08C277.965 203.373 277.899 203.587 277.765 203.72C277.685 203.72 277.632 203.787 277.605 203.92C277.579 204.027 277.565 204.107 277.565 204.16C277.565 204.427 277.352 205.133 276.925 206.28L276.565 207.44C276.059 209.173 275.699 210.44 275.485 211.24C275.299 212.04 275.205 212.72 275.205 213.28C275.205 213.867 275.112 214.347 274.925 214.72C274.739 215.093 274.525 215.333 274.285 215.44ZM284.155 198.28C283.888 198.093 283.675 197.853 283.515 197.56C283.355 197.267 283.262 196.987 283.235 196.72C283.208 196.453 283.235 196.293 283.315 196.24C283.475 196.053 283.635 195.8 283.795 195.48C283.955 195.16 284.075 194.933 284.155 194.8C284.368 194.32 284.542 193.973 284.675 193.76C284.862 193.387 285.035 193.187 285.195 193.16C285.408 193.053 285.582 193 285.715 193C286.062 193 286.435 193.12 286.835 193.36C287.262 193.6 287.582 193.88 287.795 194.2C287.982 194.627 288.075 195 288.075 195.32C288.075 195.96 287.768 196.667 287.155 197.44C286.888 197.787 286.568 198.053 286.195 198.24C285.822 198.427 285.448 198.52 285.075 198.52C284.702 198.52 284.395 198.44 284.155 198.28ZM279.835 214.32C279.462 213.947 279.275 213.28 279.275 212.32C279.275 211.813 279.342 211.427 279.475 211.16C279.475 211.027 279.502 210.867 279.555 210.68C279.608 210.493 279.635 210.373 279.635 210.32C279.608 210.16 279.715 209.72 279.955 209C280.275 208.28 280.675 207.173 281.155 205.68C281.662 204.187 282.008 203.12 282.195 202.48C282.195 202.347 282.248 202.24 282.355 202.16C282.462 202.053 282.622 201.987 282.835 201.96C283.128 201.853 283.502 201.987 283.955 202.36C284.408 202.707 284.782 203.107 285.075 203.56C285.235 203.72 285.315 203.933 285.315 204.2C285.315 204.6 285.142 205.16 284.795 205.88C284.662 206.173 284.528 206.533 284.395 206.96C284.288 207.387 284.195 207.787 284.115 208.16C283.795 208.88 283.542 209.547 283.355 210.16C283.275 210.507 283.222 210.773 283.195 210.96C283.008 211.947 282.835 212.587 282.675 212.88C282.515 213.547 282.288 214.053 281.995 214.4C281.702 214.72 281.368 214.88 280.995 214.88C280.542 214.88 280.155 214.693 279.835 214.32ZM302.526 205.64C302.526 206.067 302.313 207.16 301.886 208.92C301.833 209.16 301.713 209.68 301.526 210.48C301.366 211.253 301.273 211.84 301.246 212.24C301.246 212.533 301.3 212.84 301.406 213.16C301.54 213.453 301.606 213.627 301.606 213.68C301.606 213.947 301.486 214.213 301.246 214.48C301.006 214.72 300.7 214.84 300.326 214.84C299.66 214.84 299.086 214.56 298.606 214C298.126 213.413 297.886 212.653 297.886 211.72C297.886 210.92 298.18 209.427 298.766 207.24C298.82 206.947 298.86 206.733 298.886 206.6C298.94 206.44 298.966 206.307 298.966 206.2C298.966 206.067 298.926 206 298.846 206C298.66 206 298.393 206.133 298.046 206.4C297.7 206.64 297.326 206.92 296.926 207.24L295.926 208.08C295.5 208.347 294.606 209.08 293.246 210.28C293.06 210.413 292.606 210.787 291.886 211.4C291.193 211.987 290.793 212.28 290.686 212.28C290.58 212.28 290.34 212.2 289.966 212.04C289.62 211.853 289.286 211.627 288.966 211.36C288.673 211.093 288.526 210.787 288.526 210.44C288.526 210.04 288.766 209.12 289.246 207.68C289.726 206.24 290.3 204.827 290.966 203.44C291.046 203.227 291.14 202.827 291.246 202.24C291.353 201.28 291.526 200.68 291.766 200.44C291.926 200.173 292.153 200.04 292.446 200.04C292.98 200.04 293.473 200.307 293.926 200.84C294.406 201.373 294.646 201.96 294.646 202.6C294.646 203.053 294.513 203.653 294.246 204.4C294.006 205.12 293.833 205.547 293.726 205.68C293.806 205.627 293.966 205.493 294.206 205.28C294.473 205.04 294.82 204.787 295.246 204.52C296.153 203.827 296.833 203.36 297.286 203.12C297.74 202.853 298.06 202.653 298.246 202.52C298.353 202.44 298.433 202.387 298.486 202.36C298.566 202.307 298.62 202.28 298.646 202.28C298.726 202.253 298.873 202.2 299.086 202.12C299.326 202.013 299.513 201.96 299.646 201.96C300.046 201.96 300.46 202.107 300.886 202.4C301.34 202.667 301.566 202.947 301.566 203.24C301.566 203.32 301.66 203.467 301.846 203.68C302.033 203.867 302.193 204.107 302.326 204.4C302.46 204.667 302.526 205.08 302.526 205.64ZM309.966 215.72C306.926 215.72 305.406 213.987 305.406 210.52C305.406 209.267 305.712 207.853 306.326 206.28C306.966 204.68 307.752 203.253 308.686 202C309.646 200.72 310.592 199.867 311.526 199.44C312.032 199.173 312.619 199.04 313.286 199.04C314.486 199.04 315.526 199.307 316.406 199.84C317.312 200.347 317.766 201.32 317.766 202.76C317.766 203.587 317.486 204.493 316.926 205.48C316.366 206.467 315.659 207.307 314.806 208C313.979 208.667 313.166 209 312.366 209C311.166 209 310.152 208.613 309.326 207.84C308.872 208.747 308.646 209.613 308.646 210.44C308.646 211.107 308.726 211.627 308.886 212C309.046 212.347 309.419 212.52 310.006 212.52C310.566 212.52 311.019 212.44 311.366 212.28C311.712 212.12 312.032 211.933 312.326 211.72C312.619 211.507 312.846 211.347 313.006 211.24L313.166 211.16H313.126C313.606 210.893 313.952 210.693 314.166 210.56C314.406 210.4 314.606 210.293 314.766 210.24C315.166 210.24 315.539 210.36 315.886 210.6C316.232 210.84 316.406 211.133 316.406 211.48C316.406 211.747 316.166 212.187 315.686 212.8C315.206 213.387 314.712 213.8 314.206 214.04L313.726 214.28H313.766C313.526 214.6 313.286 214.76 313.046 214.76H312.726C312.619 214.973 312.259 215.187 311.646 215.4C311.059 215.613 310.499 215.72 309.966 215.72ZM312.046 206.08C312.792 206.08 313.406 205.76 313.886 205.12C314.392 204.48 314.646 203.84 314.646 203.2C314.646 202.907 314.566 202.64 314.406 202.4C314.272 202.16 314.086 202.04 313.846 202.04C313.392 202.04 312.886 202.253 312.326 202.68C311.766 203.107 311.272 203.667 310.846 204.36L310.326 205.2C310.432 205.147 310.512 205.12 310.566 205.12C310.779 205.12 310.939 205.213 311.046 205.4C311.152 205.587 311.272 205.747 311.406 205.88C311.539 206.013 311.752 206.08 312.046 206.08ZM78.5375 267.28C78.4042 267.28 78.2575 267.227 78.0975 267.12C77.9642 267.04 77.8442 266.92 77.7375 266.76C77.5242 266.573 77.3508 266.347 77.2175 266.08C77.0842 265.813 77.0175 265.413 77.0175 264.88C77.0175 263.947 77.3108 262.6 77.8975 260.84C78.0842 260.093 78.2842 259.373 78.4975 258.68C78.6842 258.2 78.7775 257.84 78.7775 257.6C78.7775 257.387 78.8042 257.147 78.8575 256.88C78.9375 256.587 78.9775 256.387 78.9775 256.28C79.2975 256.28 79.5908 255.733 79.8575 254.64C79.9642 254.24 80.0575 253.907 80.1375 253.64C80.2175 253.347 80.2708 253.12 80.2975 252.96C80.3508 252.88 80.4042 252.76 80.4575 252.6C80.5375 252.44 80.6042 252.293 80.6575 252.16C80.8708 251.52 81.1242 250.907 81.4175 250.32C81.7375 249.12 82.1108 247.867 82.5375 246.56C82.9908 245.227 83.3642 244.24 83.6575 243.6L84.1375 242.4C84.1642 242.32 84.2175 242.173 84.2975 241.96C84.4042 241.72 84.4575 241.547 84.4575 241.44C84.4575 241.333 84.4175 241.253 84.3375 241.2C84.1508 241.067 84.0575 240.8 84.0575 240.4C84.0575 239.733 84.3108 239.187 84.8175 238.76C85.1108 238.413 85.4975 238.173 85.9775 238.04C86.4842 237.88 87.0842 237.8 87.7775 237.8C88.0708 237.8 88.5908 237.827 89.3375 237.88C89.6575 237.907 90.5108 237.92 91.8975 237.92C92.0575 238 92.3508 238.12 92.7775 238.28C93.6842 238.653 94.1375 238.88 94.1375 238.96C94.1375 239.093 94.1775 239.187 94.2575 239.24C94.3642 239.293 94.5108 239.333 94.6975 239.36C94.9908 239.36 95.5108 239.72 96.2575 240.44C97.0308 241.16 97.5642 241.827 97.8575 242.44C98.0975 242.92 98.2575 243.293 98.3375 243.56C98.4442 243.827 98.4975 244.16 98.4975 244.56C98.4975 244.72 98.4708 245.013 98.4175 245.44C98.3642 245.867 98.2975 246.28 98.2175 246.68C98.1375 247.08 98.0442 247.333 97.9375 247.44C97.5108 247.76 97.2975 248.04 97.2975 248.28C97.2975 248.547 96.9108 249.293 96.1375 250.52C95.3642 251.747 94.6842 252.64 94.0975 253.2C93.4042 254 92.5775 254.707 91.6175 255.32C90.4975 255.827 89.2308 256.267 87.8175 256.64C86.4308 257.013 85.3775 257.187 84.6575 257.16C83.8042 257.293 83.2708 257.413 83.0575 257.52C82.8708 257.6 82.7242 257.813 82.6175 258.16C82.4842 258.533 82.3508 258.907 82.2175 259.28C82.1108 259.653 82.0575 259.907 82.0575 260.04C81.8975 260.333 81.5642 261.227 81.0575 262.72C80.5775 264.213 80.2442 265.36 80.0575 266.16C79.9508 266.507 79.7375 266.773 79.4175 266.96C79.0975 267.173 78.8042 267.28 78.5375 267.28ZM84.2175 253.92C84.2708 253.973 84.4175 254 84.6575 254C85.3508 254 86.2575 253.787 87.3775 253.36C88.3375 253.04 89.4042 252.52 90.5775 251.8C91.1642 251.4 91.8575 250.693 92.6575 249.68C92.8175 249.413 93.1375 248.787 93.6175 247.8C93.8308 247.427 94.0308 246.947 94.2175 246.36C94.4308 245.773 94.5375 245.253 94.5375 244.8C94.5375 244.587 94.5242 244.427 94.4975 244.32C94.2308 242.933 93.4575 242.013 92.1775 241.56C91.3242 241.427 90.7242 241.36 90.3775 241.36C90.1908 241.36 89.8842 241.387 89.4575 241.44C89.0308 241.573 88.7242 241.76 88.5375 242C88.3775 242.213 88.1375 242.72 87.8175 243.52C86.9642 245.147 86.4042 246.32 86.1375 247.04C85.6308 248.853 85.1908 250.253 84.8175 251.24C84.4442 252.2 84.2308 252.76 84.1775 252.92V253.08C84.1775 253.24 84.1642 253.4 84.1375 253.56C84.1108 253.72 84.1375 253.84 84.2175 253.92ZM97.4069 264.28C96.9535 264.387 96.4069 264.147 95.7669 263.56C95.1269 262.973 94.7535 262.427 94.6469 261.92C94.5935 261.653 94.5669 261.427 94.5669 261.24C94.5669 260.2 94.9002 258.947 95.5669 257.48C96.2335 255.987 97.1269 254.587 98.2469 253.28C99.3935 251.973 100.647 251.027 102.007 250.44C102.567 250.147 102.927 250 103.087 250C103.247 250 103.607 250.147 104.167 250.44C104.7 250.573 105.127 250.72 105.447 250.88C105.767 251.04 106.06 251.293 106.327 251.64C106.674 252.333 106.927 253.187 107.087 254.2C107.247 254.76 107.327 255.16 107.327 255.4C107.327 255.613 107.247 255.8 107.087 255.96C107.06 255.987 107.007 256.04 106.927 256.12C106.874 256.2 106.847 256.267 106.847 256.32C106.847 256.347 106.874 256.36 106.927 256.36C106.927 256.387 106.914 256.453 106.887 256.56C106.86 256.64 106.807 256.76 106.727 256.92C106.407 257.933 106.247 258.72 106.247 259.28C106.247 259.467 106.274 259.693 106.327 259.96C106.594 260.653 106.927 261 107.327 261C107.7 261 108.127 260.76 108.607 260.28C109.007 260.013 109.407 259.88 109.807 259.88C110.047 259.88 110.167 259.947 110.167 260.08C110.194 260.107 110.247 260.147 110.327 260.2C110.407 260.253 110.487 260.28 110.567 260.28C110.674 260.28 110.727 260.4 110.727 260.64C110.727 260.853 110.674 261.133 110.567 261.48C110.487 261.827 110.38 262.107 110.247 262.32C110.06 262.507 109.914 262.667 109.807 262.8C109.7 262.933 109.647 263.04 109.647 263.12L109.047 263.68C108.54 263.973 107.94 264.12 107.247 264.12C106.527 264.12 105.954 263.973 105.527 263.68C105.1 263.387 104.7 263.027 104.327 262.6C103.954 262.147 103.714 261.747 103.607 261.4L103.407 261L102.247 261.76L101.247 262.8C101.034 263.067 100.847 263.2 100.687 263.2H100.287C100.287 263.387 99.9135 263.613 99.1669 263.88C98.4202 264.147 97.8335 264.28 97.4069 264.28ZM98.2469 260.92C98.5402 260.92 99.1402 260.587 100.047 259.92C100.98 259.227 101.607 258.68 101.927 258.28C102.034 258.147 102.167 257.96 102.327 257.72C102.514 257.453 102.674 257.253 102.807 257.12C103.234 256.613 103.54 256.213 103.727 255.92C103.94 255.6 104.047 255.293 104.047 255C104.047 254.787 103.954 254.493 103.767 254.12C103.66 253.8 103.5 253.64 103.287 253.64C103.18 253.64 102.874 253.733 102.367 253.92C101.86 254.213 101.26 254.813 100.567 255.72C99.9002 256.627 99.3135 257.547 98.8069 258.48C98.3002 259.413 98.0469 260.093 98.0469 260.52C98.0469 260.6 98.0735 260.68 98.1269 260.76C98.1802 260.84 98.2202 260.893 98.2469 260.92ZM115.765 265.28C114.351 265.28 113.311 264.827 112.645 263.92C112.458 263.547 112.365 263.147 112.365 262.72C112.365 262.4 112.418 262.133 112.525 261.92C112.631 261.707 112.778 261.6 112.965 261.6C113.098 261.6 113.231 261.667 113.365 261.8C113.711 262.013 114.205 262.12 114.845 262.12C115.111 262.12 115.698 262.093 116.605 262.04C117.005 262.013 117.311 261.92 117.525 261.76C117.765 261.573 117.885 261.373 117.885 261.16C117.885 260.947 117.805 260.787 117.645 260.68H117.685C116.565 260.413 115.525 259.96 114.565 259.32C113.605 258.653 113.071 258.027 112.965 257.44C112.885 257.067 112.845 256.72 112.845 256.4C112.845 255.68 112.991 254.96 113.285 254.24C113.605 253.52 114.018 252.867 114.525 252.28C114.658 252.2 114.951 252 115.405 251.68C115.885 251.333 116.231 251.133 116.445 251.08V251.12C116.925 250.613 117.458 250.2 118.045 249.88C118.658 249.533 119.445 249.2 120.405 248.88L121.045 248.8L121.885 248.72C121.911 248.747 121.978 248.787 122.085 248.84C122.218 248.867 122.351 248.893 122.485 248.92C122.645 249 122.805 249.04 122.965 249.04C123.525 249.147 124.045 249.533 124.525 250.2C125.031 250.84 125.258 251.44 125.205 252C125.125 252.64 124.885 253.253 124.485 253.84C124.111 254.427 123.725 254.76 123.325 254.84C123.378 254.813 123.298 254.747 123.085 254.64C122.898 254.533 122.778 254.467 122.725 254.44L122.565 254.52C122.565 254.493 122.551 254.453 122.525 254.4C122.525 254.32 122.498 254.227 122.445 254.12C122.258 253.773 122.178 253.333 122.205 252.8L122.285 252.4C122.285 252.32 122.231 252.267 122.125 252.24C122.045 252.187 121.925 252.16 121.765 252.16C121.685 252.133 121.551 252.12 121.365 252.12C120.991 252.12 120.578 252.2 120.125 252.36C119.698 252.52 119.311 252.733 118.965 253C118.191 253.533 117.685 253.92 117.445 254.16C117.231 254.373 117.005 254.76 116.765 255.32C116.498 255.72 116.365 256.027 116.365 256.24C116.365 256.507 116.565 256.773 116.965 257.04C117.391 257.307 118.098 257.64 119.085 258.04C119.645 258.28 120.045 258.587 120.285 258.96C120.525 259.307 120.711 259.653 120.845 260C120.978 260.32 121.071 260.547 121.125 260.68C121.178 260.84 121.231 261.053 121.285 261.32C121.338 261.587 121.351 261.733 121.325 261.76L121.405 261.92V261.88C121.485 262.04 121.525 262.2 121.525 262.36C121.525 262.893 121.178 263.44 120.485 264C119.791 264.56 118.965 264.933 118.005 265.12H118.045C117.325 265.227 116.565 265.28 115.765 265.28ZM129.789 265.6C129.149 265.6 128.482 265.467 127.789 265.2C127.122 264.933 126.549 264.613 126.069 264.24C125.616 263.84 125.389 263.48 125.389 263.16C125.389 262.84 125.536 262.64 125.829 262.56L126.029 262.4C126.082 262.373 126.189 262.36 126.349 262.36C126.456 262.333 126.589 262.347 126.749 262.4C126.909 262.427 127.042 262.44 127.149 262.44C127.336 262.493 127.616 262.547 127.989 262.6L129.029 262.72C129.562 262.72 130.056 262.667 130.509 262.56C130.989 262.453 131.229 262.333 131.229 262.2C131.229 262.12 131.122 261.987 130.909 261.8C130.696 261.613 130.469 261.52 130.229 261.52C130.229 261.413 129.816 261.053 128.989 260.44C128.536 260.093 128.096 259.747 127.669 259.4C127.269 259.053 127.069 258.8 127.069 258.64L127.109 258.56V258.36C126.922 258.36 126.749 258.107 126.589 257.6C126.429 257.093 126.349 256.6 126.349 256.12C126.349 255.213 126.749 254.213 127.549 253.12C128.349 252.027 129.336 251.04 130.509 250.16C131.709 249.28 132.842 248.68 133.909 248.36C134.309 248.173 134.896 248.08 135.669 248.08C136.176 248.08 136.522 248.133 136.709 248.24L137.029 248.16C137.349 248.16 137.762 248.427 138.269 248.96C138.776 249.493 139.096 249.92 139.229 250.24C139.229 251.12 139.202 251.827 139.149 252.36C139.096 252.893 138.962 253.16 138.749 253.16C138.722 253.16 138.682 253.173 138.629 253.2C138.576 253.227 138.549 253.293 138.549 253.4C138.549 253.773 138.216 254.187 137.549 254.64C136.909 255.093 136.322 255.32 135.789 255.32L135.629 255.28C135.469 255.253 135.229 255.093 134.909 254.8C134.616 254.507 134.469 254.213 134.469 253.92C134.469 253.84 134.629 253.627 134.949 253.28C135.269 252.933 135.536 252.6 135.749 252.28C135.989 251.933 136.109 251.573 136.109 251.2C136.109 251.067 136.056 250.987 135.949 250.96C135.869 250.907 135.696 250.88 135.429 250.88C133.962 251.547 132.909 252.173 132.269 252.76C132.189 252.92 132.109 253.04 132.029 253.12C131.976 253.2 131.896 253.24 131.789 253.24C131.789 253.213 131.776 253.2 131.749 253.2C131.696 253.2 131.522 253.36 131.229 253.68C130.936 253.973 130.656 254.32 130.389 254.72C130.149 255.12 130.002 255.493 129.949 255.84L129.869 255.96V256.16C129.842 256.213 129.829 256.32 129.829 256.48C129.829 256.72 129.936 256.973 130.149 257.24C130.362 257.48 130.789 257.827 131.429 258.28C132.629 259.187 133.442 259.867 133.869 260.32C134.322 260.747 134.602 261.133 134.709 261.48C134.949 261.96 135.069 262.387 135.069 262.76C135.069 263.667 134.589 264.373 133.629 264.88C132.696 265.36 131.416 265.6 129.789 265.6ZM149.453 265.36C149.373 265.307 149.133 265.173 148.733 264.96C148.333 264.747 148.067 264.4 147.933 263.92C147.8 263.44 147.733 262.76 147.733 261.88C147.733 261.453 147.72 261.107 147.693 260.84C147.667 260.547 147.653 260.36 147.653 260.28C147.6 260.333 147.453 260.493 147.213 260.76C146.973 261.027 146.693 261.4 146.373 261.88C145.84 262.84 145.36 263.52 144.933 263.92C144.507 264.32 144.08 264.587 143.653 264.72C143.467 264.773 143.08 264.72 142.493 264.56C141.933 264.373 141.387 264.147 140.853 263.88C140.32 263.587 140.027 263.347 139.973 263.16C139.92 262.947 139.893 262.613 139.893 262.16C139.893 261.413 139.933 260.613 140.013 259.76C140.12 258.88 140.253 258.307 140.413 258.04C140.413 257.987 140.427 257.907 140.453 257.8C140.507 257.667 140.493 257.56 140.413 257.48C140.6 256.867 140.96 255.707 141.493 254C142.027 252.293 142.373 251.24 142.533 250.84C142.533 250.68 142.56 250.467 142.613 250.2C142.693 249.933 142.733 249.747 142.733 249.64C142.733 249.533 142.773 249.413 142.853 249.28C142.933 249.12 143.027 248.987 143.133 248.88C143.507 248.48 143.907 248.28 144.333 248.28C144.707 248.28 145.04 248.4 145.333 248.64C145.653 248.96 145.88 249.24 146.013 249.48C146.173 249.72 146.253 250.013 146.253 250.36C146.253 250.813 146.12 251.36 145.853 252C145.453 252.907 145.053 253.853 144.653 254.84C144.28 255.827 144.04 256.52 143.933 256.92C143.933 257.053 143.893 257.227 143.813 257.44C143.76 257.627 143.733 257.773 143.733 257.88C143.627 257.987 143.573 258.187 143.573 258.48C143.573 258.587 143.533 258.773 143.453 259.04C143.373 259.307 143.333 259.573 143.333 259.84C143.307 259.973 143.293 260.133 143.293 260.32C143.293 260.613 143.387 260.76 143.573 260.76C143.653 260.76 143.773 260.72 143.933 260.64C144.04 260.507 144.16 260.32 144.293 260.08C144.453 259.813 144.627 259.533 144.813 259.24C144.92 258.92 145.067 258.68 145.253 258.52C145.467 258.333 145.573 258.12 145.573 257.88C145.573 257.773 145.733 257.493 146.053 257.04C146.4 256.587 146.64 256.267 146.773 256.08L147.813 254.24C147.947 253.973 148.133 253.693 148.373 253.4C148.427 253.32 148.533 253.173 148.693 252.96C148.853 252.72 148.987 252.467 149.093 252.2C149.28 251.853 149.453 251.573 149.613 251.36C149.773 251.12 149.987 251 150.253 251C150.573 251 150.773 251.027 150.853 251.08C150.933 251.133 151.013 251.307 151.093 251.6C151.307 251.813 151.52 252.12 151.733 252.52C151.973 252.893 152.093 253.173 152.093 253.36C152.013 253.44 151.96 253.547 151.933 253.68C151.907 253.813 151.893 253.907 151.893 253.96C151.867 254.12 151.8 254.387 151.693 254.76C151.613 255.133 151.493 255.493 151.333 255.84C150.8 257.973 150.533 259.653 150.533 260.88C150.533 261.387 150.6 261.68 150.733 261.76C150.813 261.813 150.907 261.773 151.013 261.64C151.147 261.507 151.307 261.293 151.493 261C151.547 260.893 151.653 260.707 151.813 260.44C151.973 260.173 152.147 259.907 152.333 259.64C152.413 259.533 152.653 259.227 153.053 258.72C153.453 258.187 153.733 257.72 153.893 257.32C153.893 257.187 154.013 256.88 154.253 256.4C154.627 255.68 154.827 255.133 154.853 254.76C154.827 254.733 154.973 254.467 155.293 253.96C155.613 253.427 155.88 252.907 156.093 252.4C156.307 251.84 156.6 251.427 156.973 251.16C157.373 250.867 157.787 250.72 158.213 250.72C158.56 250.72 158.84 250.813 159.053 251C159.267 251.187 159.36 251.44 159.333 251.76C159.12 253.04 158.587 254.627 157.733 256.52C156.907 258.413 156.013 260.107 155.053 261.6C154.84 261.76 154.653 261.973 154.493 262.24C154.333 262.507 154.253 262.693 154.253 262.8C154.253 262.907 154 263.253 153.493 263.84C153.013 264.427 152.547 264.867 152.093 265.16C151.693 265.48 151.213 265.64 150.653 265.64C150.28 265.64 149.88 265.547 149.453 265.36ZM163.157 264.72C162.837 264.72 162.584 264.667 162.397 264.56C162.211 264.453 161.944 264.253 161.597 263.96C161.064 263.4 160.651 262.827 160.357 262.24C160.064 261.627 159.957 261.093 160.037 260.64C160.117 260.453 160.144 260.267 160.117 260.08C160.117 259.893 160.117 259.773 160.117 259.72C160.011 259.613 159.957 259.547 159.957 259.52C159.957 259.467 159.984 259.427 160.037 259.4C160.091 259.347 160.131 259.293 160.157 259.24C160.317 259.24 160.371 259.093 160.317 258.8C160.264 258.587 160.357 258.12 160.597 257.4C160.837 256.68 161.144 256.013 161.517 255.4C161.811 254.92 162.237 254.32 162.797 253.6C163.384 252.88 163.904 252.333 164.357 251.96C165.691 250.813 166.891 250.12 167.957 249.88C168.491 249.747 169.011 249.68 169.517 249.68C170.291 249.68 170.891 249.893 171.317 250.32C171.904 250.56 172.331 250.907 172.597 251.36C172.864 251.813 173.037 252.413 173.117 253.16C173.144 253.32 173.157 253.587 173.157 253.96C173.157 255.933 172.411 257.987 170.917 260.12C170.304 261 169.691 261.707 169.077 262.24C168.464 262.773 167.717 263.307 166.837 263.84C166.357 264.16 165.851 264.373 165.317 264.48C164.784 264.587 164.064 264.667 163.157 264.72ZM167.237 259.84C167.744 259.387 168.104 258.933 168.317 258.48C168.557 258 168.891 257.173 169.317 256C169.477 255.76 169.557 255.28 169.557 254.56C169.557 253.92 169.464 253.56 169.277 253.48C169.144 253.373 168.984 253.32 168.797 253.32C168.557 253.32 168.171 253.507 167.637 253.88C166.704 254.68 165.917 255.52 165.277 256.4C164.664 257.253 164.237 258.24 163.997 259.36C163.971 259.467 163.957 259.627 163.957 259.84C163.957 260.747 164.277 261.2 164.917 261.2C165.531 261.2 166.304 260.747 167.237 259.84ZM176.13 264.4C175.943 264.4 175.69 264.267 175.37 264C175.076 263.733 174.903 263.493 174.85 263.28C174.823 263.227 174.81 263.107 174.81 262.92C174.81 262.573 174.97 261.893 175.29 260.88L175.57 259.6C175.836 258.427 176.076 257.44 176.29 256.64C176.37 256.48 176.53 256.027 176.77 255.28C176.93 254.693 177.143 254.12 177.41 253.56C177.73 252.36 178.236 251.173 178.93 250C179.01 249.867 179.143 249.707 179.33 249.52C179.516 249.333 179.65 249.24 179.73 249.24C179.89 249.08 180.116 249 180.41 249C180.836 249 181.223 249.147 181.57 249.44C181.916 249.84 182.09 250.267 182.09 250.72C182.09 251.227 181.903 251.853 181.53 252.6C181.316 253.187 180.97 253.933 180.49 254.84C180.116 255.507 179.89 255.947 179.81 256.16C180.13 255.733 180.823 254.933 181.89 253.76C182.21 253.413 182.516 253.133 182.81 252.92C183.103 252.68 183.543 252.373 184.13 252C184.716 251.573 185.183 251.28 185.53 251.12C185.876 250.933 186.276 250.84 186.73 250.84C186.943 250.84 187.103 250.853 187.21 250.88C187.556 250.853 187.916 251.08 188.29 251.56C188.69 252.04 188.89 252.587 188.89 253.2C188.89 253.44 188.85 253.68 188.77 253.92C188.45 253.867 188.223 253.84 188.09 253.84C187.556 253.84 187.076 253.947 186.65 254.16C186.25 254.373 185.916 254.587 185.65 254.8C185.383 254.987 185.21 255.107 185.13 255.16C184.196 255.773 183.09 256.6 181.81 257.64C181.17 258.173 180.69 258.64 180.37 259.04C180.05 259.44 179.796 259.867 179.61 260.32C179.556 260.48 179.303 261.107 178.85 262.2C178.396 263.267 178.05 263.893 177.81 264.08C177.676 264.373 177.33 264.52 176.77 264.52C176.476 264.52 176.263 264.48 176.13 264.4ZM200.304 265.76C199.957 265.84 199.624 265.76 199.304 265.52C198.984 265.28 198.744 265 198.584 264.68C198.45 264.307 198.357 263.947 198.304 263.6C198.25 263.227 198.21 262.733 198.184 262.12L198.144 260.76L196.504 262.24C194.824 263.813 193.264 264.6 191.824 264.6C191.397 264.52 190.85 264.16 190.184 263.52C189.544 262.88 189.13 262.333 188.944 261.88C188.837 261.667 188.784 261.333 188.784 260.88C188.784 259.867 189.05 258.653 189.584 257.24C190.117 255.8 190.784 254.64 191.584 253.76C192.17 252.88 192.877 252.213 193.704 251.76C194.53 251.307 195.37 251.08 196.224 251.08C197.024 251.08 197.73 251.253 198.344 251.6C198.717 251.787 199.024 251.88 199.264 251.88C199.53 251.88 199.704 251.707 199.784 251.36C199.81 251.227 199.97 250.693 200.264 249.76L200.704 248.48C201.29 246.72 201.797 245.307 202.224 244.24C202.65 243.173 203.17 242 203.784 240.72C204.05 240.16 204.33 239.747 204.624 239.48C204.917 239.213 205.184 239.093 205.424 239.12C205.77 239.12 206.144 239.24 206.544 239.48C206.97 239.693 207.25 239.973 207.384 240.32C207.464 240.507 207.504 240.733 207.504 241C207.504 241.293 207.424 241.6 207.264 241.92C206.57 243.12 205.717 245.08 204.704 247.8C203.69 250.52 202.904 252.88 202.344 254.88C202.13 255.6 201.97 256.6 201.864 257.88C201.784 259.16 201.744 260.413 201.744 261.64C201.744 262.813 201.784 263.547 201.864 263.84C201.917 264 201.944 264.213 201.944 264.48C201.944 264.933 201.784 265.24 201.464 265.4C201.17 265.587 200.784 265.707 200.304 265.76ZM193.704 260.92C194.317 260.68 194.997 260.28 195.744 259.72C196.544 259.133 197.117 258.613 197.464 258.16C197.837 257.707 198.13 257.133 198.344 256.44C198.397 256.307 198.424 256.12 198.424 255.88C198.424 255.4 198.197 254.96 197.744 254.56C197.477 254.347 197.17 254.24 196.824 254.24C196.264 254.24 195.677 254.533 195.064 255.12C194.37 255.76 193.81 256.48 193.384 257.28C192.957 258.053 192.597 259.12 192.304 260.48C192.25 260.667 192.277 260.827 192.384 260.96C192.49 261.067 192.664 261.12 192.904 261.12C193.09 261.12 193.357 261.053 193.704 260.92ZM214.485 267.32C214.085 267.32 213.672 267.053 213.245 266.52C212.818 266.013 212.605 265.373 212.605 264.6C212.605 263.987 212.752 263.387 213.045 262.8C213.578 261.68 214.112 260.773 214.645 260.08C214.832 259.813 214.965 259.587 215.045 259.4C215.152 259.213 215.218 258.96 215.245 258.64C215.618 258.16 216.112 257.293 216.725 256.04C217.765 254.36 219.245 251.773 221.165 248.28C221.432 247.8 221.952 246.853 222.725 245.44C223.525 244.027 224.058 243.187 224.325 242.92L224.525 242.64C224.445 242.773 224.578 242.467 224.925 241.72C225.298 240.973 225.685 240.307 226.085 239.72C226.512 239.107 226.885 238.8 227.205 238.8C227.552 238.8 227.952 238.947 228.405 239.24C228.858 239.507 229.245 239.92 229.565 240.48C229.912 241.013 230.085 241.653 230.085 242.4C230.085 242.72 230.072 242.973 230.045 243.16L229.645 245.88L229.445 246.76C229.098 248.52 228.578 250.933 227.885 254C227.272 256.72 226.965 258.36 226.965 258.92C226.965 259.08 226.992 259.213 227.045 259.32C227.098 259.4 227.165 259.44 227.245 259.44C227.298 259.44 227.432 259.36 227.645 259.2C227.858 259.013 228.045 258.747 228.205 258.4L228.725 257.6L229.405 256.6C230.152 255.56 231.072 254.16 232.165 252.4C233.258 250.613 235.032 247.56 237.485 243.24C237.992 242.493 238.405 241.84 238.725 241.28C239.152 240.587 239.565 239.933 239.965 239.32C240.365 238.707 240.672 238.32 240.885 238.16C241.152 237.947 241.485 237.84 241.885 237.84C242.285 237.867 242.698 238.013 243.125 238.28C243.578 238.547 243.952 238.92 244.245 239.4C244.565 239.88 244.725 240.4 244.725 240.96C244.725 241.6 244.525 242.773 244.125 244.48C243.752 246.187 243.312 247.84 242.805 249.44C242.698 250 242.365 251.32 241.805 253.4C241.378 254.947 241.058 256.173 240.845 257.08C240.658 257.987 240.565 258.72 240.565 259.28V259.6C240.165 260.32 239.965 261.76 239.965 263.92C239.858 264.8 239.658 265.48 239.365 265.96C239.072 266.467 238.832 266.72 238.645 266.72L238.525 266.68C238.392 266.68 238.258 266.733 238.125 266.84C238.018 266.973 237.858 267.04 237.645 267.04C236.978 267.04 236.538 266.8 236.325 266.32C236.138 265.84 236.045 265.187 236.045 264.36C236.045 263.88 236.058 263.48 236.085 263.16C236.165 262.467 237.018 258.853 238.645 252.32C239.925 247.2 240.565 244.52 240.565 244.28L240.005 245.24C239.472 246.253 238.805 247.44 238.005 248.8L235.205 254.04C234.858 254.52 234.565 254.987 234.325 255.44C234.112 255.893 233.992 256.16 233.965 256.24C233.645 256.88 233.005 257.8 232.045 259C231.725 259.4 231.538 259.653 231.485 259.76C231.352 260.053 230.925 260.573 230.205 261.32C229.485 262.04 228.725 262.707 227.925 263.32C227.125 263.907 226.458 264.2 225.925 264.2C225.205 264.2 224.552 263.853 223.965 263.16C223.405 262.467 223.125 261.627 223.125 260.64C223.125 259.92 223.258 258.72 223.525 257.04C223.952 255.2 224.405 253.333 224.885 251.44C225.365 249.547 225.698 248.307 225.885 247.72C225.965 247.48 226.005 247.213 226.005 246.92C226.005 246.733 225.978 246.613 225.925 246.56C225.898 246.56 225.858 246.587 225.805 246.64C225.778 246.693 225.738 246.76 225.685 246.84C225.285 247.48 224.658 248.6 223.805 250.2C222.952 251.8 222.032 253.68 221.045 255.84C217.232 262.853 215.045 266.68 214.485 267.32ZM247.826 264.44C247.559 264.493 247.319 264.52 247.106 264.52C246.759 264.52 246.439 264.493 246.146 264.44C245.852 264.36 245.706 264.267 245.706 264.16C245.706 264.08 245.692 264.027 245.666 264C245.639 263.973 245.586 263.96 245.506 263.96C245.426 263.88 245.239 263.747 244.946 263.56C244.679 263.347 244.452 263.2 244.266 263.12C243.946 262.667 243.786 262.173 243.786 261.64C243.786 261.133 243.946 260.32 244.266 259.2C244.292 258.16 244.666 257 245.386 255.72C246.132 254.413 247.026 253.213 248.066 252.12C249.106 251 250.039 250.2 250.866 249.72C251.266 249.32 251.826 249.12 252.546 249.12C253.106 249.12 253.599 249.24 254.026 249.48C254.372 249.693 254.799 250.147 255.306 250.84C255.839 251.533 256.239 252.16 256.506 252.72C256.559 252.907 256.626 253.16 256.706 253.48C256.812 253.8 256.866 254.187 256.866 254.64L256.786 255.76C256.466 256.853 256.306 257.84 256.306 258.72C256.252 259.093 256.279 259.4 256.386 259.64C256.492 259.853 256.639 259.96 256.826 259.96C256.959 259.96 257.106 259.92 257.266 259.84C257.426 259.76 257.612 259.72 257.826 259.72C258.172 259.72 258.466 259.827 258.706 260.04C258.946 260.253 259.066 260.52 259.066 260.84C259.066 261.107 258.999 261.36 258.866 261.6C258.626 262.133 258.172 262.613 257.506 263.04C256.866 263.467 256.266 263.68 255.706 263.68C255.252 263.68 254.812 263.44 254.386 262.96C253.986 262.48 253.666 261.853 253.426 261.08L253.186 260.16L251.746 261.48L250.826 262.4C250.399 262.827 250.159 263.08 250.106 263.16C249.972 263.373 249.732 263.573 249.386 263.76C249.066 263.947 248.546 264.173 247.826 264.44ZM248.906 260.6C249.386 260.333 249.786 260 250.106 259.6C250.452 259.2 250.879 258.64 251.386 257.92C251.492 257.76 251.599 257.6 251.706 257.44C251.812 257.253 251.946 257.067 252.106 256.88C252.559 256.267 252.879 255.773 253.066 255.4C253.279 255.027 253.439 254.627 253.546 254.2C253.439 253.853 253.279 253.533 253.066 253.24C252.879 252.92 252.706 252.747 252.546 252.72C251.799 252.72 250.786 253.6 249.506 255.36C249.372 255.547 249.159 255.88 248.866 256.36C248.599 256.84 248.426 257.16 248.346 257.32C248.212 257.507 248.026 257.96 247.786 258.68C247.572 259.373 247.466 259.827 247.466 260.04C247.466 260.627 247.639 260.92 247.986 260.92C248.252 260.92 248.559 260.813 248.906 260.6ZM275.632 255.64C275.632 256.067 275.419 257.16 274.992 258.92C274.939 259.16 274.819 259.68 274.632 260.48C274.472 261.253 274.379 261.84 274.352 262.24C274.352 262.533 274.405 262.84 274.512 263.16C274.645 263.453 274.712 263.627 274.712 263.68C274.712 263.947 274.592 264.213 274.352 264.48C274.112 264.72 273.805 264.84 273.432 264.84C272.765 264.84 272.192 264.56 271.712 264C271.232 263.413 270.992 262.653 270.992 261.72C270.992 260.92 271.285 259.427 271.872 257.24C271.925 256.947 271.965 256.733 271.992 256.6C272.045 256.44 272.072 256.307 272.072 256.2C272.072 256.067 272.032 256 271.952 256C271.765 256 271.499 256.133 271.152 256.4C270.805 256.64 270.432 256.92 270.032 257.24L269.032 258.08C268.605 258.347 267.712 259.08 266.352 260.28C266.165 260.413 265.712 260.787 264.992 261.4C264.299 261.987 263.899 262.28 263.792 262.28C263.685 262.28 263.445 262.2 263.072 262.04C262.725 261.853 262.392 261.627 262.072 261.36C261.779 261.093 261.632 260.787 261.632 260.44C261.632 260.04 261.872 259.12 262.352 257.68C262.832 256.24 263.405 254.827 264.072 253.44C264.152 253.227 264.245 252.827 264.352 252.24C264.459 251.28 264.632 250.68 264.872 250.44C265.032 250.173 265.259 250.04 265.552 250.04C266.085 250.04 266.579 250.307 267.032 250.84C267.512 251.373 267.752 251.96 267.752 252.6C267.752 253.053 267.619 253.653 267.352 254.4C267.112 255.12 266.939 255.547 266.832 255.68C266.912 255.627 267.072 255.493 267.312 255.28C267.579 255.04 267.925 254.787 268.352 254.52C269.259 253.827 269.939 253.36 270.392 253.12C270.845 252.853 271.165 252.653 271.352 252.52C271.459 252.44 271.539 252.387 271.592 252.36C271.672 252.307 271.725 252.28 271.752 252.28C271.832 252.253 271.979 252.2 272.192 252.12C272.432 252.013 272.619 251.96 272.752 251.96C273.152 251.96 273.565 252.107 273.992 252.4C274.445 252.667 274.672 252.947 274.672 253.24C274.672 253.32 274.765 253.467 274.952 253.68C275.139 253.867 275.299 254.107 275.432 254.4C275.565 254.667 275.632 255.08 275.632 255.64ZM281.391 264.28C280.938 264.387 280.391 264.147 279.751 263.56C279.111 262.973 278.738 262.427 278.631 261.92C278.578 261.653 278.551 261.427 278.551 261.24C278.551 260.2 278.885 258.947 279.551 257.48C280.218 255.987 281.111 254.587 282.231 253.28C283.378 251.973 284.631 251.027 285.991 250.44C286.551 250.147 286.911 250 287.071 250C287.231 250 287.591 250.147 288.151 250.44C288.685 250.573 289.111 250.72 289.431 250.88C289.751 251.04 290.045 251.293 290.311 251.64C290.658 252.333 290.911 253.187 291.071 254.2C291.231 254.76 291.311 255.16 291.311 255.4C291.311 255.613 291.231 255.8 291.071 255.96C291.045 255.987 290.991 256.04 290.911 256.12C290.858 256.2 290.831 256.267 290.831 256.32C290.831 256.347 290.858 256.36 290.911 256.36C290.911 256.387 290.898 256.453 290.871 256.56C290.845 256.64 290.791 256.76 290.711 256.92C290.391 257.933 290.231 258.72 290.231 259.28C290.231 259.467 290.258 259.693 290.311 259.96C290.578 260.653 290.911 261 291.311 261C291.685 261 292.111 260.76 292.591 260.28C292.991 260.013 293.391 259.88 293.791 259.88C294.031 259.88 294.151 259.947 294.151 260.08C294.178 260.107 294.231 260.147 294.311 260.2C294.391 260.253 294.471 260.28 294.551 260.28C294.658 260.28 294.711 260.4 294.711 260.64C294.711 260.853 294.658 261.133 294.551 261.48C294.471 261.827 294.365 262.107 294.231 262.32C294.045 262.507 293.898 262.667 293.791 262.8C293.685 262.933 293.631 263.04 293.631 263.12L293.031 263.68C292.525 263.973 291.925 264.12 291.231 264.12C290.511 264.12 289.938 263.973 289.511 263.68C289.085 263.387 288.685 263.027 288.311 262.6C287.938 262.147 287.698 261.747 287.591 261.4L287.391 261L286.231 261.76L285.231 262.8C285.018 263.067 284.831 263.2 284.671 263.2H284.271C284.271 263.387 283.898 263.613 283.151 263.88C282.405 264.147 281.818 264.28 281.391 264.28ZM282.231 260.92C282.525 260.92 283.125 260.587 284.031 259.92C284.965 259.227 285.591 258.68 285.911 258.28C286.018 258.147 286.151 257.96 286.311 257.72C286.498 257.453 286.658 257.253 286.791 257.12C287.218 256.613 287.525 256.213 287.711 255.92C287.925 255.6 288.031 255.293 288.031 255C288.031 254.787 287.938 254.493 287.751 254.12C287.645 253.8 287.485 253.64 287.271 253.64C287.165 253.64 286.858 253.733 286.351 253.92C285.845 254.213 285.245 254.813 284.551 255.72C283.885 256.627 283.298 257.547 282.791 258.48C282.285 259.413 282.031 260.093 282.031 260.52C282.031 260.6 282.058 260.68 282.111 260.76C282.165 260.84 282.205 260.893 282.231 260.92ZM300.109 273.12C299.176 273.12 298.242 272.893 297.309 272.44C296.376 272.013 295.616 271.453 295.029 270.76C294.442 270.067 294.149 269.36 294.149 268.64C294.149 268.427 294.256 268.267 294.469 268.16C294.682 268.053 294.896 268 295.109 268C295.456 268 295.762 268.04 296.029 268.12C296.322 268.2 296.469 268.293 296.469 268.4C296.922 268.827 297.362 269.147 297.789 269.36C298.242 269.6 298.629 269.72 298.949 269.72C299.829 269.72 300.522 268.653 301.029 266.52L301.149 266C301.949 262.48 302.469 260.36 302.709 259.64C302.629 259.64 302.482 259.693 302.269 259.8L301.309 260.28C300.322 260.787 299.549 261.04 298.989 261.04L298.509 261C298.216 261 297.856 260.92 297.429 260.76C297.029 260.573 296.682 260.347 296.389 260.08C296.069 259.787 295.856 259.453 295.749 259.08C295.669 258.68 295.629 258.2 295.629 257.64C295.629 257.16 295.856 256.4 296.309 255.36C296.762 254.32 297.376 253.36 298.149 252.48C298.949 251.707 300.056 250.96 301.469 250.24C302.882 249.493 304.002 249.12 304.829 249.12C305.149 249.12 305.416 249.2 305.629 249.36C306.136 249.467 306.642 249.773 307.149 250.28C307.656 250.76 308.082 251.373 308.429 252.12C308.776 252.867 308.949 253.653 308.949 254.48C308.949 254.933 308.842 255.24 308.629 255.4C308.602 255.747 308.536 255.973 308.429 256.08C308.322 256.16 308.149 256.227 307.909 256.28C307.642 256.307 307.389 256.413 307.149 256.6C306.936 256.787 306.762 257.187 306.629 257.8L306.429 258.6C306.402 258.653 306.336 258.76 306.229 258.92C306.149 259.08 306.056 259.307 305.949 259.6C305.869 259.867 305.829 260.133 305.829 260.4L305.669 260.84C305.456 261.533 305.349 261.907 305.349 261.96L305.189 262.76C304.416 266.627 303.616 269.32 302.789 270.84C301.962 272.36 301.069 273.12 300.109 273.12ZM299.949 258.16C300.349 258.16 300.936 257.947 301.709 257.52C302.482 257.093 303.202 256.547 303.869 255.88C304.562 255.187 305.016 254.453 305.229 253.68C305.336 253.307 305.389 253.08 305.389 253C305.389 252.68 305.136 252.507 304.629 252.48H304.389C303.642 252.48 302.602 252.907 301.269 253.76C300.842 254.32 300.509 254.653 300.269 254.76C300.056 254.867 299.962 254.92 299.989 254.92C299.882 255.133 299.749 255.347 299.589 255.56C299.456 255.773 299.349 255.933 299.269 256.04C298.869 256.493 298.669 256.933 298.669 257.36C298.669 257.653 298.776 257.853 298.989 257.96C299.202 258.04 299.522 258.107 299.949 258.16ZM315.279 265C313.759 265 312.533 264.573 311.599 263.72C310.666 262.867 310.199 261.653 310.199 260.08C310.199 259.467 310.239 258.787 310.319 258.04C310.373 257.4 310.626 256.52 311.079 255.4C311.559 254.28 312.199 253.187 312.999 252.12C313.826 251.053 314.786 250.267 315.879 249.76C316.386 249.52 316.813 249.36 317.159 249.28C317.506 249.173 317.906 249.12 318.359 249.12C319.453 249.12 320.333 249.32 320.999 249.72C321.693 250.12 322.173 250.573 322.439 251.08C322.733 251.587 322.879 252.027 322.879 252.4V252.6V252.72C322.879 253.04 322.693 253.627 322.319 254.48C321.946 255.333 321.346 256.133 320.519 256.88C319.719 257.627 318.679 258.04 317.399 258.12C316.759 258.12 316.133 258.067 315.519 257.96C314.933 257.827 314.559 257.76 314.399 257.76C313.999 257.76 313.746 257.907 313.639 258.2C313.533 258.493 313.479 258.987 313.479 259.68C313.559 260.427 313.759 260.947 314.079 261.24C314.426 261.533 314.919 261.68 315.559 261.68C315.879 261.68 316.253 261.587 316.679 261.4C317.106 261.187 317.613 260.853 318.199 260.4C318.519 260.133 318.773 259.947 318.959 259.84C319.146 259.733 319.373 259.68 319.639 259.68C319.879 259.68 320.159 259.84 320.479 260.16C320.799 260.48 320.973 260.787 320.999 261.08C320.946 261.4 320.653 261.88 320.119 262.52C319.586 263.16 318.893 263.733 318.039 264.24C317.186 264.747 316.266 265 315.279 265ZM316.679 255.36C317.186 255.36 317.533 255.307 317.719 255.2C317.986 255.067 318.386 254.733 318.919 254.2C319.479 253.64 319.773 253.253 319.799 253.04C319.799 252.773 319.679 252.56 319.439 252.4C319.226 252.213 318.919 252.093 318.519 252.04H318.079C317.733 252.04 317.226 252.333 316.559 252.92C315.919 253.48 315.359 254.133 314.879 254.88C314.906 255.013 315.106 255.133 315.479 255.24C315.853 255.32 316.253 255.36 316.679 255.36ZM324.479 263.92C324.105 263.627 323.812 263.347 323.599 263.08C323.385 262.813 323.319 262.44 323.399 261.96C323.479 261.053 323.679 260 323.999 258.8L324.199 258C324.279 257.28 324.692 255.867 325.439 253.76C326.212 251.627 326.852 250.187 327.359 249.44C327.625 249.173 328.079 249.04 328.719 249.04C329.252 249.04 329.625 249.147 329.839 249.36C330.052 249.52 330.159 249.787 330.159 250.16C330.159 250.773 329.772 251.853 328.999 253.4L328.599 254.24C328.412 254.587 328.252 254.907 328.119 255.2C328.012 255.493 328.025 255.627 328.159 255.6C328.452 255.093 329.159 254.4 330.279 253.52C331.425 252.64 332.212 252.093 332.639 251.88C332.825 251.773 333.065 251.667 333.359 251.56C333.652 251.453 333.852 251.373 333.959 251.32C334.439 251.08 334.985 250.96 335.599 250.96C336.025 250.96 336.385 251.027 336.679 251.16C336.999 251.267 337.212 251.44 337.319 251.68C337.345 251.867 337.412 252.013 337.519 252.12C337.652 252.227 337.745 252.293 337.799 252.32C337.879 252.32 337.932 252.36 337.959 252.44C337.985 252.493 337.999 252.533 337.999 252.56C337.999 252.773 337.812 253.053 337.439 253.4C337.065 253.72 336.679 253.893 336.279 253.92C335.985 253.947 335.679 254.013 335.359 254.12C335.039 254.227 334.719 254.36 334.399 254.52L333.359 255.12C332.452 255.573 331.679 256.027 331.039 256.48C330.425 256.907 329.799 257.467 329.159 258.16C329.025 258.293 328.825 258.48 328.559 258.72C328.319 258.96 328.105 259.24 327.919 259.56C327.732 259.747 327.532 260.24 327.319 261.04C327.132 261.813 327.039 262.293 327.039 262.48C327.012 262.56 326.959 262.72 326.879 262.96C326.799 263.2 326.679 263.413 326.519 263.6C326.279 263.893 326.079 264.107 325.919 264.24C325.759 264.373 325.585 264.44 325.399 264.44C325.132 264.44 324.825 264.267 324.479 263.92ZM340.613 262.92C340.053 263.107 339.626 263.2 339.333 263.2C338.88 263.2 338.426 263.027 337.973 262.68C337.573 262.28 337.373 261.88 337.373 261.48C337.373 260.813 337.866 260.133 338.853 259.44C339.386 259.093 339.8 258.92 340.093 258.92C340.306 258.92 340.666 259.027 341.173 259.24C341.973 259.773 342.373 260.32 342.373 260.88C342.373 261.627 341.786 262.307 340.613 262.92Z" fill="black" fill-opacity="0.51"/>
<defs>
<filter id="filter0_ddddii" x="0.279785" y="0.258057" width="421" height="381" filterUnits="userSpaceOnUse" color-interpolation-filters="sRGB">
<feFlood flood-opacity="0" result="BackgroundImageFix"/>
<feColorMatrix in="SourceAlpha" type="matrix" values="0 0 0 0 0 0 0 0 0 0 0 0 0 0 0 0 0 0 127 0"/>
<feOffset dx="17" dy="17"/>
<feGaussianBlur stdDeviation="21.5"/>
<feColorMatrix type="matrix" values="0 0 0 0 0.819608 0 0 0 0 0.819608 0 0 0 0 0.819608 0 0 0 0.9 0"/>
<feBlend mode="normal" in2="BackgroundImageFix" result="effect1_dropShadow"/>
<feColorMatrix in="SourceAlpha" type="matrix" values="0 0 0 0 0 0 0 0 0 0 0 0 0 0 0 0 0 0 127 0"/>
<feOffset dx="-17" dy="-17"/>
<feGaussianBlur stdDeviation="17"/>
<feColorMatrix type="matrix" values="0 0 0 0 1 0 0 0 0 1 0 0 0 0 1 0 0 0 0.9 0"/>
<feBlend mode="normal" in2="effect1_dropShadow" result="effect2_dropShadow"/>
<feColorMatrix in="SourceAlpha" type="matrix" values="0 0 0 0 0 0 0 0 0 0 0 0 0 0 0 0 0 0 127 0"/>
<feOffset dx="17" dy="-17"/>
<feGaussianBlur stdDeviation="17"/>
<feColorMatrix type="matrix" values="0 0 0 0 0.819608 0 0 0 0 0.819608 0 0 0 0 0.819608 0 0 0 0.2 0"/>
<feBlend mode="normal" in2="effect2_dropShadow" result="effect3_dropShadow"/>
<feColorMatrix in="SourceAlpha" type="matrix" values="0 0 0 0 0 0 0 0 0 0 0 0 0 0 0 0 0 0 127 0"/>
<feOffset dx="-17" dy="17"/>
<feGaussianBlur stdDeviation="17"/>
<feColorMatrix type="matrix" values="0 0 0 0 0.819608 0 0 0 0 0.819608 0 0 0 0 0.819608 0 0 0 0.2 0"/>
<feBlend mode="normal" in2="effect3_dropShadow" result="effect4_dropShadow"/>
<feBlend mode="normal" in="SourceGraphic" in2="effect4_dropShadow" result="shape"/>
<feColorMatrix in="SourceAlpha" type="matrix" values="0 0 0 0 0 0 0 0 0 0 0 0 0 0 0 0 0 0 127 0" result="hardAlpha"/>
<feOffset dx="-1" dy="-1"/>
<feGaussianBlur stdDeviation="1"/>
<feComposite in2="hardAlpha" operator="arithmetic" k2="-1" k3="1"/>
<feColorMatrix type="matrix" values="0 0 0 0 0.819608 0 0 0 0 0.819608 0 0 0 0 0.819608 0 0 0 0.5 0"/>
<feBlend mode="normal" in2="shape" result="effect5_innerShadow"/>
<feColorMatrix in="SourceAlpha" type="matrix" values="0 0 0 0 0 0 0 0 0 0 0 0 0 0 0 0 0 0 127 0" result="hardAlpha"/>
<feOffset dx="1" dy="1"/>
<feGaussianBlur stdDeviation="1"/>
<feComposite in2="hardAlpha" operator="arithmetic" k2="-1" k3="1"/>
<feColorMatrix type="matrix" values="0 0 0 0 1 0 0 0 0 1 0 0 0 0 1 0 0 0 0.3 0"/>
<feBlend mode="normal" in2="effect5_innerShadow" result="effect6_innerShadow"/>
</filter>
<linearGradient id="paint0_linear" x1="59.6212" y1="50.0858" x2="390.598" y2="339.338" gradientUnits="userSpaceOnUse">
<stop stop-color="#F25858" stop-opacity="0.85"/>
<stop offset="0.916667" stop-color="#F25858"/>
<stop offset="1" stop-color="#F25858" stop-opacity="0"/>
</linearGradient>
</defs>
</svg>
