<svg width="1440" height="1024" viewBox="0 0 1440 1024" fill="none" xmlns="http://www.w3.org/2000/svg">
<path d="M145 0C116.066 128.613 85.757 161.52 0 132V0H145Z" fill="#608AF8" fill-opacity="0.83"/>
<path d="M1214 -8.45205C1214 -8.45205 1281.77 173.59 1440 213V-23L1214 -8.45205Z" fill="#608AF8" fill-opacity="0.83"/>
<path d="M1257 -8.45205C1257 -8.45205 1324.77 173.59 1483 213V-23L1257 -8.45205Z" fill="#608AF8" fill-opacity="0.83"/>
<path d="M1441.24 884C1441.24 884 1294.24 897 1333.74 1029C1373.24 1161 1441.24 1161 1441.24 1161V884Z" fill="#608AF8" fill-opacity="0.83"/>
<path d="M-130 1161C-130 1161 -130 967.057 57.8971 923.42C245.794 879.783 162.593 984.512 329.689 1029.12C496.786 1073.73 269.368 1161 269.368 1161H-130Z" fill="#608AF8" fill-opacity="0.83"/>
<path d="M-76 1161C-76 1161 -76 967.057 111.897 923.42C299.794 879.783 216.593 984.512 383.689 1029.12C550.786 1073.73 323.368 1161 323.368 1161H-76Z" fill="#608AF8" fill-opacity="0.83"/>
</svg>
